<svg xmlns="http://www.w3.org/2000/svg" viewBox="126.1 38.3 473.7 484.1"><style><![CDATA[.M{fill:#59351b}.N{font-family:Corbel-Bold}.O{font-size:17.564px}.P{font-family:Corbel}.Q{font-size:16.484px}.R{fill:#bfa931}.S{fill:#0ba583}]]></style><path d="M220.5 145.7c16.8-10.6 18.9-17.3 28.7-33.3 27.2-30.4 38.3-3.9 76-24.9 8.1-4.6 17.6-10.4 26-14.1 6-2.6 12.6-4.7 19.1-2.6.6.1 1.2.5 1.8.7a12.2 12.2 0 0 1 1.7.7c1.2.6 2.5 1.2 3.8 1.7l7.4 3.3 15.8 8.1c25.2 10.9 47.5 4.8 63.6 13.1 16.8 11.2 27.4 30.5 43.8 44.4 7.1 5.9 14.8 11.4 21.8 17.4 2.1 1.9 3.9 3.7 5.9 5.5 1.9 1.6 3.7 2.5 5.5 4 4 4 6.6 9.5 6.9 15.2.1 1.4.1 2.7.3 4.2.2 1.7.6 3.5.9 5.3.4 3.4.6 6.8.6 10.2.4 38.1 1.7 29 15.2 61.8 12.8 37.3-14.4 46.5-17.1 85.8l-.9 13.8c0 3.9 1.6 9 .6 12.7-.9 3.2-3.2 7.3-5.2 10-1.9 2.4-5.7 5.2-8.1 7.1-2 1.4-3.7 2.6-5.5 4.2-1.5 1.3-2.8 2.5-4.4 3.7-3.1 2.3-6.3 4.3-9.4 6.7-8.5 6.4-13.8 11-20.4 19.2-1.7 2-3.2 4-4.8 6-2.9 3.7-5.7 7.6-8.6 11.3-21.5 28.5-45.8 13.2-78.1 28-3.5 1.7-7 3.5-10.5 5.3-2.3 1.2-4.6 1.2-7.1 2.1-1.9.7-3.3 1.4-5.3 2-4.2 1.4-5.8 2.8-9.5 4.7-7 2.8-12.2 1.9-18.9-1.1-2.2-1-4.3-1.9-6.6-2.8l-.3-.1c-2.5-.9-4.3-1.5-6.8-2.7-4.1-1.9-8.1-4-12.2-5.8-10.2-4.6-19.3-6.8-30.4-8-38.4-4.2-37.3-5-59.2-35.4-6.8-8.4-13-13.8-22-19.8-1.9-1.3-3.8-3.7-5.6-5.3a27.89 27.89 0 0 1-2.8-3.2c-1.4-1.6-2.7-2.4-4.7-3.2-2.7-1-4.2-1.7-6.3-3.6-2.8-2.5-4.4-3.3-7.5-5.4-4.5-3-6.9-5.8-8.9-10.9-1.4-3.6-.4-6.9-.5-10.6-.1-4-.6-8-.9-12-.2-4.6-.5-9.2-1-13.8-.9-7.3-2.4-13.8-5.5-20.4-1.9-3.7-3.9-7-5.9-10.6-1.2-2.1-1.4-4.5-2.6-6.8-1.2-2.4-2.1-3.2-3-6-.1-.4-.2-.6-.4-1-.9-2.4-1.4-4.7-2.4-7.1-.1-.4-.3-.7-.4-1.1-1.4-3.5-.5-4.4-3.2-8.1-3.7-4.9-.2-7.6 2.2-11.9 1.2-2.2 1.9-4.7 2.4-7.2.1-1.1.4-1.8.7-2.9 1.1-2.4 1.4-4.1 2.8-6.4l2.7-4.2c7.9-13.3 11.7-24 12.5-39.5.3-7.1.3-14.8 1.1-21.8.3-2.2.4-4.1.5-6.4.1-5.1 3-10.5 6.8-13.8 1.7-1.3 3.4-2.3 5-3.6 4.2-3.7 8.6-7 13.3-10.2l17.5-10.6z" fill="#f8d8a2"/><g class="M"><path d="M288.2 261.5c.4-.1.5-.2.7-.4l.1-.2c.1-.1.2-.1.3-.1.2-.1.5-.3.6-.8 0-.1.1-.1.1-.1l.4-.6.5-1.2.1-.1c0-.1.1-.4.1-.5 0-.2.1-.3.1-.5v-.1c0-.3.3-.6.2-.8 0-.1 0-.1.1-.1h.1l.1-.1c-.1-.5.1-.8 0-1.2v-.1l.1-.7v-.9c-.1-.3 0-.6-.1-1v-.4c0-.1.1-.2-.1-.4v-.5c-.2-.2-.2-.4-.4-.6v-.1c0-.3 0-.4-.1-.5v-.1c-.1-.3-.3-.5-.3-.8v-.1l-.1-.2c0-.4-.1-.6-.4-.9-.1-.1-.2-.3-.3-.4 0-.1-.1-.1-.1-.2l-.5-.4c-.4-.3-.6-.5-.9-.6-.3-.5-.8-.9-1.1-1.2 0-.2-.1-.2-.2-.4 0-.1 0-.1-.1-.2-.2-.1-.2-.2-.4-.2-.2-.2-.2-.4-.2-.4.2-.3.2-.6.4-1 .2-.2.2-.6.5-.7v-.1l.2-.9.1-.4c.1-.4.1-.5.1-.3l.5-.9c0-.4.1-.4.1-.3-.1-.1-.1-.3 0-.4 0-.2.1-.4.2-.6v-.1c-.1-.1.1-.4.1-.5s.1-.2.1-.2c.1-.4.1-.7.4-1.2v-.4c0-.2-.1-.5-.1-.6v-.8c0-.1 0-.1.1-.1 0-.3-.1-.4-.2-.6v-.3c0-.1 0-.1-.1-.2 0-.1 0-.1-.1-.1.2-.1 0-.3 0-.4 0-.2.1-.5.1-.8 0-.1-.1-.1-.1-.3l-.2-.5c-.1-.2-.2-.5-.2-.9v-.1c-.1-.1-.1-.4-.3-.6-.3-.3-.4-.6-.6-.9-.2-.4-.4-.6-.9-.9l-.2-.1c0-.1-.2-.3-.4-.2-.1-.3-.1-.5-.4-.5l-.1-.3-.2-.3c-.1-.1-.1-.1-.2-.1-.1-.3-.5-.4-.7-.6h-.2s-.1 0-.1-.1c-.4-.2-.6-.4-1-.4h-.1c-.1-.1-.2-.1-.5-.1l-.5.1c-.1 0-.2-.1-.4 0h-.5c-.1-.1-.2-.1-.2.2 0 .1-.1.1-.1.1-.4 0-.8-.1-.8-.4-.1-.2-.4-.2-.6-.2-.4 0-.6.1-.9-.1 0-.1-.1-.1-.1 0-.1.1-.3 0-.4 0-.4 0-.6.1-.9.1h-.6c-.4-.2-.6 0-.9 0h-.7c-.3-.2-.6-.2-1 0-.4 0-.6.1-.8.1-.4-.1-.8-.1-1.2-.1-.2 0-.5-.1-.9-.1-.1 0-.1-.1-.4 0-.4 0-.7 0-1.2.1h-.2c-.4-.1-.8-.2-1.2-.2s-.9.1-1.4 0c-.4 0-.5 0-.6-.1-.1 0-.2-.1-.3-.1h-.4c-.1-.1-.4-.1-.6.1h-.4c-.3 0-.4-.1-.9 0-.4 0-.6-.1-.9-.1-.1 0-.2-.1-.3-.2-.2-.2-.5-.4-1-.4h-.6c-.4 0-.6.1-.9.1l-.5.1-1.2.1h-.2c-.3-.1-.6-.1-.9 0-.1 0-.1.1-.1.3v1c0 .2 0 .3-.1.4s-.1.4 0 .6.1.6.1.8v.6c.1.5.1.9-.1 1.2v.1c-.1.1 0 .3.1.8.1.1.1.1.1.3-.1.4-.1.6-.1 1.1 0 .1.1.3 0 .4.1.2.1.4.1.6v.4c0 .3-.1.6-.1.9 0 .1 0 .1.1.1 0 .1 0 .2-.1.4-.1.3-.1.6 0 1 .1.1.1.1.1.4.1.1 0 .2 0 .4.1.4 0 .6-.1.9-.2.1-.3.4-.1.6s.3.4.3.7c0 .1 0 .2.1.3 0 .2 0 .2-.1.3l-.3.2c-.1.1-.2.3-.1.4v.2c0 .2.1.3.1.3.2.2.4.4.3.7v.1l-.1.8c-.2.1-.2.3 0 .6.1.3.1.4 0 .6-.1 0-.1.1 0 .3.1.1.1.1.1.3 0 .4-.1.9-.1 1.2v.4a1.1 1.1 0 0 1 0 .8c-.2.3-.3.5-.1.7.1 0 0 .2-.1.4-.1.1-.1.4-.1.7.1.1.1.1.1.3l-.1.5c-.1.1-.1.1-.1.2v.1c-.2.2-.1.4-.1.6.1.2.1.3 0 .4 0 .1-.1.4.1.6.1.1.1.4 0 .6-.1.3-.1.6.1.9.1.1 0 .1 0 .4v.1l-.1.1v.4c-.1.3-.1.6 0 .7 0 .1.1.2.1.5v.9c0 .1-.1.2-.1.4.1.4.1.8 0 1.2v.4c.1.1.1.3 0 .4-.1.2 0 .2-.2.4-.1.3-.1.5-.1.6.2.2.2.4.3.6 0 .3.1.5 0 .7v.2c-.2.4-.2.9-.3 1.3v.4c0 .1.1.2 0 .4 0 .4.1.4-.4.9v.1c.1.1 0 .4-.1.6-.1.4-.1.6.1 1.1.2.3.4.4.7.4.1 0 .2.1.4.1.1 0 .3-.1.5-.1h.4c.1 0 .4 0 .4.1.1.1.2.2.4.1h.3c.1 0 .2 0 .3-.1a1.08 1.08 0 0 1 1.1 0l.4.1c.1.1.3.1.5.1.1 0 .1 0 .1.1.1.1.1-.1.3-.1l.1-.1c.1 0 .1 0 .1-.1h.4c.1 0 .1 0 .1-.1.2 0 .4-.1.6 0 .4.1.9-.1 1.4-.1.3 0 .4.1.5.2h.1c.3-.3.4-.3.6-.2s.5.2.7.2c.3 0 .5 0 .7-.1.1-.1.2-.1.5-.1.5 0 1.1-.1 1.7 0h.3c.4-.1.6 0 .9 0 .4 0 .7.1 1 0h.6c.1.1.2.1.4.1.4-.1.7-.1 1-.1.4 0 .8 0 1.2-.1h.1c.4 0 .8.1 1.1.1s.4 0 .5-.1c.2 0 .4-.1.6-.1.3 0 .6 0 1-.1h.2c.1.1.1.1.3.1.3-.1.4-.1.5-.1s.1.1.4.1c.5-.1.9-.1 1.4-.1h.1c.4.2.7.3 1.2.1 0-.1.1-.1.1-.1h.9c.4 0 .6 0 .9-.2.1-.1.1-.1.2-.1.2 0 .3 0 .3-.1.4-.2.6-.3.8-.3.2-.1.5-.2.7-.4.1-.1.1 0 .4-.2.3-.1.6 0 1.1-.3h.1c.1-.1.2-.1.5-.1l.3-.8zm-20.6-9.4c-.1-.3-.1-.4-.1-.4v-.4c0-.1 0-.1-.1-.1.1-.3.1-.6 0-.9s-.1-.6.1-.9c0-.2.1-.4.4-.6s.7-.3 1-.4h.4c.4-.1.8-.1 1.2-.1h.2c.3.1.5.1.9.1.3-.1.6 0 .8 0h.4c.2-.1.5 0 .7 0h2.2c.2 0 .4 0 .5.1s.1.1.2.1.1 0 .1.1c.1.1.1.1.4.2a1.21 1.21 0 0 1 .7.7c0 .1.1.2.3.4.3.2.1.4.3.6v.4c-.1.1-.1.4-.1.6-.1.2.1.5.1.8 0 .1.1.1.1.4.1.1.2.3.2.5l.1.4v.4c-.1.1-.1.4-.1.7.1.1-.1.4-.3.9 0 .1-.1.2-.2.2-.4.3-.7.4-1.2.4h-.1c-.6-.1-.9-.2-1.2-.1-.4.1-.7.1-.9.1-.4-.1-.9 0-1.3-.1-.4 0-.4 0-.5.1h-.9c0-.1-.1-.1-.1-.1-.5 0-.9 0-1.5.1h-.9c-.4 0-.5-.1-.6-.2-.1 0-.1 0-.1-.1-.4.1-.6-.1-.9-.3-.1 0-.1 0-.1-.1-.2-.1-.4-.4-.3-.8 0-.2-.1-.4-.1-.6 0-.1 0-.3.1-.4v-1.2c0-.1 0-.1-.1-.1.1.1.2-.1.3-.4zm.1-20.9c.1 0 .2 0 .3.1h1.2l1-.1h.2c.4.1.9-.1 1.4.1h.1c.4-.2.7 0 1.1 0 .3-.1.6-.1 1 0 .4 0 .6 0 1 .1.5.1 1.1.1 1.5-.3.3-.3.6-.2.8.1.1.4.1.6.1.6 0 .1.1.1.1.4.1.1.2.3.1.4 0 .1.1.4.1.8.1.3.1.6 0 1v.8c0 .3.1.5.1.7 0 .4-.1.5-.1.9v.1c.1.3.2.4.3.7v.1c-.2.2-.3.4-.6.6-.1 0-.4.1-.8.1-.5 0-.8 0-.8.1l-1 .1h-.3c-.1-.1-.2-.1-.4 0s-.3.1-.4 0-.2-.1-.4-.1c-.4.1-.8.1-1.2 0-.1 0-.1.1-.4.1-.5-.1-.9.1-1.5 0-.4-.1-.6 0-1.2-.1-.4-.1-.8-.1-1.2-.2-.3 0-.4-.2-.6-.4-.1-.1-.2-.1-.3-.1-.1-.3-.3-.6-.3-.9 0-.2-.1-.4-.1-.6v-.3c.1-.1 0-.4-.1-.9v-.1c.1-.4.1-.9 0-1.4v-.1c.1-.3-.1-.6-.1-.9s-.1-.7.1-1c0-.3.3-.5.5-.5.2.1.4.1.8.1zm17.2-4.2c.3 0 .5 0 .6-.1l-.1-.2c.2-.1.4.1.6-.1 0 .1-.2.3 0 .3 0 .2-.1.3-.2.4l-.1.3h-.3c-.1 0-.1 0-.1-.1l-.1-.1-.3-.4zm-1.1.4c-.1-.1-.1-.1.1-.2s.3-.2.4-.2.2.1.3.3h-.3l.1.1-.2.2h-.1c-.1-.2-.1-.3-.2-.3l-.1.1zm-1.5-.2c.1-.3.1-.3.5-.1l-.1.1c0 .1.1.1.1.3-.2 0-.4-.1-.4.3l-.1-.1v-.5zm-1.3-1.1c.1-.2.1-.4 0-.6l.1-.1c.2.1.4 0 .5 0-.1.3-.1.6-.6.7zm0-.4c-.1.1-.1.2-.1.2 0 .1-.1.1-.2.3 0 .1-.1.1-.2.1-.4-.2-.4-.4 0-.4l.3-.1.2-.1zm5.3 2.6c-.1-.4-.1-.4-.1-.3.1-.1 0-.2-.1-.4h.2c.2 0 .3 0 .2.1-.3.2 0 .4-.2.6zm-1.3.5c.1 0 .2 0 .3.1.2.1.1 0-.3-.1zm1.2 0l.1.1v.1c-.2 0-.2-.1-.1-.2zm-16-3.7c.1 0 .1 0 .1.1l-.1.1c.1-.2.1-.2 0-.2h0zm17.7 36.6c-.1-.2-.1-.2 0-.2v.2zm-2.3-33c.1-.1.1-.1.2 0h-.2zm.6-.3c0-.1 0-.1 0 0 .1-.1.1-.1.2 0h-.2zm-11.7 19.4l-.1-.1h.1v.1zm-17.2-16.1v-.1.1z"/><path d="M298.8 222.4c-.2.3-.1.5-.2.6v.1c0 .1 0 .1.1.1.2.3.1.4-.1.4-.1 0-.3 0-.4.1 0 .1-.1 0-.1.1-.1.1-.1.2-.1.4.1.1.1.2.1.4 0 .3-.1.6 0 1 0 0-.1.1-.1.4 0 .1.1.2.1.4 0 .4.1.6.1.9.1.2-.2.6 0 .8v.1c-.2.2 0 .4 0 .5.1.1.1.1.1.3v.5c-.1.1-.1.2-.1.5v.6c.1.1.1.2.1.5-.1.1-.1.2-.1.6.1 0 .1 0 .1.1v.5c0 .2.1.3.1.5.1.1.1.1.1.3s-.1.4 0 .6v.1c-.1.1-.1.2-.1.4.1.1 0 .3.1.4v.4c-.1.2-.1.4-.1.6 0 .1.1.2 0 .3v.9c.1.1.1.4 0 .6 0 .2-.1.3 0 .5 0 .1.1.1.1.2v.9c0 .1-.1.3-.1.7v.1c.1.3.1.7.1 1.2-.1.1-.1.2-.1.4-.1.1-.1.1 0 .3 0 .1.1.5.1.6s-.1.3-.1.6c-.1.1-.2.4-.2.6.2.2.1.6.3.8 0 .3.1.4 0 .6h-.1c-.1.2 0 .4.1.8v.7c0 .2-.1.3-.1.4l-.1.1v.1c0 .2.1.4.1.6-.1.1-.1.4.1.4v.2c0 .1.1.1.1.3 0 .1.1.2.1.4s-.1.3-.1.5v.4c0 .1.1.2.1.4v.6c.1.4 0 .8.1 1.2l-.1.1c0 .3-.1.6 0 .9.1.1.1.4.1.9v.6c0 .4 0 .6-.1.7v.5c0 .1.1.3 0 .5v.1l.2.4c0 .1.1.3 0 .6-.2.1 0 .2 0 .4-.2.2 0 .3 0 .4v.4c0 .2 0 .5.1.9v.4s.1.1 0 .1c-.1.1-.1.3-.1.8-.2.3.1.6-.1.9v.1c.2.2.2.6.1 1.2v.3c.1.1.1.2.1.5-.1.1 0 .4.1.4l.4.3h1.5c.4 0 .8-.2 1.2 0 .3-.1.5-.1.6-.1h.1c.4 0 .6-.1.8 0h.1c.1-.1.2-.1.3 0h.1c.3 0 .4 0 .4-.1.4 0 .6.1.9 0h.6c.3 0 .4-.1.6-.1h.7c.3 0 .4-.1.4-.3 0-.4-.1-.6-.1-.9.1-.2 0-.4 0-.6-.1-.3 0-.4 0-.6v-.5c0-.1 0-.1.1-.1v-.1c0-.2.1-.4.1-.6v-1.2c0-.2-.1-.1-.1-.3v-.1l-.1-.1c0-.4.1-.9 0-1.3 0-.1.1 0 .1-.2v-.7c0-.2.1-.4 0-.6v-.6c.1-.2.2-.4.2-.6 0-.1.1-.2 0-.4-.2-.4-.1-.6-.1-.9 0-.4.2-.6 0-.9v-.6c.2-.1 0-.4.2-.6 0-.1.1 0 0-.1 0-.1-.1-.2-.1-.4-.2-.2-.2-.4 0-.4.1-.2.2-.4.4-.6.1 0 .2-.1.3-.1 0-.1.2 0 .4-.2h1.6c.4 0 .9-.1 1.3 0h.1c.3 0 .4-.1.7-.1.1-.1.1-.1.1 0 .3 0 .6.1.8-.1h.6c.1 0 .4.1.6.1a1.1 1.1 0 0 0 .8 0c.1-.1.2-.1.4-.1.3 0 .5 0 .6-.1 0 0 .1.1.2.1h.4c.3-.1.5 0 .7 0h.3c.2-.1.4 0 .8-.1h.1c.1.1.3.1.5 0 0 0 0-.1.1-.1h1c.3 0 .4.1.4.3.1.2.3.4.5.6v.6c-.2.2 0 .6 0 .8v.3c-.1.3-.2.5-.1.6v.7c0 .1-.1.2-.1.3.1.1 0 .4-.1.5v.1c0 .3-.1.5 0 .7v.7c-.1.2-.1.6-.1.8s-.1.4 0 .6v.6c0 .1.1.3.1.4v.3c0 .3.1.4.1.6-.1.3-.1.6 0 .9v.1c-.1.1-.1.1-.1.4 0 .1 0 .3-.1.4v1.2c.1.1.1.1.1.4v.9c.2.3-.1.4.1.9 0 .2.1.2.2.2.4 0 .8 0 1.2.2.3.1.6.2.9.1.1 0 0 .1.2.1.1 0 .1.1.2.1h.8c.5-.2.6-.1.9-.4.1-.1.4-.2.5-.2.1.1.4.1.8.1.1.1.1.1.2.1s.2-.2.3 0c.4 0 .6.1 1 .1s.5 0 .6-.1h.2c.2 0 .6.1 1-.1.1.2.2-.1.4-.2l.1-.1c0-.3.1-.4 0-.7h0c.1-.3-.1-.4.1-.7v-.1c-.1 0-.1-.1-.1-.1-.2-.2-.1-.6 0-.9 0-.1.1-.2 0-.4 0-.2-.1-.1 0-.3.1-.4.1-.6.1-.6.1-.4.1-.7.1-1.2v-.6c-.1-.4-.1-.6-.1-.9s.1-.6 0-.9v-.5c.1-.2 0-.4.2-.6v-.2c-.2-.1-.2-.4-.3-.6-.1-.1-.1-.4-.1-.6.1-.1.1-.1 0-.1v-.4c0-.2.1-.3 0-.6v-.1c.1-.3.1-.5.1-.7 0-.1.1-.4.1-.6v-.9c0-.3 0-.6-.1-.8v-.1c0-.1.1-.2.1-.3v-.1c-.1-.2 0-.4.1-.5 0-.3.1-.5 0-.8-.1-.1-.1-.1-.1-.3v-.7c.1-.2.1-.4 0-.6 0-.1-.1-.1-.1-.3s0-.3-.1-.4v-.5c.1-.1.1-.3-.1-.4.1 0 .1-.1.1-.1 0-.1.1-.3.1-.4v-.2c-.1-.4 0-.8 0-1.2 0-.2.1-.4.1-.7v-.7c.2-.2 0-.3 0-.5h-.1v-1.5c.1-.2.2-.3 0-.5v-1c-.1-.1-.1-.3-.1-.7v-.6c.1-.2 0-.6.1-.9-.1-.5-.1-.7-.1-1.2.1-.1.1-.4 0-.6 0-.1 0-.3-.1-.6 0-.2.1-.4 0-.6v-.2c.1-.3.1-.4.1-.5 0-.4 0-.8.1-1.2v-.1c0-.4-.1-.8-.1-1.2.1-.5.2-1 .2-1.4v-.4c.1-.2 0-.4.2-.6v-.7c0-.2 0-.4-.1-.6v-.1c.1-.2-.1-.3-.1-.4l-.3-.1c-.3-.1-.6-.2-.9-.2-.4 0-.8 0-1.2.1-.1 0-.1 0-.1-.1-.2-.1-.5 0-.6 0-.4.1-.8-.2-1.3-.1h-1.2c-.1.1-.1.1-.4 0h-1.3c-.1-.1-.3-.1-.4-.1-.2 0-.4-.1-.4-.1-.3.1-.4.1-.4.1-.1 0-.4.1-.5 0l-.1-.1c-.4-.1-.9.1-1.3-.1h-1.4c-.4-.1-.6-.1-.7-.1-.3.2-.6.1-.9.1h-.6c-.2 0-.5.1-.6-.1h-.1c-.3.2-.6 0-.8 0-.3-.1-.6-.2-.9-.1l-.1-.1s-.2.1-.5.1c-.2.1-.4.1-.6 0h-2.2c-.2 0-.4-.1-.7 0h-.9c-.4-.1-.8-.1-1.2-.1h-1.1c-.1 0-.4-.1-.6 0h0c-.6-.1-1.2-.1-1.7-.1-.3 0-.6.1-.7 0-.2-.1-.4-.1-.4 0h-.3c-.3 0-.6-.1-1 0h-.6c-.4-.1-.6-.1-.6-.1h-.6l-.1-.1v-.1c0-.1-.1-.2-.1-.1h-.2c-.1-.3-.1-.3-.6-.5v.2c-.5-.2-.6-.2-.5-.6h-.1c-.3-.4-.4-.4-.5-.4zm11.7 9.4c.1.1.2 0 .3 0h1.8c.3 0 .6 0 .9-.1.2 0 .4.1.4.1h.4c.2-.1.5-.1.6 0h.4c.2 0 .4-.2.6 0h.5c.4-.2.6 0 .9 0h.6l.1.1c.1-.1.5 0 1.1.1.1.1.4 0 .6.1.2 0 .4.1.6.1.1.1.2.1.4.1.1 0 .2.1.4.1.2.1.4.3.4.6 0 .2 0 .4-.1.4v.6c.1.4.1.7.1.9v.1c-.2.4-.1.5.1.8.1 0 .1.3.1.6-.1.3-.1.6 0 1 .1.6.2 1.1.1 1.2 0 .2.1.1.1.3-.1.3 0 .6-.2 1 0 .1-.1 0-.1.1-.1.1-.1.2-.2.3 0 0-.1.1-.2.1-.1.1-.3.1-.5.1 0 0-.1 0-.1.1-.4 0-.8-.1-1.2-.1-.4-.1-.6-.1-.9-.1h-.7c-.2-.1-.4-.1-.4 0-.1 0-.2.1-.3.1H316l-.1-.1h-.4c-.2-.1-.4 0-.6.1h-.6c-.2 0-.4-.1-.6-.1l-.1-.1h-.1c-.4.1-.9.2-1.3.1h-.7c-.3.1-.5-.1-.7.1h-.7c-.5.1-.7.1-1.2.1h-.9c-.1 0-.3 0-.4-.1s-.3-.3-.6-.4-.4-.2-.4-.5v-.1h-.1c-.1-.3-.1-.5-.3-.8-.1-.4-.1-.7.1-.9.1-.1.1-.1.1-.4-.1-.1 0-.4 0-.4-.1 0-.1-.1-.1-.3h-.1c-.1 0-.1 0-.1-.1.2-.4 0-.6 0-1.1-.1-.1-.1-.2-.1-.6v-.6c0-.3-.1-.6-.1-.9 0-.1 0-.2-.1-.5v-.2c-.2-.3-.1-.4.1-.4.2-.2.4-.2.6-.5.1-.1.1-.1.3-.2 0-.1.1-.1.1-.1.1.1.1.1.3.1h.7c.1 0 .3.1.4.1h2.2zm14.8 26.5l.4.1.1.1-.1.2h-.2l-.1-.1v-.3zM301 234.6h.2l.1.1-.1.1-.3-.1.1-.1zm.3-4.8h.3l-.1.2h-.2v-.2zm29.5-1.7c0-.2 0-.2.1-.2h.1v.1c-.1 0-.1.1-.2.1zm-24.9 35.4l.1.1-.1.1-.1-.1c.1.1.1 0 .1-.1zm21-3.5h-.1v-.1h.1v.1zm-14.8-11c-.1 0-.1-.1-.1-.3 0 .2 0 .3.1.3zm15 5.7c0 .1 0 .1-.1.1 0-.1 0-.1.1-.1zm-21.7 9v.1h-.1l.1-.1zm24.8 0h0l-.1.1-.1-.1h.2zm-10.7-15h0zm-19.9-18.6c-.1-.1-.1-.1 0 0l-.1-.1.1-.1v.2zm.6 4.3l-.1.1.1-.1zm68.8 21.5c-.1.1-.1.1-.3.2l-.1.1c-.1-.1-.1-.1-.3-.1h-.7c-.1 0-.3-.1-.4-.1h-4.7c0-.1-.2 0-.3 0h-1.7c-.3 0-.6 0-.9.1-.2 0-2.9.1-2.9-.1h-.4c-.3.1-.5.1-.7 0h-.3c-.3 0-.4.2-.6 0h-.5c-.4.2-.6 0-.9 0h-.6v-.1c-.2.1-.5 0-1.1-.1-.2-.1-.4 0-.6-.1-.1 0-.4-.1-.6-.1 0-.1-.1-.1-.4-.1-.1 0-.1-.1-.4-.1-.1-.1-.3-.3-.3-.6 0-.2 0-.4.1-.4v-.6c-.1-.4-.1-.7-.1-.9v-.1c.1-.4.1-.5-.1-.8-.1 0-.1-.3-.1-.6.1-.3.1-.6 0-1-.1-.6-.1-1.1-.1-1.2v-.3c0-.3 0-.6.1-1 0-.1.1 0 .1-.1.1 0 .1 0 .1-.1l-.1-1.1-.4-1.2-.2-1.2-.1-.9.1-1.5v-.9l.2-1.2v-.8l.3-.5c-.1-.1-.1-.2-.1-.3 0-.2-.1-.4 0-.6s0-.6 0-.8v-.3c.1-.3.1-.5.1-.6v-1c0-.1 0-.4.1-.5v-.1c0-.3.1-.5 0-.7v-.7c.1-.2.1-.6.1-.8s.2-.4 0-.6v-.6c0-.1-.1-.3-.1-.4v-.4c0-.2-.1-.4-.1-.6.1-.3.1-.6 0-.9v-.1c.1-.1.1-.1.1-.4 0-.1 0-.3.1-.4v-1.2c-.1-.1-.1-.1-.1-.4v-.9c-.1-.3.1-.4-.1-.9 0-.1 0-.2-.2-.2-.4.1-.7 0-1.2-.2-.3 0-.6-.2-.9-.1 0 0 0-.1-.1-.1s-.2-.1-.3-.1h-.8c-.4.1-.6.1-.9.3-.2.1-.4.2-.6.2-.1-.1-.3-.1-.7-.1-.1-.1-.2-.1-.3-.1s-.1.2-.2 0h-1.7c-.3 0-.6 0-1 .1-.2-.1-.3.1-.4.2l-.1.1c0 .3-.2.4 0 .7v.1c-.2.3.1.4-.1.6 0 .1 0 .1.1.1 0 .1.1.1.1.1.1.2.1.6 0 .9 0 .1-.2.2 0 .4 0 .1.1.1 0 .3-.1.4-.1.6-.1.6-.1.4-.1.7-.1 1.2v.6c.1.4.1.6.1.9s-.1.6 0 .9v.5c-.1.2 0 .4-.1.6v.2c.1.1.1.4.2.6.2.1.2.4.1.6-.1.1-.1.1 0 .1v.4c0 .2-.2.3 0 .6v.1c-.1.3-.1.5-.1.7 0 .1-.1.4-.1.6v1c0 .2 0 .5.1.7v.2s-.1.1-.1.2v.1c.1.2 0 .4-.1.5 0 .3-.1.5 0 .8 0 .1.1.1.1.3v.8c-.1.1-.1.3 0 .6 0 .1.1.1.1.4 0 .1 0 .3.1.3v.3c-.1.1-.1.2.1.4-.1 0-.1.1-.1.1 0 .1-.1.3-.1.4v.2c.1.4 0 .8 0 1.2 0 .2-.1.4-.1.7v.7c-.1.2 0 .3 0 .5h0l.1.1v1.4c-.1.1-.1.3 0 .4v1.1c.1 0 .1.3.1.6v.6c-.1.3 0 .6-.1.9.2.4.1.6.1 1.1-.1.1-.1.4 0 .7 0 0 .1.2.1.6 0 .2-.2.4 0 .6v.2c-.1.3-.1.4-.1.5 0 .4.1.8-.1 1.2v.1c0 .4.1.8.1 1.2-.1.5-.1 1-.1 1.4v.4c-.1.2 0 .4-.2.6v.7c0 .2-.1.4.1.6v.2c-.2.1.1.2.1.4l.2.2c.3.1.6.1.9.1.4 0 .8 0 1.2-.1.1 0 .1 0 .2.1.2.1.4 0 .6 0 .4-.1.8.2 1.2.1h1.2c.1-.1.2-.1.4 0h1.3c.1.1.2.1.4.1h.4c.3 0 .4-.1.4-.1.2 0 .4-.1.6 0v.1h.1c.4 0 .8-.1 1.2 0h1.4c.4.1.7.1.7.1.3-.1.6-.1.9-.1h.6c.3 0 .5 0 .7.1h.1c.2-.1.5 0 .8 0 .2.1.6.2.9.1l.1.1s.1 0 .5-.1h5.3c.2 0 .4.1.7 0h4.7c.4.1.8.1 1.2.1h.7l-.1-1.5v-4.1l.2-.8.1-.8v-1.1l-.6.8zm-29.2 3.8c0 .2 0 .2-.1.2h-.1v-.1s0-.1.2-.1zm3.8-31.7v-.1h.1v.1h-.1zm-.2 5.1c-.1-.1-.1-.1.1-.1.1.1 0 .1-.1.1zm-3.1-9l.1-.1.1.1c-.1 0-.1 0-.1.1l-.1-.1z"/><path d="M376.5 222.4c-.2.3-.1.5-.2.6v.1c0 .1 0 .1.1.1.2.3.1.4-.1.4-.1 0-.3 0-.4.1 0 .1-.1 0-.1.1-.1.1-.1.2-.1.4.1.1.1.2.1.4 0 .3-.1.6 0 1 0 0-.1.1-.1.4 0 .1.1.2.1.4 0 .4.1.6.1.9.1.2-.2.6 0 .8v.1c-.2.2 0 .4 0 .5.1.1.1.1.1.3v.5c-.1.1-.1.2-.1.5v.6c.1.1.1.2.1.5-.1.1-.1.2-.1.6.1 0 .1 0 .1.1v.5c0 .2.1.3.1.5.1.1.1.1.1.3s-.1.4 0 .6v.1c-.1.1-.1.2-.1.4.1.1 0 .3.1.4v.4c-.1.2-.1.4-.1.6 0 .1.1.2 0 .3v.9c.1.1.1.4 0 .6 0 .2-.1.3 0 .5 0 .1.1.1.1.2v.9c0 .1-.1.3-.1.7v.1c.1.3.1.7.1 1.2-.1.1-.1.2-.1.4-.1.1-.1.1 0 .3 0 .1.1.5.1.6s-.1.3-.1.6c-.1.1-.2.4-.2.6.2.2.1.6.3.8 0 .3.1.4 0 .6h-.1c-.1.2 0 .4.1.8v.7c0 .2-.1.3-.1.4l-.1.1v.1c0 .2.1.4.1.6-.1.1-.1.4.1.4v.2c0 .1.1.1.1.3 0 .1.1.2.1.4s-.1.3-.1.5v.4c0 .1.1.2.1.4v.6c.1.4 0 .8.1 1.2l-.1.1c0 .3-.1.6 0 .9.1.1.1.4.1.9v.6c0 .4 0 .6-.1.7v.5c0 .1.1.3 0 .5v.1l.2.4c0 .1.1.3 0 .6-.2.1 0 .2 0 .4-.2.2 0 .3 0 .4v.4c0 .2 0 .5.1.9v.4s.1.1 0 .1c-.1.1-.1.3-.1.8-.2.3.1.6-.1.9v.1c.2.2.2.6.1 1.2v.3c.1.1.1.2.1.5-.1.1 0 .4.1.4l.4.3h1.5c.4 0 .8-.2 1.2 0 .3-.1.5-.1.6-.1h.1c.4 0 .6-.1.8 0h.1c.1-.1.2-.1.3 0h.1c.3 0 .4 0 .4-.1.4 0 .6.1.9 0h.6c.4 0 .4-.1.6-.1h.7c.3 0 .4-.1.4-.3 0-.4-.1-.6-.1-.9.1-.2 0-.4 0-.6-.1-.3 0-.4 0-.6v-.5c0-.1 0-.1.1-.1v-.1c0-.2.1-.4.1-.6v-1.2c0-.2-.1-.1-.1-.3v-.1l-.1-.1c0-.4.1-.9 0-1.3 0-.1.1 0 .1-.2v-.7c0-.2.1-.4 0-.6v-.6c.1-.2.2-.4.2-.6 0-.1.1-.2 0-.4-.2-.4-.1-.6-.1-.9 0-.4.2-.6 0-.9v-.6c.2-.1 0-.4.2-.6 0-.1.1 0 0-.1 0-.1-.1-.2-.1-.4-.2-.2-.2-.4 0-.4.1-.2.2-.4.4-.6.1 0 .2-.1.3-.1 0-.1.2 0 .4-.2h1.6c.4 0 .9-.1 1.3 0h.1c.3 0 .4-.1.7-.1.1-.1.1-.1.1 0 .3 0 .6.1.8-.1h.6c.1 0 .4.1.6.1a1.1 1.1 0 0 0 .8 0c.1-.1.2-.1.4-.1.3 0 .5 0 .5-.1.1 0 .2.1.3.1h.4c.3-.1.5 0 .7 0h.3c.2-.1.4 0 .8-.1h.1c.1.1.3.1.5 0 0 0 0-.1.1-.1h1c.3 0 .4.1.4.3.1.2.3.4.5.6v.6c-.2.2 0 .6 0 .8v.3c-.1.3-.2.5-.1.6v.7c0 .1-.1.2-.1.3.1.1 0 .4-.1.5v.1c0 .3-.1.5 0 .7v.7c-.1.2-.1.6-.1.8s-.1.4 0 .6v.6c0 .1.1.3.1.4v.3c0 .3.1.4.1.6-.1.3-.1.6 0 .9v.1c-.1.1-.1.1-.1.4 0 .1 0 .3-.1.4v1.2c.1.1.1.1.1.4v.9c.2.3-.1.4.1.9 0 .2.1.2.2.2.4 0 .8 0 1.2.2.3.1.6.2.9.1.1 0 0 .1.2.1.1 0 .1.1.2.1h.8c.5-.2.6-.1.9-.4.1-.1.4-.2.5-.2.1.1.4.1.8.1.1.1.1.1.2.1s.2-.2.3 0c.4 0 .6.1 1 .1s.5 0 .6-.1h.2c.2 0 .6.1 1-.1.1.2.2-.1.4-.2l.1-.1c0-.3.1-.4 0-.7h0c.1-.3-.1-.4.1-.7v-.1c-.1 0-.1-.1-.1-.1-.2-.2-.1-.6 0-.9 0-.1.1-.2 0-.4 0-.2-.1-.1 0-.3.1-.4.1-.6.1-.6.1-.4.1-.7.1-1.2v-.6c-.1-.4-.1-.6-.1-.9s.1-.6 0-.9v-.5c.1-.2 0-.4.2-.6v-.2c-.2-.1-.2-.4-.3-.6-.1-.1-.1-.4-.1-.6.1-.1.1-.1 0-.1v-.4c0-.2.1-.3 0-.6v-.1c.1-.3.1-.5.1-.7 0-.1.1-.4.1-.6v-.9c0-.3 0-.6-.1-.8v-.1c0-.1.1-.2.1-.3v-.1c-.1-.2 0-.4.1-.5 0-.3.1-.5 0-.8-.1-.1-.1-.1-.1-.3v-.7c.1-.2.1-.4 0-.6 0-.1-.1-.1-.1-.3s0-.3-.1-.4v-.5c.1-.1.1-.3-.1-.4.1 0 .1-.1.1-.1 0-.1.1-.3.1-.4v-.2c-.1-.4 0-.8 0-1.2 0-.2.1-.4.1-.7v-.7c.2-.2 0-.3 0-.5h-.1v-1.5c.1-.2.2-.3 0-.5v-1c-.1-.1-.1-.3-.1-.7v-.6c.1-.2 0-.6.1-.9-.1-.5-.1-.7-.1-1.2.1-.1.1-.4 0-.6 0-.1 0-.3-.1-.6 0-.2.1-.4 0-.6v-.2c.1-.3.1-.4.1-.5 0-.4 0-.8.1-1.2v-.1c0-.4-.1-.8-.1-1.2.1-.5.2-1 .2-1.4v-.4c.1-.2 0-.4.2-.6v-.7c0-.2 0-.4-.1-.6v-.1c.1-.2-.1-.3-.1-.4l-.3-.1c-.3-.1-.6-.2-.9-.2-.4 0-.8 0-1.2.1-.1 0-.1 0-.1-.1-.2-.1-.5 0-.6 0-.4.1-.8-.2-1.3-.1h-1.2c-.1.1-.1.1-.4 0h-1.3c-.1-.1-.3-.1-.4-.1-.2 0-.4-.1-.4-.1-.3.1-.4.1-.4.1-.1 0-.4.1-.5 0l-.1-.1c-.4-.1-.9.1-1.3-.1H397c-.4-.1-.6-.1-.7-.1-.3.2-.6.1-.9.1h-.6c-.2 0-.5.1-.6-.1h-.1c-.3.2-.6 0-.8 0-.3-.1-.6-.2-.9-.1l-.1-.1s-.2.1-.5.1c-.2.1-.4.1-.6 0H389c-.2 0-.4-.1-.7 0h-.9c-.4-.1-.8-.1-1.2-.1h-1.1c-.1 0-.4-.1-.6 0h0c-.6-.1-1.2-.1-1.7-.1-.3 0-.6.1-.7 0-.2-.1-.4-.1-.4 0h-.3c-.3 0-.6-.1-1 0h-.5c-.5-.1-.6-.1-.7-.1h-.6l-.1-.1v-.1c0-.1-.1-.2-.1-.1h-.2c-.1-.3-.1-.3-.6-.5v.2c-.5-.2-.6-.2-.5-.6h-.1c-.4-.4-.4-.4-.5-.4zm11.7 9.4c.1.1.2 0 .3 0h1.8c.3 0 .6 0 .9-.1.2 0 .4.1.4.1h.4c.2-.1.5-.1.6 0h.4c.2 0 .4-.2.6 0h.5c.4-.2.6 0 .9 0h.6l.1.1c.1-.1.5 0 1.1.1.1.1.4 0 .6.1.2 0 .4.1.6.1.1.1.2.1.4.1.1 0 .2.1.4.1.2.1.4.3.4.6 0 .2 0 .4-.1.4v.6c.1.4.1.7.1.9v.1c-.2.4-.1.5.1.8.1 0 .1.3.1.6-.1.3-.1.6 0 1 .1.6.2 1.1.1 1.2 0 .2.1.1.1.3-.1.3 0 .6-.2 1 0 .1-.1 0-.1.1-.1.1-.1.2-.2.3 0 0-.1.1-.2.1-.1.1-.3.1-.5.1 0 0-.1 0-.1.1-.4 0-.8-.1-1.2-.1-.4-.1-.6-.1-.9-.1h-.7c-.2-.1-.4-.1-.4 0-.1 0-.2.1-.3.1h-1.1l-.1-.1h-.4c-.2-.1-.4 0-.6.1h-.6c-.2 0-.4-.1-.6-.1l-.1-.1h-.3c-.4.1-.9.2-1.3.1h-.7c-.3.1-.5-.1-.7.1h-.7c-.5.1-.7.1-1.2.1h-.9c-.1 0-.3 0-.4-.1s-.3-.3-.6-.4-.4-.2-.4-.5v-.1c-.2-.3-.1-.5-.4-.8-.1-.4-.1-.7.1-.9.1-.1.1-.1.1-.4-.1-.1 0-.4 0-.4-.1 0-.1-.1-.1-.3h-.1c-.1 0-.1 0-.1-.1.2-.4 0-.6 0-1.1-.1-.1-.1-.2-.1-.6v-.6c0-.3-.1-.6-.1-.9 0-.1 0-.2-.1-.5v-.2c-.2-.3-.1-.4.1-.4.2-.2.5-.2.6-.5.1-.1.1-.1.3-.2 0-.1.1-.1.1-.1.1.1.1.1.3.1h.7c.1 0 .3.1.4.1h2.4zm14.8 26.5l.4.1.1.1-.1.2h-.2l-.1-.1v-.3zm-24.3-23.7h.2l.1.1-.1.1-.3-.1.1-.1zm.2-4.8h.3l-.1.2h-.2v-.2zm29.6-1.7c0-.2 0-.2.1-.2h.1v.1c-.1 0-.1.1-.2.1zm-24.9 35.4l.1.1-.1.1-.1-.1c.1.1.1 0 .1-.1zm21-3.5h-.1v-.1h.1v.1zm-14.9-11c-.1 0-.1-.1-.1-.3.1.2.1.3.1.3zm15.1 5.7c0 .1 0 .1-.1.1-.1-.1 0-.1.1-.1zm-21.7 9v.1h-.1l.1-.1zm24.8 0h0l-.1.1-.1-.1h.2zm-10.7-15h0zm-19.9-18.6c-.1-.1-.1-.1 0 0l-.1-.1.1-.1v.2zm.6 4.3l-.1.1.1-.1zm50.4 6c-.1-.1-.1-.2-.3-.3 0-.1-.1-.1-.1-.1-.1-.4-.1-.7-.1-1 0-.1.1-.1.1-.3-.1-.1 0-.6.1-1.2.1-.4.1-.7 0-1 0-.4 0-.6.1-.6.2-.3.3-.4.1-.8v-.1c0-.2 0-.5.1-.9v-.6c-.1-.1-.1-.2-.1-.4 0-.3.1-.5.3-.6h.2l-.1-.1-.4-1-.1-2.6-.1-4.2v-.3h-.7v.1c-.2.1-.4 0-.6 0 0-.1-.1-.1-.4-.1-.1 0-.1.1-.4.1-.2 0-.4 0-.4.1h-1.3c-.2.1-.4.1-.4 0h-1.2c-.4-.1-.8.1-1.2.1-.2 0-.4-.1-.6 0-.1.1-.1.1-.2.1-.4-.1-.8-.1-1.2-.1-.3 0-.6.1-.9.2l-.2.1c0 .1-.3.2-.1.4v.1c-.2.2-.1.4-.1.6v.7c.2.2.1.4.2.6v.4c0 .4.1.9.1 1.4 0 .4-.1.9-.1 1.2v.1c.2.4.1.8.1 1.2 0 .1.1.2.1.5v.2c-.2.2 0 .4 0 .6-.1.4-.1.6-.1.6-.1.3-.1.5 0 .6 0 .4.1.6-.1 1.2.1.3 0 .6.1.9v.6c0 .4 0 .6-.1.7v1a.45.45 0 0 0 0 .5v1.4c0 .1-.1.1-.1.1h0c0 .2-.1.3 0 .5v.7c0 .4.1.5.1.7 0 .4.1.9 0 1.2v.2c0 .1.1.3.1.4s.1.1.1.1c-.2.1-.3.4-.1.4v.2c-.1.1-.1.1-.1.4 0 .1-.1.1-.1.3-.1.3-.1.4 0 .6v.7c0 .1-.1.2-.1.3-.1.3 0 .5 0 .8.1.1.1.3.1.5v.1c.1.1.1.2.1.3v.1c-.1.2-.1.5-.1.8v.9c0 .3.1.5.1.6 0 .2.1.4.1.7v.1c-.2.3 0 .4 0 .6v.4c-.1.1-.1.1 0 .1a.47.47 0 0 1-.1.6c-.1.2-.1.4-.2.6v.2c.1.1.1.4.1.6v.5c-.1.2 0 .6 0 .9s0 .5-.1.9v.6c0 .4.1.7.1 1.2 0 0 .1.2.1.6.1.1 0 .1 0 .3-.2.1 0 .2 0 .4.1.3.1.6 0 .9l-.2.2c.2.3-.1.4.1.7h0c-.2.3 0 .4 0 .7l.1.1c.1.1.2.4.4.2.4.2.7.1 1 .1h.1c.1.1.3.1.6.1.4 0 .6-.1 1-.1.1-.2.1 0 .2 0s.2-.1.3-.1c.4 0 .6 0 .7-.1.2 0 .4.1.6.2.2.2.4.1.9.4h.8c.1-.1.2-.1.3-.1s.1-.1.1-.1c.3.1.6-.1.9-.1.4-.2.8-.2 1.2-.2.2 0 .3 0 .3-.2.1-.4-.1-.6.1-.9v-.9c0-.2 0-.3.1-.4v-1.2c-.1-.1-.1-.2-.1-.4s-.1-.3-.1-.4v-.1c.1-.3.1-.6 0-.9 0-.2.1-.4.1-.6v-.3c0-.1.1-.3.1-.4v-.6c.2-.2 0-.4 0-.6s0-.6-.1-.8v-.7c.1-.2 0-.4 0-.7v-.1c-.1-.1-.1-.4-.1-.5s-.1-.2-.1-.3v-.7c.1-.1 0-.4-.1-.6v-.3c0-.2.2-.6 0-.8-.1-.2 0-.4 0-.6.2-.3.3-.4.5-.6l.3-8.4zm-9.5-12.3c-.2 0-.2-.1-.1-.1v-.1h.1c.1 0 0 0 0 .2zm4 31.7v.1h-.1l.1-.1zm-.3-5.1l.1.1c-.2 0-.2-.1-.1-.1zm-3 9h0c-.1 0-.1 0 0 0h0z"/><path d="M469.6 265.4c.2-.2.1-.5.2-.6 0-.1-.1-.1-.1-.1v-.1c-.2-.3-.1-.4.1-.3.2 0 .4-.1.4-.2s.1 0 .1-.1c.1-.1.1-.2.1-.4-.1-.1-.1-.2-.1-.4 0-.3.1-.6 0-1 0 0 .1-.1.1-.3s-.1-.3-.1-.4c0-.4-.1-.6-.1-.8-.1-.3.1-.6 0-.9v-.1c.1-.2 0-.3 0-.5-.1-.1-.1-.1-.1-.3v-.5c.1-.1.1-.2.1-.5v-.6c-.1-.1-.1-.2-.1-.5.1-.1.1-.2.1-.6-.1 0-.1 0-.1-.1v-.5c0-.2-.1-.3-.1-.5-.1 0-.1-.1-.1-.3s.1-.4 0-.6v-.2c.1-.1.1-.1.1-.4-.1-.1 0-.3-.2-.4v-.4c.2-.2.1-.4.1-.6 0-.1-.1-.2 0-.3v-.9c-.1-.1-.1-.4 0-.6 0-.2.1-.3 0-.5-.1-.1-.1-.1-.1-.2v-.9c0-.1.1-.3.1-.7v-.1c-.1-.3-.1-.6-.1-1.2v-.4c.1-.1.1-.1 0-.3v-.6c0-.1 0-.3.1-.6.1-.1.2-.4.2-.6-.2-.2-.1-.6-.4-.8v-.6h.1v-.1c.1-.2 0-.4-.1-.8v-.7c0-.2.1-.3.1-.4l.1-.1v-.1c0-.2-.1-.4-.1-.6.1-.1 0-.3-.1-.4v-.5c0-.1-.1-.2-.1-.4s.1-.2.1-.5V237c-.1-.4 0-.8-.1-1.2l.1-.1c0-.3.1-.6 0-.9-.1-.1-.1-.4-.1-.9v-.6c0-.4 0-.6.1-.7v-.4c0-.2-.1-.4 0-.6v-.1l-.2-.3c0-.2-.1-.4 0-.6.2-.1 0-.2 0-.4.2-.2 0-.3 0-.4v-.4c0-.2 0-.5-.1-.9v-.4s-.2-.1 0-.1c.1-.1.1-.3.1-.7.2-.4-.1-.6.1-.9v-.1c-.2-.2-.2-.6-.1-1.2v-.4c-.1-.1-.1-.2-.1-.5.1-.1 0-.4-.1-.4l-.3-.3h-.2c-.4 0-.6 0-.7-.1-.1 0-.2 0-.2.1h-.5c-.4 0-.7.1-1.2 0-.3 0-.6.1-.6.1h-.1c-.1 0-.4.1-.5.1l-.1-.1-1.2-.3-.7-.1-1.1.1-.4.1-.9.1-.6-.1h-2.9l-2-.1-1.7-.1h-1.9l-1.6.1-4.1.2-.5-.2-1.3-.1-.9.1-.8.3-.7.2-.6.2h-.2c-.1-.1-.2-.1-.3-.1s-.1.2-.2 0h-1.7c-.3 0-.6 0-1 .1-.2-.1-.3.1-.4.2l-.1.1c0 .3-.2.4 0 .7v.1c-.2.3.1.4-.1.6 0 .1 0 .1.1.1 0 .1.1.1.1.1.1.2.1.6 0 .9 0 .1-.2.2 0 .4 0 .1.1.1 0 .3-.1.4-.1.6-.1.6-.1.4-.1.7-.1 1.2v.6c.1.4.1.6.1.9s-.1.6 0 .9v.5c-.1.2 0 .4-.1.6v.2c.1.1.1.4.2.6.2.1.2.4.1.6-.1.1-.1.1 0 .1v.4c0 .2-.2.3 0 .6v.1c-.1.3-.1.5-.1.7 0 .1-.1.4-.1.6v1c0 .2 0 .5.1.7v.2s-.1.1-.1.2v.1c.1.2 0 .4-.1.5 0 .3-.1.5 0 .8.1.1.1.1.1.3v.8c-.1.1-.1.3 0 .6 0 .1.1.1.1.4 0 .1 0 .3.1.3v.3c-.1.1-.1.2.1.4-.1 0-.1.1-.1.1 0 .1-.1.3-.1.4v.2c.1.4 0 .8 0 1.2 0 .2-.1.4-.1.7v.7c-.1.2 0 .3 0 .5h0l.1.1v1.4c-.1.1-.1.3 0 .4v1.1c.1 0 .1.3.1.6v.6c-.1.3 0 .6-.1.9.2.4.1.6.1 1.1-.1.1-.1.4 0 .7 0 0 .1.2.1.6 0 .2-.2.4 0 .6v.2c-.1.3-.1.4-.1.5 0 .4.1.8-.1 1.2v.1c0 .4.1.8.1 1.2-.1.5-.1 1-.1 1.4v.4c-.1.2 0 .4-.2.6v.7c0 .2-.1.4.1.6v.2c-.2.1.1.2.1.4l.2.2c.3.1.6.1.9.1.4 0 .8 0 1.3-.1 0 0 .1 0 .1.1.2.1.4 0 .6 0 .4-.1.8.2 1.2.1h1.2c.1-.1.2-.1.4 0h1.3c.1.1.2.1.4.1h.4c.4 0 .4-.1.4-.1.2 0 .4-.1.6 0v.1h.1c.4 0 .8-.1 1.2 0h1.4c.4.1.7.1.8.1.2-.1.6-.1.9-.1h.6c.3 0 .5 0 .7.1h.1c.2-.1.6 0 .8 0 .2.1.6.2.9.1l.1.1s.1 0 .5-.1c.1-.1.4-.1.6 0h2.2c.1 0 .4.1.6 0h.9c.4.1.9.1 1.3.1h1c.2 0 .4.1.6 0h.1c.6.1 1.2.1 1.7.1.4 0 .6-.1.8 0 .1.1.2.1.4 0h.2c.4 0 .6.2 1 0h.6c.4.1.6.1.7.1s.1.1.4 0l.1.1v.1c0 .1 0 .1.1.1 0 .1.1.2.2.1h.2c0 .3 0 .3.6.5 0-.1 0-.1.1-.2.5.2.6.2.5.6l.1.1c.1.4.2.3.3.3zm-21.3-33.8l2.2-.3 2.2-.1.6.1 1.6-.1h.6l1.2.1 1.6-.1h1.7l.4.4c0 .2-.1.4 0 .6v.6c-.1.1-.1.4-.1.6 0 .1-.1.2 0 .4.1.4.1.6.1.9 0 .4-.1.6 0 .9v.5l.6 4.2.3 1.7c.7 6.4-.5 7.8-.5 8.4.1.1 0 .4 0 .4.1 0 .1.1.1.3h.1l.1.1c-.2.4 0 .6 0 1.1.1.1.1.2.1.6v.6c0 .3.1.6.1.9 0 .1.1.2.1.5v.2c.2.3.1.4-.1.4-.2.2-.4.2-.6.5l-.2.2c-.1.1-.1.1-.2.1-.1-.1-.1-.1-.3-.1h-.7c-.1 0-.2-.1-.4-.1h-.8c-.1-.1-.3 0-.3 0H456c-.2 0-.6 0-.9.1-.1 0-.3-.1-.4-.1h-.4c-.3.1-.5.1-.7 0h-.3c-.3 0-.4.2-.6 0h-.5c-.4.2-.6 0-.9 0h-.6l-.1-.1c-.2.1-.5 0-1.1-.1-.2-.1-.4 0-.6-.1-.1 0-.4-.1-.5-.1-.1-.1-.2-.1-.5-.1 0 0-.1-.1-.4-.1-.1-.1-.3-.3-.3-.6 0-.2 0-.4.1-.4v-.6c-.1-.4-.1-.7-.1-.9v-.1c.1-.4.1-.5-.1-.8-.1 0-.1-.3-.1-.6.1-.3.1-.6 0-1-.1-.6-.1-1.1-.1-1.2s-.1-.1-.1-.3c.1-.3 0-.6.1-1 0-.1.1 0 .1-.1.1 0 .1 0 .1-.1l-.1-1.1-.4-1.2-.1-1.2-.1-.9.1-1.5v-.9l.1-1.2v-.8l.3-.5c-.1-.1-.1-.2-.1-.3 0-.2-.1-.4 0-.6.2-.2 0-.6 0-.8v-.3c.1-.3.2-.5.1-.6v-.7s.1-.2.1-.3c-.1-.1 0-.4.1-.5v-.1c0-.3.1-.5 0-.7v-.7c.1-.2.1-.5.1-.8l.3-.2h.8zm-10.7 28.1c0 .2 0 .2-.1.2h-.1v-.1s0-.1.2-.1zm4-31.7h0l-.1-.1h.1v.1zm-.3 5.1c-.1-.1-.1-.1.1-.1 0 .1 0 .1-.1.1zm-3.1-9h0zm30.7 33.7h0l-.1-.1.1.1zm-.6-4.4h0z"/><path d="M243.1 309.5c-.3 0-.3.2-.4.6l1.6.4c.1-.2.4-.4.6-.2.1 0 .2-.1.4-.1.4.2.6.1.7-.7l.1.6c.3-.1.4 0 .5.4.3 0 .4 0 .6.1l1.2.2c.3 0 .5-.1.8-.1-.1 0 .1.1.4.1.3.1.9-.3.9-.6.1-.4.1-.6.1-1 .1-.4 0-.7 0-1.1 0-.2.1-1.5.1-1.7 0-.6-.2-1.2.1-1.9v-.2c.1-.4.1-.6.1-1v-2.4c0-.4-.1-.8.1-1.2s0-.9 0-1.2c.1-.4.1-.7.1-1.1v-2.1c0-.2-.1-.5 0-.7 0-.2 0-.5.2-.8.1-.2.4-.4.6-.6.6-.4.8 0 1.1.5.4.5.7 1.1 1.1 1.7.5.6.9.9 1.2 1.4.4.6.9 1.2 1.2 1.8.2.4.6.6.9 1 .1.2.2.6.4.8.1.4.4.6.6.7.1 0 .4.1.4.4.1.1.3.2.2.6-.1.3.1.6.4.6.4-.1.7.1 1 .6 0 .1.1.4.1.5.1.2.2.4.4.4s.4.1.7.3v.2c0 .1.1.2.1.3h.1c.2.1.5.1.6.5.4.1.6.4 1 .8s.6.5 1 .9l1.1 1c0 .1.1.1.1.1l.9 1.1c0 .1 0 .1.1.1.1.6.4 1.1 1 1.2.5.1.9.1 1.4.1.4-.1.8-.3 1.3-.4.2-.1.4.1.5.3.1.4.4.2.5.3.4.1.6 0 .9 0 0 0 .1 0 .1.1.4.1.8 0 .9-.5.2-.7.2-1.4 0-1.9-.1-.2-.1-.2-.3-.4l-.4-.4v.1c-.1 0-.1-.1-.1-.1h-.4v-.3c-.1.2-.1.5-.2.1h-.2c-.1 0-.2-.1-.2-.1-.1 0-.1-.1-.1-.2.2 0 .4 0 .4-.1-.1-.1-.5-.3-.3-.7l.2.4c.1 0 .1-.1.3-.2 0-.1.1-.1.3-.1l.2-.6c.1 0 .1-.1.2-.1.1.1.1.1.1.3 0-.4.1-.6.1-.6-.1-.3-.2-.5-.4-.6 0-.1 0-.1.1-.1.1-.3-.1-.4.1-.6 0-.2 0-.4-.1-.7-.1-.4-.1-.8.1-1.2-.1-.8-.1-1.4-.3-2.2.2-.1.6-.5.5-.7h-.3v-.1c.1-.1.3-.3.4-.3-.2-.1-.2-.2-.3-.2 0-.4-.1-.9.3-1.4l-.3-.1c.2-.9.3-1.9.3-2.9v-1.3c0-.4 0-.8-.1-1.2l.1-.1c0-.1.1-.1.1-.1v-.1c-.2-.3 0-.6 0-.7v-1c0 .1 0 .1.1-.2 0-.1.1-.2.1-.3-.1-.4.1-.7.1-1.1.1-.4.1-.8-.3-1.1 0-.1-.2-.7 0-.9v-.5c.1-.1.1-.9-.1-1.1.1-.3.1-.5 0-.7-.1-.1-.1-.2 0-.3.1-.4.3-1.5.1-1.9-.1-.1 0-.1 0-.2l.1-1.1v-.1c-.1-.8.1-1.4.1-2-.1 0-.1-.1-.1-.2v-.1c-.1-.4-.1-.6.1-.9l.3-1v-.1c.1-.6 0-.6-.5-.6l-.7-.1h-.2c-.2 0-.4.1-.6.1-.4-.1-.6-.1-.9-.1-.1 0-.1.1-.3.1h-.7c-.2 0-.4-.1-.4-.1l-.4-.1c-.2 0-.3-.1-.4-.1h-.4c-.1-.1-.1-.1-.4-.1-.4-.1-.6.1-.6.6v1.9c0 .6 0 1.2-.1 1.8v.4c.1.3.1.5 0 .6l-.1.1c.1.5.1 1 .1 1.5-.1.4 0 1.9 0 2.5 0 .3-.1.6-.1.9l.1 1.7v.4c0 .4-.1.6-.1.9l-.1 3.7c0 .6-.1 1.2-.1 1.7v.5c-.1.6-.4.9-.6 1.2-.1.1-.1.1-.3.1l-.4.1c-.4-.5-.8-.8-1.2-1.4-.4-.4-.6-.6-.9-1.2 0-.3-.1-.4-.3-.4-.4-.1-.8-.4-1.1-.9l-.8-1c-.2-.4-.2-.7-.6-.9-.4-.4-.5-.9-.9-1.2-.2-.2-.2-.6-.4-.8-.1-.3-.2-.5-.4-.6-.3-.1-.4-.4-.7-.6v-.1c-.6-.5-.9-1.2-1.4-1.9l-.6-.8c-.4-.4-.6-.8-.8-1.2-.4-.6-.6-1.2-1-1.5-.1 0-.1-.2-.1-.2l-.5-.9c-.4-.5-.8-.9-1.2-1.6-.2-.4-.6-.8-.9-1.2-.4-.4-.6-.8-.7-1.2-.2-.2-.4-.4-.5-.7-.1 0-.2-.1-.2-.2-.1-.1-.1-.1-.4-.1-.6-.1-1.4-.1-2.1-.1-.5 0-.9-.1-1.4-.1-.4 0-.5-.1-.9-.1-.1 0-.2 0-.2.2l-.6 2.4v.2c0 .6.1 1.2.1 1.8v.2l-.3 2.4c-.1.6 0 1 0 1.6 0 .4-.1.7-.1 1.1v2.2c-.1.4-.1.6-.3 1v3.7c0 .6-.1 1-.2 1.6-.2.4-.2.8 0 1.1 0 .2.1.4.1.5-.1.4 0 .9-.4 1.2-.1.2-.1.6 0 .9.1.1 0 .1.1.4v.5c0 .2-.1.3-.1.3-.1.1-.1.4-.1.6.1.4.1.7 0 1.1s-.1.6-.1 1c0 .1 0 .2-.1.4l-.1.1c-.2.5-.1.9.2 1.1.1 0 .1.1.1.1v3.1c0 .3.1.5 0 .8-.2.1 0 1.5 0 1.7v1.2c0-.2 0 0-.2 0zm28.3-17c0 .1.1.4.2.6-.1 0-.2.2-.2.6l.1-.1c.1 0 .2-.3.3.1 0 .1 0 .1.1.1 0 0 0 .1.1.1l-.1.4a.76.76 0 0 0-.2.4c0 .1-.1.1-.1.1l-.1.1c-.3-.2-.3 0-.4.2l-.1-.1s-.1 0-.1-.1v.2c.1.2 0 .4-.2.6 0 0-.1 0-.3-.1-.1-.1-.2-.2-.1-.4.1-.1 0-.2-.1-.2-.3-.1-.5-.1-.6.1 0-.1-.1-.1-.1-.4 0 .1-.1.1-.1.1h0c-.1 0-.1-.1-.3-.2l.2-.1c.1-.1 0-.1.1-.1.2-.3.4-.5.8-.4.2.1.4 0 .4-.2.1-.1.1-.1.1-.2h.1v.3c0 .1 0 .1.1.1h.3l.2-.1-.2-.4c.1-.2.6-.4 0-.6l.2-.4zm0-5.5l-.9-1.8c.1.1.1.1.3.1 0-.1-.1-.2-.1-.3s0-.2.1-.3l.1-.1c0-.3.1-.4.5-.5v.3l.2.2c.3 0 .5 0 .5.4v.1c.1.3.1.6 0 .9-.1.2-.3.5-.1.9l-.6.1zm-2.1 4.6c.1 0 .3.1.4.1l-.1.2-.3.4c-.1.6-.5.8-1 .9l-.1-.1c.2-.4.5-.6.7-.9 0-.1.1-.2.1-.4.1-.1.1-.2.3-.2zm.7.9c0-.2 0-.3.1-.3.2 0 .3-.3.4-.5.1.2.2.2.4.4l-.4.4c-.4.2-.2.4 0 .6-.4.1-.4.1-.2.1-.2 0-.2-.1-.4-.1 0-.1.1-.3-.1-.4v-.2h.2zm-.8 2.8c0 .1-.1.4-.1.4-.1 0 0 0 .4-.1 0 .2-.1.4-.4.4v-.2c-.1.1-.2.1-.4.1a2.27 2.27 0 0 0 .1.4c-.1.3-.2.4-.2.6-.1-.1-.1-.1-.2-.1 0-.1-.1-.3-.1-.6h.2v.1s0 .1.1.1v-.1c0-.1-.1-.4-.1-.8-.1-.2-.1-.3.1-.3a1.76 1.76 0 0 0 .6.1zm2.4 3.9c.1-.1.1-.1.3-.1v.1c-.1.1-.1.1-.2.1l-.6-.4c-.1 0-.1 0-.1-.1v-.1l.1-.1c.1-.1.1-.1.3-.1.2-.1.4-.3.6-.5 0 .4.1.6.1.9-.1-.1-.2-.3-.4-.5v.8zm-2.5-1.4c-.2-.1-.3-.3-.4.1-.1-.1-.3-.1-.4-.2 0-.1-.1-.3-.1-.3 0-.1 0-.1.1-.1l.1-.1c.1-.1.3-.1.4-.1s.3.3.3.7zm2.5-18.8c-.2-.2-.1-.4-.4-.8.2.1.4.1.4.4v.4zm-.4 27.1c-.1.1-.1.2-.1.3 0-.1-.1-.1-.4-.1v-.2l.1-.1c.1.1.3.1.4.1zm1.5-25.2c0 .1 0 .3-.1.5-.1 0-.1 0-.1-.1v-.6c0 .1 0 .1.2.2 0-.1 0-.1 0 0zm-.7 11.6h0c-.1-.1-.1-.4-.4-.6.2 0 .3.1.4.1v.5zm-.9 4.6c.1-.1.1-.4.3-.3 0 .1-.1.3-.3.5v-.2zm.6.5l-.1-.1.2-.3s.1 0 .1-.1c.1.1.1.1.1.2l-.3.3zm.2 10.1c.1.1.1.1.1.2v-.3c0 .1 0 .1-.1.1zm30.9 3.8c.1-.2.1-.4.1-.6 0 0-.1 0-.1-.1v-.1c-.1-.2-.1-.4.1-.3.1 0 .2-.1.3-.1 0-.1.1 0 .1-.1.1-.1.1-.1.1-.3-.1-.1-.1-.2-.1-.4 0-.3.1-.5 0-.9 0-.1.1-.2.1-.4 0-.1-.1-.2-.1-.4 0-.4-.1-.5-.1-.7-.1-.1.1-.5 0-.7v-.1c.1-.1 0-.3 0-.4-.1 0-.1-.1-.1-.2v-.4c.1-.1.1-.1.1-.4v-.5c-.1-.1-.1-.2-.1-.5.1 0 .1-.2.1-.5-.1 0-.1 0-.1-.1v-.4c0-.1-.1-.3-.1-.4-.1 0-.1-.1-.1-.2 0-.2.1-.4 0-.6v-.1c.1-.1.1-.1.1-.3-.1-.1 0-.3-.1-.4v-.3c.1-.1.1-.4.1-.5s-.1-.2 0-.2v-.9c-.1-.1-.1-.4 0-.6 0-.1.1-.3 0-.4-.1 0-.1-.1-.1-.2v-.8c0-.1 0-.2.1-.6v-.2c-.1-.2-.1-.5-.1-1 .1 0 .1-.1.1-.4.1 0 .1-.1 0-.2 0-.1-.1-.4-.1-.6 0-.1.1-.3.1-.5.1-.1.1-.4.1-.5-.1-.2-.1-.5-.2-.7 0-.2-.1-.4 0-.5h.1v-.1c.1-.1 0-.4-.1-.6v-.6c0-.2 0-.3.1-.4.1 0 .1 0 .1-.1v-.1c0-.2-.1-.4-.1-.5.1-.1 0-.2-.1-.4v-.1c0-.1-.1-.1-.1-.2s-.1-.2-.1-.4c0-.1.1-.2.1-.4v-.3c0-.1-.1-.2-.1-.4v-.5c-.1-.4 0-.6-.1-1l.1-.1c0-.2.1-.6 0-.8-.1-.1-.1-.3-.1-.8v-.5c0-.4 0-.6.1-.6v-.4c0-.1-.1-.3 0-.5h0l-.1-.3c0-.2-.1-.4 0-.6.1-.1 0-.1 0-.4.1-.1 0-.2 0-.3v-.3c0-.2 0-.4-.1-.8v-.4c0-.1-.1-.1 0-.1.1-.1.1-.3.1-.7.1-.2-.1-.5.1-.7v-.1c-.1-.1-.1-.5-.1-1v-.3c-.1-.1-.1-.1-.1-.4.1-.1 0-.3-.1-.4l-.3-.2h-.1c-.4 0-.6 0-.6-.1-.1 0-.2 0-.2.1h-.4c-.4 0-.6.1-1 0-.2 0-.4.1-.5.1h-.1c-.1 0-.3.1-.4.1l.2-.2-.9-.3-.6-.1-.9.1-.3.1-.7.1-.5-.1h-2.4l-1.6-.1-1.4-.1h-1.5l-1.3.1-3.4.2-.4-.2H282l-.7.1-.6.3-.7-.1-.4.2h-.2s-.1-.1-.2-.1c0 0-.1.1-.1 0-.4 0-.5-.1-.9-.1-.3 0-.4 0-.5.1h-.1c-.2 0-.4-.1-.8.1-.2-.1-.2.1-.4.2l-.1.1c0 .2-.1.4 0 .6v.1c-.1.3.1.4-.1.6h.1c0 .1.1.1.1.1.1.2.1.5 0 .7 0 .1-.1.2 0 .4 0 .1.1.1 0 .3-.1.4-.1.5-.1.6 0 .4-.1.6-.1.9v.6c.1.4.1.5.1.8 0 .2-.1.5 0 .7v.5c-.1.1 0 .4-.1.5v.1c.1.1.1.4.1.5.2.1.2.3.1.5-.1.1-.1.1 0 .1v.3c0 .1-.1.3 0 .5v.1c-.1.3-.1.5-.1.6v2.1c0 .1 0 .1-.1.2v.1c.1.2 0 .4-.1.4 0 .2-.1.4 0 .7 0 0 .1.1.1.2v.6c-.1.1-.1.4 0 .5 0 .1.1.1.1.4v.5c-.1.1 0 .2.1.4-.1 0-.1 0-.1.1v1.6c0 .2-.1.4-.1.6v.6c-.1.1 0 .2 0 .4v.1l.1.1v1.2c-.1.1-.1.2 0 .4v2.7c.1.4 0 .6 0 1v.6c0 .1.1.2.1.6 0 .1-.1.4 0 .6v.1c-.1.3-.1.4-.1.4 0 .4.1.7-.1 1.1v.1c0 .4.1.7.1 1.1-.1.4-.1.9-.1 1.2v.4c-.1.1 0 .3-.1.4v.7c0 .1-.1.4.1.6v.1c-.1.1.1.1.1.4l.1.1c.3.1.6.1.8.1.4 0 .6 0 1-.1.1 0 .1 0 .1.1.2.1.4 0 .6 0 .4-.1.6.2 1 .1h1c.1-.1.1-.1.3 0h1.1c.1 0 .2.1.4.1.1 0 .3.1.3.1.3-.1.4-.1.4-.1.1 0 .4-.1.5 0v.1c.4.1.7-.1 1.1.1h1.2c.4 0 .6.1.6.1.2-.1.6-.1.7-.1h.5c.2 0 .4-.1.6.1h.1c.1-.1.4 0 .6 0 .2.1.5.2.7.1l.1.1s.1 0 .4-.1c.1-.1.4-.1.5 0h1.9c.1 0 .3.1.5 0h.8c.4.1.6.1 1 .1h.9c.1 0 .4.1.5 0h0c.5.1 1 .1 1.4.1.2 0 .4-.1.6 0 .1.1.2.1.4 0h.2c.2 0 .4.1.8 0h.5l.5.1c.1 0 .1.1.4 0 0 .1 0 .1.1.1h.1v.2c0 .1.1.2.2.1h.1c0 .2 0 .2.5.4 0-.1 0-.1.1-.2.4.2.4.2.4.6l.1.1c-.3.2-.2.2-.2.2zm-17.4-29.6l1.8-.2 1.8-.1.5.1 1.3-.1h.5l1 .1 1.3-.1h1.4l.4.3v.1c0 .1-.1.4 0 .5v.5c-.1.1-.1.4-.1.5s-.1.2 0 .4c.1.4.1.5.1.7 0 .4-.1.6 0 .8v.5l.5 3.7.3 1.5c.6 5.6-.4 6.8-.4 7.3.1.1 0 .3 0 .4.1.1.1.1.1.3h.1v.1c-.1.4 0 .6 0 .9.1.1.1.2.1.5v.5c0 .3.1.6.1.8 0 0 .1.2.1.4v.1c.1.3.1.4-.1.4-.1.1-.4.1-.5.4-.1.1-.1 0-.2.1l-.1.1c-.1-.1-.1-.1-.2-.1h-.6s-.1-.1-.4-.1c0-.1-.1-.1-.5-.1h-.4c-.1.1-.1.1-.4.1-.1-.1-.4 0-.6 0-.1-.1-.4-.1-.5 0-.2 0-.5-.1-.7.1-.1 0-.2 0-.3-.1h-.3c-.2.1-.4.1-.6 0h-.2c-.2 0-.4.1-.6 0 0-.1-.2 0-.4 0-.4.1-.5-.1-.8-.1h-.6c-.1 0-.4 0-.9-.1-.1-.1-.3 0-.5-.1-.1 0-.3-.1-.4-.1-.1-.1-.1-.1-.4-.1-.1 0-.1-.1-.3-.1a.55.55 0 0 1-.3-.5c0-.2 0-.3.1-.4v-.6c-.1-.4-.1-.6-.1-.8v-.1c.1-.4.1-.4-.1-.6-.1-.1-.1-.3-.1-.6.1-.2.1-.6 0-.9-.1-.6-.1-.9-.1-1.1v-.2c0-.3 0-.5.1-.9 0-.1.1 0 .1-.1v-.1l-.1-.9-.4-1.1-.1-1.1-.1-.9.1-1.3v-.9l.1-.9v-.7l.2-.4c-.1-.1-.1-.2-.1-.2v-.5c.1-.2 0-.5 0-.7v-.1c.1-.2.1-.4.1-.6v-.9c0-.1 0-.3.1-.4v-.1c0-.2.1-.4 0-.6v-.6c.1-.2.1-.5.1-.7l.1-.2h1zm-8.7 24.6c0 .2 0 .2-.1.2h-.1v-.1s0-.1.2-.1zm3.2-27.8h0l-.1-.1h.1v.1zm-.2 4.5c0-.1 0-.1.1-.1l-.1.1zm-2.6-7.9h0zm25.1 29.5h0zm-.4-3.8h0z"/><path d="M310.6 310.5c.2 0 .4-.1.4-.2h-.2c-.1 0-.1 0-.1-.1s-.1-.1-.2-.1c-.2 0-.5-.1-.6-.1l-.4-.1c.1-.2.1-.1.1-.2.1 0 .2-.1.3 0 0-.1.1-.1.1-.2.2 0 .4-.1.6 0h.8c.2 0 .5.1.7.1h.7c.1 0 .1.1.2.1.3.2.5.2.8.2l-.1-.2c-.1.1-.2.1-.3 0h0c-.1-.1-.2-.1-.1-.3.1-.1.2-.2.1-.4v-.3c.1-.2 0-.5 0-.7-.1-.2 0-.1 0-.3.1-.1.1-.2.1-.5.1-.4-.1-.8-.1-1.2 0-.2.1-.4 0-.5 0-.4.1-.6 0-.9v-.4c0-.1.1-.2 0-.4v-.1c0-.4 0-.6.1-.9.1-.1.1-.1 0-.2-.1-.2 0-.4 0-.7.1-.1.1-.1 0-.4-.1-.4-.1-.6-.1-.6.1-.1.1-.1.1-.2-.1-.4-.1-.7-.1-1.1s.1-.7.1-1.1v-.6c0-.4.1-.6.1-1 0-.1.1-.1.2-.2.1 0 .2-.1.3-.2 0-.1.1-.1.1-.1.2-.1.5-.2.9-.2h1.5c.4.1.6.2.8.4l.2.1.1.1v.1l.6.7.2.2c.1.1.2.1.3.3.1.1.1.2.4.4l.3.4.1.3c.1.1.1.2.2.3 0 .1 0 .1.1.1l.6.8.1.3c.1 0 .1.1.2.1.1.2.1.3.3.4a.76.76 0 0 0 .2.4l.4.4c.1.1.1.2.1.3s0 .1.1.1c.1.1.1.2.2.3s.2.3.4.4c.1.1.1.4.4.5l.1.4.3.6c.1.1.2.3.4.5l.5.7.2.3c.1.1.1.1.1.2s.1.3.3.4l.2.5c.1.1.1.3.2.4.2.2.3.4.4.6v.1l.4.6.3.7c.1.3.2.4.5.3.1 0 .1 0 .1.1.1.1.3 0 .4.1h0c.2-.1.3-.1.4-.1s.2.1.4 0h.3c.1 0 .2 0 .3.1.4.2.7.2 1.1.2h.1c.4-.2.7-.1 1.1-.1h.5c.1-.2.4-.1.6-.1h.1c.1-.1.1-.1.2-.1s.1 0 .1.1c.1-.1.4-.1.5-.1.1-.1.3 0 .4 0 .3.1.5.2.8.1.1-.1.3-.1.4 0s.2.1.4-.1c.1 0 .1 0 .1-.1l-.2-.4c-.1-.1-.1-.1-.1-.3-.1-.3-.1-.4-.4-.5-.1-.2-.1-.3-.3-.4l-.1-.1c-.1-.1-.1-.3-.3-.4-.1 0-.1 0-.1-.1-.1-.4-.4-.5-.5-.9s-.4-.6-.6-.9l-.1-.2c-.1-.1-.1-.1-.2-.4 0 0-.1-.1-.1-.3l-.2-.2-.1-.2c-.2-.4-.4-.5-.6-.7l-.1-.1-.4-.6c-.1-.4-.4-.4-.5-.6h0c-.1-.1-.1-.1-.2-.3v-.1c-.3-.1-.4-.4-.5-.6l-.1-.1c-.2-.1-.3-.4-.4-.7l-.2-.5-.4-.4c0 .1 0 .1-.1-.3l-.1-.4c-.1 0-.1-.1-.1-.1 0-.1-.1-.3-.4-.5l-.1-.4c-.4-.4-.7-.9-.9-1.3-.1-.1-.1-.3 0-.4.1-.2.1-.2.3-.2.1 0 .3-.1.5-.1h2.5c.1-.1.4 0 .5-.1 0 .1 0 .1.1.1h.2c.4.1.6.1 1 .1h.6c.1 0 .1.1.3.1h.1c.1 0 .1 0 .1-.1v-.5c.2-.3.2-.6.2-.9 0-.1.1-.4.1-.7v-.3c-.1-.4-.1-.8 0-1.1.1-.1 0-.2.1-.4v-.6c0-.4 0-.5-.1-.6v-.1c.2-.4.1-.6.1-1 0-.2.1-.4-.1-.7l.1-.1v-.4l.1-.1c-.1-.2 0-.4 0-.6v-.9c.1-.1.1-.3.1-.5v-.4c0-.1.1-.3 0-.4-.1 0-.1-.1 0-.2s.1-.1.1-.3V284c0-.1 0-.3.1-.4 0-.2 0-.2-.1-.3 0-.1-.1-.3 0-.3l.1-.6v-.1c-.1-.2-.1-.7-.1-1.3v-.2c-.1-.3 0-.5 0-.7.2-.3.1-.5.1-.9v-.2c0-.2 0-.4-.1-.4 0-.1.1-.1 0-.2 0-.2 0-.5.1-.6 0-.2 0-.4-.1-.4 0-.4-.1-.6 0-.6v-.8c-.1-.3-.1-.5-.1-.8 0-.1-.1-.2-.3-.2h-.4c-.1 0-.1.1-.4.1 0 .2 0 .3.1.4.1.3-.1.4-.4.4-.1-.1-.2 0-.6 0l-.1-.1c-.1.1-.3.1-.5.1l-.1-.1c-.1.1-.3.1-.4.1h-.2c-.1-.1-.4-.1-.6-.1-.4 0-.7-.1-1.2 0h-.1c-.1-.2-.4-.2-.8-.1s-.7.1-.7-.1c-.1-.1-.1-.1-.4-.1-.1.1-.2.1-.3 0-.2-.1-.4-.1-.6 0h-.3c-.1-.1-.4-.1-.5 0 0 .1-.1.1-.1.1-.4-.1-.6-.1-.9-.1-.2.1-.4-.1-.7-.1-.1 0-.1.1-.2.1h-.1c-.3 0-.4.1-.6.1-.1 0-.3 0-.5.1-.1-.1-.1-.1-.3-.2h-1.4c-.2 0-.4 0-.6-.1-.1 0-.1 0-.1.1h-.4c-.1 0-.4 0-.7.1-.1 0-.3 0-.4-.1h-.3c-.2-.1-.6 0-.8 0-.3 0-.5-.1-.7-.1h-.2c-.2 0-.4 0-.6-.1-.1 0-.1-.1-.3-.1s-.2 0-.3.1c-.2.1-.4.1-.8.1h-.6c-.1-.1-.3-.1-.4 0h-1.6c-.1 0-.3.1-.4.1-.2.1-.3.1-.4.1-.1-.1-.1-.1-.3-.1-.4 0-.5 0-.6.1h-1c-.4 0-.7-.1-1.1.1h-.1c-.4-.1-.6-.1-.9.1-.1.1-.1.3-.1.6v1.2c0 .2.1.2.1.4.1.2-.1.4.1.6v.4c-.1.3-.1.5 0 .7.1.1.1.3 0 .5v.5c0 .4.1.5 0 .9 0 .2 0 .3.1.4 0 .1.1.3.1.6v.1c-.1.1-.1.4 0 .5 0 .1-.1.4-.1.5-.1.4-.2.6-.2 1v.1c-.1.2 0 .4 0 .7-.1.4-.1.8-.1 1.2-.1.1 0 .1-.1.3 0 .5.1 1 0 1.4 0 .1.1.1.1.3s-.1.4-.1.6v.7c0 .2 0 .3.1.4 0 .1 0 .2-.1.3-.1 0-.1.1-.1.3 0 .4.1.6 0 1.1 0 .1.1.3.1.4 0 .3.1.5.1.8v.1l-.1.5c.1.1.1.1 0 .2-.1.3 0 .4 0 .6 0 .1.1.4.1.5 0 .4-.1.6-.1.9-.1.7-.1 1.2.1 1.4v.1c0 .4.1.6.1 1-.1 0-.1.1-.1.1v.5c0 .4.1.6.1.8-.1.4-.1.7-.1 1.1 0 .1-.1.2-.1.2-.1.2-.1.3-.1.4v1.1c0 .1-.1.2-.1.3-.1.3-.1.6-.1 1.2v.2s0 .1.1.3c0 .3 0 .4-.1.4v.5c0 .1-.1.1-.1.4v.1c.1.1.1.2 0 .4v.1l-.1.1v.2l-.1.4c-.1.3.1.5-.1.7v.1c0 .4-.1.5-.1.9 0 .1-.1.1-.1.3v.5c.1.2.1.3.3.2h.5c.4-.1.5-.1.6-.1.4-.1.6.1.9.2.1.1.4.1.5.3.1.1.4.1.5.1 0 .1.1.1.1.1l.4.1h.1c.2 0 .6-.1.8-.1.4-.2.6-.2.7-.2zm14.6-29.1h.1c.1.1.2.1.1.3s-.1.4.1.5c.1 0 .1 0 .1.1.1.2.1.4.1.6-.1.2-.1.4 0 .6.1.1.1.2.1.4-.1 0-.1.1-.1.4v.8c0 .4 0 .6.1.6v1c.1.1.1.2.1.4-.1.2-.1.3 0 .4.1.4-.1.5-.2.7 0 0-.1.1-.2.1-.2.1-.5.1-.7.1h-.9c0-.1 0-.1-.1-.1h-2.1c-.3-.1-.4-.2-.7-.1-.1.1-.1.1-.1 0-.2-.1-.4 0-.6 0-.3 0-.5.1-.9.1h-.1c-.4.2-.8.2-1.2 0h-.2c-.2.1-.4 0-.6 0-.4 0-.6-.1-.6 0h-.7c-.2 0-.4 0-.5-.1l-.1.1c-.4 0-.6 0-.8-.3l-.1-.2c-.2-.2-.4-.5-.4-.9v-.1c0-.1-.1-.1-.1-.3s0-.3-.1-.4-.1-.1 0-.4v-.1c0-.1.1-.3.1-.5 0-.3 0-.4.1-.5v-.5c0-.3 0-.5.1-.7l.1-.1c.1-.2.2-.4.4-.6 0-.1 0-.1.1-.1.1-.1.2-.1.3-.2s.1-.1.2-.1l.5-.1c.1-.1.3-.1.4 0h.9c.1 0 .1 0 .1-.1h.5c.3-.2.5-.1.7-.2.2 0 .4.1.6.1h.4c0-.1.1-.1.2-.1.1-.1.4-.1.6-.1h.1c.4-.1.5-.1.6-.1.4 0 .5 0 .9-.1.1-.1.1-.1.4-.1h.2c.2-.1.5 0 .6-.1.2 0 .5.1.7.1.4-.1.9 0 1.2-.1h.3zm3.2 23.4h0c0-.1.1-.1.1-.1l-.1.1zm4-9.2c0-.1 0-.1.1-.1 0 .1 0 .1.1.1h-.2zm-19.1 1.2h0zm16.4-3.5h0v.1-.1zM319 275.5c0-.1 0-.1 0 0h0z"/><path d="M364.6 296.6c.1-.1.1-.1.1-.4v-.4c.1-.4.1-.6.1-1v-.4c.1-.2.2-.4.1-.6v-.1c-.1-.1-.1-.3-.1-.6 0-.2-.1-.4-.1-.8.1 0 .1-.1 0-.1v-.8c0-.2.1-.4 0-.6-.1-.1-.1-.2-.1-.4 0 .1 0 0-.1-.4 0-.1-.1-.1 0-.3 0 0 0-.2-.1-.6-.1-.2-.1-.4-.2-.6 0 0-.1-.1-.1-.2-.1-.1-.1-.1-.1-.3-.1-.2-.1-.4-.1-.6 0-.1 0-.2-.1-.2v-.4c0-.1 0-.1-.1-.1-.1-.1 0-.1-.1-.2-.1-.3-.1-.4-.1-.7 0-.1-.2-.3-.2-.5v-.1c0-.1-.1-.2-.1-.4 0-.1.1-.2.1-.3v-.1c0-.2-.1-.4-.1-.6-.1-.1-.3-.3-.3-.5-.2-.4-.5-.7-.7-1.1-.1-.2-.2-.4-.1-.7 0-.5-.2-.9-.6-1.4-.2-.2-.4-.4-.5-.6l-.2-.2c-.3-.2-.5-.4-.6-.7l-.5-.4c-.2-.1-.6-.4-.7-.6-.1-.1-.2-.1-.4-.2-.4-.1-.6-.3-.8-.5-.1-.1-.4-.2-.5-.2-.6-.1-1.1-.4-1.4-.8-.1-.2-.3-.1-.4-.2-.3 0-.4-.1-.8-.1-.1 0-.2-.1-.3-.1h-.1c-.6.1-1 0-1.6-.1-.1-.1-.3-.1-.4 0-.4 0-.6 0-.9-.1h-.7c-.4.1-.6.1-.8.1-.4 0-.9-.1-1.3.1-.5.1-1 .1-1.4.1-.1 0-.2 0-.4.2l-.1.1c-.3 0-.5 0-.9-.1-.1 0-.4-.1-.6-.1h-.2c-.1-.1-.2-.1-.4-.1l-.4-.1h-.1c-.2 0-.4-.1-.7-.1-.4-.2-.9-.2-1.4-.1-.3.2-.6.2-.8 0l-.4-.1c-.4 0-.6-.1-.7-.1-.1-.1-.2-.1-.4.1-.4 0-.4.1-.4.1-.1.1-.1 0-.3.1h-.5c-.1-.1-.2-.1-.4-.1h-.1c-.1-.1-.4-.1-.6 0-.1.1-.3.1-.4.1h-.1c-.1 0-.1.1-.1.1-.1.3-.1.4-.1.6.1.1.1.5.1 1.1-.1.2-.1.4 0 .6.1.3.1.8 0 1.5-.1.2 0 .4 0 .5v1.8c.1.6.1 1.2 0 1.7v.4c0 .4 0 .7.1 1.1 0 .1-.1.2-.1.3v.6c.1.4 0 .9 0 1.4-.1.1-.1.3-.1.6.1.2.1.5.1.9-.1.4-.2.7-.1 1.1.1.3.1.5.2.8.1.4.3.7.4 1v.1c0 .1 0 .1-.1.1l-.5.7-.1.1c-.1.1-.1.3.1.5.1.1.2.4.1.6v.8l-.1.1v.1c0 .3-.1.6.1.8v.5c0 .1-.1.3-.1.5-.1.1-.1.3 0 .5v.1c.1 0 .1.2.1.5.1.1.1.2-.1.3v.1l-.1.1v.5c-.1.4-.1.6-.1.7s0 .4.1.5v.4c0 .2-.1.4-.1.4 0 .1-.1.4 0 .6 0 .4-.1.6-.1.8 0 .1-.1 0-.1.1-.1 0-.1 0-.1.1v.1c0 .1-.1.4-.1.5v.2c0 .1.1.4.1.7.1.1.1.1.1.4-.1.1-.1.2-.1.5v.2c.1.1 0 .4 0 .6v1.4c.1.3.1.5.1.7v.1c.1.1 0 .2 0 .4v.1c.1.3 0 .5.2.7v.1c.1.4 0 .6.2 1v.1c0 .2.1.5.1.7.1.1.2.3.4.3h.5l.2.1a.47.47 0 0 0 .6-.1h.1c.1-.1.1-.1.2-.1h.4c.2.1.4 0 .6 0h.4l.1.1c.4-.1.6-.1.6-.1.1-.1.1 0 .4 0 .2 0 .4.1.6 0l.1-.1h.6c.4 0 .6 0 .6-.1h.1c.3 0 .5.1.7 0h.1c.4.1.6 0 .7 0h2.2c.1-.1.1-.1.4 0h.7c.2 0 .3-.1.6-.1v-.1c.1-.1.3-.1.4-.1s.1.1.2.1c.2 0 .4-.1.5-.1.1-.1.3-.1.4 0s.1.1.3.1c.1 0 .2 0 .3.1.1 0 .1-.1.2-.1.4 0 .5 0 .7-.1h.1c.4.1.7.1.9 0h.4c0 .1.1.1.2.1.1-.1.3-.1.4-.1h.2c.1-.1.2-.1.4-.1h.4s0-.1.1-.1c.2.1.2.2.3.1.1 0 0-.1.1-.2.1.1.3 0 .5-.1h.1c.2.1.4 0 .6-.1.1-.1.3-.1.4-.1h.1v-.1h.3c.1 0 .1-.1.1-.1.1-.1.1-.1.3-.1h.1c.2-.1.4-.3.6-.3l.2-.2c.1 0 0 .1 0 .1h.1c.1 0 .2 0 .4-.1h.1c.1 0 .1-.1.1-.1l.3-.3c.1-.1.4-.3.8-.4 0-.1.1-.2.1-.3h.2c.1-.1.1-.1.2-.3-.1 0-.1-.1-.1-.1-.1-.1-.1-.1 0-.3.1-.1.2-.1.4-.1 0-.1.1 0 .1-.1s0-.1.1-.1.1-.1.2-.1c.1-.1.3-.1.3-.2s0-.2.1-.2l.1-.1v-.3c0-.1 0-.1-.1-.2h-.4c-.2-.1-.4-.2-.6-.4.1-.1.2-.1.3-.2l.1-.1c.1-.1.1-.1.2-.1.3.1.3.3.5.1h.1c.1.1.3 0 .4 0 .1-.1.1-.3.1-.6 0-.1-.1-.2-.3-.3 0-.1 0-.1-.1-.1.1-.2.1-.3.3-.4.1 0 .1-.1 0-.2h-.1c-.1 0-.1 0-.1-.1-.1-.1.1-.3.3-.2.1.1.1.1.3.2.2-.1.4-.3.4-.6h-.2l-.4-.5c-.1-.1-.1-.1-.1-.2.1-.1.1-.1.2-.1.1-.1.2-.1.3-.1.1-.1.1-.1.1-.3s0-.4.1-.4c.1-.1.1-.3-.1-.4h-.1c-.1-.1-.1-.1-.1-.3.1 0 .1-.1.3 0h0c.1 0 .2-.1.2-.2s.1-.3.1-.3c.1-.1.1-.2.1-.4 0-.1 0-.2.1-.2 0-.1.1-.1.1-.3s.1-.4 0-.6v-.2c0-.1 0-.3.1-.3 0-.2 0-.4.1-.4 0 0 .1 0 .1-.1v-.1c-.1-.1-.1-.2.1-.2v-.5zm-14.5-9.6c0 .1.1 0 .2 0 .2 0 .4-.1.5 0 .1 0 .3-.1.4-.1.2-.1.4-.1.4-.1.2.1.4 0 .5-.2.2-.1.2-.1.4-.1.1-.1.2-.1.2 0 .1.1.1.2.3.3.1.1.2.3.1.5 0 0-.1 0-.1.1-.1.1 0 .4.3.6.2.1.2.3.1.4s-.1.1-.1.2c-.1 0-.1.1-.1.2a.76.76 0 0 1-.2.4c.1.1.2.2.4.2 0 .1-.1.1-.1.1h.1v.1c.1.1.2.4.2.6v1.2c.1.2 0 .4-.1.6-.1.1 0 .4 0 .6-.1 0-.1.1-.1.2-.1.4-.1.7 0 1.1.1 0 .1.1.1.5v.9c-.1 0-.1.2-.1.6.1.1.1.3.1.6 0 0 .1.2.1.6v.1c.1.2 0 .4 0 .7-.1 0-.1.1 0 .3.1.1.1.4 0 .8 0 .3 0 .5.1.5.1.1.1.1.1.4v.6c0 .3 0 .4.1.4 0 .2.1.4.1.5.1.4-.1.6-.5.7h-.1c-.1.1-.2.2-.4.3l-.4.2c-.3 0-.4.1-.4.2-.1.1-.4.1-.5.4l-.4.1c-.1 0-.1 0-.1.1-.2.1-.6.1-1 .1 0 .1 0 .1-.1 0-.2 0-.6-.1-.9-.1h-.1c-.1 0-.3.1-.4.1a1.7 1.7 0 0 0-1 0l-.1-.1h-.6c-.2-.1-.4-.1-.6-.1-.4 0-.6 0-.6-.1-.2-.1-.4-.2-.4-.4s-.2-.4 0-.6c0-.3 0-.4-.1-.4 0-.2.1-.4.2-.5v-.2c-.1-.1-.1-.3-.1-.6-.1 0-.1 0-.1-.1s-.1-.2-.1-.4c0-.1 0-.2.1-.2 0-.1 0-.2.1-.3v-.9c-.2-.4-.1-.6-.2-.9v-1c-.1-.4 0-.6 0-1V294l.1-.5c.1-.1.1-.1.1-.2v-.3c0-.1-.1-.3-.1-.4h0c0-.3-.1-.5 0-.9 0-.3 0-.4-.1-.5v-1.1c.1 0 .1-.1.1-.4l.1-.4c-.1-.2.1-.5.1-.6-.1-.1 0-.1 0-.1v-.1c-.1-.1-.1-.1-.1-.4-.1 0-.1-.1-.1-.2v-.4c-.1-.3.1-.5-.1-.9.1-.4.3-.6.5-.9l.1-.1.2-.1c.1-.1.2-.1.4-.2.1-.1.1-.1.2-.1h.3c.2 0 .4-.1.6-.1s.2.1.4.2l.1.1c0 .1.1.1.2.1.1.1.4.2.7.3h.1c0 .3.3.2.4.4l.1.1c.2.2.2.5.2.7h.4zm6 19.7c-.1 0-.2-.1-.2-.2-.1-.1 0-.2.2-.1.1 0 .2 0 .3-.1s.3-.1.4-.3c0-.1 0-.1-.1-.1-.1-.4-.1-.5-.1-.6v-.1c-.1-.2-.1-.4 0-.8l.1-.1.1.1c.1.1.1.2.1.5.1.1.1.1.1.3v.1c.1.1.2.2.3.5.1.2.1.4.1.6.1.1.1.1 0 .2s-.1.3 0 .6c0 .2-.1.3-.1.4-.1 0-.1.1-.3.1.1 0 0 .1-.4.1h-.2c-.1-.1-.3-.3-.3-.5.1-.2.1-.4.1-.4l-.1-.2zm5.4-7.4c0 .2.1.2.1.2-.1.1-.1.1-.3.1-.1 0-.2 0-.2.1 0 0-.1 0-.2.1-.1 0-.1.1-.1.1 0 .1 0 .3-.1.4s-.3.1-.4 0c0-.1-.1-.1-.1-.1v-.2c0-.1 0-.1-.1-.3-.1 0-.1-.1-.1-.2.1-.1.1-.1.2-.1.1-.2.1-.3.1-.4l-.5-.1c0-.1 0-.1.4-.1l.1-.1c.1-.1.1-.2.2 0h.1c.1 0 .1-.1.1-.1s.1-.1.2-.1c.3 0 .5.1.3.1.1.1.2.1.3-.1.1 0 .1-.1.3-.1h.2v.1c-.1.1-.1.3.1.3.1 0 .1.1.1.1h-.2l-.4-.1v.4c.1 0 .2.1.4.1 0 .1 0 .1-.1.1-.2-.1-.2-.1-.4-.1zm-.5 3c-.1 0-.2 0-.2-.1-.1 0-.2-.1-.2-.1-.2 0-.4.1-.4.3-.3 0-.4-.2-.4-.4-.1-.1-.2-.1-.1-.2v-.3c.1-.1.1-.2.2-.3 0 0 .2-.1.4-.1l.1-.1c0-.1.1-.1.1-.1.1.1.1.1.1.3 0 .1 0 .1.1.2s.2.3.1.4v.5zm.7-4.9c-.2 0-.3 0-.3.2 0 .1-.1.1-.1.1-.1-.1-.2-.1-.4 0v-.1c.1-.1.2-.2.2-.3s0-.1.1-.1h.2c.1-.1.2-.2.1-.4h0v-.1c.1 0 0-.1.1 0l.1.1c.1.1.1.1.2.1 0 .1.1.1 0 .3l.1.1c.1.1.1.1.1.2l-.2.2c-.1 0-.1-.1-.2-.1v-.2zm1.6-.7c-.3 0-.2.1-.3.3 0 .1 0 .2-.2.2h-.1v-.2h.1c.1-.1.1-.3 0-.3l-.2-.3c.4-.1.4-.1.3-.1 0-.1.1-.1.2 0v.1c.1.2.1.1.2.3zm-4.9 1.7c.4-.2.4-.2.6 0 .1 0 .1.1.1.4h-.1l-.4-.1v-.1c.1 0 0-.2-.2-.2zm1.6 5.9c0-.1-.1-.1-.1 0-.1 0-.1.1 0 .1v.1c0 .1 0 .2-.1.2s-.1-.1-.2-.1v-.3h.1c.1 0 .1 0 .2-.1l.1-.1c.2 0 .2.2 0 .2h0zm0 .8c0 .1.2.1.2.1.1 0 0 .1 0 .2h-.2v.2c-.1-.1-.1-.2-.1-.2l.1-.2v-.1zm1.5-2.3c.1 0 .2-.1.4-.1.1-.1.1-.1.1 0v.1l-.1.1h-.3l-.1-.1zm.6-7.2c.1-.1.1-.2.1-.2.1 0 .3.1.3.2s-.1.1-.2.1-.1 0-.2-.1zm-.1 4.4c.1-.1.1-.1.3-.1l-.1.1.1.1-.1.1h-.1l-.1-.2zm.2 4.1c.1 0 .1 0 .1.1l.1.1c-.1.1-.2.1-.2 0l-.1-.1.1-.1zm.9-8c-.1.1-.1.1-.2.1-.1-.1-.1-.1-.1-.2.2 0 .2 0 .3.1zm-.8 6.2l.2-.2h.1v.1c0 .1-.1.1-.3.1zm-2.1 3.7h-.2v-.1c.2 0 .2.1.2.1zm2.3-1.9c0-.1 0-.1.2-.1v.1h-.2zm-1.6-7.1c.1-.1.3-.1.4 0h-.4zm-1.5 6.8c0 .1-.1.1-.2.1v-.1c-.3 0-.2-.1.1-.1l.1.1zm1.3-6.5c.1-.1.1 0 .1.1l-.1.1v-.2zm1.3.6c0-.1.1-.1.2-.1v.1s0 .1-.2 0zm.5-2.6c.1 0 .2 0 .2.1h0s-.2 0-.2-.1zm-1.8 8l-.1-.1v-.1h.1c.1.1.1.1 0 .2h0zm-4.2-25.9l.1-.1c0 .1 0 .1.1.1h.1-.3zm-1.2 12.6c0 .1 0 .1-.1.1h0c.1 0 .1-.1.1-.1zm5.3 16.2c.1 0 .1.1.1.1h-.1c-.1 0-.1-.1 0-.1zm1.7-6.4c0-.1 0-.1.1-.1h.1v.1c-.1-.1-.1-.1-.2 0zm-7.7-23h0zm5.2 30.6c0 .1 0 .1 0 0-.1 0-.1 0 0 0h0zM347.4 277h0v.1-.1zm15.6 18.7h0l-.1.1v-.1h.1zm-.3-.1l-.1.1v-.1h.1zm-12.8-16.2h0zm3.9-1.3l-.1.1c-.3 0-.2-.1.1-.1h0zm-4.7 5.7h0zm.8-4.9h0zm6 12.3c0-.1-.1-.1-.1-.1h.1v.1zm-17 8.1h0zm8.2 10.7h0z"/><path d="M376.8 286.6c-.1 0 0-.1-.1-.4-.1 0-.1-.1-.1-.2.1-.3.1-.4.1-.7v-.1c0-.2-.1-.4 0-.6 0-.1-.1-.2-.1-.3.1 0 .1-.1.1 0 .2.1.2 0 .4.1h.2c0 .1.1.1.1.1h.2c.1 0 .2.1.4.1.3-.1.5-.1.7-.4.2-.1.4-.1.6-.2.1 0 .4.1.5.1h.3c.4-.1.7-.1.9 0 0-.1.1-.1.2 0 .2.1.4.1.6.3l.1-.1c.2.1.4 0 .6-.1l.1.1c0-.1 0-.1.2-.2 0 0 .1 0 .1-.1.1-.1.2 0 .4-.1h.1c.4 0 .6-.1 1-.1.1-.1.5.1.6-.1.2-.1.6-.1.9-.1.1 0 .3-.1.4-.1.1.1.4 0 .5 0 .2 0 .5 0 .7-.1.1 0 .4-.1.5 0h.4c.1 0 .3 0 .4-.1.1.1.4 0 .5-.1 0-.1.1-.1.2 0l.1-.1c.2 0 .3 0 .4.1h.1c.1-.1.2-.1.4-.1.1.1.4.1.6.2.3 0 .4-.1.5-.3h0c.1-.3.1-.4.2-.6 0-.4.1-.3.3-.4.1.1.2.1.3 0l.1-.1c.1-.1.1-.2.1-.3v-1.5l-.1-.1-.1-.7-.1-.4v-1.4l-.1-.7-.1-.6v-.8l.1-.3c-.1 0-.1 0-.1-.1l-.1-.1c-.1-.1-.2-.3-.3-.3l-.1-.1c-.1 0-.4.1-.5.1h-.2c-.1 0-.2-.1-.4.1h-.3c-.1-.1-.3-.1-.4 0h-.1c0-.1 0-.1-.1-.1s-.1 0-.2-.1-.1-.1-.3-.1c-.1 0-.3 0-.3.1-.2.1-.4.2-.5.2h-.6c-.1 0-.3 0-.4-.1 0-.2-.1-.2-.1.1h-.2c-.1.1-.1 0-.4 0-.1.1-.2.1-.3 0 0-.1-.1-.1-.1-.1v-.1c-.3.1-.6-.1-.9 0l-.1.2c-.2 0-.4.1-.4 0h-.2v.1c-.1.1-.2.1-.3.1-.2-.1-.4-.4-.5-.5s-.1-.1-.2 0h-.1c-.1.2-.1.4-.3.4-.1.1-.4.2-.7 0-.2 0-.3 0-.5-.3-.1 0-.1 0-.2.1-.2.1-.4.2-.7.2-.1.1-.2 0-.2 0-.1-.1-.1-.3-.2-.3s-.6.1-.8.3c-.1 0-.2.2-.2.2 0 .1-.1.1-.4.1-.1 0-.2 0-.2-.1h-.1c-.1 0-.2 0-.3-.1-.1 0-.2-.1-.4-.1l-.3.3c-.2.1-.4.1-.6.1-.1-.1-.2-.1-.2 0-.2.2-.3.2-.4 0-.1-.1-.4-.1-.5.1h-.1c-.1-.1-.1-.1-.2-.1h-.1c-.1-.1-.3-.2-.5-.1-.4.1-.5 0-.8 0-.1 0-.2-.1-.4.1h-.1c-.1-.1-.2 0-.4 0h-.2c-.1 0-.3.1-.4 0h-.3c-.2 0-.3-.1-.4 0-.1-.1-.1 0-.2-.1-.1.1-.1.1-.1 0h-.2c-.2 0-.4-.1-.5.1-.1.1-.2.1-.4.2-.1.1-.2.1-.3.1h-.1c-.2 0-.3 0-.4.1s-.1.1-.2 0h-.1l-.6.1c-.1-.1-.2-.1-.2-.1-.3-.1-.4.1-.5.3-.1.1-.2.3-.1.6 0 .3-.1.4-.1.6 0 .1-.1.1-.1.1v.2c-.1.2-.1.4 0 .6-.2.2-.1.4-.1.6-.1.1-.1.2 0 .4 0 .1-.1.4 0 .5v.1l-.2.8c.1.2 0 .4.1.4-.1.4 0 .6.1.9 0 .1-.1.2-.1.3-.1.6-.2.9-.4 1.2l-.1.1-.1.4v.5c-.1 0-.1.1-.1.1 0 .1-.1.2-.1.4.1.1.1.2.1.4 0 .1-.1.1 0 .3-.1.1-.1.3 0 .4v.2c0 .2-.1.4 0 .6.1.1 0 .3 0 .4s-.1.1-.1.1v.1c0 .3.1.5.2.6-.1.1-.1.3 0 .4s.1.3 0 .4-.1.2-.1.2c.1.4.1.5.1.7-.1.2.1.4-.1.5v.2c0 .1 0 .1-.1.3l.1.1c0 .1 0 .2-.1.5v1c-.1.1 0 .4-.1.5-.1 0-.1.1-.1.2.1.1 0 .1 0 .4.1.4-.1.6-.1.9v.1l-.1.1v.2c-.1.1-.1.1-.1.4l-.1.1c-.1.2-.1.6 0 .8v.1c.1.1 0 .3 0 .4l-.1.4v.3c-.1.2 0 .5-.1.7v.1c0 .1.1.1.1.3-.1.4-.1.6-.1.6-.1.2 0 .4 0 .6-.1.2 0 .4-.1.6v.1c0 .4 0 .6-.1.6.1.1.1.4.1.8 0 .2-.1.5-.1.8h.5c.1.4 0 .5 0 .7v.1c-.1.4-.2.7-.2 1.1v1.3c0 .1 0 .4-.1.6 0 .2-.1.4-.1.7s-.1.5-.1.9v.8c0 .1 0 .2.1.4 0 .2 0 .4-.1.7-.1.1-.1.1 0 .1v.1c-.1.1 0 .3.1.4.1 0 .1.1.2.1l.1.1h.2c.1 0 .2-.1.5-.1.3.1.4.1.6 0v.1h.1c.1-.1.4-.2.6-.4l.4-.1c.1 0 .1 0 .1-.1s.1 0 .3.1c.1.1.3.4.4.4l.2-.2c.1 0 .2-.1.3-.1h.1c.1 0 .4.1.4.4.1.2.1.3.4.1.1-.1.2-.4.4-.4h.1c.1-.1.2-.1.4 0 0 .3-.1.4 0 .5h.5c.1 0 .2 0 .4-.1l.1-.4c0-.1.1 0 .2.2v.1c.2.1.3 0 .4.1v.1h.1c.1 0 .3 0 .5-.1 0-.1.1-.1.3-.4.1.1.1.1.2 0v.3c.1-.1.1-.3.1-.3.1 0 .2 0 .4.2.1 0 .2 0 .4-.3.1.1.3.1.4.4.1.1.2.1.5-.1.2-.3.4-.3.6.1l.1.1c.2-.1.4-.1.4-.1.1-.5.2-.5.4 0 .1.2.4.1.6 0 .1-.1.1-.1.2-.1.1-.1.3-.1.6 0h.1c.1-.2.3-.1.4 0h.1c.3 0 .6.1.9.1.1.1.3.1.3.4v.2c.3.1.5.1.7 0 .1-.1.2 0 .5.1h.5c.1 0 .3.1.4 0s.4-.1.5-.2c.3-.1.4-.1.4.1.1.1.1.1.2.1v-.1c0-.1.1-.1.2 0s.2 0 .2.1h.1l.1.1c.1 0 .1-.1.3-.1 0-.1 0-.1.1-.2l-.1-.1h.1v.1c.1.1.2.1.2.1.1-.1.1 0 .1.1s.1.1.1.1v-.1h.1c.1 0 .1.1.2.1.2-.3.1-.3.5-.1-.1.1-.1.1.1.1v-.3c.1.1.1.2.4.2.1-.1.2 0 .4 0 .1 0 .1 0 .1-.2-.1 0-.1.1.2.1.1.1.2.1.3.1 0-.1-.1-.2-.1-.2.3-.1.4 0 .5-.1 0 .1 0 .3-.1.4l-.1-.1h-.3c.1 0 .1.1.2.1 0-.1.1 0 .2 0 0 .1.1.1.2.1s.1 0 .1-.1c.1.1.2 0 .3.1.1 0 .2 0 .3.1.2-.1.4-.1.6 0 0 .1.1.1.2.1.2-.1.6-.1.9-.2h.1c.1 0 .2-.1.2-.1l.2-.1c.1-.2.1-.4.1-.6v-.4l.1-.1c-.1-.1 0-.1 0-.3-.1-.1.1-.1-.1-.3v-.1c.1-.1.2-.4.3-.5s.1-.3 0-.4c0-.1 0-.1.1-.2s.1-.4-.1-.6c0-.1 0-.1.1-.1.1-.2.1-.4 0-.6 0-.2.1-.3.1-.4v-.4c0-.2.1-.4 0-.6 0-.2-.1-.4-.1-.5.1-.2.1-.4.1-.4 0-.1-.1-.2-.2-.1-.2-.1-.3-.2-.4-.2-.4-.1-.4 0-.8-.2-.1.1-.2 0-.4 0l-.1.1c-.4 0-.6.1-1-.1h-.1c-.3 0-.4 0-.5-.1-.2 0-.3-.1-.4-.2-.1 0-.1 0-.2.1-.3.1-.5.1-.6-.1h-.4c-.1 0-.1 0-.1.1-.1-.1-.2-.1-.6-.1h-.7c-.1 0-.4-.1-.6-.1 0-.1-.1-.1-.1-.1-.2 0-.4 0-.4-.1-.1.2-.3 0-.3-.2-.1-.1-.4-.1-.6-.1s-.4 0-.8.2c-.4 0-.4.1-.1.1 0 0-.1.1-.5.1-.1 0-.3 0-.4.1 0-.1 0-.1-.1 0-.4.1-.6 0-.8-.1-.2 0-.4 0-.5-.1h-.1c-.1.1-.1.1-.2.1 0-.1-.1-.1-.2 0-.2.2-.5.1-.6.1h-.8c-.1-.1-.3-.1-.4 0s-.1 0-.3 0h-.1c0 .1-.1 0-.1 0l-.1-.1c-.1-.1-.2-.1-.3-.1s-.1.1-.3 0h-.4c-.1.1-.1.1-.1 0-.1 0-.2 0-.4.1h-.1c-.2-.1-.4 0-.6 0h-.1l-.7-.4-.1-.1c-.1-.1-.6-.4-.6-.5v-.1c.1-.1 0-.1.1-.2 0-.3.1-.6 0-.7s-.1-.1 0-.1c.1-.1.1-.1.1-.3-.1-.1 0-.3 0-.6 0-.2.1-.4 0-.5v-.1c.1-.1.1-.2.1-.6 0-.3 0-.4-.1-.5 0-.1.1-.2.1-.3s0-.1.1-.1c-.1 0-.1-.1-.1-.1h0c.1 0 .1 0 .1-.1s0-.1.1-.2c0-.1-.1-.3-.1-.3v-.1c-.1-.3-.1-.5 0-.6l.1-.1v-.6c.4-.1.6 0 .8 0l.1-.1c.1.1.1.1.2.1s.1 0 .3-.1c.1.1.2.1.3 0 .2 0 .3.1.4 0 .1 0 .3.1.3.1h.1c.2 0 .4-.1.6 0h.1c.1-.1.2 0 .4 0 .3 0 .4-.1.3-.1h.7l.1.1c.1.1.2.1.4-.1.1.1.3 0 .5 0 0 .1.1.1.1.1.2-.1.5 0 .7 0h1.3l.1.1c.1.1.2 0 .2-.1.2 0 .5.1.7-.1.4.1.6.1.9.1a3.73 3.73 0 0 0 1.2-.2v-.1c.2-.1.2 0 .3-.1.1 0 .4.1.6 0h.1c.2 0 .4.1.5 0l.1.1v.1h.3c.1-.1.2-.1.3 0h1.1c.3.2.5.2.9.2h.1c.4 0 .6-.1.8-.2.4-.1.3-.3.4-.4 0-.1 0-.1.1-.2l.1-.1h.1c.2-.1.4-.1.4-.2v-.1c.1-.1.1-.1.1-.3-.1-.2.1-.4-.1-.6v-.1c.1-.4.1-.6.1-.8v-.6c0-.3 0-.4.1-.5v-.1c-.1-.2-.1-.4 0-.5s0-.2 0-.4v-.4c-.1-.2-.1-.4 0-.4 0-.1.1-.5 0-.6 0-.1 0-.2.1-.2l-1.4.1v-.7h-1.6l-1.4-.1h-.4l-1.2.1h-1.4l-.3-.1-2.8-.1-1.1-.1-.2-.1-.3-.1h-1.2l-.6-.1-.5.1h-1.1l.1-.4.4-1.5z"/><path d="M398.2 302.8c-.1 0-.1-.1-.1-.1h.1c0-.2 0-.1 0 .1zm12 5.9c-.1-.4.1-.2.1-.4l.1.1h.1l-.3.3zm-.7-2.8l.1.1c0 .1-.1.3-.4.3l.3-.4zm-2.9 3.1c-.1-.2 0-.2-.1-.4l.5.3v.1h-.4zm4.1 0c-.1.1-.2.2-.2.3h-.2c0-.1.1-.1.1-.2.1-.1.1-.1.3-.2v.1zm1.2 0h-.1c-.1 0-.2 0-.3-.1l-.1.1c.1.1.2.3.4.4-.4 0-.5-.1-.7-.1l.4-.6c.1-.1.1-.1.1-.3l.1-.1c.1 0 .1 0 .2.1v.6zm-.8-3.6c-.3.1-.1.3-.1.5-.4.1-.5-.4-.6-.5.1-.2.1-.4.1-.4 0-.1.1-.1.2-.1s.1.1.3.1l.1.4zm-1.6.5c-.1 0-.1.1-.2.1h-.1v-.9c.1-.1.1-.2.3-.1l.5.2v-.1l-.1-.1.1-.1c.1.1.3.1.4.1v.1c-.1.2-.2.4-.4.4-.1 0-.2-.1-.4-.1-.1.3-.1.5-.1.5zm-2.4.7c-.1-.1-.1-.1-.1-.2.1-.1.1-.1.2-.1.1.2.2.2.4.2 0 .2 0 .4.1.4 0 .2-.1.2-.1.4-.1-.3-.3-.3-.4 0-.1.2-.2.4-.4.4s-.1-.1-.3-.4c.1-.1.4-.1.4-.4-.1-.2 0-.2.2-.3zm-.6-.2c-.1-.4-.1-.5-.1-.6-.1-.3 0-.4.1-.4s.1-.1.3-.2l.7-.7c0 .1 0 .1.1.1v.1c-.1.5-.2 1.1-.7 1.2-.1.1-.1.1-.2.3 0-.1 0 0-.2.2zm1 2.2c-.2-.1-.3-.1-.5-.3.2-.3.2-.4.4-.6.1.6.3.2.4.1.1.1.2.3.3.4v-.5c0-.1 0-.1-.1-.1v-.1c0-.1 0-.1.1-.1h.1c.1-.1.2-.3.1-.4-.1-.5.1-.6.4-1 0 0 .1-.1.1-.2s.1-.1.1-.3c0 .1.1.3.1.3 0 .1 0 .1.1.1v.4h.2c-.2.2-.3.4-.2.7.1 0 .1.1.3.1.1-.1.1 0 .2.1 0 .1.1.4 0 .5s-.2.4-.5.1c0 0 0 .1-.1.1 0 .1 0 .2.1.3-.1.1-.4.2-.3.4.1.1 0 .2-.1.3-.1 0-.2.1-.4.1l-.2.2c-.1-.1-.1-.3-.1-.3-.4-.1-.2-.1 0-.4h0c.1 0 .1 0 .1-.1-.4-.1-.6 0-.6.2zm14-3.2l-.1-.2c0-.1-.1-.1-.1-.1-.1-.3 0-.6-.1-.9 0 0 .1 0 .1-.1-.1-.4 0-.6 0-.9.1-.3.1-.6 0-.8 0 0 .1-.1.1-.5.1-.1.2-.3.1-.6v-1.6c0-.2.1-.4.2-.4h.1l-.4-.9-.1-1.9-.1-3.2c-.1-.1-.4-.3-.5-.3 0 .1-.1.1-.4-.1-.4-.1-1.2-.6-2.9-1.7l-5.5-1.4-4.2-2.1-3-1.2-1.2-.3-.2-.1c.1-.2.1-.4 0-.6v-.2c.1 0 .1 0 .1-.1s0-.2.1-.2v-.2l.1-.1s0-.1-.1-.1v-.7l.1-.1v-.5c-.1-.1-.1-.1-.1-.2h.7c.1-.1.4-.1.8-.1h.1c.1 0 .4 0 .6.1h.1l.1.1v.1l5.6-.1.4-.4h.4c.1.2.4 0 .5 0h.2a.76.76 0 0 0 .4.2h.6c.1 0 .2 0 .3.1h2.7c.1 0 .2-.1.4-.1.2.1.4.1.6 0h.1c.1.1.1.1.2.1h1.7c.1-.1.4 0 .6-.1.1 0 .1-.1.1-.2-.1-.4.1-.7.1-.9.1-.4.1-.6.1-.8v-.2l.1-.1v-.8c-.1-.3-.1-.5-.3-.7v-.4c0-.1 0-.1-.1-.1.1 0 .1-.2.1-.5v-.4c0-.4.1-.5.1-.7 0-.4 0-.5-.1-.6v-.1c0-.1.1-.5 0-.7 0-.1-.1-.2-.1-.4h-.1c-.1 0-.2-.1-.5 0h0c-.2-.1-.3 0-.4-.1l-.1.1v.1c-.2.1-.4 0-.6 0-.1 0-.2-.1-.3 0h-.2c-.1-.1-.1-.1-.4-.1 0-.1-.3-.1-.7-.1h-1.9c-.1 0-.3-.1-.4-.1h-.1c-.1.1-.2.1-.3.2s-.3.1-.4.1c-.1-.1-.1-.1-.1 0h-.2c-.1 0-.2-.1-.4 0-.1-.1-.2-.1-.4-.1-.1 0-.3-.1-.5-.1h-.6c-.3 0-.4 0-.5.1h-.1c-.1 0-.1-.1-.1-.1h-.1c-.2 0-.4-.1-.4-.1-.1 0-.3-.1-.5 0 0 .1-.1.1-.2.1h-.1c-.1-.1-.3-.1-.4 0h-.2c-.1 0-.1 0-.2.1h-.2c-.1-.1-.1 0-.3.1 0-.1 0-.1-.1-.1s-.1-.1-.3-.1h0c-.4.1-.6 0-.8 0h-.9c-.1-.1-.2 0-.4 0h-1c-.1 0-.1-.1-.2 0h-.7c0 .1-.2.1-.4.1h-.4c-.1-.1-.4 0-.6-.1-.2.2-.4.1-.8.1-.1-.1-.2-.1-.4 0-.1 0-.3.1-.4.1s-.2-.2-.4 0h-.1c-.1-.1-.2-.1-.4-.1s-.4 0-.8-.1h-.6c-.4 0-.7-.1-.9-.1h-.4l-.3-.1h-.4c-.1 0-.4-.1-.5.1h-.1c-.1-.1-.1.1-.2.1l-.1.2c-.1.2-.1.4-.1.7v.6h-.1l-.2.1-.1.1v.3l-.1.1c-.1.1 0 .2 0 .4v.6c.1.1 0 .1.1.1 0 .1 0 .1.1.2v.7c0 .1.1.1.1.1v.3c0 .1 0 .2.1.3v.1c0 .1-.1.4-.1.6v.4s.1.1.1.2-.1.1-.1.3c0 .1.1.2.1.2 0 .1 0 .1.1.1v.4h-.1v.1c0 .1.1.3.1.5h.1v.4c0 .1 0 .1-.1.1v.2c-.1 0-.1.2-.1.4l.1.1v.3c0 .1.1.1 0 .3v.1c0 .1-.1.1-.1.1.1.2 0 .4.1.6v.9s0 .1-.1.1v.9c-.1.1-.1.1-.1.2 0 0 0 .1.1.1v1.2l-.1.1v1.1c0 .1.1.2.1.4l3.7 1.9 1.2.7 6.2 1.8 4 2 2.8.9v.2c.1.4.1.6.1.9 0 0 .1.1.1.4v.1c-.2.2 0 .4 0 .5l-.1.5c-.1.2-.1.4 0 .5 0 .4.1.4-.1.9.1.2 0 .4.1.6-.1-.1-.1-.1-.3-.1-.1 0-.3-.1-.5-.1h-.6c-.3 0-.4 0-.5.1h-.1c-.1 0-.1-.1-.1-.1h-.1c-.2 0-.4-.1-.4-.1-.1 0-.3-.1-.5 0 0 .1-.1.1-.2.1h-.6c-.1-.1-.3-.1-.4 0h-.2c-.1 0-.1 0-.2.1h-.2c-.1-.1-.1 0-.3.1 0-.1 0-.1-.1-.1s-.1-.1-.3-.1h0c-.4.1-.6 0-.8 0h-.9c-.1-.1-.2 0-.4 0h-1c-.1 0-.1-.1-.2 0h-.7c0 .1-.2.1-.4.1h-.4c-.1-.1-.4 0-.6-.1-.2.2-.4.1-.8.1-.1-.1-.2-.1-.4 0-.1 0-.3.1-.4.1s-.2-.2-.4 0h-.1c-.1-.1-.2-.1-.4-.1s-.4 0-.8-.1h-.6c-.4 0-.7-.1-.9-.1h-.4l-.3-.1h-.4c-.1 0-.4-.1-.5.1h-.1c-.1-.1-.1.1-.2.1l-.1.2c-.1.2-.1.4-.1.7v1.1c-.1.2 0 .4 0 .5 0 .4-.1.7-.1 1.1v.9c.1.1.1.2 0 .3v1c-.1.1-.1.1-.1.4 0 .1-.1.2-.1.4 0 .1.1.2.1.2 0 .1 0 .1.1.1 0 .1.1.3 0 .4h-.1v.1c0 .1.1.3.1.5h.1l2.7.1h1.7l.6.4v-.1c.2-.1.2-.3.4-.3s.2 0 .3.1h.4c.1-.1.5-.1.6-.1h.1c.1.2.3 0 .4 0h1c.1-.1.4-.1.8-.1h.1c.1 0 .4 0 .6.1h.1l.1.1v.1l5.6-.2.4-.4h.4c.1.2.4 0 .5 0h.2a.76.76 0 0 0 .4.2h.6c.1 0 .2 0 .3.1h2.7c.1 0 .2-.1.4-.1.2.1.4.1.6 0h.1c.1.1.1.1.2.1h1.7c.1-.1.4 0 .6-.1.1 0 .1-.1.1-.2-.1-.4.1-.6.1-.9.1-.4.1-.6.1-.8v-.2l.1-.1v-.4h.1l.4-2.1zm-23.3-29.7c-.1 0-.1-.1-.1-.1l.1-.1v.2zm22.8.4h0v.1c0 .1 0 0 0-.1h0zm-20.4 2.5c.1 0 .2.1.2.1 0 .2-.1.3-.4.3l.2-.4zm-2.8 3.1c-.1-.1-.1-.3-.1-.4l.5.3v.1h-.4zm4.5-3.6c-.3 0-.1.2-.1.5-.4 0-.4-.4-.6-.5.1-.2.1-.4.1-.4 0-.1.1-.2.2-.1.1 0 .1.1.2.1l.2.4zm-1.7.5l-.1.1h-.1v-.8c.1-.1.1-.2.2-.1l.6.1-.1-.1c.1 0 .1 0 .1-.1.1.1.3.1.4.1v.1c-.1.2-.2.3-.4.3-.1.1-.2-.1-.4-.1-.1.3-.2.5-.2.5zm-2.3.7c-.1-.1-.1-.2-.1-.3.1-.1.1-.1.2-.1.1.3.2.2.4.2 0 .3 0 .4.1.4 0 .1-.1.2-.1.4-.1-.3-.3-.3-.4 0-.1.1-.2.3-.4.4-.1-.1-.1-.2-.3-.4.1-.1.4-.1.4-.5-.1 0 .1 0 .2-.1zm-.6-.3c-.1-.4-.1-.5-.1-.6-.1-.2 0-.4.1-.4 0 0 .1-.1.3-.2l.7-.7c0 .1 0 .1.1.1v.1c-.1.4-.2 1.1-.7 1.2-.1 0-.1.1-.2.3 0 .1-.1.1-.2.2zm1 2.2c-.2-.1-.3-.1-.5-.3.2-.3.2-.4.4-.6.1.6.3.3.4.1a1.38 1.38 0 0 1 .3.4v-.6c0-.1 0-.1-.2-.1v-.1l.1-.1h.1c.1-.1.2-.3.1-.4-.1-.4.1-.6.4-.9 0-.1.1-.1.1-.3 0-.1.1-.1.1-.2 0 .1.1.2.1.3s0 .1.1.1v.4c.1 0 0 .1.2.1-.2.2-.3.4-.2.6.1.1.1.1.3.1.1-.1.1 0 .2.1v.4c-.1.2-.2.4-.5.1 0 0 0 .1-.1.1 0 .1 0 .3.1.3-.1.2-.4.2-.3.5.1.1 0 .1-.1.2-.1 0-.2.1-.4.2l-.2.1c-.1-.1-.1-.2-.1-.2-.3-.1-.1-.2 0-.4 0-.1 0-.1.1-.1s.1 0 .1-.1c-.4.1-.6.2-.6.3z"/><path d="M454.5 273.8c0 .1-.1.1-.1.1h-.1c-.4.1-.5.1-.8.1-.1 0-.1 0-.1.1s-.1.2 0 .4c.1.1.1.1 0 .2-.1.3-.3.4-.4.2v.1h-.4c-.1 0-.1 0-.2.1 0 .1-.1.1-.2.1-.1-.1-.1-.1-.4-.1l-.4.3h-.4c-.1-.1-.2-.1-.2 0-.1 0-.3 0-.3-.1l-.1-.1h-.9c-.2 0-.3.1-.4 0h-.1c-.1 0-.1 0-.2.1-.1 0-.1-.1-.1-.1h-.4c-.1.1-.3 0-.4-.1-.1.1-.3.1-.4.1 0 .1-.1.1-.2.1l-.1-.2c-.1.1-.2.1-.2.2-.1.1-.2.1-.4.1l-.1-.1-.2.1c-.1 0-.1-.1-.2-.1-.1.4-.4.5-.6.2l-.1-.1c-.1 0-.2 0-.3.1s-.2.1-.3-.1c-.1 0-.3 0-.3.1-.1.1-.1.1-.3.1-.2-.1-.4 0-.6-.1-.1-.1-.2.1-.4-.1h-.6c-.1-.1-.3-.1-.5-.1-.1.1-.1.1-.2-.1 0-.1-.1-.1-.1-.1-.1.1-.1.1-.1 0h-.6l-.9.2h-.1c-.1-.1-.3-.1-.4 0h-.2c0-.1-.1-.1-.2-.1h-.3c-.1-.1-.4-.1-.5-.1s-.2-.1-.3-.1l-.1-.1h-.1l.2.2c-.4.1-.6.3-.9.2-.1 0-.1-.1-.3 0-.1.1-.3.1-.4-.1-.3.1-.5.1-.6.1s-.1.1-.3.1h-.7c-.1.1-.2.1-.4 0h-1.2l-.9.2c-.4 0-.7 0-.7.1h-.1c0 .1-.2.1-.6.1-.1 0-2.9-.1-3.1-.1-.1 0-.2 0-.2.1-.1 0-.4.1-.5.1-.4-.1-.6-.1-1-.1-.4.1-.8.3-1.2.1h-.1l-.1.3-.2 1 .1.6v6.1l.1.6h.8c.1-.1.1-.3.4-.1.1.1.2.1.4 0h.4c.1 0 .2.1.4 0 0 0 .1 0 .4.1.1-.1.2-.1.3-.1h3.4l.6-.1h.5c.2 0 .4 0 .7.1.2-.1.2-.1.4-.1.4-.1.5 0 .9 0h.1c.1 0 .2 0 .3-.1 0-.1.1-.1.2 0s.1.1.3.1l.2-.1c.1 0 .3 0 .6-.1.2-.1.2 0 .4-.1v.1l.1.1c.1.1.2.4.2.6v.4c0 .1-.1.1-.1.3 0 .1.1.4 0 .5 0 .3-.1.5-.1.8 0 .1.1.1-.1.4v.1c0 .2.1.9 0 1.2v.1c.1 0 0 .2-.1.5 0 .1-.1.1 0 .1v.3l-.1.1c.1.3.1.6-.1 1.2v.2c.1.1 0 .3 0 .4-.1.4-.2.7-.1.9 0 .1 0 .1-.1.1v.5c0 .4 0 .6-.1.8.1.2.1.4.1.5s0 .1.1.1v.4c0 .3-.1.5.1.5-.1.4-.1.6.1.8-.1.1-.1.2-.1.4v.6c.1 0 .1.1 0 .4v.1c.1 0 .1.1 0 .4v.2c0-.1-.1-.1-.1.3.1 0 .1 0 .1.1v.8c0 .4-.1.6-.1.9v1.9c-.1.2-.2.4-.1.6v.4c0 .1 0 .1-.1.1-.1.6-.1.9.1 1 0 .1 0 .1.1.1.1.1.1.2.1.4.1 0 .1 0 .1.1 0-.1.1-.1.1-.1 0-.1 0-.1.1-.1h0c.1.1.1.2.1.3s-.1.1-.2.1c0 .1 0 .1-.1.1h-.1c0 .1-.1.1-.1.1-.1 0-.1.1-.1.3.1.1.1.2-.1.4-.1.1-.1.1-.1.3-.1.1-.1.3-.1.5v.5c0 .2 0 .4-.1.8 0 .2-.1.4.1.6h0c-.1.3-.1.5-.1.7v1.7c0 .2 0 .3.1.1h.1c.2 0 .4-.1.4-.1l.1-.2c.1-.1.1-.1.3-.1l.1.1c.1 0 .2 0 .3.1.1 0 .2-.1.4-.1.1.1.1-.1.3 0 .2-.1.2-.2.4-.2 0 0 .1.1.3.2.1-.2.2-.2.3-.1.3.1.4.1.3.1.2-.1.2-.1.4 0h.4l.1.1c.1.1.2 0 .2-.1l.1-.1c.2.4.2.3.4.1.1.2.1.1.3.1.2.1.3-.1.4-.1.1.1.1.1.2.1s.1.1 0 .1c.2.1.4.1.4.3.1.1.1.1.3.1 0 .1.1 0 .1-.1-.1-.1-.1-.2.1-.2h.2v-.1c.1.1.1-.1.4-.1-.1 0-.1-.1-.1-.2l-.1-.1c.1 0 .1-.1.2-.1-.1-.1-.2-.1-.1-.2.2 0 .3.1.5.3 0 .1.1.1.1.3h.2c0-.1-.1-.2-.1-.3l.1-.1-.1-.1c0-.2.1-.1.1-.2-.2.1-.3.1-.3.1v-.1l.1-.1c-.1-.3-.2-.4-.1-.5l.1.1c0-.1.1-.1.1-.1h0l.1.1v-.3l.1-.2h-.1c-.1-.1-.1-.1-.1-.4v-.3c.1 0 0 .1.1.2h.1c0-.1.1-.2.1-.4l.2-.2c0 .1.2.2.1.4 0 .1.1.2.1.2 0 .1 0 .1.1.2.1-.2.1-.3.1-.4h-.1v-.1l.1-.1v-.5c.1-.1 0-.4.1-.5v-.1c-.1-.1 0-.1 0-.3v-.5l-.1-.1c0-.1-.1-.1-.1-.2.1-.1.2-.1.2-.3-.1-.1-.1-.1-.1-.2.1-.1.1-.1.1-.4v-.2c.1-.1.1-.1 0-.2 0-.2 0-.3.1-.4v-.1c-.1 0 0-.1 0-.4v-.3c.1-.2.1-.5 0-.7v-.3c0-.2.1-.5 0-.9-.1-.1 0-.1-.1-.1v-.3c-.1-.1-.1-.1 0-.3.1 0 .1-.1.1-.1 0-.2.1-.4 0-.5v-.1c0-.1-.1-.2-.1-.4-.1-.1-.1-.2-.1-.4l.1-.1c.1 0 .1-.1.1-.3s0-.2-.1-.2c-.1-.2-.1-.3-.1-.4s-.1-.4-.1-.7v-.1c.1-.1 0-.2 0-.4 0-.1 0-.2-.2-.3l-.1-.1c-.1 0-.1-.1-.1-.1s0-.1-.1-.1v-.1c-.2-.2-.1-.5-.1-.7s-.1-.4 0-.6c0-.1-.1-.3.1-.3.1-.1.1-.2 0-.3s-.1-.2 0-.4c.1-.1 0-.2 0-.4s0-.3-.1-.4c0-.2.2-.4.1-.6l.1-.1v-.4c.1-.1-.1-.4.1-.5v-.4c0-.4.1-.6.1-.8.1-.1 0-.2 0-.4v-.1l.1.1h.2v-.3c0-.1-.1-.1-.2-.1v-.1c0-.2.1-.4 0-.6v-.2c0-.2.1-.4.2-.8V287c0-.2 0-.4.1-.4 0-.1.1-.3.1-.4v-.1c0-.1.1-.1.1-.2s0-.1.1-.1v-.5c0-.2.1-.4.1-.6 0-.3 0-.4.1-.7 0-.1.1-.1 0-.3v-.2c.1-.1.4-.6.6-.5.1 0 .1 0 .1-.1.3-.1.4-.1.5 0 .3.1.6.2.7.4h.4l.1-.1c.1-.1.2-.1.3.1l.1-.1c.3 0 .6.1.8 0 .3-.1.6-.1.8-.1.1 0 .1.1.1.1h.4c.1.1.1.1.1 0 .1-.1.4-.1.6 0 .2 0 .2.1.4.1.3-.1.4-.1.5-.1h.4c.1.1.2.1.5.1.1-.1.3-.1.4 0h.4c.1.1.4.1.6 0h.1c.1 0 .3 0 .4.1 0 .1 0 .1.1.1h.4c.3 0 .5.1.5.1l-.1-1.6v-1.8l-.1-.8.3-1.5v-3h-.2c-.1 0-.2-.1-.3-.2 0-.1-.1-.1-.1-.1-.1-.1-.1-.1-.1 0h-.1c-.1 0-.2-.1-.2-.3-.1-.1-.1-.2-.1-.5zm-17 35.2l.2-.4.1.1c.1.1.1.1.2 0 .1 0 .1 0 .1-.1-.1 0-.1-.1-.1-.1l.2-.2c0-.1.1-.1.2-.1v-.2c.1 0 .2 0 .4.1.1 0 .2-.1.1-.2 0-.1.1-.1.1-.1v.2c.1 0 .1 0 .2.1l-.2.4c.1-.1.1-.1.4-.2v-.3c0-.1.1-.1.1-.2v.3h.1c0 .1 0 .1.1.2 0 0 0 .1-.1.1.1 0 .2-.1.3-.2v.2c.1-.1.2-.1.3 0h.2l.1-.1c.1-.1.2-.1.2.3l.3.1c0 .1.1.1.1.1.1 0 .1 0 .1.1.1.1.2.1.4.1.1 0 .1 0 .1.1s.1.4.1.6c0 .1-.1.1-.2.2 0 0-.1.1-.2.1 0-.1 0-.1-.1-.1-.1.1-.2.2-.4.1l-.1.2h-.1s-.1 0-.1.1c0-.1-.1-.1-.1-.1a.76.76 0 0 0-.4-.2h-.1c-.2 0-.3 0-.4-.2l-.1-.1c-.1.1-.1.2-.1.2v.1c.1.1-.1.3-.2.3l-.1-.2c-.1.1-.1.2-.2.3-.3 0-.4-.1-.1-.4-.1 0-.1 0-.2-.1v-.1c-.1 0-.1-.1-.2-.1-.1-.1-.1-.2.1-.2l.1-.1c-.1-.1-.1-.1-.2-.1l-.2.2c-.1-.1-.1 0-.2 0 0-.1 0-.3-.1-.3v-.2c-.2 0-.2-.1-.2-.2s0-.1.1-.1l-.3.3zm6.7-2.2h0s0 .1 0 0v-.4h-.1c-.1-.1 0-.2.1-.3 0 .2.1.3.2.3-.1.1-.1.3 0 .4l-.2.4-.1-.2v.1c0 .1-.1.1-.1.1l-.1-.1c.2.1.2 0 .3-.3h0zm9.9-32.6l.1-.1c.2.3.2.5 0 .6-.1-.1-.1-.2-.1-.5zm-15.8 3.4c.3 0 .4 0 .5-.1.1 0 .1.1.1.1h-.1c0 .1 0 .1-.1.1s-.1.1-.2.1h-.2v-.2zm4.9 32.3l-.1.1c-.1 0-.1-.1-.1-.1v-.2l.3-.1c-.1.1-.1.3-.1.3zm-5.8 0c0-.1.1-.1.1-.3h-.1c-.1 0-.1 0-.1-.1v-.1c0-.1.1-.1.1-.1.1 0 .1.1.1.2s0 .1.1.2l-.2.2zm6-.9c-.2-.1-.4-.1-.4-.3v-.1h.2c-.1.2.2.2.2.4zm-5.1 1.2s-.1 0-.1-.1l-.2-.2c.1-.1.2-.1.2 0l.1.3zm-1-32.4c-.1-.1.1-.2.1-.4l.1.2c0 .2 0 .2-.2.2zm-1.1 27.4l.1-.1s.1-.1.2 0c0 .1 0 .1-.1.2-.1 0-.1 0-.1.1l-.1-.2zm7.9 2.5h0l.1.4-.2-.1c0-.4.1-.5.1-.3zm-.4.5c-.1.1-.2.1-.3-.1.1 0 .1-.1.1-.1.1 0 .2.1.2.2zm.1-.3c.1.1.1.1.2.4-.1 0-.2-.1-.3-.2 0 0 0-.1.1-.2zm-5-30.6h.2v.1h-.1c-.1.1-.1.1-.1-.1h0zm4.4 30.9c0 .1-.1.1-.1.1 0-.1.1-.2.2-.2-.1 0-.1 0-.1.1zm1.4-1.5v-.3l.1.1c0 .1 0 .1-.1.2zm-1.4 1.5c.1 0 .1.1.2.1-.2.1-.2 0-.2-.1zm-3.7-.8c0 .1-.1.2-.1.2-.1-.1-.1-.2.1-.2h0zm4.8.3l.1.1c0 .1-.1.1 0 .1l-.1-.1v-.1zm-4.5-.5c0 .1-.1.2-.1.2-.1-.1 0-.2.1-.2zm-2.5 2c-.1 0-.1 0 0 0-.1-.1-.1-.1.1-.1 0 .1 0 .1.1.1h-.2zm5.4-.5v-.2c.1.1.1.2 0 .2zm5.1-25.7l.1.1-.1-.1zm7-8.2c-.1 0-.1 0-.1-.1.1 0 .1 0 .1.1h0zm-12.6 34.1l-.2.1-.1.1c0-.1 0-.1.1-.1h.2zm1 1c0 .1 0 .1.1.1h-.1v-.1zm-4.1-2.5c0 .1-.1.1-.1.1 0-.1.1-.2.1-.1zm4.1.3c0-.1 0-.2-.1-.2.1-.1.2 0 .1.2 0-.1 0-.1 0 0zm-3.6 2.8c-.1-.1-.1-.1 0-.1 0 .1.1.1 0 .1h0zm.2-3.6h0c-.1-.1-.1-.1 0-.1v.1zm-.2.1c-.1.1-.1.1 0 0l-.1.1.1-.1zm-2 3.3h0s0 .1 0 0h0zm7-12.1h0z"/><path d="M466.5 286.6c-.1 0 0-.1-.1-.4-.1 0-.1-.1-.1-.2.1-.3.1-.4.1-.7v-.1c0-.2-.1-.4 0-.6 0-.1-.1-.2-.1-.3.1 0 .1-.1.1 0 .1.1.2 0 .4.1h.1c.1.1.1.1.2.1h.1c.1 0 .3.1.4.1.3-.1.5-.1.7-.4.2-.1.4-.1.6-.2.2 0 .4.1.6.1h.3c.4-.1.7-.1.9 0 0-.1.1-.1.2 0 .2.1.4.1.6.3l.1-.1c.2.1.4 0 .6-.1l.1.1c0-.1 0-.1.1-.2.1 0 .1 0 .1-.1.1-.1.2 0 .4-.1h.1c.4 0 .6-.1.9-.1.2-.1.5.1.7-.1.2-.1.6-.1.9-.1.1 0 .3-.1.4-.1.1.1.3 0 .4 0 .3 0 .6 0 .7-.1.2 0 .4-.1.6 0h.3c.2 0 .4 0 .4-.1.2.1.4 0 .5-.1s.2-.1.3 0l.1-.1c.2 0 .4 0 .4.1h.1c.1-.1.2-.1.4-.1.1.1.4.1.6.2.3 0 .4-.1.4-.3h.1c.1-.3.1-.4.2-.6 0-.4.1-.3.3-.4.1.1.2.1.3 0l.1-.1c.1-.1.1-.2.1-.3v-1.5l-.1-.1-.1-.7-.1-.4v-1.4l.1-.5v-1.8l-.5-.5c-.1 0-.4.1-.5.1h-.2c-.1 0-.2-.1-.4.1h-.2c-.1-.1-.3-.1-.4 0h-.1l-.1-.1c-.1 0-.1 0-.2-.1s-.1-.1-.3-.1-.3 0-.4.1a.76.76 0 0 1-.4.2h-.6c-.1 0-.3 0-.4-.1-.1-.2-.1-.2-.2.1h-.1c-.2.1-.2 0-.4 0-.1.1-.2.1-.4 0v-.2c-.3.1-.6-.1-.9 0l-.1.2c-.2 0-.4.1-.4 0h-.1v.1c-.1.1-.2.1-.3.1-.2-.1-.4-.4-.5-.5s-.1-.1-.2 0h-.1c-.1.2-.1.4-.3.4-.1.1-.5.2-.7 0-.2 0-.3 0-.5-.3-.1 0-.1 0-.2.1-.3.1-.4.2-.7.2-.1.1-.2 0-.2 0-.1-.1-.1-.3-.2-.3s-.6.1-.8.3c-.1 0-.2.2-.3.2 0 .1-.1.1-.3.1-.1 0-.2 0-.2-.1h-.1c-.1 0-.2 0-.3-.1-.1 0-.3-.1-.4-.1l-.3.3c-.2.1-.4.1-.6.1-.1-.1-.2-.1-.3 0-.1.2-.2.2-.3 0-.1-.1-.4-.1-.5.1h-.1c-.1-.1-.2-.1-.2-.1h-.1c-.2-.1-.4-.2-.5-.1-.4.1-.6 0-.8 0-.1 0-.2-.1-.5.1h0c-.1-.1-.2 0-.5 0h-.2c-.2 0-.3.1-.4 0h-.4c-.1 0-.2-.1-.4 0-.2-.1-.1 0-.2-.1-.1.1-.1.1-.1 0h-.2c-.2 0-.4-.1-.5.1-.1.1-.3.1-.4.2 0 .1-.1.1-.2.1h-.1c-.2 0-.4 0-.4.1-.1.1-.1.1-.2 0h-.1l-.6.1c-.1-.1-.2-.1-.3-.1-.2-.1-.4.1-.4.3-.1.1-.2.3-.1.6 0 .3-.1.4-.1.6 0 .1-.1.1-.1.1l.1.2c-.1.2-.1.4-.1.6-.1.2 0 .4-.1.6-.1.1-.1.2 0 .4 0 .1-.1.4 0 .5v.1l-.2.8c.1.2-.1.4.1.4-.1.4 0 .6.2.9 0 .1-.1.2-.2.3 0 .6-.1.9-.3 1.2l-.1.1-.1.4c0 .1 0 .1.1.2 0 .1-.1.1-.1.3v.1c0 .1-.1.2-.1.4.1.1.1.2.1.4 0 .1-.1.1 0 .3-.1.1-.1.3 0 .4v.2c0 .2-.1.4 0 .6v.4c0 .1-.1.1-.1.1v.1c0 .3.1.5.2.6-.1.1-.1.3 0 .4s.1.3 0 .4-.1.2-.1.2c.1.4.1.5.1.7-.1.2.1.4-.1.5v.1c0 .1 0 .1.1.1-.1.1-.1.1-.1.3v.1c.1.1 0 .2 0 .5v1c-.1.1 0 .4-.1.5-.1 0-.1.1-.1.2.1.1 0 .1 0 .4.1.4-.1.6-.1.9v.1l-.1.1c0 .1-.1.1-.1.2v.4l-.1.1c-.1.2-.1.6 0 .8v.1c.1.1 0 .3 0 .4l-.1.4v.3c-.1.2 0 .5-.1.7v.1c0 .1.1.1.1.3-.1.4-.1.6-.1.6v1.3c0 .4 0 .6-.1.6.1.1.1.4.1.8 0 .2-.1.5-.1.8h.5c.1.4 0 .5-.1.7l.1.1c-.1.4-.2.7-.2 1.1v1.3c0 .1 0 .4-.1.6 0 .2-.1.4-.1.7s0 .5-.1.9c-.1.2 0 .5 0 .8 0 .1-.1.2.1.4v.7c-.1.1-.1.1 0 .1v.1c-.1.1 0 .3.1.4.1 0 .1.1.2.1 0 .1.1.1.1.1h.2s.2-.1.5-.1c.2.1.4.1.6 0v.1h.1c.1-.1.4-.2.6-.4.3-.1.4-.1.3-.1h.1c.1 0 .1 0 .1-.1s.1 0 .3.1c.1.1.3.4.4.4.1-.1.1-.2.2-.2s.2-.1.3-.1h.1s.4.1.4.4c.2.2.2.3.5.1.1-.1.2-.4.4-.4h.1c.1-.1.2-.1.4 0-.1.3-.1.4-.1.5h.6c.1 0 .1 0 .4-.1l.1-.4c0-.1 0 0 .2.2v.1c.1.1.3 0 .4.1v.1h.1c.1 0 .3 0 .4-.1s.2-.1.4-.4c0 .1.1.1.2 0v.3c.1-.1.1-.3.1-.3.1 0 .2 0 .4.2.1 0 .3 0 .4-.3.1.1.3.1.4.4 0 .1.2.1.5-.1.2-.3.4-.3.6.1l.1.1c.2-.1.4-.1.4-.1 0-.5.1-.5.4 0 .1.2.4.1.6 0 .1-.1.1-.1.2-.1.1-.1.3-.1.6 0h0c.2-.2.4-.1.4 0h.1c.3 0 .6.1.9.1.1.1.2.1.3.4l-.1.1v.1c.4.1.6.1.8 0 .1-.1.2 0 .4.1h.6c.1 0 .3.1.4 0s.4-.1.5-.2c.3-.1.4-.1.4.1 0 .1.1.1.2.1v-.1c0-.1.1-.1.2 0s.2 0 .2.1h.1l.1.1s.1-.1.3-.1c0-.1 0-.1.1-.2l-.1-.1h.1l.1.1c.1.1.1.1.2.1.1-.1.1 0 .1.1s.1.1.1.1v-.1h.1c.1 0 .1.1.2.1.2-.3.1-.3.5-.1-.1.1-.1.1.1.1.1-.1.1-.1 0-.3.1.1.2.2.4.2.1-.1.3 0 .4 0s.1 0 .1-.2c-.1 0-.1.1.2.1.1.1.2.1.3.1 0-.1-.1-.2-.1-.2.3-.1.3 0 .4-.1v.4l-.1-.1h-.1s.1.1.2.1c0-.1.1 0 .1 0 .1.1.1.1.3.1.1 0 .1 0 .1-.1.1.1.2 0 .3.1.1 0 .2 0 .3.1.2-.1.4-.1.6 0 0 .1.1.1.1.1.3-.1.6-.1.9-.2h.1c.1 0 .2-.1.2-.1l.2-.1c.1-.2.1-.4.1-.6v-.6l.1-.1c-.1-.1 0-.1 0-.3-.1-.1.1-.1-.1-.3v-.1c.1-.1.2-.4.3-.5v-.6c.2-.1.1-.4 0-.6v-.1a.47.47 0 0 0 .1-.6c0-.2.1-.3.1-.4v-.4c0-.2.1-.4 0-.6 0-.2-.1-.4-.1-.5.1-.2.1-.4.1-.4 0-.1-.1-.2-.2-.1l-.4-.2c-.4-.1-.4 0-.8-.2-.1.1-.2 0-.4 0l-.1.1c-.4 0-.6.1-1-.1h-.1c-.3 0-.4 0-.5-.1-.2 0-.3-.1-.4-.2-.1 0-.1 0-.2.1-.3.1-.5.1-.6-.1h-.5l-.1.1c-.1-.1-.3-.1-.6-.1h-.6c-.2 0-.4-.1-.6-.1 0-.1-.1-.1-.1-.1-.1 0-.3 0-.4-.1-.1.2-.3 0-.3-.2-.2-.1-.4-.1-.6-.1s-.4 0-.8.2c-.4 0-.4.1-.1.1 0 0-.1.1-.5.1-.2 0-.3 0-.4.1 0-.1 0-.1-.1 0-.4.1-.6 0-.9-.1-.1 0-.4 0-.5-.1h-.1c-.1.1-.1.1-.2.1s-.1-.1-.2 0c-.2.2-.5.1-.6.1h-.8c-.1-.1-.2-.1-.4 0-.1.1-.1 0-.3 0h-.1c-.1.1-.1 0-.1 0l-.1-.1c-.1-.1-.2-.1-.3-.1s-.1.1-.3 0h-.4c-.1.1-.1.1-.1 0-.1 0-.2 0-.4.1h-.1c-.2-.1-.4 0-.7 0h0l-.7-.4-.1-.1c-.1-.1-.6-.4-.6-.5v-.1c.1-.1 0-.1.1-.2 0-.3.1-.6 0-.7s-.1-.1 0-.1c.1-.1.1-.1.1-.3-.1-.1 0-.3 0-.6 0-.2.1-.4 0-.5v-.1c.1-.1.1-.2.1-.6 0-.3 0-.4-.1-.5 0-.1.1-.2.1-.3s0-.1.1-.1c-.1 0-.1-.1-.1-.1h0c.1 0 .1 0 .1-.1v-.2c0-.1 0-.3-.1-.3v-.1c-.1-.3-.1-.5 0-.6l.1-.1c0-.4 0-.5.1-.6.4-.1.6 0 .8 0 0-.1.1-.1.1-.1.1.1.1.1.2.1 0 0 .1 0 .3-.1.1.1.2.1.3 0 .1 0 .3.1.4 0 .1 0 .2.1.3.1h.1c.2 0 .4-.1.5 0h.1c.1-.1.2 0 .4 0 .3 0 .4-.1.3-.1h.7v.1c.1.1.3.1.4-.1.1.1.3 0 .4 0 .1.1.1.1.2.1.2-.1.5 0 .6 0h1.4l.1.1c.1.1.1 0 .1-.1.2 0 .6.1.8-.1.4.1.6.1.9.1a3.73 3.73 0 0 0 1.2-.2c0-.1 0-.1.1-.1.1-.1.2 0 .3-.1.1 0 .4.1.6 0h.1c.2 0 .4.1.5 0v.2h.4c.1-.1.2-.1.2 0h1.2c.2.2.5.2.9.2h.1c.4 0 .6-.1.8-.2.4-.1.2-.3.4-.4l.3-.3h.1c.3-.1.4-.1.4-.2v-.1c.1-.1.1-.1.1-.3-.1-.2.1-.4-.1-.6v-.1c.1-.4.1-.6.1-.8v-.6c0-.3 0-.4.1-.5v-.1c-.1-.2-.1-.4 0-.5s0-.2 0-.4v-.4c-.1-.2-.1-.4 0-.4 0-.1.1-.5 0-.6 0-.1 0-.2.1-.2l-1.4.1v-.7h-1.6l-1.3-.1h-1.3l-1.2.1h-1.4l-.3-.1-2.9-.1-1-.1-.2-.1-.3-.1h-1.2l-.6-.1-.5.1h-1.1l.1-.4.3-1.5zm-273.2 99.1l34.3 26.6c1.7 1.3 3.3 2.6 4.5 4.2l28.4 37.3c.6 1 1.7 1.8 2.9 1.9l47.1 6.4c2.5.3 5.2.6 7.6 1.7l38.2 16.1a81.75 81.75 0 0 1 0 9.9l-42.8-17.7c-7.2-1.4-14.5-2-21.7-3.2l-33-4.5c-.9-.1-1.8-.2-2.4-.9-3.9-4.2-6.4-9.5-10.3-13.7-2.6-2.9-4.8-6.1-7.2-9.2l-13.3-17.4c-1.8-2.4-4.4-4.1-6.8-6l-34-26.4c2.7-1.9 5.6-3.5 8.5-5.1zm132.5 49.4l30.5 12.9-.1 9.6c-3.2-.9-6.2-2.4-9.4-3.7l-23.6-9.9c-1.7-.7-3.5-1.2-5.3-1.4l-34.6-4.8c-3.5-.6-6.9-.6-10.3-1.5-1.7-.9-2.4-2.7-3.7-4l-23.1-30.4c-.9-1.2-2-2.4-3.2-3.3l-30.8-23.9c2.7-1.8 5.6-3.5 8.6-4.9l27.9 21.5c1.7 1.2 3.2 2.6 4.4 4.2l23.2 30.5c.8 1.1 1.8 1.9 3.1 1.9l36 4.9c3.5.6 7.2.8 10.4 2.3z"/></g><path d="M248.5 353.8c6 4.5 11.8 9.2 17.8 13.8 2.7 2.2 5.8 4 7.8 6.8l18 23.6c.8 1.2 1.9 2.3 3.5 2.4l32.5 4.5c2.9.3 5.5 1.6 8.1 2.7l20.2 8.5c.1 3.3.1 6.6-.1 9.9-6.6-2.6-13-5.5-19.7-8.2-3.6-1.4-7.1-3.4-10.9-3.8l-34.2-4.7c-1.5-.1-3-.4-3.9-1.8l-17.7-23.3c-1.8-2.3-3.5-4.9-5.8-6.7l-15.8-12.2c-2.7-2.2-5.6-4.2-8.1-6.6 2.6-1.7 5.4-3.3 8.3-4.9zm164.1 93.4l36.4-4.6c1.9 2.7 3.5 5.6 5 8.5-11.2 1.7-22.5 3-33.7 4.5-3.7.6-7.6.6-11 2.1l-41.9 17.1c-1.9.7-4.1 2.2-6.3 1.1l-41.8-17.6c-3.2-1.4-6.6-1.4-9.9-1.9l-37.4-5.3c1.4-3 3-5.8 4.8-8.5 11.3 1.3 22.5 3.1 33.8 4.5 3.7.6 7.5.6 10.9 2.1l39.7 16.6c1.2.6 2.6.5 3.8-.1l39-15.9c2.7-1.2 5.5-2.4 8.6-2.6z" class="S"/><path d="M406.2 418.3l27-3.4 4.9 8.6-32.7 4.2c-2.4.4-4.5 1.4-6.8 2.3l-31.5 13c-1.8.6-3.8 2-5.8.9L327 429.6c-3.2-1.4-6.9-1.6-10.4-2.1l-28.7-4c1.4-3 3.1-5.8 4.8-8.6 9.7 1 19.3 2.7 28.9 3.9 2.6.3 5.2.6 7.6 1.7l32.3 13.5c1.2.6 2.5.4 3.7-.1 11.2-4.8 22.5-9.2 33.8-13.9 2.1-1 4.6-1.4 7.2-1.7z" class="R"/><path d="M201.3 286.8h9.8l11.9 28.9c1.6 3.5 1.7 7.3 2.2 10.9l3.7 28.7c.1 1.3.6 2.6 1.7 3.3l24.4 18.9c3.2 2.6 6.8 4.8 9.1 8.2l17.1 22.6c-1.6 2.9-3.2 5.8-5 8.6L257 391.7c-1-1.4-2.2-2.6-3.5-3.6l-32-24.8c-1.1-.6-1.3-2-1.4-3.2l-4.2-33c-.3-2.4-.4-4.8-1.2-7.1-4.4-11.1-9.3-22.1-13.4-33.2z" class="M"/><path d="M499.6 410.8l32.9-25.1c2.9 1.5 5.8 3.1 8.4 4.9-11.7 9.4-23.8 18.3-35.7 27.5-1.9 1.7-3.5 3.8-5 5.8l-30 38.8c-.6 1-1.9 1.5-3.1 1.6l-49 6.3c-3.5.4-6.6 2.1-9.8 3.3l-38.9 15.8c0-3.2-.1-6.5.1-9.7 11.5-5.1 23.3-9.6 34.9-14.4 3.7-1.4 7.3-3.5 11.3-4l45.7-5.8c1.4-.1 2.9-.4 3.7-1.7l28.3-36.5c2-2.5 3.7-5.1 6.2-6.8z" fill="#ef9928"/><path d="M477.1 353.9c3.2.9 5.9 3.1 8.7 4.8-7.4 5.9-15.1 11.5-22.7 17.4-2.3 1.8-3.9 4.3-5.7 6.6l-15.6 20.1c-1.5 1.9-2.8 4-4.5 5.7-.8.4-1.8.5-2.7.6l-31.8 4c-3.1.3-6 1.6-8.8 2.8l-24.3 9.9c-.2-3-.4-6-.1-9.1.1-1 1.3-1.2 2-1.7l24.1-9.8c2.6-1.2 5.5-1.2 8.2-1.6l23.9-3c2-.3 4.5-.3 5.7-2.2l15.9-20.5c2.6-3.3 4.9-7.1 8.5-9.6 6.4-4.6 12.6-9.7 19.2-14.4z" class="M"/><path d="M205.8 197.1c2.9 1.4 5.7 3.1 8.4 4.8-1.2 11.7-3.2 23.4-4.6 35.1-.4 4.2-2.4 7.8-4 11.7l-12.5 29.9c-.6 1.2-.4 2.4.1 3.6L207 316c1.2 3.1 2.9 6.1 3.2 9.4l4.1 33.2c-2.8 1.7-5.7 3.3-8.6 4.9l-3.9-30.5c-.5-3.3-.6-6.7-1.9-9.8L183.1 282c-.5-1.2-.5-2.4.1-3.6l16-38.1c.4-1.2.9-2.4 1.1-3.6l5.5-39.6z" class="R"/><path d="M178.1 181.1c3 1.5 5.9 3.1 8.6 5l-5.4 39c-.4 3.4-.6 6.8-2 10l-15 36.1c-1.1 3-2.7 5.7-3.5 8.7.2 1.9 1.2 3.5 1.9 5.3l17.6 43.1c1.3 3 1.4 6.3 1.8 9.4l4.4 33.8c.1.9.2 1.9.1 2.8-2.6 1.9-5.5 3.3-8.4 4.9-.1-4.8-.6-9.4-1.7-14-1.3-7.8-2.1-15.6-3.2-23.5-.6-3.7-.5-7.5-2-10.9l-18.5-45.3c-.8-2.2-2.6-4.6-1.4-7.1l16.9-40.6c1.3-3.2 3-6.2 3.4-9.6l6.4-47.1z" class="S"/><path d="M276.3 143.5c1.8 2.6 3.5 5.3 4.8 8.1-.4 1.2-1.2 2.2-1.9 3.2l-17.4 22.3c-2 2.7-4.9 4.5-7.5 6.5l-23.9 18.3c-1.1.6-1.5 1.9-1.6 3.1l-5 36.7c-.4 3.2-2 6.2-3.2 9.2l-9.6 22.6c-3.2.1-6.6.3-9.9-.2 3.7-8.4 7.1-16.9 10.7-25.4 1.2-2.7 2.5-5.3 3-8.2l5.3-39.3c.1-1.3.4-2.7 1.6-3.5l30.5-23.3c.9-.7 1.8-1.6 2.5-2.4l21.6-27.7z" fill="#eb9b20"/><path d="M514.7 286.7l9.9-.1-12.3 29.6c-.7 1.7-1.2 3.5-1.4 5.3l-4.8 35.1c-.3 1.9-.4 3.9-1.1 5.7-1.2 1.4-2.7 2.3-4 3.4L474.3 386c-1.3 1-2.4 2.1-3.5 3.4L449.3 417l-5-8.6 17.6-22.7c1.7-2.1 3.2-4.3 5.3-5.9l27.7-21.1c1.2-.8 1.9-2.2 1.9-3.6l4.8-35.1c.3-2.4.9-4.9 1.9-7.1 4-8.7 7.5-17.5 11.2-26.2z" fill="#eb621c"/><path d="M546.8 286.6l9.7.1-15.6 37.5c-1.1 2.8-1.3 5.8-1.7 8.7l-5.2 37.7c-.4 2.5-.4 5.2-1.3 7.6-1.3 1.6-3.1 2.6-4.7 3.9l-32.8 25c-2.7 2-4.5 4.9-6.5 7.5l-23.3 30c-1.6-2.8-3.5-5.4-4.8-8.4.2-.9.9-1.7 1.4-2.6l21.2-27.1c1.6-2.2 3.2-4.4 5.3-6l34.2-26.1c2-1.3 1.9-3.9 2.2-6l5.5-40.2c.2-2.4.6-4.8 1.5-6.9l9.7-23.2c1.9-3.8 3.3-7.8 5.2-11.5z" class="R"/><path d="M260.3 115.7c1.9 2.7 3.5 5.6 5 8.4-8.1 10.9-16.6 21.5-24.8 32.2-1.7 2.3-4.2 4-6.4 5.7l-27.4 20.9c-1.7 1.4-3.7 2.5-5.1 4.2-.7 1.9-.7 4.1-1.1 6.1l-4.9 35.9c-.5 3.4-.7 6.9-2.1 10.2l-12.8 30.6c-.5 1.2-1.2 2.5-1.8 3.7-3.2 0-6.4.1-9.6-.1 5-12.6 10.4-25 15.6-37.5.9-2.4 1.2-5.1 1.5-7.7l5.5-40.2c.4-2 .4-4.1 1.1-6 1.2-1.5 2.9-2.5 4.4-3.7l32.5-24.8c1.7-1.2 3.1-2.7 4.3-4.2l26.1-33.7z" class="M"/><path d="M346 138.5c3.5-1.4 6.8-3 10.3-4 .3 3.2.1 6.4.1 9.6-6.6 3-13.2 5.5-19.9 8.2-3.6 1.4-7.1 3.4-10.9 3.7l-29.1 3.7c-1.5.1-3.2.5-4 1.9l-19.9 25.6c-1.9 2.7-4.7 4.5-7.3 6.5-5.7 4.2-11.2 8.7-16.9 12.7-2.8-1.5-5.6-3.2-8.4-4.8 7.6-6.2 15.5-11.9 23.1-17.9 2.4-2 4.1-4.7 6-7.1l16.7-21.5c1.4-1.6 2.4-4 4.8-4l29.4-3.7c2.7-.4 5.6-.5 8.2-1.7l17.8-7.2z" class="R"/><path d="M430.3 150.5c2.3.4 4.7.4 6.8 1.2 1.4 1.1 2.4 2.7 3.5 4l17.9 23.6c2.2 3 5.5 5 8.4 7.3l19 14.8c-2.7 1.7-5.3 3.5-8.3 4.8-1-.3-1.8-1-2.7-1.6l-19.4-15.1c-2.7-1.9-4.4-4.8-6.4-7.3l-13.5-17.8c-1.1-1.4-2-3-3.4-4.1-2.4-.8-4.9-.8-7.3-1.2l-28.6-4c-5.8-1.7-11.2-4.5-16.8-6.8-3.3-1.3-6.6-2.6-9.8-4.2-.1-3.2-.3-6.5.1-9.6 8.8 3.5 17.4 7.3 26.2 10.9 2.2.9 4.6 1.1 6.9 1.4l27.4 3.7z" class="S"/><path d="M508.4 274.2c.9 2.2 2 4.2 2.4 6.6-.2 1.7-1.2 3.3-1.8 5l-11.6 27.3c-1.5 3.5-1.7 7.3-2.2 10.9l-3.4 23.8c-2.9-1.4-5.8-2.9-8.4-4.8-.2-1 0-2.1.1-3.1l3.5-24.4c.4-3.2 1.9-6.2 3.2-9.1l8.7-20.6c.6-1.7 1.5-3.2 1.9-5-.4-2.4-1.7-4.7-2.6-7L487.5 247c-1.4-5.9-1.6-12-2.4-17.9-.5-3.6-1.1-7.1-1.2-10.7 2.7-1.7 5.5-3.4 8.5-4.6L496 242c.3 2.4 1.3 4.5 2.2 6.7l10.2 25.5z" class="R"/><path d="M511.6 201.8c2.9-1.7 5.6-3.5 8.6-4.8l4.1 32c.3 2.8.5 5.6 1.7 8.2l16.7 40.8c.6 1.2.6 2.6 0 3.8l-15.8 37.7c-1.6 3.5-1.7 7.3-2.2 11l-4.5 32.5c-3-1.4-5.8-3.3-8.6-5l4.9-35.9c.5-3.8 2.4-7.1 3.8-10.6l10.4-24.9c.8-2.2 1.9-4.2 2.4-6.5-.1-1.9-1.1-3.6-1.7-5.3l-12.7-31.1c-1.2-2.9-2.6-5.6-2.9-8.7l-4.2-33.2z" class="S"/><path d="M319.8 117.3l36.6-14.8v9.7c-9.3 4.1-18.9 7.7-28.3 11.7-3.3 1.3-6.6 3.1-10.2 3.5l-37.4 4.8c-1.4.2-2.9.3-3.7 1.5l-25.7 33.1c-1.1 1.4-2.3 2.7-3.7 3.7l-20.9 15.9c-1.9 1.5-3.8 3-5.9 4.2-2.8-1.5-5.6-3.1-8.3-4.9 7.6-6 15.3-11.7 23-17.6 3.2-2.6 6.9-4.8 9.4-8.1l26.9-34.6c.7-1.2 1.9-1.7 3.3-1.8l36.2-4.7c2.9-.5 5.9-.6 8.7-1.6zm129.7 26.2c7.1 8.6 13.5 17.8 20.5 26.6 1.9 2.2 4.4 3.7 6.6 5.5l26.3 20.3c1.2.9 2.7 2 2.7 3.7l4.8 37c.1 1.4.4 2.7.9 3.9l13.4 33c-3.2.1-6.6.1-9.8.1l-12.2-29.5c-1.4-3.1-1.4-6.6-1.9-9.8l-3.3-25.5c-.3-1.9-.3-4-.9-5.8-1.4-1.7-3.4-2.8-5-4.2L466 178.9c-2.3-1.7-4-4-5.6-6.3L444.7 152c1.4-3 3-5.8 4.8-8.5zm-39.2-10.7l27.7 3.8-5 8.6-30.7-4.1c-1.9-.2-3.7-.7-5.5-1.4l-32.2-13.5c-1.2-.6-2.6-.4-3.7.1l-33.8 13.9c-1.9.8-4 1.3-6.2 1.5l-28.2 3.5-4.9-8.5c10.8-1.7 21.7-2.8 32.6-4.3 2.8-.5 5.3-1.8 7.9-2.8l28.6-11.7c1.9-.7 3.8-1.9 6-2.2 2.1.4 4 1.5 6 2.2l30 12.5c3.6 1.7 7.5 1.9 11.4 2.4zM547.7 181c1.9 12.4 3.2 24.8 4.9 37.2.6 3.8.6 7.8 2.2 11.4l18.4 45.2c.8 2.2 2.5 4.5 1.4 6.9L558 321.3c-1.2 3.3-3.1 6.5-3.7 9.9l-6.6 47.8c-2.9-1.6-5.7-3.3-8.5-5l5.5-41.5c.3-2.4.6-4.8 1.4-7.1l17.5-41.8c.7-1.7 1.8-3.6.9-5.5l-18.9-46.4c-1.6-3.9-1.5-8.1-2.2-12.2l-4.2-34c2.8-1.3 5.6-2.9 8.5-4.5z" class="M"/><path d="M448.9 123.2c1.9.3 4.3.1 5.5 2.1l23.5 30.7c1.5 2.1 3.1 4.1 5.1 5.7l30.7 23.8c-2.9 1.8-5.8 3.5-8.7 5l-22.8-17.9c-3.3-2.7-7.1-4.8-9.6-8.3l-23.1-30.5c-1.4-2.1-4.2-1.8-6.3-2.2l-37.7-5.1c-3.4-.4-6.4-1.9-9.5-3.2l-26.2-10.9c-.3-3.3-.2-6.7-.1-10.1l33.4 14c2.6 1.2 5.5 1.4 8.3 1.8l37.5 5.1z" class="R"/><path d="M465.5 115.9c6.8 8.3 13 17 19.6 25.5 2.8 3.4 5 7.4 8.7 10.1l34.3 26.6c1.7 1.3 3.5 2.4 4.8 4 .7 2 .7 4.2 1 6.3l4.8 36.6c.4 2.7.4 5.4 1.4 7.9l16.6 40.6c-3.2.3-6.6.2-9.8 0-4.5-10.2-8.4-20.5-12.7-30.8-1.4-3.9-3.6-7.5-4-11.7l-5.3-41.8c-.1-1.6-1.1-3-2.4-3.9L489.7 160c-2.4-1.8-4.9-3.6-6.6-6l-22.4-29.5c1.4-3.1 3-6 4.8-8.6zm-49.8-12.1L454 109a175.69 175.69 0 0 1-4.9 8.6l-39.7-5.3c-2.2-.3-4.2-.9-6.3-1.8l-38-15.9c-1.2-.6-2.6-.9-3.8-.2l-37.4 15.3c-3.3 1.4-6.6 3.1-10.2 3.5l-36.7 4.6c-1.9-2.7-3.5-5.5-5-8.4 3.6-.9 7.3-1.1 11-1.6l28.7-3.7c1.6-.2 3.2-.6 4.6-1.2l45.3-18.5c1.4-.8 3 .1 4.4.6l40.5 16.9c2.8 1.2 6.1 1.4 9.2 1.9z" fill="#eb621c"/><path d="M464.9 95.5c1.9.3 4.2.1 5.3 2l30 39.3c2.3 3 5.6 5.1 8.6 7.5l32.4 25.2c-2.7 1.7-5.5 3.2-8.4 4.9-9.7-7-18.9-14.7-28.6-22-3.6-3.1-7.9-5.5-10.9-9.4l-28.2-36.9c-.6-1.1-1.9-1.6-3.2-1.7l-49.6-6.7c-2.8-.4-5.4-1.7-8.1-2.8l-34.8-14.5c-.1-3.3-.2-6.6.1-9.9 4.2 1.9 8.2 3.9 12.6 5.3l28.7 12c2.7 1.1 5.8 1.2 8.6 1.7l45.5 6z" fill="#eb9b20"/><path d="M254 100.6c1.2-1.4 2.2-3.5 4.4-3.6l49-6.3c3.8-.4 7.3-2.2 10.8-3.6l38-15.5c.1 3.2.1 6.5.1 9.7-10.9 4.9-22.2 9.1-33.3 13.8-4.5 1.6-8.8 4.1-13.6 4.7l-46.1 5.9c-1.3.1-2.3.9-3 1.9l-30.7 39.6c-1.8 2.2-4.2 3.9-6.5 5.6l-30 22.8c-2.9-1.6-5.8-3.2-8.5-5 3.7-2.7 7.5-5.2 10.9-8.3l24.7-18.9c2.3-1.9 4-4.4 5.8-6.7l28-36.1z" class="R"/><path d="M218 274.5c-.8 2.2-2 4.2-2.3 6.5.2 1.8 1.1 3.4 1.8 5l11.6 27.3c1.4 3.5 1.6 7.2 2.2 10.9l3.4 23.8c2.9-1.4 5.8-2.9 8.3-4.8.3-1 .1-2.1-.1-3.1l-3.5-24.4c-.4-3.2-1.9-6.2-3.2-9.1l-8.7-20.6c-.7-1.7-1.5-3.2-1.9-5 .4-2.4 1.7-4.7 2.6-7l10.7-26.8c1.4-5.9 1.6-12 2.4-17.9.5-3.6 1.1-7.1 1.2-10.7-2.7-1.7-5.5-3.4-8.4-4.6-1.4 9.4-2.3 18.7-3.6 28.2-.3 2.3-1.3 4.5-2.2 6.7L218 274.5zm288.1 95.9c2.8 1.7 5.8 3.2 8.4 5.2l-25.9 19.3c-2.2 1.7-4.7 3.2-6.3 5.5L454.9 435c-.8 1.1-1.9 1.7-3.3 1.8l-40.6 4.8c-3.8.4-7.2 2.2-10.7 3.5l-30.5 12c-.1-3.3.1-6.6.2-9.9l33.7-13.3c3.5-1.4 7.3-1.4 11-1.9 8.9-1.2 17.9-2.1 26.8-3.2 2.3-.4 4.7-.4 6.9-1.1 1.6-1 2.6-2.7 3.7-4.1l20.9-26.4c1.9-2.4 3.7-5 6.2-6.8l26.9-20z" class="M"/><path d="M241.6 407.9l22.2 29.2c-1.4 2.9-3.1 5.8-4.8 8.5-7.1-8.8-13.9-17.9-20.8-26.9-2.4-2.9-4.2-6.2-7.3-8.4L195 382.7c-1.7-1.3-4-2.4-4.1-4.8l-5.8-45.1c-.4-3.4-2.1-6.3-3.2-9.5l-14.3-35c3.3-.2 6.6-.2 9.8-.1 4.5 10.4 8.6 21 13 31.5 1.4 3.5 3.2 6.8 3.7 10.5l5.6 42.7c.1 1.4.9 2.4 2 3.2l33.3 25.6c2.3 1.9 4.8 3.8 6.6 6.2z" fill="#ef9928"/><path d="M464.3 328c.6-1 1.5-1.3 1.2-3l-2.9-3.2c8.9-.4 8.2 7.8 4.5 11.2-4.1 3.6-9.5 2.4-13.5 6.3-4 4-3.6 11.7 2.2 13.1 7.8 1.9 8.6-10 1-7.1l-.7 4.2c-7.7-5.1 3.7-14.4 11.5-10.5l-3.7 2.2c-.1 4.5 3.6 5.5 6.1 2.9 1.8-2.1 1.3-4.4-.2-6.5-1-1.4-.4.1-1.5-2 1.7-2.3 3.9-4.2 4-8.3.1-3.7-1.9-6.5-4.3-7.7-9.1-4.5-13.2 9.6-3.7 8.4zm-203.2 6.4c-1 2.1-5.5 3.7-.7 9.6l4.5-.3c1.2-3.6.4-6.9-3.5-4 .6-4.9 7.8-2.6 10.7-1.1 3.7 1.9 6.3 8.9 0 9.5.8-1.4 1.3-2.2.1-4.2-2.2-.4-2.7-.3-4.4.4-1.7 7.1 4.5 8.9 8.6 5.2 3.9-3.5 1.9-10-1.9-12.7-4.4-3.1-9.1-1.8-12.6-5.9-3.9-4.5-2.6-11.1 5-10.4-.1.1-.4.1-.4.4-.5 1.6-3.7.4-1.9 5.3 8.9 3.2 7.6-11.6-2.3-8.1-3 1-5 3.8-5.1 7.4-.2 4.4 2 6.8 3.9 8.9z" fill="#af8c56"/><text transform="translate(278.578 330.694)" class="M N O">O</text><text transform="translate(300.465 330.694)" class="M N O">R</text><text transform="translate(320.553 330.694)" class="M N O">Q</text><text transform="translate(342.944 330.694)" class="M N O">U</text><text transform="translate(364.327 330.694)" class="M N O">E</text><text transform="translate(383.334 330.694)" class="M N O">S</text><text transform="translate(402.486 330.694)" class="M N O">T</text><text transform="translate(421.565 330.694)" class="M N O">R</text><text transform="translate(441.653 330.694)" class="M N O">A</text><g transform="matrix(1.06552 0 0 1 -1126.7 1030.55)" class="M P Q"><text transform="translate(1330.713 -678.649)">S</text><text transform="translate(1346.408 -678.649)">A</text><text transform="translate(1363.544 -678.649)">N</text><text transform="translate(1381.615 -678.649)">F</text><text transform="translate(1396.519 -678.649)"></text><text transform="translate(1415.166 -678.649)">N</text><text transform="translate(1433.237 -678.649)">I</text><text transform="translate(1443.893 -678.649)">C</text><text transform="translate(1460.164 -678.649)">A</text></g><g fill="#af8c56"><path d="M356.2 159.2h4.6v48.7h-4.6zm7.6 0h4.6v48.7h-4.6zm15 2.7h4.6v45.9h-4.6zm8 2.8h4.6v43.2h-4.6zm7.2 1.9h4.6v41.2H394zm15 4.4h4.6v36.9H409zm7.7 3.3h4.6v33.5h-4.6zm15.5 6.4h4.6v27.2h-4.6zm7.3 4.9h4.6v22.3h-4.6zm7.3 6.4h4.6v15.8h-4.6zM341 162.2h4.6v45.7H341zm-7.6 1.6h4.6v44.1h-4.6zm-7.3 1.9h4.6v42.1h-4.6zm-14.9 6.4h4.6v35.8h-4.6zm-7.9 2.3h4.6v33.4h-4.6zm-14.7 5.7h4.6v27.8h-4.6z"/><path d="M280.8 184.6h4.6v23.3h-4.6zm-7.8 7.1h4.6v16.1H273zm151.8 180.5c1-3.4-2.3-3.7-4.6-1.5.6 1.8-.7 2.2 1.7 3 1.6.5 2.6-.5 2.9-1.5zm-3.7 7.2c.9-3.4-2.3-3.7-4.7-1.5.7 1.8-.7 2.2 1.8 3 1.6.6 2.6-.4 2.9-1.5zm-4.6 7.2c.9-3.5-2.3-3.7-4.7-1.5.7 1.8-.7 2.2 1.8 3 1.5.6 2.5-.5 2.9-1.5zm-104-20.8c.7.3-.7.4 1.9.5l1.4-.6c2.2-5.6-5.8-5.6-3.3.1zm8.6-.4c.1.1 3.7 2.2 3.7-1.8l-.6-1.3c-3.1-1.4-4.6-.3-3.1 3.1z"/><ellipse cx="279.6" cy="363.9" rx="2.6" ry="2.4"/><ellipse cx="287.8" cy="363.9" rx="2.6" ry="2.4"/><ellipse cx="296.5" cy="363.9" rx="2.6" ry="2.4"/><ellipse cx="305.1" cy="363.9" rx="2.6" ry="2.4"/><ellipse cx="313.9" cy="363.9" rx="2.6" ry="2.4"/><ellipse cx="322.8" cy="363.9" rx="2.6" ry="2.4"/><ellipse cx="331.8" cy="363.9" rx="2.6" ry="2.4"/><ellipse cx="340" cy="363.9" rx="2.6" ry="2.4"/><ellipse cx="348.4" cy="363.9" rx="2.6" ry="2.4"/><ellipse cx="357.3" cy="363.9" rx="2.6" ry="2.4"/><ellipse cx="366.1" cy="363.9" rx="2.6" ry="2.4"/><ellipse cx="375.1" cy="363.9" rx="2.6" ry="2.4"/><ellipse cx="383.6" cy="363.9" rx="2.6" ry="2.4"/><ellipse cx="392.3" cy="363.9" rx="2.6" ry="2.4"/><ellipse cx="400.8" cy="363.9" rx="2.6" ry="2.4"/><ellipse cx="409.7" cy="363.9" rx="2.6" ry="2.4"/><ellipse cx="418.5" cy="363.9" rx="2.6" ry="2.4"/><ellipse cx="427.4" cy="363.9" rx="2.6" ry="2.4"/><ellipse cx="435.7" cy="363.9" rx="2.6" ry="2.4"/><ellipse cx="444.2" cy="363.9" rx="2.6" ry="2.4"/><path d="M307.7 373.4c.7.4-.8.4 1.9.5l1.3-.6c2.3-5.5-5.8-5.5-3.2.1zm-3.8 7.3c.7.4-.7.4 2 .5l1.3-.6c2.3-5.6-5.8-5.6-3.3.1zm-4.7 7.2c.7.3-.7.4 2 .5l1.3-.6c2.3-5.6-5.8-5.6-3.3.1zm17.1-14.9c.1.2 3.7 2.2 3.7-1.8l-.6-1.3c-3.2-1.3-4.6-.3-3.1 3.1zm-3.7 7.3c.2.2 3.7 2.2 3.8-1.8l-.6-1.3c-3.2-1.4-4.8-.3-3.2 3.1zm-4.7 7.2c.1.1 3.7 2.2 3.8-1.8l-.6-1.3c-3.2-1.4-4.7-.3-3.2 3.1z"/><ellipse cx="283" cy="371.5" rx="2.6" ry="2.4"/><ellipse cx="291.6" cy="371.5" rx="2.6" ry="2.4"/><ellipse cx="300.3" cy="371.5" rx="2.6" ry="2.4"/><ellipse cx="296.6" cy="378.8" rx="2.6" ry="2.4"/><ellipse cx="309.1" cy="371.5" rx="2.6" ry="2.4"/><ellipse cx="305.4" cy="378.8" rx="2.6" ry="2.4"/><ellipse cx="300.7" cy="386" rx="2.6" ry="2.4"/><ellipse cx="317.9" cy="371.5" rx="2.6" ry="2.4"/><ellipse cx="314.2" cy="378.8" rx="2.6" ry="2.4"/><ellipse cx="309.5" cy="386" rx="2.6" ry="2.4"/><ellipse cx="327" cy="371.5" rx="2.6" ry="2.4"/><ellipse cx="323.3" cy="378.8" rx="2.6" ry="2.4"/><ellipse cx="318.5" cy="386" rx="2.6" ry="2.4"/><ellipse cx="335.2" cy="371.5" rx="2.6" ry="2.4"/><ellipse cx="331.5" cy="378.8" rx="2.6" ry="2.4"/><ellipse cx="326.7" cy="386" rx="2.6" ry="2.4"/><ellipse cx="343.5" cy="371.5" rx="2.6" ry="2.4"/><ellipse cx="339.8" cy="378.8" rx="2.6" ry="2.4"/><ellipse cx="335.2" cy="386" rx="2.6" ry="2.4"/><ellipse cx="331" cy="392.9" rx="2.6" ry="2.4"/><ellipse cx="352.5" cy="371.5" rx="2.6" ry="2.4"/><ellipse cx="348.8" cy="378.8" rx="2.6" ry="2.4"/><ellipse cx="344.1" cy="386" rx="2.6" ry="2.4"/><ellipse cx="340" cy="392.9" rx="2.6" ry="2.4"/><ellipse cx="361.3" cy="371.5" rx="2.6" ry="2.4"/><ellipse cx="357.6" cy="378.8" rx="2.6" ry="2.4"/><ellipse cx="352.9" cy="386" rx="2.6" ry="2.4"/><ellipse cx="348.8" cy="392.9" rx="2.6" ry="2.4"/><ellipse cx="370.2" cy="371.5" rx="2.6" ry="2.4"/><ellipse cx="366.5" cy="378.8" rx="2.6" ry="2.4"/><ellipse cx="361.8" cy="386" rx="2.6" ry="2.4"/><ellipse cx="357.6" cy="392.9" rx="2.6" ry="2.4"/><ellipse cx="378.7" cy="371.5" rx="2.6" ry="2.4"/><ellipse cx="375.1" cy="378.8" rx="2.6" ry="2.4"/><ellipse cx="370.3" cy="386" rx="2.6" ry="2.4"/><ellipse cx="366.2" cy="392.9" rx="2.6" ry="2.4"/><ellipse cx="387.4" cy="371.5" rx="2.6" ry="2.4"/><ellipse cx="383.8" cy="378.8" rx="2.6" ry="2.4"/><ellipse cx="379" cy="386" rx="2.6" ry="2.4"/><ellipse cx="374.9" cy="392.9" rx="2.6" ry="2.4"/><ellipse cx="395.9" cy="371.5" rx="2.6" ry="2.4"/><ellipse cx="392.3" cy="378.8" rx="2.6" ry="2.4"/><ellipse cx="387.5" cy="386" rx="2.6" ry="2.4"/><ellipse cx="383.4" cy="392.9" rx="2.6" ry="2.4"/><ellipse cx="404.8" cy="371.5" rx="2.6" ry="2.4"/><ellipse cx="401.1" cy="378.8" rx="2.6" ry="2.4"/><ellipse cx="396.4" cy="386" rx="2.6" ry="2.4"/><ellipse cx="392.3" cy="392.9" rx="2.6" ry="2.4"/><ellipse cx="413.7" cy="371.5" rx="2.6" ry="2.4"/><ellipse cx="410" cy="378.8" rx="2.6" ry="2.4"/><ellipse cx="405.3" cy="386" rx="2.6" ry="2.4"/><ellipse cx="422.6" cy="371.5" rx="2.6" ry="2.4"/><ellipse cx="418.9" cy="378.8" rx="2.6" ry="2.4"/><ellipse cx="414.2" cy="386" rx="2.6" ry="2.4"/><ellipse cx="430.9" cy="371.5" rx="2.6" ry="2.4"/><ellipse cx="427.2" cy="378.8" rx="2.6" ry="2.4"/><ellipse cx="422.5" cy="386" rx="2.6" ry="2.4"/><ellipse cx="439.3" cy="371.5" rx="2.6" ry="2.4"/></g></svg>