<?xml version="1.0"?>
<svg xmlns="http://www.w3.org/2000/svg" viewBox="0 0 64 64" width="512px" height="512px"><g><g id="accordian"><path d="M5.879,17.879a3,3,0,1,0,4.243,0h0L3.757,11.515,6.586,8.687,5.172,7.272.929,11.515l5.8,5.8A2.815,2.815,0,0,0,5.879,17.879Zm2.828,2.828a1.021,1.021,0,0,1-1.414,0,1,1,0,1,1,1.414-1.414h0A1,1,0,0,1,8.707,20.707Z" data-original="#000000" class="active-path" data-old_color="#ffffff" fill="#ffffff"/><path d="M56,23a3,3,0,0,0,2.122-5.121,2.832,2.832,0,0,0-.847-.568l5.8-5.8L58.828,7.272,57.414,8.687l2.829,2.828-6.364,6.364h0A3,3,0,0,0,56,23Zm-.707-3.707a1,1,0,0,1,1.414,1.414,1.021,1.021,0,0,1-1.414,0,1,1,0,0,1,0-1.414Z" data-original="#000000" class="active-path" data-old_color="#ffffff" fill="#ffffff"/><path d="M20,16a3,3,0,0,0,3-3V4h4V2H21v8.184A2.966,2.966,0,0,0,20,10a3,3,0,0,0,0,6Zm0-4a1,1,0,1,1-1,1A1,1,0,0,1,20,12Z" data-original="#000000" class="active-path" data-old_color="#ffffff" fill="#ffffff"/><path d="M40,17a3,3,0,0,0,3-3V5h6V9.184A2.966,2.966,0,0,0,48,9a3,3,0,1,0,3,3V3H41v8.184A2.966,2.966,0,0,0,40,11a3,3,0,0,0,0,6Zm8-4a1,1,0,1,1,1-1A1,1,0,0,1,48,13Zm-8,0a1,1,0,1,1-1,1A1,1,0,0,1,40,13Z" data-original="#000000" class="active-path" data-old_color="#ffffff" fill="#ffffff"/><path d="M50.9,28.271l2.065-3.578-6.932-4-2.316,4.011.167-.613a4,4,0,1,0-7.721-2.071L36,22.634V22a4,4,0,0,0-8,0v.634l-.163-.607a4,4,0,1,0-7.723,2.062l.164.609-2.312-4-6.932,4,1.779,3.081-4.391,4.39A2.976,2.976,0,0,0,7.97,35.8L2.293,41.463a5.008,5.008,0,0,0,0,7.074l10.17,10.17a5.007,5.007,0,0,0,7.075,0l2.88-2.889a2.969,2.969,0,0,0,2.049-.87l2.557-2.557.562.974A2.92,2.92,0,0,0,30.1,54.81a2.951,2.951,0,0,0,1.455-.4.946.946,0,0,1,.892,0A2.9,2.9,0,0,0,36.4,53.385l12.093,6.981,14.5-25.115ZM24.142,31.384l-2.1-7.814a1.973,1.973,0,0,1,.2-1.513,2,2,0,0,1,3.659.482L30,37.827V22a2,2,0,0,1,4,0V37.827l4.1-15.293a1.959,1.959,0,0,1,.921-1.206,2,2,0,0,1,3,1.722,1.952,1.952,0,0,1-.066.521l-2.1,7.813L32,45ZM18.123,57.293a3.081,3.081,0,0,1-4.246,0L3.707,47.123a3.006,3.006,0,0,1,0-4.245l5.355-5.346,1.093,1.72L4.417,45,16,56.583l3.168-3.159.646,1.008a2.909,2.909,0,0,0,.543.621ZM18.065,51.7,16,53.757,7.244,45l4.01-4.018Zm7.091-.268-1.324-1.986-1.664,1.11,1.545,2.318-.66.66a1.016,1.016,0,0,1-1.553-.176L12.272,38.851,9.705,34.814a.99.99,0,0,1,.132-1.237l1.055-1.055L13.2,35.6l1.6-1.2-2.48-3.306,1.528-1.528L25.989,50.6Zm8.98,1.344a.868.868,0,0,1-.68-.088,2.994,2.994,0,0,0-2.9-.007.905.905,0,0,1-1.24-.319L13.766,25.427l3.468-2L32,49,46.766,23.425l3.468,2L34.664,52.383A.882.882,0,0,1,34.136,52.775Zm15.122,2.261-6.062-3.5.5-.866,6.062,3.5Zm3-5.2L46.2,46.34l.5-.866,6.062,3.5Zm3-5.2-6.062-3.5.5-.867,6.062,3.5Zm1.5-2.6-7.8-4.5-2.5,4.331,7.794,4.5-.5.865-7.794-4.5-2.5,4.331,7.794,4.5-.5.866-7.794-4.5-2.5,4.331,7.794,4.5-.5.866L37.4,51.654,49.9,30l10.357,5.98-.5.866-7.794-4.5-2.5,4.33,7.794,4.5Zm1.624-2.814-.125.216-6.062-3.5.5-.865,6.062,3.5Z" data-original="#000000" class="active-path" data-old_color="#ffffff" fill="#ffffff"/></g></g> </svg>
