<svg xmlns="http://www.w3.org/2000/svg" viewBox="0 0 64 64" width="512" height="512" fill="#fff"><path d="M5.88 17.88a3 3 0 1 0 4.243 0h0l-6.365-6.364 2.83-2.828-1.414-1.415L.93 11.515l5.8 5.8a2.815 2.815 0 0 0-.85.564zm2.828 2.828a1.021 1.021 0 0 1-1.414 0 1 1 0 1 1 1.414-1.414h0a1 1 0 0 1 0 1.414zM56 23a3 3 0 0 0 2.122-5.121 2.832 2.832 0 0 0-.847-.568l5.8-5.8-4.247-4.24-1.414 1.415 2.83 2.828-6.364 6.364A3 3 0 0 0 56 23zm-.707-3.707a1 1 0 0 1 1.414 1.414 1.021 1.021 0 0 1-1.414 0 1 1 0 0 1 0-1.414zM20 16a3 3 0 0 0 3-3V4h4V2h-6v8.184A2.966 2.966 0 0 0 20 10a3 3 0 0 0 0 6zm0-4a1 1 0 1 1-1 1 1 1 0 0 1 1-1zm20 5a3 3 0 0 0 3-3V5h6v4.184A2.966 2.966 0 0 0 48 9a3 3 0 1 0 3 3V3H41v8.184A2.966 2.966 0 0 0 40 11a3 3 0 0 0 0 6zm8-4a1 1 0 1 1 1-1 1 1 0 0 1-1 1zm-8 0a1 1 0 1 1-1 1 1 1 0 0 1 1-1zm10.9 15.27l2.065-3.578-6.932-4-2.316 4 .167-.613a4 4 0 1 0-7.721-2.071l-.163.614V22a4 4 0 0 0-8 0v.634l-.163-.607a4 4 0 1 0-7.723 2.062l.164.6-2.312-4-6.932 4 1.78 3.08-4.4 4.4A2.976 2.976 0 0 0 7.97 35.8l-5.677 5.663a5.008 5.008 0 0 0 0 7.074l10.17 10.17a5.007 5.007 0 0 0 7.075 0l2.88-2.9a2.969 2.969 0 0 0 2.049-.87l2.557-2.557.562.974A2.92 2.92 0 0 0 30.1 54.81a2.951 2.951 0 0 0 1.455-.4.946.946 0 0 1 .892 0 2.9 2.9 0 0 0 3.953-1.025l12.093 6.98 14.5-25.115zm-26.758 3.113l-2.1-7.814a1.973 1.973 0 0 1 .2-1.513 2 2 0 0 1 3.659.482l4.1 15.29V22a2 2 0 0 1 4 0v15.827l4.1-15.293a1.959 1.959 0 0 1 .921-1.206 2 2 0 0 1 3 1.722 1.952 1.952 0 0 1-.066.521l-2.1 7.813L32 45zm-6.02 25.9a3.081 3.081 0 0 1-4.246 0l-10.17-10.17a3.006 3.006 0 0 1 0-4.245l5.355-5.346 1.093 1.72L4.417 45 16 56.583l3.168-3.16.646 1.008a2.909 2.909 0 0 0 .543.621zm-.058-5.593L16 53.757 7.244 45l4-4.018zm7.1-.268l-1.324-1.986-1.664 1.1 1.545 2.318-.66.66a1.016 1.016 0 0 1-1.553-.176L9.705 34.814a.99.99 0 0 1 .132-1.237l1.055-1.055L13.2 35.6l1.6-1.2-2.48-3.306 1.528-1.528L26 50.6zm8.98 1.344a.868.868 0 0 1-.68-.088 2.994 2.994 0 0 0-2.9-.007.905.905 0 0 1-1.24-.319l-15.55-26.935 3.468-2L32 49l14.766-25.575 3.468 2-15.57 26.958a.882.882 0 0 1-.528.392zm15.122 2.26l-6.062-3.5.5-.866 6.062 3.5zm3-5.2L46.2 46.34l.5-.866 6.062 3.5zm3-5.2l-6.062-3.5.5-.867 6.062 3.5zm1.5-2.6l-7.8-4.5-2.5 4.33 7.794 4.5-.5.865-7.794-4.5-2.5 4.33 7.794 4.5-.5.866-7.794-4.5-2.5 4.33 7.794 4.5-.5.866-10.35-5.97L49.9 30l10.357 5.98-.5.866-7.794-4.5-2.5 4.33 7.794 4.5zm1.624-2.814l-.125.216-6.062-3.5.5-.865 6.062 3.5z"/></svg>