<svg xmlns="http://www.w3.org/2000/svg" viewBox="0 0 512 512"><g transform="matrix(1.25 0 0 -1.25 0 45)"><path d="M409.6-271.2c0-25.134-20.378-45.51-45.51-45.51H45.51C20.378-316.71 0-296.334 0-271.2v204.8c0 25.134 20.378 45.51 45.51 45.51H364.09c25.134 0 45.51-20.378 45.51-45.51v-204.8z" fill="#009b3a"/><path d="M372.36-168.8L204.79-295.366 37.217-168.8 204.79-42.222 372.36-168.8z" fill="#fedf01"/><path d="M278.005-167.9c0 40.585-32.905 73.478-73.478 73.478-40.585 0-73.478-32.893-73.478-73.478 0-40.573 32.893-73.478 73.478-73.478 40.573.001 73.478 32.905 73.478 73.478" fill="#002776"/><path d="M139.685-133.415c-3.777-7.066-6.35-14.825-7.646-23.017 45.443 3.3 107.145-21.527 133.62-52.292 4.574 6.872 7.964 14.575 10.035 22.8-32.666 31.96-90.067 52.7-136 52.508" fill="#cbe9d4"/><path d="M147.9-182.83h-11.378v11.378H147.9v-11.378zm11.38-22.754H147.9v11.378h11.378v-11.378z" fill="#88c9f9"/><path d="M182.044-182.83h-11.378v11.378h11.378v-11.378zm22.756-11.377h-11.378v11.378H204.8v-11.378zm45.5-22.755h-11.378v11.378H250.3v-11.378zm-34.132-11.378H204.8v11.378h11.378v-11.378zm34.132 68.267h-11.378v11.378H250.3v-11.378z" fill="#55acee"/><path d="M227.556-205.584h-11.378v11.378h11.378v-11.378z" fill="#3b88c3"/></g></svg>