<svg xmlns="http://www.w3.org/2000/svg" viewBox="0 0 59 59" width="512" height="512" fill="#fff"><path d="M31.793 41.707c.195.195.45.293.707.293s.512-.098.707-.293l3.293-3.293 3.293 3.293c.195.195.45.293.707.293s.512-.098.707-.293a1 1 0 0 0 0-1.414L37.914 37l3.293-3.293a1 1 0 0 0-1.414-1.414L36.5 35.586l-3.293-3.293a1 1 0 0 0-1.414 1.414L35.086 37l-3.293 3.293a1 1 0 0 0 0 1.414zM26.5 0a1 1 0 1 0 0 2c1.302 0 2.402.838 2.816 2H31.4a5.01 5.01 0 0 0-4.9-4zm6 0a1 1 0 1 0 0 2c1.302 0 2.402.838 2.816 2H37.4a5.01 5.01 0 0 0-4.9-4zm6 0a1 1 0 1 0 0 2c1.302 0 2.402.838 2.816 2H43.4a5.01 5.01 0 0 0-4.9-4z"/><path d="M43.4 4c.066.323.1.658.1 1 0 2.757-2.243 5-5 5a1 1 0 1 1 0-2c1.654 0 3-1.346 3-3 0-.353-.072-.686-.184-1H37.4c.066.323.1.658.1 1 0 2.757-2.243 5-5 5a1 1 0 1 1 0-2c1.654 0 3-1.346 3-3 0-.353-.072-.686-.184-1H31.4c.066.323.1.658.1 1 0 2.757-2.243 5-5 5a1 1 0 1 1 0-2c1.654 0 3-1.346 3-3 0-.353-.072-.686-.184-1H25.4c.066.323.1.658.1 1 0 2.757-2.243 5-5 5a1 1 0 1 1 0-2c1.654 0 3-1.346 3-3 0-.353-.072-.686-.184-1h-5.632c.414-1.162 1.514-2 2.816-2s2.402.838 2.816 2H25.4a5.01 5.01 0 0 0-9.798 0H.5v55h58V4H43.4zM14.5 57h-12V45h12v12zm0-14h-12V31h12v12zm0-14h-12V17h12v12zm14 28h-12V45h12v12zm0-14h-12V31h12v12zm0-14h-12V17h12v12zm14 28h-12V45h12v12zm0-14h-12V31h12v12zm0-14h-12V17h12v12zm14 28h-12V45h12v12zm0-14h-12V31h12v12zm0-14h-12V17h12v12z"/></svg>