<svg xmlns="http://www.w3.org/2000/svg" viewBox="0 0 512 512"><circle cx="256" cy="256" r="256" fill="#5f98d1"/><path d="M415.813 147.466H95.558l116.02 120.806 33.48 33.9c-18.216-4.164-19.343-6.76-27.415-13.35-4.234-3.457-12.414-12.852-24.838-25.54l-104.587-106.8v198.822l8.265 8.265-.925.963L242.68 511.657c4.412.226 8.852.343 13.32.343 141.385 0 256-114.615 256-256a261.87 261.87 0 0 0-.313-12.661l-95.874-95.873z" fill="#3a6da1"/><path d="M88.217 156.484v198.822l96.958-99.813zm335.566 0v198.822l-96.476-99.4zm-328.225-9.018h320.255L289.948 278.524c-8.958 9.327-21.33 14.6-34.262 14.6a47.5 47.5 0 0 1-34.262-14.6L95.558 147.466zM297.2 285.496c-10.8 11.244-25.933 17.694-41.523 17.694a57.85 57.85 0 0 1-41.522-17.693l-21.35-22.23-97.257 101.267h320.255l-97.256-101.267-21.348 22.23z" fill="#fff"/></svg>