<?xml version="1.0" encoding="utf-8"?>
<!-- Generator: Adobe Illustrator 19.0.0, SVG Export Plug-In . SVG Version: 6.00 Build 0)  -->
<svg version="1.1" id="Capa_1" xmlns="http://www.w3.org/2000/svg" xmlns:xlink="http://www.w3.org/1999/xlink" x="0px" y="0px"
	 viewBox="-223 25 512 512" style="enable-background:new -223 25 512 512;" xml:space="preserve">
<style type="text/css">
	.st0{fill:#FFFFFF;stroke:#000000;stroke-miterlimit:10;}
	.st1{fill:#6E87F5;}
</style>
<path class="st0" d="M148.5,537h-231c-77.6,0-140.5-62.9-140.5-140.5v-231C-223,87.9-160.1,25-82.5,25h231
	C226.1,25,289,87.9,289,165.5v231C289,474.1,226.1,537,148.5,537z"/>
<path class="st1" d="M191,35h-316c-48.6,0-88,39.4-88,88v316c0,48.6,39.4,88,88,88H33c0-0.1,0-104.9,0-196.5h-59v-71h59v-52
	c0-33.3,15.5-84.9,84.2-84.9h74.5v69.7c0,0-49.6,0-56.7,0c-7.6,0-18,3.6-18,19.3V259h75.2l-7.2,71.5h-68c0,90.7,0,196.4,0,196.5h74
	c48.6,0,88-39.4,88-88V123C279,74.4,239.6,35,191,35z"/>
<path d="M33,420.5c-5.5,0-10-4.5-10-10v-0.1c0,0,0,0,0,0s0,0,0,0c0-5.5,4.5-10,10-10c5.5,0,10,4.5,10,10c0,0,0,0,0,0s0,0,0,0
	s0,0,0,0s0,0,0,0C43,416,38.5,420.5,33,420.5z"/>
<path d="M191,537h-74c-5.5,0-10-4.5-10-10V330.5c0-5.5,4.5-10,10-10h58.9l5.2-51.5H117c-5.5,0-10-4.5-10-10v-47.5
	c0-21.6,15.1-29.3,28-29.3h46.7v-49.7h-64.5c-67,0-74.2,52.4-74.2,74.9v52c0,5.5-4.5,10-10,10h-49v51h49c5.5,0,10,4.5,10,10V369
	c0,5.5-4.5,10-10,10s-10-4.5-10-10v-28.5h-49c-5.5,0-10-4.5-10-10v-71c0-5.5,4.5-10,10-10h49v-42c0-13.4,2.4-39.1,18.2-60.8
	c11.3-15.6,33.7-34.1,76-34.1h74.5c5.5,0,10,4.5,10,10v69.7c0,5.5-4.5,10-10,10H135c-5.8,0-8,2.5-8,9.3V249h65.2
	c2.8,0,5.5,1.2,7.4,3.3c1.9,2.1,2.8,4.9,2.5,7.7l-7.2,71.5c-0.5,5.1-4.8,9-10,9h-58V517h64c43,0,78-35,78-78V123c0-43-35-78-78-78
	h-316c-43,0-78,35-78,78v316c0,43,35,78,78,78H23v-67.5c0-5.5,4.5-10,10-10c5.5,0,10,4.5,10,10V527c0,5.5-4.5,10-10,10h-158
	c-54,0-98-44-98-98V123c0-54,44-98,98-98h316c54,0,98,44,98,98v316C289,493,245,537,191,537z"/>
<path d="M-165,231c-5.5,0-10-4.5-10-10v-83.5c0-5.5,4.5-10,10-10s10,4.5,10,10V221C-155,226.5-159.5,231-165,231z"/>
<path d="M-165,274.5c-5.5,0-10-4.5-10-10v-0.1c0-5.5,4.5-10,10-10s10,4.5,10,10v0.1C-155,270-159.5,274.5-165,274.5z"/>
</svg>
