<svg xmlns="http://www.w3.org/2000/svg" viewBox="0 0 512.002 512.002"><circle cx="256.001" cy="256" r="256" fill="#4e598f"/><path d="M511.596 241.7L391.02 121.085c-1.998.605-6.982-1.714-9.173-1.274-51.717 8.62-101.7 0-151.704 13.79-24.135 6.896-25.86 36.202-34.478 55.165-12.067 34.478-10.343 72.404-25.86 105.158-10.343 22.41-34.478 36.202-43.098 62.06-2.875 10.785-2.705 24.38-5.956 34.7l120.98 120.922c4.725.26 9.48.403 14.27.403 141.384 0 256-114.616 256-256 .001-4.8-.142-9.567-.404-14.3z" fill="#364270"/><g fill="#fff"><path d="M363.043 109.466H148.958c-21.81 0-39.5 17.68-39.5 39.5V363.04c0 21.81 17.68 39.5 39.5 39.5h105.584l.183-104.722h-27.2a6.42 6.42 0 0 1-6.418-6.396l-.133-33.76c-.014-3.553 2.867-6.444 6.42-6.444h27.162v-32.618c0-37.852 23.118-58.463 56.884-58.463h27.7c3.543 0 6.42 2.874 6.42 6.42v28.463a6.42 6.42 0 0 1-6.416 6.42l-17.006.01c-18.363 0-21.92 8.725-21.92 21.533v28.24h40.35a6.42 6.42 0 0 1 6.375 7.173l-4 33.76a6.42 6.42 0 0 1-6.375 5.665H300.4l-.183 104.726h62.826c21.81 0 39.5-17.682 39.5-39.49v-214.1c.001-21.81-17.68-39.5-39.49-39.5h0z"/><path d="M254.542 402.53l.183-104.722h-.448V402.53z"/></g><path d="M363.043 109.466H254.277v141.74h.27V218.6c0-37.852 23.118-58.463 56.884-58.463h27.7c3.543 0 6.42 2.874 6.42 6.42V195a6.42 6.42 0 0 1-6.416 6.42l-17.006.01c-18.363 0-21.92 8.725-21.92 21.533v28.238h40.35a6.42 6.42 0 0 1 6.375 7.173l-4 33.76a6.42 6.42 0 0 1-6.375 5.665H300.4l-.183 104.726h62.826c21.81 0 39.5-17.682 39.5-39.49V148.956c.001-21.81-17.68-39.5-39.49-39.5z" fill="#d1d1d1"/></svg>