<svg xmlns="http://www.w3.org/2000/svg" width="512" height="512" viewBox="0 0 438.536 438.536" fill="#fff"><path d="M158.173 352.6c-3.05.568-4.38 2-4 4.28s2.093 3.046 5.138 2.283 4.38-2.095 3.997-3.997c-.378-2.092-2.1-2.95-5.136-2.567zm-16.275 2.285c-3.046 0-4.568 1.04-4.568 3.14 0 2.474 1.62 3.518 4.853 3.138 3.046 0 4.57-1.047 4.57-3.138 0-2.47-1.62-3.522-4.855-3.14zm-22.268-.863c-.76 2.095.478 3.52 3.7 4.284 2.855 1.137 4.664.568 5.424-1.714.572-2.1-.666-3.6-3.7-4.568-2.856-.76-4.663-.102-5.424 1.998zm294.77-329.9C398.326 8.042 378.964 0 356.3 0H82.225C59.577 0 40.208 8.042 24.123 24.123S0 59.576 0 82.225v274.088c0 22.65 8.042 42.017 24.123 58.098s35.454 24.126 58.102 24.126h63.953c4.184 0 7.327-.144 9.42-.424 2.092-.288 4.184-1.526 6.28-3.717s3.14-5.376 3.14-9.562l-.144-19.417-.144-29.4-6.567 1.143c-4.187.76-9.47 1.095-15.846 1s-13-.76-19.84-1.998-13.23-4.093-19.13-8.562c-5.898-4.477-10.085-10.328-12.56-17.56l-2.856-6.57c-1.903-4.373-4.9-9.23-8.992-14.554-4.093-5.332-8.232-8.95-12.42-10.852l-2-1.428c-1.33-.95-2.568-2.098-3.7-3.43s-1.997-2.67-2.568-3.997c-.57-1.335-.097-2.43 1.427-3.3s4.28-1.28 8.28-1.28l5.708.855c3.808.76 8.516 3.042 14.134 6.85s10.23 8.754 13.846 14.843c4.38 7.806 9.657 13.75 15.846 17.843s12.42 6.143 18.7 6.143 11.704-.476 16.274-1.424c4.565-.954 8.848-2.385 12.847-4.288 1.713-12.75 6.377-22.56 13.988-29.4-10.848-1.143-20.602-2.854-29.265-5.14s-17.605-5.995-26.835-11.136-16.894-11.512-22.985-19.13-11.088-17.6-14.987-29.978-5.852-26.652-5.852-42.83c0-23.03 7.52-42.637 22.557-58.814-7.044-17.32-6.38-36.732 1.997-58.242 5.52-1.714 13.706-.428 24.554 3.855s18.794 7.95 23.84 10.992 9.1 5.614 12.135 7.7c17.705-4.95 35.976-7.423 54.818-7.423s37.115 2.474 54.82 7.423l10.85-6.852c7.426-4.57 16.18-8.757 26.27-12.562s17.795-4.854 23.127-3.14c8.562 21.5 9.328 40.922 2.28 58.24 15.036 16.18 22.56 35.786 22.56 58.815 0 16.18-1.95 30.505-5.852 42.97s-8.94 22.463-15.13 29.98c-6.184 7.52-13.894 13.843-23.124 18.986-9.232 5.137-18.178 8.853-26.84 11.132-8.66 2.286-18.414 4.004-29.263 5.147 9.9 8.562 14.84 22.072 14.84 40.538v68.238c0 3.237.472 5.852 1.424 7.85a7.88 7.88 0 0 0 4.57 4.14c2.102.76 3.95 1.235 5.57 1.424s3.95.287 6.995.287h63.953c22.648 0 42.018-8.042 58.095-24.126 16.084-16.084 24.126-35.454 24.126-58.102V82.225c-.002-22.65-8.044-42.02-24.125-58.102zM86.793 319.195c-1.33.948-1.14 2.47.572 4.565 1.906 1.902 3.427 2.2 4.57.855 1.33-.948 1.14-2.47-.575-4.57-1.902-1.7-3.424-1.997-4.567-.85zm-9.42-7.138c-.57 1.335.096 2.478 2 3.426 1.52.955 2.762.767 3.7-.568.57-1.335-.096-2.478-2-3.433-1.903-.572-3.14-.38-3.7.575zm18.272 18.273c-1.715.948-1.715 2.666 0 5.137 1.713 2.478 3.328 3.142 4.853 1.998 1.714-1.334 1.714-3.142 0-5.427-1.52-2.468-3.14-3.046-4.853-1.708zm9.994 12.844c-1.714 1.526-1.336 3.327 1.142 5.428 2.28 2.28 4.185 2.566 5.708.85 1.524-1.52 1.143-3.326-1.142-5.42-2.28-2.28-4.185-2.568-5.708-.857z"/></svg>