<?xml version="1.0" encoding="utf-8"?>
<!-- Generator: Adobe Illustrator 19.0.0, SVG Export Plug-In . SVG Version: 6.00 Build 0)  -->
<svg version="1.1" id="Layer_1" xmlns="http://www.w3.org/2000/svg" xmlns:xlink="http://www.w3.org/1999/xlink" x="0px" y="0px"
	 viewBox="-228 30 502 502" style="enable-background:new -228 30 502 502;" xml:space="preserve">
<style type="text/css">
	.st0{fill:#FFFFFF;}
	.st1{fill:#F2484B;}
</style>
<path class="st0" d="M177,532h-308c-53.6,0-97-43.4-97-97V127c0-53.6,43.4-97,97-97h308c53.6,0,97,43.4,97,97v308
	C274,488.6,230.6,532,177,532z"/>
<g>
	<g>
		<g>
			<path class="st1" d="M-162.5,35h371c33.4,0,60.5,27.1,60.5,60.5v371c0,33.4-27.1,60.5-60.5,60.5h-371
				c-33.4,0-60.5-27.1-60.5-60.5v-371C-223,62.1-195.9,35-162.5,35z"/>
		</g>
		<g>
			<path d="M207.5,532h-369c-36.7,0-66.5-29.8-66.5-66.5v-369c0-36.7,29.8-66.5,66.5-66.5h369c36.7,0,66.5,29.8,66.5,66.5v369
				C274,502.2,244.2,532,207.5,532z M-156.5,522h359c34,0,61.5-27.5,61.5-61.5v-359c0-34-27.5-61.5-61.5-61.5h-359
				c-34,0-61.5,27.5-61.5,61.5v359C-218,494.5-190.5,522-156.5,522z"/>
		</g>
	</g>
	<g>
		<g>
			<path class="st0" d="M104.2,490.5H-58.2c-70.7,0-128.3-57.5-128.3-128.3V199.8c0-70.7,57.5-128.3,128.3-128.3h162.4
				c70.7,0,128.3,57.5,128.3,128.3v162.4C232.5,432.9,174.9,490.5,104.2,490.5z M-58.2,119.7c-44.2,0-80.1,35.9-80.1,80.1v162.4
				c0,44.2,35.9,80.1,80.1,80.1h162.4c44.2,0,80.1-35.9,80.1-80.1V199.8c0-44.2-35.9-80.1-80.1-80.1L-58.2,119.7L-58.2,119.7z"/>
			<path d="M104.2,495.5H-58.2c-73.5,0-133.3-59.8-133.3-133.3V199.8c0-73.5,59.8-133.3,133.3-133.3h162.4
				c73.5,0,133.3,59.8,133.3,133.3v162.4C237.5,435.7,177.7,495.5,104.2,495.5z M-58.2,76.5c-68,0-123.3,55.3-123.3,123.3v162.4
				c0,68,55.3,123.3,123.3,123.3h162.4c68,0,123.3-55.3,123.3-123.3V199.8c0-68-55.3-123.3-123.3-123.3L-58.2,76.5L-58.2,76.5z
				 M104.2,447.3H-58.2c-46.9,0-85.1-38.2-85.1-85.1V199.8c0-46.9,38.2-85.1,85.1-85.1h162.4c46.9,0,85.1,38.2,85.1,85.1v162.4
				C189.3,409.1,151.1,447.3,104.2,447.3z M-58.2,124.7c-41.4,0-75.1,33.7-75.1,75.1v162.4c0,41.4,33.7,75.1,75.1,75.1h162.4
				c41.4,0,75.1-33.7,75.1-75.1V199.8c0-41.4-33.7-75.1-75.1-75.1L-58.2,124.7L-58.2,124.7z"/>
		</g>
	</g>
	<g>
		<g>
			<path class="st0" d="M23,370.1c-49.1,0-89.1-40-89.1-89.1s40-89.1,89.1-89.1c49.1,0,89.1,40,89.1,89.1S72.1,370.1,23,370.1z
				 M23,234.3c-25.8,0-46.7,21-46.7,46.7s21,46.7,46.7,46.7s46.7-21,46.7-46.7C69.7,255.2,48.8,234.3,23,234.3z"/>
		</g>
	</g>
	<g>
		<g>
			<path class="st0" d="M123,198c-9.4,0-17-7.6-17-17s7.6-17,17-17s17,7.6,17,17S132.3,198,123,198z"/>
			<path d="M123,203c-12.1,0-22-9.9-22-22s9.9-22,22-22s22,9.9,22,22S135.1,203,123,203z M123,169.1c-6.6,0-12,5.4-12,12
				s5.4,12,12,12s12-5.4,12-12S129.6,169.1,123,169.1z"/>
		</g>
	</g>
	<g>
		<path d="M-52.7,411c-30,0-54.3-24.4-54.3-54.3V266c0-2.8,2.2-5,5-5s5,2.2,5,5v90.7c0,24.4,19.9,44.3,44.3,44.3c2.8,0,5,2.2,5,5
			S-49.9,411-52.7,411z"/>
	</g>
	<g>
		<path d="M-102,230c-2.8,0-5-2.2-5-5v-19.7c0-2.8,2.2-5,5-5s5,2.2,5,5V225C-97,227.8-99.2,230-102,230z"/>
	</g>
	<g>
		<g>
			<path d="M23,375.1c-51.9,0-94.1-42.2-94.1-94.1s42.2-94.1,94.1-94.1c14,0,27.5,3,40.1,9c2.5,1.2,3.6,4.2,2.4,6.7
				c-1.2,2.5-4.2,3.6-6.7,2.4c-11.3-5.3-23.3-8-35.9-8c-46.4,0-84.1,37.7-84.1,84.1s37.7,84.1,84.1,84.1s84.1-37.7,84.1-84.1
				c0-2.8,2.2-5,5-5s5,2.2,5,5C117.1,332.9,74.9,375.1,23,375.1z M23,332.7c-28.5,0-51.7-23.2-51.7-51.7c0-28.5,23.2-51.7,51.7-51.7
				s51.7,23.2,51.7,51.7C74.7,309.5,51.5,332.7,23,332.7z M23,239.3c-23,0-41.7,18.7-41.7,41.7S0,322.7,23,322.7S64.7,304,64.7,281
				C64.7,258,46,239.3,23,239.3z M104.5,250c-1.9,0-3.7-1.1-4.6-3c-3.2-7.1-7.3-13.8-12.3-19.8c-1.8-2.1-1.5-5.3,0.6-7
				c2.1-1.8,5.3-1.5,7,0.6c5.6,6.7,10.3,14.2,13.8,22.2c1.1,2.5,0,5.5-2.5,6.6C105.9,249.9,105.2,250,104.5,250z"/>
		</g>
	</g>
</g>
</svg>
