<svg xmlns="http://www.w3.org/2000/svg" viewBox="0 0 512 512"><circle cx="256" cy="256" r="256" fill="#6c27b3"/><path d="M374.7 132.922c-30.587 3.872-62.48 3.737-94.575.68-44.822-3.448-110.33-24.135-134.465 17.24-38.772 66.236-19.65 151.035-10.614 226.078l134.737 134.708c130.388-6.923 234.886-111.407 241.83-241.8L374.7 132.922z" fill="#501a96"/><path d="M315.227 109.468H196.772c-48.14 0-87.304 39.164-87.304 87.304v118.455c0 48.138 39.164 87.305 87.305 87.305h118.455c48.138 0 87.305-39.165 87.305-87.305V196.772c-.001-48.14-39.166-87.304-87.306-87.304h0zm57.823 205.76c0 31.934-25.888 57.822-57.822 57.822H196.773c-31.934 0-57.822-25.888-57.822-57.822V196.773c0-31.934 25.888-57.823 57.822-57.823h118.455c31.934 0 57.822 25.9 57.822 57.823v118.455zM256 180.202c-41.794 0-75.798 34.004-75.798 75.798s34.004 75.795 75.798 75.795 75.795-34 75.795-75.795-34-75.798-75.795-75.798h0zm0 122.1c-25.58 0-46.316-20.733-46.316-46.313S230.42 209.684 256 209.684 302.313 230.42 302.313 256 281.58 302.313 256 302.313h0z" fill="#fff"/><path d="M350.103 180.774c0 10.03-8.132 18.163-18.163 18.163s-18.163-8.133-18.163-18.163 8.133-18.163 18.163-18.163 18.163 8.13 18.163 18.163h0zm-34.875-71.306h-59.802v29.482h59.802c31.934 0 57.822 25.9 57.822 57.823v118.455c0 31.934-25.888 57.822-57.822 57.822h-59.802v29.482h59.802c48.138 0 87.304-39.165 87.304-87.305V196.772c0-48.14-39.165-87.304-87.304-87.304zM256 180.202l-.574.014v29.482l.574-.014c25.58 0 46.313 20.735 46.313 46.316S281.58 302.313 256 302.313c-.193 0-.383-.012-.574-.014v29.482l.574.014c41.794 0 75.795-34.002 75.795-75.795s-34-75.798-75.795-75.798z" fill="#d1d1d1"/></svg>