<svg xmlns="http://www.w3.org/2000/svg" viewBox="-228 30 502 502"><path d="M177 532h-308c-53.6 0-97-43.4-97-97V127c0-53.6 43.4-97 97-97h308c53.6 0 97 43.4 97 97v308c0 53.6-43.4 97-97 97z" fill="#fff"/><path d="M-162.5 35h371c33.4 0 60.5 27.1 60.5 60.5v371c0 33.4-27.1 60.5-60.5 60.5h-371c-33.4 0-60.5-27.1-60.5-60.5v-371c0-33.4 27.1-60.5 60.5-60.5z" fill="#f2484b"/><path d="M207.5 532h-369c-36.7 0-66.5-29.8-66.5-66.5v-369c0-36.7 29.8-66.5 66.5-66.5h369c36.7 0 66.5 29.8 66.5 66.5v369c0 36.7-29.8 66.5-66.5 66.5zm-364-10h359c34 0 61.5-27.5 61.5-61.5v-359c0-34-27.5-61.5-61.5-61.5h-359c-34 0-61.5 27.5-61.5 61.5v359c0 34 27.5 61.5 61.5 61.5z"/><path d="M104.2 490.5H-58.2c-70.7 0-128.3-57.5-128.3-128.3V199.8c0-70.7 57.5-128.3 128.3-128.3h162.4c70.7 0 128.3 57.5 128.3 128.3v162.4c0 70.7-57.6 128.3-128.3 128.3zM-58.2 119.7c-44.2 0-80.1 35.9-80.1 80.1v162.4c0 44.2 35.9 80.1 80.1 80.1h162.4c44.2 0 80.1-35.9 80.1-80.1V199.8c0-44.2-35.9-80.1-80.1-80.1H-58.2z" fill="#fff"/><path d="M104.2 495.5H-58.2c-73.5 0-133.3-59.8-133.3-133.3V199.8c0-73.5 59.8-133.3 133.3-133.3h162.4c73.5 0 133.3 59.8 133.3 133.3v162.4c0 73.5-59.8 133.3-133.3 133.3zm-162.4-419c-68 0-123.3 55.3-123.3 123.3v162.4c0 68 55.3 123.3 123.3 123.3h162.4c68 0 123.3-55.3 123.3-123.3V199.8c0-68-55.3-123.3-123.3-123.3H-58.2zm162.4 370.8H-58.2c-46.9 0-85.1-38.2-85.1-85.1V199.8c0-46.9 38.2-85.1 85.1-85.1h162.4c46.9 0 85.1 38.2 85.1 85.1v162.4c0 46.9-38.2 85.1-85.1 85.1zM-58.2 124.7c-41.4 0-75.1 33.7-75.1 75.1v162.4c0 41.4 33.7 75.1 75.1 75.1h162.4c41.4 0 75.1-33.7 75.1-75.1V199.8c0-41.4-33.7-75.1-75.1-75.1H-58.2z"/><path d="M23 370.1c-49.1 0-89.1-40-89.1-89.1s40-89.1 89.1-89.1 89.1 40 89.1 89.1-40 89.1-89.1 89.1zm0-135.8c-25.8 0-46.7 21-46.7 46.7s21 46.7 46.7 46.7 46.7-21 46.7-46.7c0-25.8-20.9-46.7-46.7-46.7zM123 198a16.99 16.99 0 1 1 0-34 16.99 16.99 0 0 1 17 17c0 9.4-7.7 17-17 17z" fill="#fff"/><path d="M123 203c-12.1 0-22-9.9-22-22s9.9-22 22-22 22 9.9 22 22-9.9 22-22 22zm0-33.9a12.04 12.04 0 0 0-12 12 12.04 12.04 0 0 0 12 12 12.04 12.04 0 0 0 12-12 12.04 12.04 0 0 0-12-12zM-52.7 411c-30 0-54.3-24.4-54.3-54.3V266a5 5 0 1 1 10 0v90.7c0 24.4 19.9 44.3 44.3 44.3a5 5 0 1 1 0 10zM-102 230a4.95 4.95 0 0 1-5-5v-19.7a5 5 0 1 1 10 0V225a4.95 4.95 0 0 1-5 5zM23 375.1c-51.9 0-94.1-42.2-94.1-94.1s42.2-94.1 94.1-94.1c14 0 27.5 3 40.1 9 2.5 1.2 3.6 4.2 2.4 6.7s-4.2 3.6-6.7 2.4a83.67 83.67 0 0 0-35.9-8c-46.4 0-84.1 37.7-84.1 84.1s37.7 84.1 84.1 84.1 84.1-37.7 84.1-84.1a5 5 0 1 1 10 0c.1 51.8-42.1 94-94 94zm0-42.4c-28.5 0-51.7-23.2-51.7-51.7s23.2-51.7 51.7-51.7 51.7 23.2 51.7 51.7-23.2 51.7-51.7 51.7zm0-93.4c-23 0-41.7 18.7-41.7 41.7S0 322.7 23 322.7 64.7 304 64.7 281 46 239.3 23 239.3zm81.5 10.7c-1.9 0-3.7-1.1-4.6-3-3.2-7.1-7.3-13.8-12.3-19.8-1.8-2.1-1.5-5.3.6-7 2.1-1.8 5.3-1.5 7 .6 5.6 6.7 10.3 14.2 13.8 22.2 1.1 2.5 0 5.5-2.5 6.6-.6.3-1.3.4-2 .4z"/></svg>