<svg xmlns="http://www.w3.org/2000/svg" height="512" width="512" fill="#fff"><path d="M503.465 512H8.535C3.824 512 0 508.188 0 503.465V8.535C0 3.813 3.824 0 8.535 0h494.93C508.176 0 512 3.813 512 8.535v494.93c0 4.723-3.824 8.535-8.535 8.535zm-486.4-17.066h477.867V17.066H17.066zm452.266-17.067H42.668c-4.7 0-8.535-3.816-8.535-8.535V42.668c0-4.72 3.824-8.535 8.535-8.535h426.664c4.7 0 8.535 3.816 8.535 8.535v426.664c0 4.72-3.824 8.535-8.535 8.535zM51.2 460.8h409.6V51.2H51.2zm0 0"/><path d="M128 162.133c-18.824 0-34.133-15.31-34.133-34.133S109.176 93.867 128 93.867s34.133 15.31 34.133 34.133-15.31 34.133-34.133 34.133zm0-51.2c-9.414 0-17.066 7.652-17.066 17.066s7.652 17.066 17.066 17.066 17.066-7.652 17.066-17.066-7.652-17.066-17.066-17.066zm0 0"/><path d="M128 110.934c-4.7 0-8.535-3.816-8.535-8.535V85.332a8.53 8.53 0 0 1 8.535-8.53c4.71 0 8.535 3.813 8.535 8.53v17.066c0 4.72-3.824 8.535-8.535 8.535zm0 68.266c-4.7 0-8.535-3.812-8.535-8.53v-17.066c0-4.72 3.824-8.535 8.535-8.535s8.535 3.816 8.535 8.535v17.066A8.53 8.53 0 0 1 128 179.2zm0 0"/><path d="M170.668 136.535h-17.066c-4.7 0-8.535-3.816-8.535-8.535s3.824-8.535 8.535-8.535h17.066a8.53 8.53 0 1 1 0 17.07zm-68.27 0H85.332a8.53 8.53 0 1 1 0-17.07h17.066c4.7 0 8.535 3.816 8.535 8.535s-3.824 8.535-8.535 8.535zm0 0"/><path d="M109.902 118.434a8.51 8.51 0 0 1-6.035-2.5L87.832 99.898a8.54 8.54 0 0 1 0-12.066 8.53 8.53 0 0 1 12.066 0l16.035 16.035c3.336 3.336 3.336 8.73 0 12.066a8.52 8.52 0 0 1-6.031 2.5zm52.23 52.234a8.5 8.5 0 0 1-6.03-2.5l-16.035-16.035c-3.336-3.336-3.336-8.73 0-12.066s8.738-3.336 12.066 0l16.035 16.035a8.54 8.54 0 0 1 0 12.066c-1.664 1.664-3.852 2.5-6.035 2.5zm0 0"/><path d="M146.098 118.434a8.5 8.5 0 0 1-6.03-2.5c-3.336-3.336-3.336-8.73 0-12.066l16.035-16.035c3.328-3.336 8.727-3.336 12.066 0s3.336 8.73 0 12.066l-16.035 16.035a8.51 8.51 0 0 1-6.035 2.5zm-52.23 52.234c-2.184 0-4.37-.836-6.035-2.5-3.336-3.34-3.336-8.73 0-12.066l16.035-16.035c3.328-3.336 8.73-3.336 12.066 0s3.336 8.73 0 12.066l-16.035 16.035c-1.664 1.664-3.848 2.5-6.03 2.5zm221.867 307.2H93.867c-3.012 0-5.805-1.598-7.34-4.172a8.54 8.54 0 0 1-.152-8.441c5.078-9.3 10.258-19.574 15.47-29.883 12.348-24.44 25.113-49.7 37.293-63.77 16.664-19.234 40.695-30.27 65.93-30.27s49.254 11.035 65.918 30.277c11.973 13.8 23.73 37.395 36.18 62.363l16.063 31.28a8.53 8.53 0 0 1-.156 8.441c-1.535 2.574-4.324 4.172-7.336 4.172zM108.04 460.8h193.54l-9.687-19.22c-11.434-22.918-23.254-46.617-33.816-58.8v-.012c-13.406-15.488-32.734-24.37-53.008-24.37s-39.605 8.883-53.027 24.37c-10.805 12.47-23.082 36.78-34.96 60.28l-9.04 17.75zm0 0"/><path d="M426.668 477.867H315.734c-3.125 0-6-1.707-7.492-4.445-5.418-9.926-10.957-21.02-16.3-31.746-10.027-20.086-20.395-40.855-29.926-53.88-2.766-3.77-1.973-9.07 1.773-11.88 36.293-27.137 88.066-21.418 117.88 12.98v.008c19.465 22.47 37.13 48.152 52.508 76.34a8.53 8.53 0 0 1-.152 8.438c-1.547 2.586-4.336 4.184-7.348 4.184zM320.828 460.8h91.203c-13.03-22.187-27.555-42.566-43.273-60.723v.008c-22.168-25.582-59.398-31.465-87.94-14.992 8.8 13.688 17.715 31.57 26.4 48.953l13.62 26.754zm-226.96 17.067h-51.2c-4.7 0-8.535-3.816-8.535-8.535V435.2c0-29.746 51.465-48.426 99.883-50.902 3.14-.145 6.172 1.46 7.78 4.2a8.56 8.56 0 0 1-.102 8.84c-7.988 12.852-16.47 29.613-24.66 45.824l-15.676 30.262a8.53 8.53 0 0 1-7.492 4.453zM51.2 460.8h37.574c4.293-8.055 8.652-16.684 13.027-25.344l16.984-32.668c-39.1 5.08-67.585 20.337-67.585 32.412zm0 0"/><path d="M469.332 477.867h-42.664c-3.125 0-6-1.707-7.492-4.445-12.88-23.613-27.512-45.5-43.48-65.06-2.176-2.664-2.53-6.375-.918-9.414a8.52 8.52 0 0 1 8.316-4.488c28.82 2.664 67.465 8.73 89.492 17.8a8.52 8.52 0 0 1 5.28 7.887v49.176c0 4.72-3.824 8.535-8.535 8.535zm-37.63-17.066H460.8v-34.738c-14.105-4.875-35.43-9.312-59.4-12.4 10.863 14.738 21.008 30.523 30.313 47.148zm-64.768-162.133c-4.7 0-8.535-3.816-8.535-8.535 0-9.4-7.652-17.066-17.066-17.066a8.533 8.533 0 1 1 0-17.066c9.543 0 18.188 3.934 24.383 10.266 7.68-11.332 20.656-18.8 35.352-18.8 4.7 0 8.535 3.816 8.535 8.535s-3.824 8.535-8.535 8.535c-14.113 0-25.602 11.484-25.602 25.598a8.53 8.53 0 0 1-8.53 8.535zm34.132-128h-85.332c-18.824 0-34.133-15.3-34.133-34.133 0-19.996 17.645-36.098 37.62-33.95 6.62-15.34 21.93-25.785 39.176-25.785s32.555 10.445 39.18 25.785c19.934-2.12 37.62 13.953 37.62 33.95 0 18.824-15.3 34.133-34.133 34.133zm-85.332-51.203c-9.414 0-17.066 7.656-17.066 17.07s7.652 17.066 17.066 17.066h85.332c9.414 0 17.066-7.656 17.066-17.066 0-11.418-11.562-20.363-23.184-15.867a8.4 8.4 0 0 1-7.195-.469c-2.2-1.2-3.77-3.336-4.266-5.8-2.4-11.895-12.937-20.53-25.1-20.53s-22.695 8.637-25.086 20.53c-.496 2.465-2.06 4.6-4.266 5.8a8.47 8.47 0 0 1-7.195.47c-2.047-.793-4.105-1.203-6.117-1.203zm-85.336 170.668h-85.332c-18.824 0-34.133-15.3-34.133-34.133 0-19.992 17.672-36.086 37.625-33.945 6.62-15.344 21.93-25.8 39.176-25.8s32.555 10.445 39.176 25.8c19.96-2.125 37.625 13.953 37.625 33.945 0 18.824-15.312 34.133-34.137 34.133zm-85.332-51.2c-9.4 0-17.066 7.652-17.066 17.066s7.656 17.066 17.066 17.066h85.332c9.414 0 17.066-7.652 17.066-17.066 0-11.418-11.57-20.344-23.184-15.863a8.47 8.47 0 0 1-7.191-.469 8.54 8.54 0 0 1-4.27-5.805c-2.387-11.895-12.934-20.53-25.086-20.53s-22.7 8.637-25.1 20.53a8.52 8.52 0 0 1-4.266 5.805 8.48 8.48 0 0 1-7.195.469c-2.047-.793-4.102-1.203-6.117-1.203zm0 0"/></svg>