<?xml version="1.0"?>
<svg xmlns="http://www.w3.org/2000/svg" height="512px" viewBox="0 0 512 512" width="512px"><g><path d="m503.464844 512h-494.929688c-4.710937 0-8.535156-3.8125-8.535156-8.535156v-494.929688c0-4.722656 3.824219-8.535156 8.535156-8.535156h494.929688c4.710937 0 8.535156 3.8125 8.535156 8.535156v494.929688c0 4.722656-3.824219 8.535156-8.535156 8.535156zm-486.398438-17.066406h477.867188v-477.867188h-477.867188zm0 0" data-original="#000000" class="active-path" data-old_color="#ffffff" fill="#ffffff"/><path d="m469.332031 477.867188h-426.664062c-4.710938 0-8.535157-3.816407-8.535157-8.535157v-426.664062c0-4.71875 3.824219-8.535157 8.535157-8.535157h426.664062c4.710938 0 8.535157 3.816407 8.535157 8.535157v426.664062c0 4.71875-3.824219 8.535157-8.535157 8.535157zm-418.132812-17.066407h409.601562v-409.601562h-409.601562zm0 0" data-original="#000000" class="active-path" data-old_color="#ffffff" fill="#ffffff"/><path d="m128 162.132812c-18.824219 0-34.132812-15.308593-34.132812-34.132812s15.308593-34.132812 34.132812-34.132812 34.132812 15.308593 34.132812 34.132812-15.308593 34.132812-34.132812 34.132812zm0-51.199218c-9.414062 0-17.066406 7.652344-17.066406 17.066406s7.652344 17.066406 17.066406 17.066406 17.066406-7.652344 17.066406-17.066406-7.652344-17.066406-17.066406-17.066406zm0 0" data-original="#000000" class="active-path" data-old_color="#ffffff" fill="#ffffff"/><path d="m128 110.933594c-4.710938 0-8.535156-3.816406-8.535156-8.535156v-17.066407c0-4.71875 3.824218-8.53125 8.535156-8.53125s8.535156 3.8125 8.535156 8.53125v17.066407c0 4.71875-3.824218 8.535156-8.535156 8.535156zm0 0" data-original="#000000" class="active-path" data-old_color="#ffffff" fill="#ffffff"/><path d="m128 179.199219c-4.710938 0-8.535156-3.8125-8.535156-8.53125v-17.066407c0-4.71875 3.824218-8.535156 8.535156-8.535156s8.535156 3.816406 8.535156 8.535156v17.066407c0 4.71875-3.824218 8.53125-8.535156 8.53125zm0 0" data-original="#000000" class="active-path" data-old_color="#ffffff" fill="#ffffff"/><path d="m170.667969 136.535156h-17.066407c-4.710937 0-8.535156-3.816406-8.535156-8.535156s3.824219-8.535156 8.535156-8.535156h17.066407c4.710937 0 8.53125 3.816406 8.53125 8.535156s-3.820313 8.535156-8.53125 8.535156zm0 0" data-original="#000000" class="active-path" data-old_color="#ffffff" fill="#ffffff"/><path d="m102.398438 136.535156h-17.066407c-4.710937 0-8.53125-3.816406-8.53125-8.535156s3.820313-8.535156 8.53125-8.535156h17.066407c4.710937 0 8.535156 3.816406 8.535156 8.535156s-3.824219 8.535156-8.535156 8.535156zm0 0" data-original="#000000" class="active-path" data-old_color="#ffffff" fill="#ffffff"/><path d="m109.902344 118.433594c-2.1875 0-4.371094-.835938-6.035156-2.5l-16.035157-16.035156c-3.328125-3.335938-3.328125-8.726563 0-12.066407 3.328125-3.335937 8.738281-3.335937 12.066407 0l16.035156 16.035157c3.335937 3.335937 3.335937 8.730468 0 12.066406-1.671875 1.664062-3.847656 2.5-6.03125 2.5zm0 0" data-original="#000000" class="active-path" data-old_color="#ffffff" fill="#ffffff"/><path d="m162.132812 170.667969c-2.183593 0-4.367187-.835938-6.03125-2.5l-16.035156-16.035157c-3.335937-3.335937-3.335937-8.730468 0-12.066406 3.335938-3.335937 8.738282-3.335937 12.066406 0l16.035157 16.035156c3.328125 3.335938 3.328125 8.726563 0 12.066407-1.664063 1.664062-3.851563 2.5-6.035157 2.5zm0 0" data-original="#000000" class="active-path" data-old_color="#ffffff" fill="#ffffff"/><path d="m146.097656 118.433594c-2.183594 0-4.367187-.835938-6.03125-2.5-3.335937-3.335938-3.335937-8.730469 0-12.066406l16.035156-16.035157c3.328126-3.335937 8.726563-3.335937 12.066407 0 3.335937 3.339844 3.335937 8.730469 0 12.066407l-16.035157 16.035156c-1.664062 1.664062-3.847656 2.5-6.035156 2.5zm0 0" data-original="#000000" class="active-path" data-old_color="#ffffff" fill="#ffffff"/><path d="m93.867188 170.667969c-2.183594 0-4.371094-.835938-6.035157-2.5-3.335937-3.339844-3.335937-8.730469 0-12.066407l16.035157-16.035156c3.328124-3.335937 8.730468-3.335937 12.066406 0 3.335937 3.335938 3.335937 8.730469 0 12.066406l-16.035156 16.035157c-1.664063 1.664062-3.847657 2.5-6.03125 2.5zm0 0" data-original="#000000" class="active-path" data-old_color="#ffffff" fill="#ffffff"/><path d="m315.734375 477.867188h-221.867187c-3.011719 0-5.804688-1.597657-7.339844-4.171876-1.535156-2.59375-1.59375-5.804687-.152344-8.441406 5.078125-9.308594 10.257812-19.574218 15.46875-29.882812 12.347656-24.441406 25.113281-49.699219 37.292969-63.769532 16.664062-19.234374 40.695312-30.269531 65.929687-30.269531 25.230469 0 49.253906 11.035157 65.917969 30.277344 11.972656 13.808594 23.730469 37.394531 36.179687 62.363281 5.300782 10.621094 10.78125 21.605469 16.0625 31.28125 1.441407 2.644532 1.382813 5.855469-.15625 8.441406-1.535156 2.574219-4.324218 4.171876-7.335937 4.171876zm-207.695313-17.066407h193.539063c-3.253906-6.316406-6.496094-12.835937-9.6875-19.21875-11.433594-22.917969-23.253906-46.617187-33.816406-58.800781v-.011719c-13.40625-15.488281-32.734375-24.371093-53.007813-24.371093-20.277344 0-39.605468 8.882812-53.027344 24.371093-10.804687 12.46875-23.082031 36.78125-34.960937 60.28125-3.023437 6-6.042969 11.964844-9.039063 17.75zm0 0" data-original="#000000" class="active-path" data-old_color="#ffffff" fill="#ffffff"/><path d="m426.667969 477.867188h-110.933594c-3.125 0-6-1.707032-7.492187-4.445313-5.417969-9.925781-10.957032-21.019531-16.308594-31.746094-10.027344-20.085937-20.394532-40.855469-29.925782-53.878906-2.765624-3.769531-1.972656-9.070313 1.773438-11.878906 36.292969-27.136719 88.066406-21.417969 117.878906 12.980469v.007812c19.464844 22.46875 37.128906 48.152344 52.507813 76.339844 1.441406 2.644531 1.382812 5.855468-.152344 8.4375-1.546875 2.585937-4.335937 4.183594-7.347656 4.183594zm-105.839844-17.066407h91.203125c-13.03125-22.1875-27.554688-42.566406-43.273438-60.722656v.007813c-22.167968-25.582032-59.398437-31.464844-87.941406-14.992188 8.789063 13.6875 17.714844 31.570312 26.390625 48.953125 4.488281 8.996094 9.105469 18.253906 13.621094 26.753906zm0 0" data-original="#000000" class="active-path" data-old_color="#ffffff" fill="#ffffff"/><path d="m93.867188 477.867188h-51.199219c-4.710938 0-8.535157-3.816407-8.535157-8.535157v-34.132812c0-29.746094 51.464844-48.425781 99.882813-50.902344 3.140625-.144531 6.171875 1.460937 7.78125 4.191406 1.613281 2.730469 1.570313 6.144531-.101563 8.839844-7.988281 12.851563-16.46875 29.613281-24.660156 45.824219-5.28125 10.445312-10.53125 20.832031-15.675781 30.261718-1.492187 2.746094-4.371094 4.453126-7.492187 4.453126zm-42.667969-17.066407h37.574219c4.292968-8.054687 8.652343-16.683593 13.027343-25.34375 5.589844-11.050781 11.300781-22.359375 16.984375-32.667969-39.101562 5.078126-67.585937 20.335938-67.585937 32.410157zm0 0" data-original="#000000" class="active-path" data-old_color="#ffffff" fill="#ffffff"/><path d="m469.332031 477.867188h-42.664062c-3.125 0-6-1.707032-7.492188-4.445313-12.878906-23.613281-27.511719-45.5-43.480469-65.058594-2.175781-2.664062-2.53125-6.375-.917968-9.414062 1.609375-3.035157 4.886718-4.804688 8.316406-4.488281 28.820312 2.664062 67.464844 8.730468 89.492188 17.808593 3.199218 1.316407 5.28125 4.429688 5.28125 7.886719v49.175781c0 4.71875-3.824219 8.535157-8.535157 8.535157zm-37.628906-17.066407h29.097656v-34.738281c-14.105469-4.875-35.429687-9.3125-59.410156-12.410156 10.863281 14.738281 21.007813 30.523437 30.3125 47.148437zm0 0" data-original="#000000" class="active-path" data-old_color="#ffffff" fill="#ffffff"/><path d="m366.933594 298.667969c-4.710938 0-8.535156-3.816407-8.535156-8.535157 0-9.410156-7.652344-17.066406-17.066407-17.066406-4.710937 0-8.53125-3.8125-8.53125-8.53125 0-4.722656 3.820313-8.535156 8.53125-8.535156 9.542969 0 18.1875 3.933594 24.382813 10.265625 7.679687-11.332031 20.65625-18.800781 35.351562-18.800781 4.710938 0 8.535156 3.816406 8.535156 8.535156s-3.824218 8.535156-8.535156 8.535156c-14.113281 0-25.601562 11.484375-25.601562 25.597656 0 4.71875-3.820313 8.535157-8.53125 8.535157zm0 0" data-original="#000000" class="active-path" data-old_color="#ffffff" fill="#ffffff"/><path d="m401.066406 170.667969h-85.332031c-18.824219 0-34.132813-15.308594-34.132813-34.132813 0-19.996094 17.644532-36.097656 37.621094-33.949218 6.621094-15.339844 21.929688-25.785157 39.175782-25.785157 17.246093 0 32.554687 10.445313 39.179687 25.785157 19.933594-2.121094 37.621094 13.953124 37.621094 33.949218 0 18.824219-15.308594 34.132813-34.132813 34.132813zm-85.332031-51.203125c-9.414063 0-17.066406 7.65625-17.066406 17.070312 0 9.410156 7.652343 17.066406 17.066406 17.066406h85.332031c9.414063 0 17.066406-7.65625 17.066406-17.066406 0-11.417968-11.5625-20.363281-23.183593-15.867187-2.347657.933593-4.976563.761719-7.195313-.46875-2.210937-1.210938-3.769531-3.335938-4.265625-5.800781-2.390625-11.894532-12.9375-20.53125-25.089843-20.53125-12.148438 0-22.695313 8.636718-25.085938 20.53125-.496094 2.464843-2.058594 4.589843-4.265625 5.800781-2.210937 1.222656-4.839844 1.390625-7.195313.46875-2.046874-.792969-4.105468-1.203125-6.117187-1.203125zm0 0" data-original="#000000" class="active-path" data-old_color="#ffffff" fill="#ffffff"/><path d="m230.398438 290.132812h-85.332032c-18.824218 0-34.132812-15.308593-34.132812-34.132812 0-19.992188 17.671875-36.085938 37.625-33.945312 6.621094-15.34375 21.929687-25.789063 39.175781-25.789063s32.554687 10.445313 39.175781 25.789063c19.960938-2.125 37.625 13.953124 37.625 33.945312 0 18.824219-15.3125 34.132812-34.136718 34.132812zm-85.332032-51.199218c-9.410156 0-17.066406 7.652344-17.066406 17.066406s7.65625 17.066406 17.066406 17.066406h85.332032c9.414062 0 17.066406-7.652344 17.066406-17.066406 0-11.417969-11.570313-20.34375-23.183594-15.863281-2.347656.921875-4.984375.75-7.191406-.46875-2.210938-1.210938-3.773438-3.335938-4.269532-5.804688-2.386718-11.894531-12.933593-20.53125-25.085937-20.53125s-22.699219 8.636719-25.089844 20.53125c-.492187 2.46875-2.054687 4.59375-4.265625 5.804688-2.210937 1.21875-4.847656 1.390625-7.195312.46875-2.046875-.792969-4.101563-1.203125-6.117188-1.203125zm0 0" data-original="#000000" class="active-path" data-old_color="#ffffff" fill="#ffffff"/></g> </svg>
