<svg xmlns="http://www.w3.org/2000/svg" height="512" viewBox="0 -33 459.228 459" width="512" fill="#fff"><path d="M347.055 287.656c-24.898 0-45.16-20.258-45.16-45.156s20.262-45.164 45.16-45.164 45.16 20.262 45.16 45.164-20.258 45.156-45.16 45.156zm0-76.324c-17.184 0-31.164 13.98-31.164 31.168s13.98 31.164 31.164 31.164 31.168-13.98 31.168-31.164-13.98-31.168-31.168-31.168zm66.968 155.375h-13.996c0-28.43-23.266-50.7-52.973-50.7s-52.973 22.27-52.973 50.7H280.1c0-36.277 29.414-64.695 66.965-64.695s66.97 28.418 66.97 64.695zm0 0"/><path d="M347.055 392.97c-61.727 0-111.945-50.22-111.945-111.945s50.22-111.945 111.945-111.945S459 219.297 459 281.023 408.78 392.97 347.055 392.97zm0-209.898c-54.008 0-97.95 43.94-97.95 97.953s43.94 97.95 97.95 97.95 97.953-43.94 97.953-97.95-43.94-97.953-97.953-97.953zm0 0"/><path d="M244.992 312.55H46.977C21.074 312.55 0 291.477 0 265.574v-218.5C0 21.172 21.074.098 46.977.098h259.87c25.902 0 46.977 21.074 46.977 46.977v129a7 7 0 0 1-6.996 7 7 7 0 0 1-6.996-7v-129c0-18.187-14.797-32.984-32.984-32.984H46.977c-18.187 0-32.984 14.797-32.984 32.984v218.5c0 18.188 14.797 32.984 32.984 32.984h198.016a7 7 0 0 1 6.996 6.996 7 7 0 0 1-6.996 6.996zm0 0"/><path d="M346.828 95.395H6.996A7 7 0 0 1 0 88.398a7 7 0 0 1 6.996-6.996h339.832a7 7 0 0 1 6.996 6.996 7 7 0 0 1-6.996 6.996zm-246.5-27.765c-10.78 0-19.555-8.773-19.555-19.555s8.773-19.555 19.555-19.555 19.555 8.773 19.555 19.555S111.1 67.63 100.328 67.63zm0-25.117a5.57 5.57 0 0 0-5.562 5.563 5.57 5.57 0 0 0 5.563 5.563 5.57 5.57 0 0 0 5.563-5.562 5.57 5.57 0 0 0-5.562-5.562zm0 0"/><path d="M43.914 67.453c-10.78 0-19.555-8.773-19.555-19.555s8.773-19.555 19.555-19.555 19.555 8.77 19.555 19.555-8.773 19.555-19.555 19.555zm0-25.117a5.57 5.57 0 0 0-5.562 5.563 5.57 5.57 0 0 0 5.563 5.563 5.57 5.57 0 0 0 5.563-5.562 5.57 5.57 0 0 0-5.562-5.562zm112.828 25.47c-10.78 0-19.555-8.77-19.555-19.555s8.773-19.555 19.555-19.555 19.555 8.773 19.555 19.555-8.77 19.555-19.555 19.555zm0-25.117a5.57 5.57 0 0 0-5.562 5.563 5.57 5.57 0 0 0 5.563 5.563 5.57 5.57 0 0 0 5.563-5.562 5.57 5.57 0 0 0-5.562-5.562zm0 0"/></svg>