<svg xmlns="http://www.w3.org/2000/svg" xmlns:xlink="http://www.w3.org/1999/xlink" viewBox="0 0 512 512"><path d="M1.81 397.594c.37 1.436.84 2.83 1.31 4.2 1.266 3.684 2.802 7.24 4.736 10.57.015.028.015.072.03.072h.007c9.856 16.94 27.99 28.444 48.996 28.444H455.11c21.006 0 39.14-11.506 48.996-28.444h.007c.014 0 .014-.044.028-.06 1.92-3.314 3.456-6.87 4.722-10.54.484-1.408.953-2.816 1.323-4.267.34-1.294.597-2.602.84-3.9.556-3.068.955-6.173.975-9.43V128c0-3.314-.398-6.528-.98-9.67-.228-1.308-.498-2.617-.825-3.897-.384-1.465-.853-2.887-1.337-4.295-1.266-3.67-2.788-7.21-4.722-10.524 0-.014-.014-.043-.028-.057h.002c-9.856-16.94-27.99-28.444-48.996-28.444H256V270.22H0V384c0 3.313.402 6.512.97 9.654.242 1.323.514 2.646.84 3.94z" fill="#eee"/><path d="M504.108 99.556c-9.856-16.94-28-28.444-48.996-28.444H256v28.444h248.108zM0 384h512v-28.444H0V384zm256-142.222h256v28.444H256zm0-56.888h256v28.444H256zM0 298.667h512v28.444H0zM455.1 440.9c21.006 0 39.14-11.506 48.996-28.444H7.893c9.856 16.94 28 28.444 48.996 28.444H455.1zM256 128h256v28.444H256z" fill="#b22334"/><g fill="#eee"><path d="M0 128c0-3.314.427-6.5.967-9.657C.398 121.486 0 124.686 0 128m7.9-28.444c-.014.028-.028.043-.028.07.014-.03.014-.043.028-.07z"/><path d="M1.816 114.41c.356-1.45.853-2.83 1.308-4.224l-1.308 4.224"/></g><path d="M256 71.11H56.89C25.472 71.11 0 96.583 0 128v142.222h256V71.11z" fill="#3c3b6e"/><g fill="#fff"><use xlink:href="#B"/><use xlink:href="#C"/><use xlink:href="#D"/><use xlink:href="#E"/><use xlink:href="#C" y="56.892"/><use xlink:href="#D" y="56.892"/><use xlink:href="#E" y="56.892"/><path d="M85.353 109.872l8.79 6.386-3.37 10.325 8.79-6.386 8.79 6.386-3.37-10.325 8.804-6.386h-10.866L99.56 99.547l-3.342 10.325H85.353z"/><use xlink:href="#F"/><use xlink:href="#G"/><use xlink:href="#B" y="56.892"/><use xlink:href="#H"/><use xlink:href="#F" y="56.892"/><use xlink:href="#G" y="56.892"/><use xlink:href="#B" y="113.781"/><use xlink:href="#H" y="56.887"/><use xlink:href="#F" y="113.781"/><use xlink:href="#G" y="113.781"/></g><defs ><path id="B" d="M28.465 109.872l8.79 6.386-3.356 10.325 8.775-6.386 8.79 6.386-3.37-10.325 8.804-6.386H46.03l-3.356-10.325-3.342 10.325H28.465z"/><path id="C" d="M56.91 138.316l8.79 6.386-3.37 10.325 8.79-6.386 8.79 6.386-3.37-10.325 8.804-6.386H74.473l-3.356-10.325-3.342 10.325H56.91z"/><path id="D" d="M113.798 138.316l8.79 6.386-3.37 10.325 8.79-6.386 8.79 6.386-3.37-10.325 8.804-6.386H131.36l-3.356-10.325-3.342 10.325h-10.865z"/><path id="E" d="M170.687 138.316l8.79 6.386-3.37 10.325 8.79-6.386 8.79 6.386-3.37-10.325 8.804-6.386H188.25l-3.356-10.325-3.342 10.325h-10.865z"/><path id="F" d="M142.242 109.872l8.79 6.386-3.37 10.325 8.79-6.386 8.79 6.386-3.37-10.325 8.804-6.386h-10.866l-3.356-10.325-3.342 10.325h-10.865z"/><path id="G" d="M199.13 109.872l8.79 6.386-3.37 10.325 8.79-6.386 8.79 6.386-3.37-10.325 8.804-6.386h-10.866l-3.356-10.325-3.342 10.325H199.13z"/><path id="H" d="M90.778 183.473l8.79-6.386 8.775 6.386-3.356-10.325 8.79-6.386h-10.852l-3.356-10.31-3.356 10.31H85.36l8.775 6.386-3.356 10.325z"/></defs></svg>