<svg xmlns="http://www.w3.org/2000/svg" viewBox="0 0 512 512"><circle cx="256" cy="256" r="256" fill="#75b73b"/><path d="M360.24 151.826c-14.843-3.712-36.67-16.532-50.8-21.67-55.165-17.24-129.293-3.448-149.98 60.337-1.724 1.724-5.172 1.724-6.896 1.724-41.374 48.27-13.79 106.882-17.24 160.323-1.177 18.84-11.083 35.497-23.83 49.588l107.282 107.17A258.13 258.13 0 0 0 256 512c126.436 0 231.452-91.665 252.247-212.16L360.24 151.826z" fill="#52891d"/><path d="M248.837 108.447c-78.03 3.712-139.604 68.696-139.37 146.8.072 23.792 5.816 46.25 15.95 66.095l-15.557 75.514c-.84 4.086 2.843 7.663 6.9 6.7l73.995-17.53c19 9.47 40.364 14.94 62.962 15.284 79.753 1.22 146.25-62.105 148.74-141.83 2.662-85.458-67.868-155.13-153.622-151.046h0zm88.293 227.5c-21.67 21.67-50.483 33.604-81.13 33.604-17.944 0-35.126-4.027-51.066-11.966l-10.302-5.134-45.37 10.747 9.55-46.356-5.075-9.943c-8.276-16.206-12.472-33.728-12.472-52.084 0-30.648 11.935-59.46 33.604-81.13 21.476-21.478 50.76-33.604 81.134-33.604 30.644 0 59.458 11.935 81.127 33.604s33.604 50.483 33.604 81.127a114.93 114.93 0 0 1-33.603 81.135h0zm-10.015-49.355l-28.384-8.15a10.58 10.58 0 0 0-10.468 2.76l-6.942 7.07c-2.926 2.984-7.366 3.94-11.24 2.374-13.427-5.434-41.672-30.548-48.88-43.106-2.084-3.624-1.74-8.152.817-11.462l6.058-7.84a10.58 10.58 0 0 0 1.305-10.747l-11.94-27.008c-2.86-6.468-11.126-8.352-16.527-3.784-7.92 6.7-17.32 16.88-18.46 28.16-2.015 19.887 6.515 44.954 38.762 75.055 37.257 34.778 67.094 39.37 86.523 34.664 11.02-2.667 19.825-13.365 25.38-22.126 3.8-5.977.795-13.9-6-15.862h0z" fill="#fff"/><path d="M356.004 147.708l-22.223 22.778 3.35 3.2c21.67 21.67 33.604 50.483 33.604 81.127 0 30.375-12.128 59.656-33.604 81.134-21.67 21.67-50.483 33.604-81.13 33.604-17.944 0-35.125-4.027-51.066-11.966l-10.302-5.134-45.37 10.747.938-4.553-40.174 41.172c.886 2.663 3.705 4.475 6.734 3.758l73.995-17.53c19 9.47 40.364 14.94 62.962 15.284 79.753 1.22 146.253-62.105 148.74-141.83 1.375-44.134-16.773-84.056-46.455-111.783zm-28.89 138.874l-28.384-8.15a10.58 10.58 0 0 0-10.468 2.76l-6.942 7.07c-2.926 2.984-7.366 3.94-11.24 2.374-7.756-3.14-20.45-12.845-31.185-22.904l-19.732 20.225 2.05 1.948c37.257 34.778 67.094 39.37 86.523 34.664 11.02-2.667 19.825-13.365 25.38-22.126 3.8-5.977.794-13.9-6-15.862z" fill="#d1d1d1"/></svg>