<svg xmlns="http://www.w3.org/2000/svg" viewBox="0 0 512 512"><circle cx="256" cy="256" r="256" fill="#d22215"/><path d="M384.857 170.34c-7.677 2.343-15.682 4.356-23.7 6.36-56.89 12.067-132.74-20.687-165.495 32.754-27.317 42.494-35.942 95.668-67.017 133.663L294.63 509.1c110.47-16.72 197.773-104.036 214.476-214.51L384.857 170.34z" fill="#a81411"/><path d="M341.65 152.333H170.35c-33.608 0-60.852 27.245-60.852 60.852v85.632c0 33.608 27.245 60.852 60.852 60.852H341.65c33.608 0 60.852-27.245 60.852-60.852v-85.632c0-33.607-27.245-60.852-60.852-60.852h0zm-41.155 107.834l-80.12 38.212a3.22 3.22 0 0 1-4.603-2.901v-78.814a3.22 3.22 0 0 1 4.67-2.87l80.12 40.6c2.386 1.207 2.343 4.624-.067 5.772h0z" fill="#fff"/><path d="M341.65 152.333h-87.373v78.605l46.287 23.455c2.384 1.208 2.34 4.624-.07 5.773L254.276 282.2v77.46h87.373c33.608 0 60.852-27.245 60.852-60.852v-85.632c0-33.607-27.245-60.852-60.852-60.852z" fill="#d1d1d1"/></svg>