<?xml version="1.0" encoding="utf-8"?>
<!-- Generator: Adobe Illustrator 19.0.0, SVG Export Plug-In . SVG Version: 6.00 Build 0)  -->
<svg version="1.1" id="Layer_1" xmlns="http://www.w3.org/2000/svg" xmlns:xlink="http://www.w3.org/1999/xlink" x="0px" y="0px"
	 viewBox="-276 77.6 406.4 406.4" style="enable-background:new -276 77.6 406.4 406.4;" xml:space="preserve">
<style type="text/css">
	.st0{fill:#FFFFFF;stroke:#000000;stroke-miterlimit:10;}
	.st1{fill:#EE5656;}
	.st2{fill:#FFF8EF;}
	.st3{fill:#D9CDC1;}
	.st4{fill:#42210B;}
	.st5{fill:#E94545;}
</style>
<path class="st0" d="M47.2,436h-240c-46,0-83.2-37.2-83.2-83.2v-144c0-46,37.2-83.2,83.2-83.2h240c46,0,83.2,37.2,83.2,83.2v144
	C130.4,398.8,93.2,436,47.2,436z"/>
<path class="st1" d="M90.4,176v209.6c0,5.6-4.8,10.4-10.4,10.4h-305.6c-5.6,0-10.4-4.8-10.4-10.4V176c0-5.6,4.8-10.4,10.4-10.4H80
	C85.6,166.4,90.4,170.4,90.4,176z M7.2,273.6c0-3.2-1.6-5.6-4-7.2l-112-56c-2.4-0.8-5.6-0.8-8,0c-2.4,1.6-4,4-4,7.2v112
	c0,2.4,1.6,5.6,4,7.2c1.6,0.8,2.4,0.8,4,0.8c0.8,0,2.4,0,3.2-0.8l112-56C5.6,280,7.2,276.8,7.2,273.6z"/>
<path class="st2" d="M-23.7,282.3l-72,38.3l-0.3-54.9c0-8,8.8-13.6,16-10.4L-23.7,282.3z"/>
<path class="st3" d="M-114.8,215v117.3l28.8-13.1v-53.6c0-1.4,0.9-1.7,1-1.7c0,0,0.1,0,0.1,0.1l0.2,0.1l55.1,27.1l33.5-16.8
	L-114.8,215z"/>
<path class="st4" d="M-19.2,273.6l-86.4-43.2v86.4l8.8-4.8l65.6-32.8L-19.2,273.6z M2.4,280.8l-112,56c-0.8,0.8-2.4,0.8-3.2,0.8
	c-1.6,0-3.2,0-4-0.8c-2.4-1.6-4-4-4-7.2v-112c0-3.2,1.6-5.6,4-7.2c2.4-1.6,5.6-1.6,8,0l112,56c2.4,1.6,4,4,4,7.2S5.6,280,2.4,280.8z
	"/>
<path class="st5" d="M80,136.6h-305.6c-22.1,0-39.4,17.3-39.4,39.4v209.6c0,22.1,17.3,39.4,39.4,39.4H80c22.1,0,39.4-17.3,39.4-39.4
	V176C119.4,153.9,102.1,136.6,80,136.6z M85.4,385.6c0,2.8-2.6,5.4-5.4,5.4h-305.6c-2.8,0-5.4-2.6-5.4-5.4V176
	c0-2.8,2.6-5.4,5.4-5.4H80c2.8,0,5.4,2.6,5.4,5.4V385.6z"/>
<path class="st4" d="M-225.6,142.4c-19.2,0-34.4,15.2-34.4,34.4v209.6c0,19.2,15.2,34.4,34.4,34.4H80c19.2,0,34.4-15.2,34.4-34.4
	V176c0-19.2-15.2-34.4-34.4-34.4h-305.6V142.4z M-275.2,176c0-28,22.4-50.4,50.4-50.4H80c28,0,50.4,22.4,50.4,50.4v209.6
	c0,28-22.4,50.4-50.4,50.4h-305.6c-27.2,0-50.4-22.4-50.4-50.4V176H-275.2z"/>
</svg>
