<svg xmlns="http://www.w3.org/2000/svg" viewBox="-276 77.6 406.4 406.4"><path d="M47.2 436h-240c-46 0-83.2-37.2-83.2-83.2v-144c0-46 37.2-83.2 83.2-83.2h240c46 0 83.2 37.2 83.2 83.2v144c0 46-37.2 83.2-83.2 83.2z" fill="#fff" stroke="#000" stroke-miterlimit="10"/><path d="M90.4 176v209.6c0 5.6-4.8 10.4-10.4 10.4h-305.6c-5.6 0-10.4-4.8-10.4-10.4V176c0-5.6 4.8-10.4 10.4-10.4H80c5.6.8 10.4 4.8 10.4 10.4zM7.2 273.6c0-3.2-1.6-5.6-4-7.2l-112-56c-2.4-.8-5.6-.8-8 0-2.4 1.6-4 4-4 7.2v112c0 2.4 1.6 5.6 4 7.2 1.6.8 2.4.8 4 .8.8 0 2.4 0 3.2-.8l112-56c3.2-.8 4.8-4 4.8-7.2z" fill="#ee5656"/><path d="M-23.7 282.3l-72 38.3-.3-54.9c0-8 8.8-13.6 16-10.4l56.3 27z" fill="#fff8ef"/><path d="M-114.8 215v117.3l28.8-13.1v-53.6c0-1.4.9-1.7 1-1.7 0 0 .1 0 .1.1l.2.1 55.1 27.1 33.5-16.8-118.7-59.4z" fill="#d9cdc1"/><path d="M-19.2 273.6l-86.4-43.2v86.4l8.8-4.8 65.6-32.8 12-5.6zm21.6 7.2l-112 56c-.8.8-2.4.8-3.2.8-1.6 0-3.2 0-4-.8-2.4-1.6-4-4-4-7.2v-112c0-3.2 1.6-5.6 4-7.2a7.27 7.27 0 0 1 8 0l112 56c2.4 1.6 4 4 4 7.2s-1.6 6.4-4.8 7.2z" fill="#42210b"/><path d="M80 136.6h-305.6c-22.1 0-39.4 17.3-39.4 39.4v209.6c0 22.1 17.3 39.4 39.4 39.4H80c22.1 0 39.4-17.3 39.4-39.4V176c0-22.1-17.3-39.4-39.4-39.4zm5.4 249c0 2.8-2.6 5.4-5.4 5.4h-305.6c-2.8 0-5.4-2.6-5.4-5.4V176c0-2.8 2.6-5.4 5.4-5.4H80c2.8 0 5.4 2.6 5.4 5.4v209.6z" fill="#e94545"/><path d="M-225.6 142.4c-19.2 0-34.4 15.2-34.4 34.4v209.6c0 19.2 15.2 34.4 34.4 34.4H80c19.2 0 34.4-15.2 34.4-34.4V176c0-19.2-15.2-34.4-34.4-34.4h-305.6v.8zm-49.6 33.6c0-28 22.4-50.4 50.4-50.4H80c28 0 50.4 22.4 50.4 50.4v209.6c0 28-22.4 50.4-50.4 50.4h-305.6c-27.2 0-50.4-22.4-50.4-50.4V176h.8z" fill="#42210b"/></svg>