<?xml version="1.0" encoding="utf-8"?>
<!-- Generator: Adobe Illustrator 19.0.0, SVG Export Plug-In . SVG Version: 6.00 Build 0)  -->
<svg version="1.1" id="Layer_1" xmlns="http://www.w3.org/2000/svg" xmlns:xlink="http://www.w3.org/1999/xlink" x="0px" y="0px"
	 viewBox="0 0 384 778" style="enable-background:new 0 0 384 778;" xml:space="preserve">
<g id="XMLID_111_">
	<path id="XMLID_717_" d="M116.1,388.8c-0.1,8.5-2.2,15.5-7.3,21.3c-6.9,7.9-15.7,10.2-25.7,8.4c-4-0.7-7.9-2.1-11.6-3.7
		c-10.1-4.4-19.9-9.6-29-15.8c-2.6-1.8-5-4.1-7.4-6.3c-1.4-1.3-1.7-2.8-0.2-4.3c1.5-1.5,2.9-3.2,4.7-4.3c7-4.4,14.1-8.7,21.3-12.7
		c7.1-4,14.7-7,22.8-8.3c4.8-0.7,9.6-0.7,14.3,0.7c10.1,3.1,15.6,10.3,17.5,20.4C115.9,386,116,387.9,116.1,388.8z M48.8,390.6
		c0.9,0.7,1.7,1.4,2.6,1.9c7.8,4.5,15.5,9,23.4,13.3c2.5,1.3,5.4,2.1,8.1,2.7c12.8,2.7,23-5.1,23.4-17.7c0.3-9-5-16.2-13.4-18
		c-4.9-1-9.7-0.5-14.4,1.1c-10.8,3.6-20.4,9.5-29.5,16.2C49,390.1,48.9,390.3,48.8,390.6z"/>
	<path id="XMLID_689_" d="M118.3,351.4c2,0.7,4,1.4,6,2.1c0.4,0.2,0.8,0.7,0.9,1.2c0.5,2.3,0.5,4.6-0.5,6.8
		c-1.8,3.7-6.8,4.7-10.3,2.1c-2.2-1.6-3.4-5.4-2.5-7.9C112.7,353.3,115.1,351.8,118.3,351.4z"/>
	<path id="XMLID_688_" d="M113.2,419.1c3.1,0,5.9,0,8.7,0c1.2,0,3.7,3.1,3.7,4.4c0.2,5.9-2.6,8.5-8.7,8.1c-1.6-0.1-3.1-1.7-4.6-2.6
		c-0.1-0.1-0.1-0.4-0.1-0.7C112.5,425.3,112.8,422.2,113.2,419.1z"/>
	<g id="XMLID_389_">
		<path id="XMLID_732_" d="M374.7,739.2c-1,4.6-3.2,8.5-7.1,11.2c-3.1,2.2-6.4,3.5-10.3,2.8c-4.6-0.8-8.1-5.8-7.7-11.1
			c0.3-4.4,3.8-7.5,8.5-7.7c3.2-0.1,4.8,1.8,6.2,4.7c0.5-2.2,0-3.8-1-5.2c-2.2-3.1-5.4-4.3-9-4.5c-3.8-0.3-7.3,0.8-10.3,3
			c-4.1,3-8.1,6.1-12.2,9.2c-6.5,4.9-13.2,9.3-21.2,11c-12.1,2.6-22.7-0.4-31.4-9.3c-2-2-3.3-4.7-4.8-7.1c-0.8-1.4-1.5-2.9-2.3-4.5
			c-2.5,1.8-4.8,3.5-7,5.3c-6.4,5-13.4,8.9-21.6,10c-15.1,2.2-29.6,0.1-43.6-6.2c-9.4-4.3-17.6-10.5-25.6-16.9
			c-7.2-5.7-14.4-11.4-22.9-15.2c-14.2-6.3-28.9-10.4-44.6-9.9c-2.6,0.1-5.1,0.4-7.7,0.5c-1.1,0.1-1.6,0.5-1.9,1.5
			c-1.3,4-2.6,8.1-4.1,12.1c-3.4,9.4-8.8,17.4-16.6,23.7c-1.5,1.2-2.8,2.6-4.3,4c0.7,0.3,1,0.5,1.4,0.6c8.4,2.4,16.2,6.3,24.1,9.9
			c7.4,3.3,14.9,6,23.2,5.6c11.4-0.5,21.1-8.7,23.3-19.8c1.6-8.1-2.3-15.3-9.6-17.5c-2.7-0.8-5.3-0.9-7.5,0.8c2,0.6,4,1.1,6,1.7
			c0.5,0.2,1.2,0.7,1.3,1.1c0.4,2.5,1,5.1,0.7,7.6c-0.7,4.6-5.5,7.1-10.6,6.1c-7.6-1.5-11.8-9.1-9.1-16.6
			c2.2-6.2,8.3-10.5,15.2-10.7c11.8-0.4,20.2,5.9,22.6,17.1c1.3,5.8,0.7,11.5-1.2,17c-4.7,13.8-16.9,22.6-31.5,22.9
			c-10.1,0.2-19.4-2.7-28.4-7c-3.4-1.6-6.7-3.2-10-4.9c-10.7-5.4-21.8-6.5-33.4-3.5c-2.9,0.7-5.8,1.3-8.8,1.8
			c-4.4,0.7-6.5-1.6-5.6-6c1-4.5,2.2-9,3.2-13.5c1.5-7.3,0.8-14.4-2.4-21.3c-3.4-7.4-7-14.7-10.1-22.3c-3.5-8.6-5-17.6-3.5-27
			c2.2-14,14-25.5,28.1-27.3c10.2-1.3,18.8,1.6,25.3,9.7c5.4,6.8,5.8,15.3,1.3,21.7c-3.9,5.5-11.7,8.3-17.9,6.4
			c-4-1.2-6.5-4-7.3-8.1c-0.8-4.1,0.5-7.6,3.6-10.3c2.6-2.3,5.9-2.3,8.5-0.1c1.3,1.1,2.3,2.6,3.4,3.9c0.5,0.6,0.8,1.3,1.3,2
			c1.9-5.4-0.8-11.5-6-14c-5.6-2.7-11.3-2.2-16.7,0.2c-8.9,3.9-13.5,11-14.3,20.6c-0.6,6.4,0.6,12.6,3,18.5
			c4.2,9.8,8.7,19.5,13.2,29.5c0.9-0.8,1.6-1.4,2.2-2c5.7-6,11.7-11.7,19.2-15.2c5.9-2.8,12-5.1,18.1-7.4c2.4-0.9,3.3-2.3,3.6-4.6
			c0.7-5,0-10-0.8-14.9c-1.5-8.9-3.7-17.6-6.6-26.1c-2.6-7.4-7.2-13.7-11.7-20c-6.6-9.2-13.3-18.3-19.6-27.8
			c-5.6-8.5-9.8-17.8-11.5-27.9c-2.6-15.4,0.1-29.6,10.2-41.9c2.1-2.5,3.7-5.3,5.7-8.2c-1.2-0.6-1.9-0.9-2.5-1.2
			C43,513.2,36,505.3,34.2,493.6c-1.3-8,0.6-15.6,4.6-22.5c2.6-4.5,5.9-8.6,9-12.7c2-2.7,4.4-5.2,6.5-8c3-4,4.6-8.5,3.8-13.7
			c-0.6-3.8-3.4-6.5-6.8-6.8c0.4,1.5,1.3,3.2,1.4,4.9c0.1,6.3-4.4,9.8-10.6,8.5c-6.2-1.3-9.5-7.4-7.6-14c2.3-8.1,10-12,18.9-9.5
			c8.6,2.5,14.2,9.2,14.8,18.1c0.3,4.9,0.1,9.8,0.3,14.7c0.2,4.2,2.2,7.6,5.8,9.8c5.7,3.5,11.8,5.4,18.5,3.3
			c7.1-2.1,11.1-7.6,11.3-14.9c0.1-3.3,0.2-6.6-1.7-9.7c-2.3-4-8.9-6.5-13.7-4.7c-4.8,1.8-7,6.1-5.6,11.7c0.5-0.9,0.9-1.7,1.4-2.4
			c1.6-2.5,3.7-3.3,6.5-2.5c0.2,0,0.4,0.1,0.5,0.2c2.8,1.1,5.4,2.4,5.9,5.7c0.6,3.2-1.2,5.5-3.5,7.4c-2.8,2.3-6,3.6-9.6,3.3
			c-3.9-0.3-6.8-2.4-8.4-5.9c-2.3-5.4-2.8-11.1-0.8-16.7c2.1-5.8,6.6-9,12.6-10c11.8-2,24,6.5,26.3,18.3
			c2.7,13.7-6.9,27.7-20.8,30.3c-6.4,1.2-12.7,0.5-18.7-2.1c-4.3-1.9-7.8-4.6-10.4-8.5c-1.3-2-2.8-3.8-4.4-5.8
			c-7.4,7.5-13.6,15.2-15.7,25.5c-2.4,11.8,4.8,23.2,16.4,25.7c7.6,1.7,13.3-1.9,14.7-9.3c-0.5,0.4-0.8,0.6-1.1,0.9
			c-3.3,3-6.9,3.6-10.3,1.6c-3.1-1.8-4.4-5.8-3.4-9.8c1.6-6.2,7.1-9.5,13.4-7.9c1.5,0.4,3.1,0.9,4.3,1.8c2,1.6,3.9,1.6,6.1,0.7
			c5.2-2.1,10.4-4.4,15.6-6.5c4-1.5,8-2.9,12-4.2c2.2-0.7,4.9,1.7,4.7,3.9c-0.3,2.7-0.9,5.3-1.7,7.9c-1.9,5.6-3.9,11.2-6,16.7
			c-0.5,1.5-0.3,2.4,0.9,3.4c3.1,2.5,6.1,5,9,7.7c5.2,4.8,8.1,10.6,7.5,17.9c-0.2,3.3-0.2,6.6-0.4,9.9c-0.2,2.8-1,5.4-3,7.3
			c-4.8,4.8-10.3,8.5-17.2,9.3c-2.1,0.2-4.4-0.1-6.3-0.7c-6.7-2.2-11.8-11.4-10.2-17.8c1.6-6.1,9.3-9.7,15-6.8
			c3.6,1.8,4.8,5.9,3,10.3c-3.9,0.3-5.3-0.1-7.8-2.3c-1.9,1.2-2.4,3.1-1.4,4.9c1.9,3.2,6.5,5,10,3.7c0.6-0.2,1.1-0.8,1.6-1.2
			c0.4-0.3,0.6-0.8,1-0.9c5.9-2.5,8.4-8.2,6.9-15.2c-2.5-11.9-12.3-20.1-24.5-20.6c-18.7-0.6-36.8,13.1-42.1,31.8
			c-3.3,11.9-1.5,23.4,3.1,34.6c2.6,6.2,5.9,11.9,9.8,17.4c3.6,5,7.2,10.1,10.8,15c0.5,0.7,1.4,1.1,2.5,1.9c0.3-2.7,0.5-4.9,0.7-7
			c1.5-14.6,8.5-26.3,19.3-35.9c2.8-2.5,5.9-4.4,9.6-5c1.3-0.2,2.1,0.1,2.9,1.2c4.4,6.3,6.3,13.4,7.2,20.8c1.2,10-1.2,19.2-6,27.8
			c-3,5.5-6.3,10.9-9.4,16.4c-2.5,4.6-4.9,9.4-5.3,14.8c-0.2,2.5-0.1,5.2,0.5,7.7c2.2,9,2.6,18.1,2.4,27.3c0,1.6,0,3.1,0,4.9
			c2.7,0.2,5.4,0.4,8,0.6c9.4,0.8,18.9,1.6,28.3,2.5c6,0.5,11.8-0.6,17.2-3c6-2.7,11.9-5.7,17.8-8.6c8.5-4.1,17.4-6.5,27-5.6
			c7.3,0.6,14.4,2.1,20.9,5.5c1.8,1,3.4,2.4,5.1,3.7c1.1,0.8,1.4,2,0.8,3.2c-1.1,2-1.9,4.2-3.4,5.9c-10.5,12.1-23.5,19.1-39.9,19.1
			c-1.5,0-3.1,0-4.6,0c-0.1,0.2-0.1,0.4-0.2,0.5c0.4,0.4,0.7,0.9,1.2,1.2c12.9,10.7,26.8,19.7,43.6,22.9c14.6,2.8,28.4,0.4,40.1-9.4
			c10.2-8.6,15.8-19.5,15.3-33.1c-0.5-12.3-11.2-23.2-23.5-23.8c-8.2-0.4-15.3,7.3-14.3,15.4c0.5,3.9,3.2,5.3,7.3,3.7
			c-0.4-0.5-0.7-1.2-1.1-1.5c-1.5-1.2-2.7-4.8-1.9-6.5c0.1-0.3,0.6-0.6,0.9-0.6c2.3-0.1,4.7-0.4,6.9,0c4.3,0.8,6.5,4.7,5.7,9
			c-1.4,7.6-9,11.9-16.8,9.5c-7.7-2.3-12.4-10.4-11-18.8c1.9-11,10.6-18.9,21.8-19.2c13.1-0.3,23.5,5,30.5,16.3
			c1.1,1.8,2.3,2.1,4,1.6c6.4-2.1,12.9-4.2,19.2-6.5c3-1.1,5.9-1.3,8.8,0.2c0.9,0.5,1.4,1.1,1.2,2.1c-0.6,2.8-1,5.7-2,8.3
			c-2.1,5.2-4.5,10.3-6.8,15.5c-0.5,1-0.9,2.1-1.3,3.2c-1,2.5-1.1,4.8-0.1,7.5c1,2.9,1.6,6.2,1.6,9.3c0,4.6-3.2,7.7-7.8,8.1
			c-2.3,0.2-4.7-0.2-7-0.4c-0.5,0-1.1-0.4-1.3-0.8c-0.8-2.4-1.9-4.7-2.2-7.1c-0.4-3,0.9-4.7,3.7-5.8c0.4-0.1,0.7-0.3,1.4-0.6
			c-2.1-0.6-3.6-0.1-5.1,0.6c-5.2,2.7-7.6,8.6-6,14.8c2.2,8.2,9.7,14.5,18.3,15.7c5.5,0.7,10.8-0.2,15.5-2.9c5-2.9,9.7-6.3,14.6-9.6
			c4.3-2.9,8.3-6.1,12.8-8.7c11-6.4,21.1-3.2,28.7,6c1.7,2.1,2.4,5,3.6,7.5C374.7,737,374.7,738.1,374.7,739.2z M46.2,740.7
			c0.2,0.1,0.4,0.3,0.6,0.4c1.2-0.3,2.5-0.5,3.7-0.8c9.6-2.8,17.4-8.5,24.1-15.7c5.2-5.6,9.4-11.8,11.4-19.3
			c0.3-1.2,0.5-2.4,0.7-3.7c-0.6,0.1-0.9,0.1-1.2,0.2c-16.5,4.5-28.6,14.4-36.3,29.6C47.8,734.3,47.2,737.6,46.2,740.7z
			 M103.4,491.9c-0.4,0-0.6,0-0.7,0c-5.2,2-10.5,4-15.7,6.1c-0.4,0.2-0.9,0.5-1,0.9c-0.4,2.3-0.7,4.6-1,6.9c3.7,0,7.1,0,10.6,0
			c2.8,0,3.6-0.6,4.5-3.3c0.8-2.4,1.7-4.9,2.5-7.3C102.8,494.1,103.1,493,103.4,491.9z M300.2,685.5c-3.4,1.1-6.3,2-9.3,2.9
			c-4.1,1.3-4.1,1.3-4.4,5.5c-0.2,3-0.3,5.9-0.5,9c1.9,0,3.5,0,5.1,0c1.6,0,2.6-0.7,3.2-2.1c1.4-3.4,2.9-6.8,4.3-10.2
			C299.3,689,299.6,687.5,300.2,685.5z"/>
		<path id="XMLID_723_" d="M156.4,588.2c11.4,0.2,21.5,2.4,30.1,9.3c7.8,6.1,12.4,14.3,15.3,23.6c3.2,10.3,3.8,20.6,0.2,30.9
			c-2.5,7.3-7,12.8-14.9,14.7c-4.1,1-8.2,0.7-12.1-0.5c-20.6-6.6-36.7-18.7-46.6-38.3c-2.9-5.7-4.6-11.7-3.9-18.2
			c0.8-7.7,4.8-13.2,11.4-16.9C142.5,589.2,149.7,588.3,156.4,588.2z M156.5,597.9c-6,0-11.3,1-14.9,2.9c-4.9,2.5-7.4,6.5-7.3,12
			c0,4.4,1.5,8.5,3.5,12.3c4.1,7.8,10,14.1,16.7,19.6c6.8,5.5,14.1,9.9,22.7,12c8.3,2,13.9-1.2,16.3-9.5c1.3-4.4,1.4-8.9,1-13.4
			c-0.8-9.1-3.8-17.3-9.8-24.3C177.3,601,167.5,598,156.5,597.9z"/>
		<path id="XMLID_716_" d="M227.3,735.3c-7.6,0-14.8-2.3-21.6-5.5c-3.5-1.6-6.8-3.6-10.2-5.3c-4.1-2.1-5.3-5.7-5-9.9
			c0-0.5,0.7-1.1,1.3-1.3c3.2-1.2,6.6-1.9,9.7-3.3c4.7-2.2,9.3-4.7,13.9-7.1c7.5-4,14.9-4.5,22,0.6c6,4.3,8.8,10.5,8.3,18
			c-0.6,7.8-6.8,13.4-15.3,14C229.4,735.3,228.4,735.3,227.3,735.3z"/>
		<path id="XMLID_714_" d="M82.9,550.4c0.3,0,0.8-0.1,1.4-0.1c0.4,0.9,0.6,1.9,1.1,2.7c3.1,4.4,4,9.3,3.5,14.5c0,0.3-0.1,0.7-0.2,1
			c-4.2,9.8-8.4,19.6-12.6,29.4c-0.5,1.3-1.2,1.7-2.5,1.6c-3.3-0.2-6-1.2-7.8-4.1c-5.3-8.7-10.3-17.5-11.9-27.7
			c-1.3-7.9,0.2-14.9,6.9-20c6.2-4.7,14.8-4.4,20.5,0.5C81.8,548.8,82.2,549.5,82.9,550.4z"/>
		<path id="XMLID_712_" d="M143.8,673.1c-1.5-0.5-2.8-0.9-4.1-1.4c-0.5-0.2-1.1-0.8-1.1-1.3c-0.2-2-0.4-4-0.1-5.9
			c0.9-5.3,5.1-7.8,10.2-6.4c6.2,1.7,9.7,7.8,8.3,14c-1.8,7.7-8.7,12.3-16.9,10.9c-3.4-0.6-6.8-1.7-9.9-3.1c-3-1.4-5.9-1.9-9-1.6
			c-1.6,0.2-3.2,0.4-4.8,0.4c-3.9,0.2-5.7-1.6-5.5-5.5c0.1-1.1,0.2-2.3,0.4-3.4c0.8-4-0.1-7.5-1.8-11.1c-1.3-2.8-2.6-5.9-3.1-8.9
			c-1.2-9.2,6.1-16.8,15.4-16.4c6.3,0.3,10.4,5,9.8,11.3c0,0.2-0.1,0.5-0.1,0.7c-0.7,5.1-2.2,6.3-7.3,6.8c-4.1,0.4-6.7-0.7-7.4-5.3
			c-0.2,0.2-0.4,0.3-0.7,0.5c0.2,1.3,0.3,2.7,0.7,4c1.6,4.8,3.4,9.4,5,14.2c0.4,1.3,1.2,1.9,2.4,2.4c5,1.7,9.9,3.5,14.9,5.3
			C140.7,673.8,142.1,674.2,143.8,673.1z"/>
		<path id="XMLID_711_" d="M51.3,632.2c-4.4,0.3-8.7,0.5-13.1,0.8c-4.9,0.3-9.2-1.1-12.9-4.5c-5.2-4.8-6.3-12.5-2.6-19.1
			c3.5-6.4,10.4-9.6,17.3-7.5c3,0.9,5.9,2.4,8.4,4.2c5.3,3.9,9.8,8.7,13.6,14c1.2,1.7,2.2,3.6,2.9,5.5c1,3-0.3,5.4-3.4,6.2
			c-1.6,0.4-3.3,0.5-5,0.5c-1.7,0.1-3.5,0-5.2,0C51.3,632.3,51.3,632.3,51.3,632.2z"/>
		<path id="XMLID_709_" d="M160,745.6c0.4-5.6,0.7-11.1,1.1-16.7c0.1-1.9,1.3-2.6,2.9-2.5c1.7,0.1,3.5,0.3,5,1c9,4.5,16.2,11,21,20
			c0.9,1.8,1.5,3.8,1.9,5.8c0.7,3.2,0.1,6.3-1.8,8.9c-5.8,8.4-18.3,11-26.5,2.4c-1.9-2-3.1-4.4-3.1-7.2c0-3.9,0-7.8,0-11.7
			C160.4,745.6,160.2,745.6,160,745.6z"/>
		<path id="XMLID_708_" d="M133,581.6c-1.9,0.4-3.7,0.9-5.4,1.1c-1,0.1-2.4,0.2-3-0.4c-0.5-0.5-0.1-1.9,0.1-2.9
			c0.1-0.5,0.4-1,0.5-1.5c1-3.3,0.9-3-2.3-4.2c-1.2-0.5-2.2-2.2-2.8-3.6c-0.2-0.5,0.8-1.9,1.6-2.5c1.2-0.9,2.6-1.4,4.1-2.2
			c-0.6-2.8-1.2-5.6-1.8-8.8c3.1,0.7,6,1.3,9.1,1.9c0.6-2.5,1.2-5.4,4-5.5c2.9-0.1,4.8,1.9,4.5,5.5c3.1-0.7,5.9-1.2,9.2-1.9
			c-0.4,3.3-0.8,6.2-1.1,9.4c2.6-0.1,4.3,1.6,5.7,3.8c-0.9,2.8-2.9,4.3-5.9,4.8c0.7,2.8,1.3,5.4,2,8.3c-2.6-0.3-5-0.5-7.3-0.9
			c-1.5-0.3-2.2,0.1-2.7,1.5c-0.7,1.7-1.5,3.2-2.3,4.9C135.4,587.5,133.6,585.1,133,581.6z"/>
		<path id="XMLID_706_" d="M226,667.4c-3-0.7-5.8-1.4-5.9-5.4c-2.9,1-5.6,1.5-8.5,0.2c0.5-2.1,0.9-4.2,1.4-6.4
			c-2.4-1.3-4.7-2.6-5.2-5.8c1.8-1.1,3.7-2.3,5.7-3.5c-2.3-2.3-1.4-5.1-1.5-7.9c2.2,0.5,4.3,0.9,6.3,1.4c1,0.3,1.6,0.1,2.1-1
			c0.5-1.4,1.3-2.8,1.9-4.2c3.5,0.4,6.2,1.4,6.4,5.6c2.9-0.8,5.4-1.5,8.1-2.2c-0.5,2.5-0.9,4.7-1.4,6.9c-0.2,1.1,0,1.7,1.1,2.1
			c0.5,0.2,1.1,0.3,1.4,0.7c0.9,0.9,2.4,2,2.3,2.9c-0.1,1.8-0.9,3.6-3.1,4.2c-0.6,0.2-1.1,0.4-1.7,0.7c0.5,2.5,0.9,4.8,1.4,7.5
			c-2.2-0.3-4.2-0.5-6.2-0.9c-1.2-0.3-1.9,0.1-2.4,1.2C227.6,664.8,226.8,666.1,226,667.4z"/>
		<path id="XMLID_701_" d="M77.5,524c5.3,0,9.9,4.4,9.9,9.5c0,5.3-4.5,10-9.4,9.9c-4.9,0-10.7-5.1-10.7-9.4
			C67.3,528.6,72.1,524,77.5,524z"/>
		<path id="XMLID_700_" d="M257.1,718.1c-5.5,0-9.3-4.1-9-9.8c0.3-5.5,2.5-7.9,7.7-8.3c4.8-0.4,9.1,2.7,10.1,7.3
			C267.2,713.1,263.2,718.1,257.1,718.1z"/>
		<path id="XMLID_699_" d="M364.9,707.3c-0.3,0.4-0.6,0.8-1,1.1c-0.8,0.4-1.7,0.9-2.5,0.9c-3.1,0-6.2-0.2-9.3-0.4
			c-0.4,0-0.9-0.4-1.1-0.7c-1.9-3.2-2.3-6.6-1.3-10.2c1.4-4.9,1.4-4.9,6.4-5.4c1.5-0.1,3.1-0.1,4.6,0.2c3.8,0.7,6.2,3.4,6.1,7.3
			c0,2.2,0.4,4.5-1.7,6.2c-0.2,0.1,0.1,0.8,0.2,1.2C365.2,707.4,365.1,707.4,364.9,707.3z"/>
		<path id="XMLID_697_" d="M41.7,690.8c0.2-4,3.5-7.5,7.8-8c4.2-0.6,8.4,2.2,9.4,6.1c1,4.2-1.2,8.5-5,10c-2.7,1.1-5.5,0.9-7.8-0.3
			c-1.5-0.8-2.4-2.9-3.3-4.6C42.2,693.1,42,691.9,41.7,690.8z"/>
		<path id="XMLID_696_" d="M83.7,736.9c0.1-4.8,4.2-8.7,9-8.6c4.9,0.1,8.4,3.5,8.3,8.1c0,4.7-3.7,8.8-7.8,8.7
			C88.7,745,83.7,740.8,83.7,736.9z"/>
		<path id="XMLID_694_" d="M344.7,702.7c0.1,5.5-2.2,8.9-6.2,9.8c-3,0.7-6.3-0.6-8-3.2c-1.9-2.9-2.1-7-0.4-9.5
			c1.6-2.4,4.8-3.5,8-2.8c1.3,0.3,2.5,0.8,3.7,1.3C343.8,699.2,345.2,700.6,344.7,702.7z"/>
		<path id="XMLID_692_" d="M107.2,752.7c-2.9,0-5.5-3.7-5.5-7.8c0-3.6,2.4-6,5.9-6.1c4.5-0.1,8.1,3.1,8.1,7.1
			C115.8,750,112.3,752.7,107.2,752.7z"/>
		<path id="XMLID_686_" d="M329,713.6c-0.3,1.2-0.1,2.9-0.9,3.6c-1.7,1.8-3.9,3-6.5,3c-3.3,0-5.6-2.6-5.6-6.5
			c-0.1-4.1,2.2-7.2,5.6-7c1.8,0.1,3.6,1.2,5.3,1.9C329.3,709.5,328.6,711.7,329,713.6z"/>
		<path id="XMLID_685_" d="M34.7,670.1c4.2,0,8.1,0,12.3,0c0.1,3.2,0.2,6.5,0.3,9.7c0,0.3-0.3,0.7-0.5,0.8c-3,1-5.9,2.1-9.1,1.1
			c-1.4-0.4-2.3-1.1-2.4-2.9C35.3,676,35,673.2,34.7,670.1z"/>
		<path id="XMLID_684_" d="M117.6,748.1c-0.1-4,1.5-6.1,4.7-6.1c4.6-0.1,6.8,1.8,6.8,5.9c0,3.7-2.1,6.1-5.4,6.1
			C119.4,754.1,117.6,752.3,117.6,748.1z"/>
		<path id="XMLID_681_" d="M46.7,658.1c-2.7,0.1-2.3,1.9-2.3,3.4c0,3.9,0,3.8-3.7,4.9c-2.6,0.8-4.9-0.1-6.3-1.9
			c-1.4-1.7-1.3-4.2-0.4-6.4c0.8-1.9,2.4-2.6,4.2-2.4c2.8,0.4,5.5,1,8.2,1.6C46.5,657.6,46.6,657.9,46.7,658.1z"/>
		<path id="XMLID_659_" d="M143,604.1c3.6,0,5.6,0.9,6.4,3.4c1.2,3.6,3.4,6.5,6,9c7.7,7.4,15.3,14.8,23.2,22.1
			c1.8,1.7,4.2,3.1,6.5,4c5.4,2,4.7,7.5,1.5,10c-0.1,0.1-0.2,0.2-0.3,0.2c-2.9,2.3-6.9,1.6-8.5-1.8c-2.1-4.7-5.5-8.4-9.1-11.9
			c-6.6-6.5-13.2-12.9-20-19.1c-2.1-1.9-4.6-3.3-7.1-4.7c-2.9-1.6-4.3-3.8-3.7-6.4C138.5,606,141,604.1,143,604.1z"/>
		<path id="XMLID_658_" d="M187.3,638.1c-1.6-0.7-3.1-1-4.3-1.8c-2.9-2-5.8-4.1-8.4-6.5c-5.5-5.3-10.9-10.8-16.2-16.3
			c-1.3-1.3-2.3-3-3.1-4.6c-0.3-0.7-0.3-1.9,0.1-2.4c0.4-0.6,1.6-0.8,2.4-0.8c0.9,0.1,1.9,0.5,2.6,1.1c1.8,1.3,3.7,2.7,5.3,4.3
			c5.7,5.5,11.4,11,17.1,16.5c2.6,2.5,4.7,5.3,4.7,9.2C187.4,637,187.3,637.3,187.3,638.1z"/>
		<path id="XMLID_657_" d="M145,620.3c1,0.4,2.2,0.7,2.9,1.4c7,6.8,13.9,13.7,20.8,20.6c1.1,1.1,2.1,2.5,2.8,3.9
			c0.4,0.8,0.6,2.4,0.1,2.9c-0.9,0.8-2.4,1.4-3.4,1.2c-1.3-0.2-2.6-1.2-3.6-2.2c-6.9-6.7-13.6-13.5-20.4-20.2
			c-0.8-0.8-1.5-1.7-2-2.7C140.4,622.2,141.4,620.7,145,620.3z"/>
		<path id="XMLID_656_" d="M191.1,627.1c-3.4,0.1-6.1-0.8-8.4-3.4c-3.5-3.8-7.4-7.1-11.1-10.7c-1.6-1.6-3.1-3.3-4.4-5.2
			c-1.3-1.7-1.8-3.7-1.6-6.1c2.3-0.5,4.5-0.2,6.5,1.1c0.9,0.6,1.7,1.4,2.5,2.1c3.8,3.6,7.5,7.2,11.3,10.8c2.7,2.6,5,5.3,5.4,9.2
			c0,0.4,0.1,0.8,0.1,1.3C191.2,626.5,191.1,626.7,191.1,627.1z"/>
	</g>
	<g id="XMLID_390_">
		<path id="XMLID_415_" d="M374.7,44.2c-1.2,2.5-1.8,5.5-3.6,7.5c-7.7,9.2-17.7,12.4-28.7,6c-4.4-2.6-8.5-5.8-12.8-8.7
			c-4.8-3.3-9.5-6.7-14.6-9.6c-4.7-2.7-10-3.6-15.5-2.9c-8.7,1.2-16.2,7.5-18.3,15.7c-1.6,6.1,0.8,12,6,14.8c1.5,0.8,3,1.3,5.1,0.6
			c-0.7-0.3-1.1-0.5-1.4-0.6c-2.8-1.1-4.2-2.8-3.7-5.8c0.4-2.4,1.4-4.8,2.2-7.1c0.1-0.4,0.8-0.8,1.3-0.8c2.3-0.2,4.7-0.6,7-0.4
			c4.7,0.3,7.8,3.4,7.8,8.1c0,3.1-0.5,6.4-1.6,9.3c-0.9,2.7-0.9,5,0.1,7.5c0.4,1.1,0.8,2.1,1.3,3.2c2.3,5.2,4.7,10.2,6.8,15.5
			c1,2.6,1.4,5.5,2,8.3c0.2,1-0.2,1.6-1.2,2.1c-2.9,1.6-5.8,1.3-8.8,0.2c-6.4-2.3-12.8-4.4-19.2-6.5c-1.7-0.6-2.9-0.2-4,1.6
			c-7,11.2-17.4,16.6-30.5,16.3c-11.2-0.3-19.9-8.2-21.8-19.2c-1.5-8.4,3.3-16.5,11-18.8c7.8-2.4,15.4,1.9,16.8,9.5
			c0.8,4.3-1.5,8.1-5.7,9c-2.2,0.4-4.6,0.1-6.9,0c-0.3,0-0.8-0.3-0.9-0.6c-0.7-1.8,0.4-5.3,1.9-6.5c0.5-0.4,0.7-1,1.1-1.5
			c-4.1-1.6-6.8-0.2-7.3,3.7c-1,8.1,6.1,15.8,14.3,15.4c12.3-0.7,23.1-11.5,23.5-23.8c0.5-13.6-5.1-24.5-15.3-33.1
			c-11.7-9.8-25.5-12.2-40.1-9.4c-16.8,3.2-30.7,12.2-43.6,22.9c-0.4,0.4-0.8,0.8-1.2,1.2c0.1,0.2,0.1,0.4,0.2,0.5
			c1.5,0,3.1,0,4.6,0c16.3,0,29.3,7,39.9,19.1c1.5,1.7,2.3,3.9,3.4,5.9c0.6,1.2,0.3,2.4-0.8,3.2c-1.6,1.3-3.2,2.7-5.1,3.7
			c-6.5,3.4-13.6,4.9-20.9,5.5c-9.5,0.8-18.4-1.5-27-5.6c-5.9-2.9-11.8-5.9-17.8-8.6c-5.4-2.4-11.2-3.5-17.2-3
			c-9.4,0.8-18.9,1.7-28.3,2.5c-2.7,0.2-5.3,0.4-8,0.6c0,1.8,0,3.4,0,4.9c0.2,9.2-0.2,18.3-2.4,27.3c-0.6,2.5-0.7,5.1-0.5,7.7
			c0.4,5.4,2.8,10.1,5.3,14.8c3,5.5,6.3,10.9,9.4,16.4c4.7,8.7,7.2,17.8,6,27.8c-0.9,7.5-2.8,14.6-7.2,20.8
			c-0.8,1.1-1.6,1.4-2.9,1.2c-3.8-0.6-6.8-2.6-9.6-5c-10.8-9.6-17.8-21.3-19.3-35.9c-0.2-2.2-0.4-4.3-0.7-7c-1.1,0.8-2,1.2-2.5,1.9
			c-3.7,5-7.2,10-10.8,15c-3.9,5.4-7.2,11.2-9.8,17.4c-4.6,11.2-6.4,22.7-3.1,34.6c5.2,18.7,23.4,32.5,42.1,31.8
			c12.2-0.4,21.9-8.6,24.5-20.6c1.5-7-1-12.7-6.9-15.2c-0.4-0.2-0.7-0.6-1-0.9c-0.5-0.4-1-1-1.6-1.2c-3.6-1.2-8.1,0.5-10,3.7
			c-1.1,1.8-0.5,3.6,1.4,4.9c2.5-2.1,3.9-2.5,7.8-2.3c1.8,4.4,0.6,8.5-3,10.3c-5.7,2.9-13.4-0.7-15-6.8c-1.6-6.4,3.5-15.5,10.2-17.8
			c2-0.7,4.3-0.9,6.3-0.7c6.9,0.8,12.4,4.5,17.2,9.3c2,2,2.8,4.6,3,7.3c0.2,3.3,0.2,6.6,0.4,9.9c0.6,7.3-2.3,13.1-7.5,17.9
			c-2.9,2.7-6,5.2-9,7.7c-1.2,1-1.5,1.9-0.9,3.4c2.1,5.6,4.1,11.1,6,16.7c0.8,2.5,1.4,5.2,1.7,7.9c0.3,2.3-2.5,4.6-4.7,3.9
			c-4.1-1.2-8.1-2.6-12-4.2c-5.2-2-10.4-4.3-15.6-6.5c-2.1-0.9-4.1-0.8-6.1,0.7c-1.2,0.9-2.8,1.4-4.3,1.8
			c-6.3,1.6-11.8-1.7-13.4-7.9c-1-4.1,0.3-8,3.4-9.8c3.4-2,7-1.5,10.3,1.6c0.3,0.3,0.7,0.5,1.1,0.9c-1.3-7.4-7.1-11-14.7-9.3
			c-11.5,2.6-18.8,13.9-16.4,25.7c2.1,10.3,8.3,18,15.7,25.5c1.5-2,3.1-3.8,4.4-5.8c2.6-3.9,6.1-6.7,10.4-8.5
			c6-2.6,12.2-3.3,18.7-2.1c13.9,2.5,23.5,16.5,20.8,30.3c-2.3,11.8-14.5,20.2-26.3,18.3c-6-1-10.5-4.1-12.6-10
			c-2-5.6-1.6-11.2,0.8-16.7c1.5-3.6,4.4-5.7,8.4-5.9c3.6-0.3,6.9,1.1,9.6,3.3c2.3,1.9,4.1,4.2,3.5,7.4c-0.6,3.3-3.1,4.6-5.9,5.7
			c-0.2,0.1-0.3,0.1-0.5,0.2c-2.8,0.8-4.9,0-6.5-2.5c-0.5-0.7-0.9-1.5-1.4-2.4c-1.4,5.6,0.8,10,5.6,11.7c4.9,1.8,11.4-0.7,13.7-4.7
			c1.8-3.1,1.7-6.4,1.7-9.7c-0.2-7.3-4.2-12.8-11.3-14.9c-6.7-2-12.8-0.2-18.5,3.3c-3.6,2.2-5.6,5.6-5.8,9.8
			c-0.3,4.9,0,9.8-0.3,14.7c-0.6,8.9-6.2,15.7-14.8,18.1c-8.9,2.5-16.6-1.3-18.9-9.5c-1.9-6.6,1.3-12.7,7.6-14
			c6.2-1.3,10.7,2.2,10.6,8.5c0,1.7-0.9,3.4-1.4,4.9c3.4-0.3,6.2-3,6.8-6.8c0.8-5.1-0.9-9.6-3.8-13.7c-2-2.7-4.4-5.2-6.5-8
			c-3.1-4.2-6.4-8.3-9-12.7c-4-6.9-5.9-14.5-4.6-22.5C36,274.9,43,267,53.4,261.7c0.7-0.3,1.4-0.7,2.5-1.2c-2-2.9-3.7-5.7-5.7-8.2
			c-10.1-12.4-12.8-26.5-10.2-41.9c1.7-10.2,5.9-19.4,11.5-27.9c6.2-9.5,13-18.6,19.6-27.8c4.5-6.3,9.1-12.6,11.7-20
			c3-8.5,5.2-17.2,6.6-26.1c0.8-4.9,1.5-9.8,0.8-14.9c-0.3-2.3-1.2-3.7-3.6-4.6c-6.1-2.3-12.2-4.6-18.1-7.4
			c-7.5-3.6-13.5-9.2-19.2-15.2c-0.6-0.7-1.4-1.2-2.2-2c-4.5,10-9.1,19.7-13.2,29.5c-2.5,5.8-3.6,12.1-3,18.5
			c0.8,9.6,5.4,16.7,14.3,20.6c5.5,2.4,11.2,2.9,16.7,0.2c5.2-2.5,7.9-8.7,6-14c-0.5,0.8-0.8,1.4-1.3,2c-1.1,1.3-2.1,2.8-3.4,3.9
			c-2.6,2.2-6,2.2-8.5-0.1c-3.1-2.7-4.4-6.3-3.6-10.3c0.8-4.1,3.2-6.9,7.3-8.1c6.2-1.9,14,0.9,17.9,6.4c4.5,6.4,4.1,15-1.3,21.7
			c-6.5,8.1-15.1,11-25.3,9.7c-14.1-1.8-25.9-13.3-28.1-27.3c-1.5-9.3,0-18.3,3.5-27c3.1-7.5,6.7-14.9,10.1-22.3
			c3.2-6.8,3.9-13.9,2.4-21.3c-0.9-4.5-2.2-9-3.2-13.5c-0.9-4.4,1.2-6.7,5.6-6c3,0.5,5.9,1.1,8.8,1.8c11.6,3,22.7,1.9,33.4-3.5
			c3.3-1.7,6.7-3.3,10-4.9c9-4.3,18.3-7.2,28.4-7c14.6,0.3,26.8,9.1,31.5,22.9c1.9,5.6,2.4,11.3,1.2,17
			c-2.4,11.2-10.8,17.5-22.6,17.1c-6.9-0.2-13-4.5-15.2-10.7c-2.7-7.5,1.5-15.1,9.1-16.6c5.2-1,9.9,1.5,10.6,6.1
			c0.4,2.4-0.3,5.1-0.7,7.6c-0.1,0.4-0.8,0.9-1.3,1.1c-2,0.6-4,1.2-6,1.7c2.2,1.7,4.8,1.6,7.5,0.8c7.3-2.2,11.1-9.4,9.6-17.5
			c-2.2-11.1-11.9-19.2-23.3-19.8c-8.3-0.4-15.8,2.2-23.2,5.6c-7.9,3.6-15.7,7.5-24.1,9.9c-0.3,0.1-0.6,0.3-1.4,0.6
			c1.5,1.4,2.8,2.8,4.3,4c7.8,6.3,13.2,14.4,16.6,23.7c1.5,4,2.7,8.1,4.1,12.1c0.3,1,0.8,1.5,1.9,1.5c2.6,0.1,5.1,0.4,7.7,0.5
			c15.7,0.5,30.4-3.6,44.6-9.9c8.5-3.8,15.7-9.4,22.9-15.2c8-6.4,16.2-12.6,25.6-16.9c13.9-6.3,28.4-8.4,43.6-6.2
			c8.2,1.2,15.2,5,21.6,10c2.3,1.8,4.6,3.4,7,5.3c0.8-1.6,1.4-3.1,2.3-4.5c1.5-2.4,2.8-5.1,4.8-7.1c8.7-8.9,19.3-11.9,31.4-9.3
			c8,1.7,14.8,6.1,21.2,11c4.1,3.1,8.1,6.2,12.2,9.2c3.1,2.2,6.5,3.3,10.3,3c3.6-0.3,6.8-1.5,9-4.5c1-1.4,1.5-3,1-5.2
			c-1.4,3-3,4.9-6.2,4.7c-4.7-0.2-8.2-3.3-8.5-7.7c-0.4-5.3,3.1-10.3,7.7-11.1c3.9-0.7,7.2,0.6,10.3,2.8c3.9,2.8,6.1,6.6,7.1,11.2
			C374.7,42.1,374.7,43.2,374.7,44.2z M49.2,48.7C56.9,63.9,69,73.8,85.5,78.3c0.3,0.1,0.6,0.1,1.2,0.2c-0.2-1.3-0.4-2.5-0.7-3.7
			c-2.1-7.5-6.2-13.7-11.4-19.3c-6.7-7.2-14.4-12.9-24.1-15.7c-1.2-0.3-2.4-0.5-3.7-0.8c-0.2,0.1-0.4,0.3-0.6,0.4
			C47.2,42.5,47.8,45.8,49.2,48.7z M102.5,285c-0.8-2.4-1.6-4.9-2.5-7.3c-0.9-2.7-1.7-3.3-4.5-3.3c-3.5,0-6.9,0-10.6,0
			c0.3,2.3,0.6,4.6,1,6.9c0.1,0.3,0.6,0.7,1,0.9c5.2,2.1,10.5,4.1,15.7,6.1c0.1,0.1,0.3,0,0.7,0C103.1,287.2,102.8,286.1,102.5,285z
			 M298.7,89.7c-1.4-3.4-2.9-6.8-4.3-10.2c-0.6-1.4-1.6-2.2-3.2-2.1c-1.6,0-3.2,0-5.1,0c0.2,3,0.3,6,0.5,9c0.3,4.2,0.3,4.2,4.4,5.5
			c2.9,0.9,5.8,1.8,9.3,2.9C299.6,92.6,299.3,91.1,298.7,89.7z"/>
		<path id="XMLID_412_" d="M135.9,187.3c-6.6-3.7-10.6-9.2-11.4-16.9c-0.7-6.5,1-12.5,3.9-18.2c9.9-19.6,26-31.7,46.6-38.3
			c3.9-1.3,8-1.5,12.1-0.5c7.9,1.9,12.4,7.4,14.9,14.7c3.5,10.3,3,20.7-0.2,30.9c-2.9,9.3-7.5,17.5-15.3,23.6
			c-8.6,6.8-18.7,9.1-30.1,9.3C149.7,191.9,142.5,191,135.9,187.3z M184.7,170.6c6-6.9,9-15.2,9.8-24.3c0.4-4.5,0.3-9-1-13.4
			c-2.4-8.3-8-11.5-16.3-9.5c-8.6,2.1-15.9,6.5-22.7,12c-6.8,5.5-12.7,11.7-16.7,19.6c-2,3.9-3.5,7.9-3.5,12.3c0,5.5,2.5,9.5,7.3,12
			c3.6,1.9,8.9,2.9,14.9,2.9C167.5,182.1,177.3,179.2,184.7,170.6z"/>
		<path id="XMLID_411_" d="M227.3,44.9c-7.6,0-14.8,2.3-21.6,5.5c-3.5,1.6-6.8,3.6-10.2,5.3c-4.1,2.1-5.3,5.7-5,9.9
			c0,0.5,0.7,1.1,1.3,1.3c3.2,1.2,6.6,1.9,9.7,3.3c4.7,2.2,9.3,4.7,13.9,7.1c7.5,4,14.9,4.5,22-0.6c6-4.3,8.8-10.5,8.3-18
			c-0.6-7.8-6.8-13.4-15.3-14C229.4,44.8,228.4,44.9,227.3,44.9z"/>
		<path id="XMLID_410_" d="M82.9,229.8c0.3,0,0.8,0.1,1.4,0.1c0.4-0.9,0.6-1.9,1.1-2.7c3.1-4.4,4-9.3,3.5-14.5c0-0.3-0.1-0.7-0.2-1
			c-4.2-9.8-8.4-19.6-12.6-29.4c-0.5-1.3-1.2-1.7-2.5-1.6c-3.3,0.2-6,1.2-7.8,4.1c-5.3,8.7-10.3,17.5-11.9,27.7
			c-1.3,7.9,0.2,14.9,6.9,20c6.2,4.7,14.8,4.4,20.5-0.5C81.8,231.4,82.2,230.6,82.9,229.8z"/>
		<path id="XMLID_409_" d="M143.8,107c-1.5,0.5-2.8,0.9-4.1,1.4c-0.5,0.2-1.1,0.8-1.1,1.3c-0.2,2-0.4,4-0.1,5.9
			c0.9,5.3,5.1,7.8,10.2,6.4c6.2-1.7,9.7-7.8,8.3-14c-1.8-7.7-8.7-12.3-16.9-10.9c-3.4,0.6-6.8,1.7-9.9,3.1c-3,1.4-5.9,1.9-9,1.6
			c-1.6-0.2-3.2-0.4-4.8-0.4c-3.9-0.2-5.7,1.6-5.5,5.5c0.1,1.1,0.2,2.3,0.4,3.4c0.8,4-0.1,7.5-1.8,11.1c-1.3,2.8-2.6,5.9-3.1,8.9
			c-1.2,9.2,6.1,16.8,15.4,16.4c6.3-0.3,10.4-5,9.8-11.3c0-0.2-0.1-0.5-0.1-0.7c-0.7-5.1-2.2-6.3-7.3-6.8c-4.1-0.4-6.7,0.7-7.4,5.3
			c-0.2-0.2-0.4-0.3-0.7-0.5c0.2-1.3,0.3-2.7,0.7-4c1.6-4.8,3.4-9.4,5-14.2c0.4-1.3,1.2-1.9,2.4-2.4c5-1.7,9.9-3.5,14.9-5.3
			C140.7,106.4,142.1,105.9,143.8,107z"/>
		<path id="XMLID_408_" d="M51.3,148c-4.4-0.3-8.7-0.5-13.1-0.8c-4.9-0.3-9.2,1.1-12.9,4.5c-5.2,4.8-6.3,12.5-2.6,19.1
			c3.5,6.4,10.4,9.6,17.3,7.5c3-0.9,5.9-2.4,8.4-4.2c5.3-3.9,9.8-8.7,13.6-14c1.2-1.7,2.2-3.6,2.9-5.5c1-3-0.3-5.4-3.4-6.2
			c-1.6-0.4-3.3-0.5-5-0.5c-1.7-0.1-3.5,0-5.2,0C51.3,147.8,51.3,147.9,51.3,148z"/>
		<path id="XMLID_407_" d="M160,34.6c0.4,5.6,0.7,11.1,1.1,16.7c0.1,1.9,1.3,2.6,2.9,2.5c1.7-0.1,3.5-0.3,5-1c9-4.5,16.2-11,21-20
			c0.9-1.8,1.5-3.8,1.9-5.8c0.7-3.2,0.1-6.3-1.8-8.9c-5.8-8.4-18.3-11-26.5-2.4c-1.9,2-3.1,4.4-3.1,7.2c0,3.9,0,7.8,0,11.7
			C160.4,34.6,160.2,34.6,160,34.6z"/>
		<path id="XMLID_406_" d="M133,198.6c-1.9-0.4-3.7-0.9-5.4-1.1c-1-0.1-2.4-0.2-3,0.4c-0.5,0.5-0.1,1.9,0.1,2.9
			c0.1,0.5,0.4,1,0.5,1.5c1,3.3,0.9,3-2.3,4.2c-1.2,0.5-2.2,2.2-2.8,3.6c-0.2,0.5,0.8,1.9,1.6,2.5c1.2,0.9,2.6,1.4,4.1,2.2
			c-0.6,2.8-1.2,5.6-1.8,8.8c3.1-0.7,6-1.3,9.1-1.9c0.6,2.5,1.2,5.4,4,5.5c2.9,0.1,4.8-1.9,4.5-5.5c3.1,0.7,5.9,1.2,9.2,1.9
			c-0.4-3.3-0.8-6.2-1.1-9.4c2.6,0.1,4.3-1.6,5.7-3.8c-0.9-2.8-2.9-4.3-5.9-4.8c0.7-2.8,1.3-5.4,2-8.3c-2.6,0.3-5,0.5-7.3,0.9
			c-1.5,0.3-2.2-0.1-2.7-1.5c-0.7-1.7-1.5-3.2-2.3-4.9C135.4,192.7,133.6,195,133,198.6z"/>
		<path id="XMLID_405_" d="M226,112.8c-3,0.7-5.8,1.4-5.9,5.4c-2.9-1-5.6-1.5-8.5-0.2c0.5,2.1,0.9,4.2,1.4,6.4
			c-2.4,1.3-4.7,2.6-5.2,5.8c1.8,1.1,3.7,2.3,5.7,3.5c-2.3,2.3-1.4,5.1-1.5,7.9c2.2-0.5,4.3-0.9,6.3-1.4c1-0.3,1.6-0.1,2.1,1
			c0.5,1.4,1.3,2.8,1.9,4.2c3.5-0.4,6.2-1.4,6.4-5.6c2.9,0.8,5.4,1.5,8.1,2.2c-0.5-2.5-0.9-4.7-1.4-6.9c-0.2-1.1,0-1.7,1.1-2.1
			c0.5-0.2,1.1-0.3,1.4-0.7c0.9-0.9,2.4-2,2.3-2.9c-0.1-1.8-0.9-3.6-3.1-4.2c-0.6-0.2-1.1-0.4-1.7-0.7c0.5-2.5,0.9-4.8,1.4-7.5
			c-2.2,0.3-4.2,0.5-6.2,0.9c-1.2,0.3-1.9-0.1-2.4-1.2C227.6,115.4,226.8,114.1,226,112.8z"/>
		<path id="XMLID_404_" d="M77.5,256.1c5.3,0,9.9-4.4,9.9-9.5c0-5.3-4.5-10-9.4-9.9c-4.9,0-10.7,5.1-10.7,9.4
			C67.3,251.5,72.1,256.2,77.5,256.1z"/>
		<path id="XMLID_403_" d="M257.1,62c-5.5,0-9.3,4.1-9,9.8c0.3,5.5,2.5,7.9,7.7,8.3c4.8,0.4,9.1-2.7,10.1-7.3
			C267.2,67,263.2,62.1,257.1,62z"/>
		<path id="XMLID_402_" d="M364.9,72.8c-0.3-0.4-0.6-0.8-1-1.1c-0.8-0.4-1.7-0.9-2.5-0.9c-3.1,0-6.2,0.2-9.3,0.4
			c-0.4,0-0.9,0.4-1.1,0.7c-1.9,3.2-2.3,6.6-1.3,10.2c1.4,4.9,1.4,4.9,6.4,5.4c1.5,0.1,3.1,0.1,4.6-0.2c3.8-0.7,6.2-3.4,6.1-7.3
			c0-2.2,0.4-4.5-1.7-6.2c-0.2-0.1,0.1-0.8,0.2-1.2C365.2,72.7,365.1,72.8,364.9,72.8z"/>
		<path id="XMLID_401_" d="M41.7,89.3c0.2,4,3.5,7.5,7.8,8c4.2,0.6,8.4-2.2,9.4-6.1c1-4.2-1.2-8.5-5-10c-2.7-1.1-5.5-0.9-7.8,0.3
			c-1.5,0.8-2.4,2.9-3.3,4.6C42.2,87.1,42,88.2,41.7,89.3z"/>
		<path id="XMLID_400_" d="M83.7,43.2c0.1,4.8,4.2,8.7,9,8.6c4.9-0.1,8.4-3.5,8.3-8.1c0-4.7-3.7-8.8-7.8-8.7
			C88.7,35.1,83.7,39.4,83.7,43.2z"/>
		<path id="XMLID_399_" d="M344.7,77.5c0.1-5.5-2.2-8.9-6.2-9.8c-3-0.7-6.3,0.6-8,3.2c-1.9,2.9-2.1,7-0.4,9.5c1.6,2.4,4.8,3.5,8,2.8
			c1.3-0.3,2.5-0.8,3.7-1.3C343.8,81,345.2,79.6,344.7,77.5z"/>
		<path id="XMLID_398_" d="M107.2,27.5c-2.9,0-5.5,3.7-5.5,7.8c0,3.6,2.4,6,5.9,6.1c4.5,0.1,8.1-3.1,8.1-7.1
			C115.8,30.2,112.3,27.5,107.2,27.5z"/>
		<path id="XMLID_397_" d="M329,66.6c-0.3-1.2-0.1-2.9-0.9-3.6c-1.7-1.8-3.9-3-6.5-3c-3.3,0-5.6,2.6-5.6,6.5c-0.1,4.1,2.2,7.2,5.6,7
			c1.8-0.1,3.6-1.2,5.3-1.9C329.3,70.6,328.6,68.5,329,66.6z"/>
		<path id="XMLID_396_" d="M34.7,110.1c4.2,0,8.1,0,12.3,0c0.1-3.2,0.2-6.5,0.3-9.7c0-0.3-0.3-0.7-0.5-0.8c-3-1-5.9-2.1-9.1-1.1
			c-1.4,0.4-2.3,1.1-2.4,2.9C35.3,104.2,35,107,34.7,110.1z"/>
		<path id="XMLID_395_" d="M117.6,32c-0.1,4,1.5,6.1,4.7,6.1c4.6,0.1,6.8-1.8,6.8-5.9c0-3.7-2.1-6.1-5.4-6.1
			C119.4,26,117.6,27.8,117.6,32z"/>
		<path id="XMLID_394_" d="M46.7,122.1c-2.7-0.1-2.3-1.9-2.3-3.4c0-3.9,0-3.8-3.7-4.9c-2.6-0.8-4.9,0.1-6.3,1.9
			c-1.4,1.7-1.3,4.2-0.4,6.4c0.8,1.9,2.4,2.6,4.2,2.4c2.8-0.4,5.5-1,8.2-1.6C46.5,122.5,46.6,122.3,46.7,122.1z"/>
		<path id="XMLID_393_" d="M143,176c3.6,0,5.6-0.9,6.4-3.4c1.2-3.6,3.4-6.5,6-9c7.7-7.4,15.3-14.8,23.2-22.1c1.8-1.7,4.2-3.1,6.5-4
			c5.4-2,4.7-7.5,1.5-10c-0.1-0.1-0.2-0.2-0.3-0.2c-2.9-2.3-6.9-1.6-8.5,1.8c-2.1,4.7-5.5,8.4-9.1,11.9c-6.6,6.5-13.2,12.9-20,19.1
			c-2.1,1.9-4.6,3.3-7.1,4.7c-2.9,1.6-4.3,3.8-3.7,6.4C138.5,174.2,141,176,143,176z"/>
		<path id="XMLID_392_" d="M187.3,142c-1.6,0.7-3.1,1-4.3,1.8c-2.9,2-5.8,4.1-8.4,6.5c-5.5,5.3-10.9,10.8-16.2,16.3
			c-1.3,1.3-2.3,3-3.1,4.6c-0.3,0.7-0.3,1.9,0.1,2.4c0.4,0.6,1.6,0.8,2.4,0.8c0.9-0.1,1.9-0.5,2.6-1.1c1.8-1.3,3.7-2.7,5.3-4.3
			c5.7-5.5,11.4-11,17.1-16.5c2.6-2.5,4.7-5.3,4.7-9.2C187.4,143.1,187.3,142.8,187.3,142z"/>
		<path id="XMLID_391_" d="M145,159.8c1-0.4,2.2-0.7,2.9-1.4c7-6.8,13.9-13.7,20.8-20.6c1.1-1.1,2.1-2.5,2.8-3.9
			c0.4-0.8,0.6-2.4,0.1-2.9c-0.9-0.8-2.4-1.4-3.4-1.2c-1.3,0.2-2.6,1.2-3.6,2.2c-6.9,6.7-13.6,13.5-20.4,20.2
			c-0.8,0.8-1.5,1.7-2,2.7C140.4,158,141.4,159.5,145,159.8z"/>
		<path id="XMLID_420_" d="M191.1,153c-3.4-0.1-6.1,0.8-8.4,3.4c-3.5,3.8-7.4,7.1-11.1,10.7c-1.6,1.6-3.1,3.3-4.4,5.2
			c-1.3,1.7-1.8,3.7-1.6,6.1c2.3,0.5,4.5,0.2,6.5-1.1c0.9-0.6,1.7-1.4,2.5-2.1c3.8-3.6,7.5-7.2,11.3-10.8c2.7-2.6,5-5.3,5.4-9.2
			c0-0.4,0.1-0.8,0.1-1.3C191.2,153.6,191.1,153.4,191.1,153z"/>
	</g>
	<path id="XMLID_651_" d="M87,377.9c8.3,0.1,13.9,6.7,13,15.4c-0.7,7-4.8,10.8-12,10.5c-9.5-0.3-17.8-4.1-25-10.3
		c-0.3-0.3-0.6-0.6-0.9-0.9c-1.2-1.1-1.1-2,0.2-3c6.2-5.1,13.2-8.7,20.8-11.1C84.3,378.1,85.7,378,87,377.9z"/>
</g>
</svg>
