<svg xmlns="http://www.w3.org/2000/svg" xmlns:xlink="http://www.w3.org/1999/xlink" viewBox="-226 27.7 506.8 507.3"><style><![CDATA[.L{fill:#59351b}.M{fill:#bfa931}.N{stroke-miterlimit:10}.O{enable-background:new}.P{fill:#0ba583}.Q{stroke:#0ba583}]]></style><g class="N"><path d="M-139.4 123.7c19.7-12.4 22.1-20.2 33.6-39.1 31.9-35.6 44.8-4.5 89-29.2C-7.4 50.2 3.8 43.3 13.5 39c7-3 14.7-5.5 22.3-3 .7.1 1.4.6 2.1.8.7.3 1.2.6 1.9.8 1.4.7 2.9 1.4 4.4 2.1 2.9 1.2 5.8 2.5 8.7 3.9l18.4 9.5c29.6 12.8 55.7 5.6 74.4 15.4 19.7 13.1 32 35.6 51.3 52 8.4 6.9 17.3 13.3 25.6 20.4 2.5 2.2 4.5 4.3 6.9 6.5 2.2 1.8 4.3 2.9 6.5 4.7 4.7 4.7 7.7 11.1 8.1 17.7.1 1.7.1 3.2.3 5 .3 2.1.8 4 1 6.2.6 4 .7 8 .8 11.8.4 44.6 1.9 34 17.7 72.3 15 43.6-16.9 54.5-19.9 100.5l-1.1 16.2c0 4.5 1.8 10.6.7 14.9-1.1 3.9-3.7 8.5-6.1 11.7-2.2 2.9-6.6 6.1-9.5 8.4-2.3 1.7-4.3 3-6.5 5-1.8 1.5-3.3 2.9-5.1 4.3-3.6 2.8-7.3 5.1-11 7.8-9.9 7.6-16.1 12.9-23.9 22.6-1.9 2.3-3.7 4.7-5.5 7l-10 13.2c-25.2 33.4-53.6 15.4-91.4 32.7-4.1 1.9-8.1 4.1-12.2 6.2-2.8 1.4-5.4 1.4-8.3 2.5-2.3.8-3.9 1.7-6.2 2.3-5 1.7-6.9 3.3-11.1 5.5-8.1 3.3-14.3 2.3-22.1-1.2-2.5-1.2-5.1-2.3-7.7-3.3l-.5-.4c-2.9-1.1-5.1-1.8-8-3.2-4.8-2.3-9.5-4.7-14.3-6.7-11.8-5.4-22.6-8-35.6-9.4-45-5-43.6-5.9-69.3-41.4-8-9.8-15.3-16.2-25.7-23.2-2.3-1.5-4.4-4.3-6.6-6.2-1.4-1.4-2.1-2.3-3.3-3.7-1.7-1.8-3.2-2.8-5.5-3.7-3.2-1.2-5-1.9-7.4-4.3-3.3-2.9-5.1-3.9-8.8-6.3-5.4-3.6-8.1-6.9-10.3-12.8-1.7-4.3-.6-8.1-.6-12.4-.1-4.7-.7-9.4-1-14-.3-5.4-.6-10.7-1.2-16.1-1-8.5-2.9-16.2-6.5-23.9-2.2-4.3-4.5-8.1-6.9-12.4-1.4-2.5-1.7-5.2-3-8-1.4-2.8-2.5-3.9-3.6-7-.1-.4-.3-.8-.4-1.2-1-2.8-1.7-5.5-2.9-8.3-.1-.4-.3-.8-.6-1.2-1.7-4-.6-5.1-3.9-9.5-4.3-5.8-.3-8.8 2.5-13.9 1.4-2.6 2.3-5.5 2.8-8.4.1-1.2.4-2.1.8-3.4 1.2-2.8 1.7-4.8 3.3-7.6 1-1.7 2.1-3.3 3.2-5 9.2-15.5 13.8-28.2 14.6-46.2.3-8.4.3-17.3 1.2-25.6.3-2.6.6-4.8.6-7.6.1-6.1 3.4-12.2 8-16.2 1.9-1.5 4-2.8 5.9-4.3 5-4.4 10.2-8.1 15.5-11.8 7.4-4 14.1-8.2 21.1-12.4z" fill="#f8d8a2" stroke="#f8d8a2"/><g stroke="#59351b" class="L"><path d="M-60.2 259.2c.4-.1.6-.3.8-.4l.1-.3c.1-.1.3-.1.3-.1.3-.1.6-.3.8-1 0-.1.1-.1.1-.1l.6-.7.6-1.4.1-.1c0-.1.1-.4.1-.6 0-.3.1-.3.1-.6v-.1c0-.3.3-.7.3-1 0-.1 0-.1.1-.1h.1l.1-.1c-.1-.6.1-1 0-1.4v-.1l.1-.8v-1c-.1-.3 0-.8-.1-1.2v-.6c0-.1.1-.3-.1-.6v-.6c-.3-.3-.3-.6-.6-.8v-.1c0-.3 0-.6-.1-.6v-.1c-.1-.3-.3-.6-.3-1v-.1l-.1-.3c0-.4-.1-.8-.6-1.1-.1-.1-.3-.3-.3-.6 0-.1-.1-.1-.1-.3l-.6-.6c-.6-.3-.8-.6-1-.8-.3-.6-1-1-1.2-1.4 0-.3-.1-.3-.3-.4 0-.1 0-.1-.1-.3-.3-.1-.3-.3-.6-.3-.3-.3-.3-.4-.3-.6.3-.3.3-.7.6-1.2.3-.3.3-.7.6-.8v.1l.3-1 .1-.4c.1-.6.1-.6.1-.3l.6-1c0-.4.1-.6.1-.3-.1-.1-.1-.3 0-.6 0-.3.1-.6.3-.8v-.1c-.1-.1.1-.4.1-.6 0-.1.1-.3.1-.3.1-.6.1-.8.4-1.4v-.2c0-.3-.1-.6-.1-.8v-1c0-.1 0-.1.1-.1 0-.3-.1-.6-.3-.7v-.3c0-.1 0-.1-.1-.3 0-.1 0-.1-.1-.1.3-.1 0-.3 0-.6s.1-.6.1-1c0-.1-.1-.1-.1-.3l-.3-.6c-.1-.3-.3-.6-.3-1v.3c-.1-.1-.1-.4-.3-.8a3.38 3.38 0 0 1-.7-1.1c-.3-.4-.6-.8-1-1.1l-.3-.1c0-.1-.3-.3-.6-.3-.1-.3-.1-.6-.6-.6l-.1-.3-.3-.3c-.1-.1-.1-.1-.3-.1-.1-.3-.6-.4-.8-.7h-.1s-.1 0-.1-.1c-.4-.3-.7-.6-1.2-.6h-.1c-.1-.1-.3-.1-.6-.1l-.6.1c-.1 0-.3-.1-.6 0h-.6c-.1-.1-.3-.1-.3.3 0 .1-.1.1-.1.1-.6 0-1-.1-1-.6-.1-.3-.4-.3-.7-.3-.4 0-.7.1-1-.1 0-.1-.1-.1-.1 0-.1.1-.3 0-.4 0-.4 0-.8.1-1 .1h-.7c-.4-.3-.8 0-1 0h-.9c-.3-.3-.8-.3-1.2 0-.6 0-.7.1-1 .1-.6-.1-1-.1-1.4-.1-.3 0-.6-.1-1.1-.1-.1 0-.1-.1-.4 0-.6 0-.8 0-1.4.1h-.3c-.6-.1-1-.3-1.4-.3s-1 .1-1.7 0c-.4 0-.6 0-.8-.1-.1 0-.3-.1-.3-.1h-.3c-.1-.1-.6-.1-.8.1h-.6c-.3 0-.6-.1-1 0-.4 0-.7-.1-1.1-.1-.1 0-.3-.1-.3-.3-.3-.3-.6-.6-1.2-.6h-.7c-.6 0-.8.1-1.1.1l-.6.1-1.4.1h-.3c-.3-.1-.7-.1-1.1 0-.1 0-.1.1-.1.3v1.2c0 .3 0 .3-.1.4s-.1.4 0 .7.1.7.1 1v.7c.1.6.1 1.1-.1 1.4v.1c-.1.1 0 .3.1 1 .1.1.1.1.1.3-.1.4-.1.8-.1 1.2 0 .1.1.3 0 .6a1.7 1.7 0 0 1 .1.7v.4c0 .3-.1.7-.1 1 0 .1 0 .1.1.1 0 .1 0 .3-.1.4-.1.3-.1.8 0 1.2.1.1.1.1.1.4.1.1 0 .3 0 .4.1.4 0 .8-.1 1.1-.3.1-.3.4-.1.8.3.3.3.6.3.8 0 .1 0 .3.1.3 0 .3 0 .3-.1.3l-.3.3c-.1.1-.3.3-.1.4v.3c0 .3.1.3.1.3.3.3.6.4.3.8v.1l-.1 1c-.3.1-.3.3 0 .7.1.3.1.6 0 .8-.1 0-.1.1 0 .3.1.1.1.1.1.3 0 .6-.1 1-.1 1.4v.4c.1.3.1.6 0 1-.3.3-.3.6-.1.8.1 0 0 .3-.1.6-.1.1-.1.6-.1.8.1.1.1.1.1.3-.1.4-.1.7-.1.6-.1.1-.1.1-.1.3v.1c-.3.3-.1.4-.1.7.1.3.1.3 0 .6 0 .1-.1.6.1.8.1.1.1.4 0 .8-.1.3-.1.8.1 1 .1.1 0 .1 0 .4v.1l-.1.1v.4c-.1.3-.1.7 0 .8 0 .1.1.3.1.6v1c0 .1-.1.3-.1.4.1.6.1 1 0 1.4v.4c.1.1.1.3 0 .4-.1.3 0 .3-.3.6-.1.3-.1.6-.1.8.3.3.3.6.3.8 0 .3.1.6 0 .8v.3c-.3.4-.3 1-.3 1.5v.6c0 .1.1.3 0 .6 0 .6.1.6-.4 1v.1c.1.1 0 .4-.1.8-.1.6-.1.8.1 1.2.3.3.6.6.8.6.1 0 .3.1.6.1.1 0 .3-.1.6-.1h.4c.1 0 .4 0 .6.1.1.1.3.3.6.1h.4c.1 0 .3 0 .3-.1.4-.3.8-.3 1.2 0l.4.1c.1.1.3.1.6.1.1 0 .1 0 .1.1.1.1.1-.1.3-.1l.1-.1c.1 0 .1 0 .1-.1h.4c.1 0 .1 0 .1-.1.3 0 .6-.1.8 0 .6.1 1-.1 1.7-.1.3 0 .6.1.6.3h.1c.3-.3.4-.3.8-.3.3.1.6.3.8.3s.6 0 .8-.1c.1-.1.3-.1.6-.1.6 0 1.2-.1 1.9 0h.3c.6-.1.8 0 1.1 0 .6 0 .8.1 1.2 0h.7c.1.1.3.1.4.1.4-.1.8-.1 1.2-.1.6 0 1 0 1.4-.1h.1c.6 0 1 .1 1.2.1s.6 0 .6-.1c.3 0 .6-.1.8-.1s.8 0 1.2-.1h.3c.1.1.1.1.3.1.3-.1.6-.1.6-.1.1.1.1.1.4.1.6-.1 1.1-.1 1.7-.1h.1c.6.3.8.3 1.4.1 0-.1.1-.1.1-.1h1c.4 0 .8 0 1.1-.3.1-.1.1-.1.3-.1.3 0 .3 0 .3-.1.4-.3.7-.3 1-.3.3-.1.6-.3.8-.4.1-.1.1 0 .4-.3.3-.1.8 0 1.2-.3h.1c.1-.1.3-.1.6-.1l1.1-.4zm-24.2-11c-.1-.3-.1-.6-.1-.6v-.6c0-.1 0-.1-.1-.1.1-.3.1-.8 0-1.1s-.1-.7.1-1c0-.3.1-.4.6-.7.3-.3.8-.3 1.2-.6h.6c.6-.1 1-.1 1.4-.1h.3c.3.1.6.1 1.1.1.3-.1.7 0 1 0h.4c.3-.1.6 0 .8 0h2.5c.3 0 .6 0 .6.1.1.1.1.1.3.1s.1 0 .1.1c.1.1.1.1.4.3.3.1.7.6.8.8 0 .1.1.3.3.4.3.3.1.4.3.7v.6c-.1.1-.1.6-.1.7-.1.3.1.6.1 1 0 .1.1.1.1.4.1.1.3.3.3.6l.1.6v.6c-.1.1-.1.6-.1.8.1.1-.1.6-.3 1.1 0 .1-.1.3-.3.3-.4.3-.8.6-1.4.6h-.1c-.7-.1-1.1-.3-1.4-.1-.6.1-.8.1-1 .1-.6-.1-1 0-1.5-.1-.4 0-.6 0-.6.1h-1c0-.1-.1-.1-.1-.1-.6 0-1.1 0-1.8.1h-1c-.4 0-.6-.1-.7-.3-.1 0-.1 0-.1-.1-.6.1-.8-.1-1-.3-.1 0-.1 0-.1-.1-.3-.1-.4-.6-.3-1 0-.3-.1-.6-.1-.8 0-.1 0-.3.1-.4v-1.4c0-.1 0-.1-.1-.1-.3.1-.2-.2-.2-.6zm.3-24.5c.1 0 .3 0 .3.1h1.3l1.2-.1h.3c.6.1 1.1-.1 1.7.1h.1c.6-.3.8 0 1.2 0 .3-.1.8-.1 1.2 0 .4 0 .7 0 1.2.1.6.1 1.2.1 1.8-.3.3-.3.7-.3 1 .1l.1.7c0 .1.1.1.1.4.1.1.3.3.1.6 0 .1.1.6.1 1 .1.3.1.8 0 1.2v1c0 .3.1.6.1.8 0 .6-.1.6-.1 1.1v.1c.1.3.3.6.3.8v.1c-.3.3-.3.6-.7.8-.1 0-.4.1-1 .1s-1 0-1 .1l-1.2.1h-.3c-.1-.1-.3-.1-.4 0-.3.1-.3.1-.6 0-.1-.1-.3-.1-.4-.1-.4.1-1 .1-1.4 0-.1 0-.1.1-.4.1-.6-.1-1.1.1-1.8 0-.6-.1-.8 0-1.4-.1s-1-.1-1.4-.3c-.3 0-.6-.3-.8-.4-.1-.1-.3-.1-.3-.1-.1-.3-.3-.7-.3-1s-.1-.6-.1-.7h0c.1-.1 0-.4-.1-1.1v-.1c.1-.4.1-1 0-1.7v-.1c.1-.3-.1-.7-.1-1.1 0-.3-.1-.8.1-1.2a.65.65 0 0 1 .6-.6c.3-.4.5-.4 1-.4zm20.1-4.8c.3 0 .6 0 .7-.1l-.1-.3c.3-.1.4.1.8-.1 0 .1-.3.3 0 .3 0 .3-.1.3-.3.4l-.1.3h-.3c-.1 0-.1 0-.1-.1l-.1-.1-.5-.3zm-1.3.4c-.1-.1-.1-.1.1-.3.3-.1.3-.3.6-.3.1 0 .3.1.3.3h-.3l.1.1-.3.3h-.1c-.1-.2-.1-.2-.4-.1h0zm-1.7-.3c.1-.3.1-.3.6-.1l-.1.1c0 .1.1.1.1.3-.3 0-.6-.1-.6.3l-.1-.1v-.5h.1zm-1.6-1.2a.85.85 0 0 0 0-.7l.1-.1c.3.1.4 0 .6 0-.1.2-.1.7-.7.8zm0-.6c-.1.1-.1.3-.1.3 0 .1-.1.1-.3.3 0 .1-.1.1-.3.1-.6-.3-.6-.4 0-.6l.3-.1h.4zm6.2 3.2c-.1-.6-.1-.6-.1-.3.1-.1 0-.3-.1-.6h.3c.3 0 .3 0 .3.1-.5.3-.1.5-.4.8zm-1.5.6c.1 0 .3 0 .3.1.3 0 .1-.1-.3-.1zm1.4 0h0l.1.1v.1c-.1-.1-.1-.2-.1-.2zm-18.7-4.4c.1 0 .1 0 .1.1l-.1.1c.1-.1.1-.1 0-.2h0zm20.6 42.9c-.1-.3-.1-.3 0-.3v.3zm-2.6-38.7c.1-.1.1-.1.3 0h-.3zm.7-.4h0c.1-.1.1-.1.3 0h-.3zm-13.8 22.7l-.1-.1h.1v.1zm-20-18.8h0v-.1.1z"/><path d="M-47.8 213.4c-.3.3-.1.6-.3.8v.1c0 .1 0 .1.1.1.3.3.1.4-.1.4-.1 0-.3 0-.4.1 0 .1-.1 0-.1.1-.1.1-.1.3-.1.4.1.1.1.3.1.6s-.1.7 0 1.2c0 0-.1.1-.1.4 0 .1.1.3.1.4 0 .6.1.7.1 1 .1.3-.3.7 0 1v.1c-.3.3 0 .4 0 .6.1.1.1.1.1.3v.5c-.1.1-.1.3-.1.6v.8c.1.1.1.3.1.6-.1.1-.1.3-.1.7.1 0 .1 0 .1.1v.6c0 .3.1.3.1.6.1.1.1.1.1.3s-.1.6 0 .8v.1c-.1.1-.1.3-.1.4.1.1 0 .3.1.6v.4c-.1.3-.1.6-.1.7s.1.3 0 .3v1.1c.1.1.1.4 0 .8 0 .3-.1.3 0 .6 0 .1.1.1.1.3v1.1c0 .1-.1.3-.1.8v.1c.1.3.1.8.1 1.4-.1.1-.1.3-.1.6-.1.1-.1.1 0 .3 0 .1.1.6.1.8 0 .3-.1.3-.1.7a2.12 2.12 0 0 0-.3.7c.3.3.1.7.3 1 0 .3.1.6 0 .8h-.1c-.1.3 0 .6.1 1v.8c0 .3-.1.3-.1.4l-.1.1v.1c0 .3.1.4.1.7-.1.1-.1.4.1.6v.3c0 .1.1.1.1.3 0 .1.1.3.1.4 0 .3-.1.3-.1.6v.4c0 .1.1.3.1.4v.7c.1.4 0 1 .1 1.4l-.1.1c0 .3-.1.8 0 1.1.1.1.1.4.1 1v.7c0 .6 0 .8-.1.8v.6c0 .1.1.3 0 .6v.1l.3.4c0 .1.1.3 0 .7-.3.1 0 .3 0 .4-.3.3 0 .3 0 .4v.4c0 .3 0 .6.1 1.1v.6s.1.1 0 .1c-.1.1-.1.3-.1 1-.3.3.1.7-.1 1v.1c.3.3.3.7.1 1.4v.3c.1.1.1.3.1.6-.1.1 0 .4.1.6l.4.3h1.8c.6 0 1-.3 1.4 0 .3-.1.6-.1.7-.1h.1c.4 0 .7-.1 1 0h.1c.1-.1.3-.1.3 0h.1c.3 0 .6 0 .6-.1.6 0 .8.1 1 0h.8c.3 0 .6-.1.8-.1h.8c.3 0 .4-.1.4-.3 0-.4-.1-.8-.1-1.1.1-.3 0-.4 0-.8-.1-.3 0-.4 0-.8v-.6c0-.1 0-.1.1-.1v-.1c0-.3.1-.6.1-.7v-1.3c0-.3-.1-.1-.1-.3v-.1l-.1-.1c0-.4.1-1.1 0-1.5 0-.1.1 0 .1-.3V253c0-.3.1-.6 0-.7v-.7c.1-.3.3-.6.3-.8 0-.1.1-.3 0-.4-.3-.6-.1-.7-.1-1 0-.4.3-.8 0-1v-.7c.3-.1 0-.6.3-.8 0-.1.1 0 0-.1 0-.1-.1-.3-.1-.4-.3-.3-.3-.6 0-.6.1-.3.3-.4.6-.8.1 0 .3-.1.3-.1 0-.1.3 0 .6-.3h1.8c.6 0 1-.1 1.5 0h.1c.3 0 .6-.1.8-.1.1-.1.1-.1.1 0 .3 0 .7.1 1-.1h.7c.1 0 .4.1.8.1.3.1.6.1 1 0 .1-.1.3-.1.4-.1.3 0 .6 0 .7-.1 0 0 .1.1.3.1h.6c.3-.1.6 0 .8 0h.3c.3-.1.4 0 1-.1h.1c.1.1.3.1.6 0 0 0 0-.1.1-.1h1.2c.3 0 .6.1.6.3.1.3.3.4.6.8v.7c-.3.3 0 .7 0 1v.3c-.1.3-.3.6-.1.8v.8c0 .1-.1.3-.1.3.1.1 0 .4-.1.6v.1c0 .3-.1.6 0 .8v.8c-.1.3-.1.7-.1 1s-.1.4 0 .7v.7c0 .1.1.3.1.6v.3c0 .3.1.6.1.8-.1.3-.1.8 0 1.1v.1c-.1.1-.1.1-.1.4 0 .1 0 .3-.1.4v1.4c.1.1.1.1.1.4v1c.3.3-.1.6.1 1 0 .3.1.3.3.3.6 0 1 0 1.4.3.3.1.8.3 1 .1.1 0 0 .1.3.1.1 0 .1.1.3.1h1c.6-.3.8-.1 1.1-.4.1-.1.4-.3.6-.3.1.1.4.1 1 .1.1.1.1.1.3.1s.3-.3.3 0c.6 0 .7.1 1.2.1.4 0 .6 0 .7-.1h.3c.3 0 .7.1 1.2-.1.1.3.3-.1.6-.3l.1-.1c0-.3.1-.6 0-.8h0c.1-.3-.1-.6.1-.8v-.1c-.1 0-.1-.1-.1-.1-.3-.3-.1-.7 0-1 0-.1.1-.3 0-.4 0-.3-.1-.1 0-.3l.1-.8c.1-.6.1-.8.1-1.4v-.8c-.1-.4-.1-.7-.1-1s.1-.8 0-1v-.8c.1-.3 0-.6.3-.7v-.3c-.3-.1-.3-.4-.3-.7-.1-.1-.1-.4-.1-.7.1-.1.1-.1 0-.1v-.4c0-.3.1-.3 0-.7v-.1c.1-.3.1-.6.1-.8 0-.1.1-.4.1-.8v-1.1c0-.3 0-.7-.1-1v-.1c0-.1.1-.3.1-.3v-.1c-.1-.3 0-.6.1-.6 0-.3.1-.6 0-1-.1-.1-.1-.1-.1-.3v-.8c.1-.3.1-.4 0-.8 0-.1-.1-.1-.1-.3 0-.3 0-.3-.1-.4v-.3c.1-.1.1-.3-.1-.6.1 0 .1-.1.1-.1 0-.1.1-.3.1-.6v-.2c-.1-.4 0-1 0-1.4 0-.3.1-.4.1-.8v-.6c.3-.3 0-.3 0-.6h-.1v-1.8c.1-.3.3-.3 0-.6v-1.2c-.1-.1-.1-.3-.1-.8v-.7c.1-.3 0-.7.1-1-.1-.6-.1-.8-.1-1.4.1-.1.1-.4 0-.8 0-.1 0-.3-.1-.8 0-.3.1-.6 0-.8v-.3c.1-.3.1-.6.1-.6 0-.6 0-1 .1-1.4v-.1c0-.4-.1-1-.1-1.4.1-.6.3-1.2.3-1.7v-.3c.1-.3 0-.4.3-.7v-.8c0-.3 0-.6-.1-.8v-.1c.1-.3-.1-.3-.1-.6l-.3-.1c-.3-.1-.7-.3-1.1-.3-.6 0-1 0-1.4.1-.1 0-.1 0-.1-.1-.3-.1-.6 0-.8 0-.6.1-1-.3-1.5-.1H-15c-.1.1-.1.1-.4 0h-1.9c-.1-.1-.3-.1-.6-.1s-.4-.1-.6-.1c-.3.1-.6.1-.6.1-.1 0-.4.1-.6 0l-.1-.1c-.6-.1-1 .1-1.5-.1H-23l-.8-.1c-.3.3-.8.1-1 .1h-.8c-.3 0-.6.1-.8-.1h-.6c-.3.3-.7 0-1 0-.3-.1-.8-.3-1.1-.1l-.1-.1s-.3.1-.6.1c-.3.1-.6.1-.8 0h-2.6c-.3 0-.6-.1-.8 0h-1.1c-.6-.1-1-.1-1.4-.1h-1.2c-.1 0-.4-.1-.7 0h0c-.7-.1-1.4-.1-2.1-.1-.3 0-.7.1-.8 0-.3-.1-.4-.1-.6 0h-.3c-.3 0-.7-.1-1.2 0h-.7l-.8-.1h-.6l-.1-.1v-.1c0-.1-.1-.3-.1-.1h-.3c-.1-.3-.1-.3-.8-.6v.3c-.6-.3-.7-.3-.6-.8h-.1c0 .1-.2.1-.3.1zm13.8 11.1c.1.1.3 0 .3 0h2.1c.3 0 .8 0 1-.1.3 0 .4.1.6.1h.4c.3-.1.6-.1.8 0h.4c.3 0 .6-.3.7 0h.6c.6-.3.8 0 1.1 0h.8l.1.1c.1-.1.6 0 1.2.1.1.1.4 0 .7.1.3 0 .6.1.7.1.1.1.3.1.6.1.1 0 .3.1.4.1.3.1.4.3.4.7 0 .3 0 .4-.1.6v.7c.1.6.1.8.1 1.1v.1c-.3.6-.1.6.1 1 .1 0 .1.3.1.8-.1.3-.1.8 0 1.2.1.8.3 1.2.1 1.4 0 .3.1.1.1.3-.1.3 0 .7-.3 1.2 0 .1-.1 0-.1.1-.1.1-.1.3-.3.3 0 0-.1.1-.3.1-.1.1-.3.1-.6.1 0 0-.1 0-.1.1-.6 0-1-.1-1.4-.1-.6-.1-.8-.1-1-.1h-.8c-.3-.1-.4-.1-.6 0-.1 0-.3.1-.3.1h-1.2l-.1-.1h-.6c-.3-.1-.6 0-.7.1h-.8c-.3 0-.6-.1-.8-.1l-.1-.1h-.1c-.6.1-1 .3-1.5.1h-.7c-.3.1-.6-.1-.8.1h-.8c-.6.1-.8.1-1.4.1h-1c-.1 0-.3 0-.4-.1s-.3-.3-.8-.6c-.3-.1-.6-.3-.6-.6v-.1h-.1c-.1-.3-.1-.6-.3-1-.1-.6-.1-.8.1-1 .1-.1.1-.1.1-.4-.1-.1 0-.4 0-.6-.1 0-.1-.1-.1-.3h-.1c-.1 0-.1 0-.1-.1.3-.6 0-.8 0-1.2-.1-.1-.1-.3-.1-.7v-.2c0-.3-.1-.8-.1-1 0-.1 0-.3-.1-.6v-.3c-.3-.3-.1-.4.1-.6.3-.3.6-.3.8-.6l.3-.3c0-.1.1-.1.1-.1.1.1.1.1.3.1h.8c.1 0 .3.1.6.1h2.7c0 .2 0-.2 0-.2zm17.3 31l.4.1.1.1-.1.3h-.3l-.1-.1v-.4zm-28.5-27.8h.3l.1.1-.1.1-.3-.1v-.1zm.3-5.6h.3l-.1.3h-.3v-.3h.1zm34.7-2c0-.3 0-.3.1-.3h.1v.1c-.1.1-.1.2-.2.2zm-29.2 41.4l.1.1-.1.1-.1-.1c.1.1.1.1.1-.1zm24.6-4.1h-.1v-.1h.1v.1zm-17.4-12.9c-.1 0-.1-.1-.1-.3l.1.3zm17.6 6.7c0 .1 0 .1-.1.1-.1-.1.1-.1.1-.1zM-40 261.8v.1h-.1l.1-.1zm29.1-.1h0l-.1.1-.1-.1h.2zm-12.5-17.5h0zm-23.4-21.7c0-.2 0-.2 0 0l-.1-.1.1-.1v.2zm.7 5.1l-.1.1.1-.1zm80.5 25l-.4.4c-.1-.1-.1-.1-.3-.1h-.8c-.1 0-.3-.1-.6-.1H27c0-.1-.3 0-.3 0h-2.2c-.2 0-.8 0-1 .1-.3 0-3.4.1-3.4-.1h-.4c-.3.1-.6.1-.8 0h-.3c-.3 0-.6.3-.8 0h-.6c-.6.3-.7 0-1.1 0h-.8v-.1c-.3.1-.6 0-1.2-.1-.3-.1-.4 0-.8-.1-.1 0-.4-.1-.7-.1 0-.1-.1-.1-.6-.1-.1 0-.1-.1-.4-.1-.1-.1-.3-.3-.3-.7 0-.3 0-.4.1-.4V250c-.1-.6-.1-.8-.1-1.1v-.1c.1-.6.1-.6-.1-1-.1 0-.1-.3-.1-.8.1-.3.1-.8 0-1.2-.1-.8-.1-1.2-.1-1.4v-.3c0-.3 0-.7.1-1.2 0-.1.1 0 .1-.1.1 0 .1 0 .1-.1l-.1-1.2-.6-1.4-.3-1.4-.1-1.1.1-1.8v-1.1l.3-1.4v-1l.3-.6c-.1-.1-.1-.3-.1-.3 0-.3-.1-.4 0-.7s0-.7 0-1v-.3c.1-.3.1-.6.1-.8v-1.1c0-.1 0-.4.1-.6v.1c0-.3.1-.6 0-.8v-.8c.1-.3.1-.7.1-1s.3-.4 0-.7v-.7c0-.1-.1-.3-.1-.6v-.3c0-.3-.1-.6-.1-.8.1-.3.1-.8 0-1.1v-.1c.1-.1.1-.1.1-.4 0-.1 0-.3.1-.4v-1.4c-.1-.1-.1-.1-.1-.4v-1c-.1-.3.1-.6-.1-1 0-.1 0-.3-.3-.3-.4.1-.8 0-1.4-.3-.3 0-.7-.3-1-.1 0 0 0-.1-.1-.1s-.3-.1-.3-.1h-1c-.6.1-.8.1-1 .3-.3.1-.4.3-.7.3-.1-.1-.3-.1-.8-.1 0-.1-.1-.1-.1-.1-.1 0-.1.3-.3 0H1.7c-.3 0-.7 0-1.2.1-.3-.1-.3.1-.6.3l-.1.1c0 .3-.3.6 0 .8v.1c-.3.3.1.4-.1.8 0 .1 0 .1.1.1 0 .1.1.1.1.1.1.3.1.7 0 1 0 .1-.3.3 0 .6 0 .1.1.1 0 .3-.1.4-.1.7-.1.7-.1.6-.1.8-.1 1.4v.8c.1.4.1.7.1 1s-.1.8 0 1v.6c-.1.3 0 .6-.1.7v.3c.1.1.1.6.3.7.3.1.3.4.1.7-.1.1-.1.1 0 .1v.4c0 .3-.3.3 0 .7v.1c-.1.3-.1.6-.1.8 0 .1-.1.6-.1.8v1.2c0 .3 0 .6.1.8v.3s-.1.1-.1.3v.1c.1.3 0 .6-.1.6 0 .3-.1.6 0 1 0 .1.1.1.1.3v1c-.1.1-.1.3 0 .7 0 .1.1.1.1.4 0 .1 0 .3.1.3v.3c-.1.1-.1.3.1.4-.1 0-.1.1-.1.1 0 .1-.1.3-.1.6v.2c.1.6 0 1 0 1.4 0 .3-.1.6-.1.8v.8c-.1.3 0 .3 0 .6h0l.1.1v1.7c-.1.1-.1.3 0 .6v1.2c.1 0 .1.3.1.8v.7c-.1.3 0 .7-.1 1.1.3.6.1.8.1 1.2-.1.1-.1.6 0 .8a2.44 2.44 0 0 0 .1.7c0 .3-.3.6 0 .8v.3c-.1.3-.1.6-.1.6 0 .6.1 1-.1 1.4v.1c0 .4.1 1 .1 1.4-.1.6-.1 1.2-.1 1.7v.6c-.1.3 0 .4-.3.7v.8c0 .3-.1.6.1.8v.3c-.3.1.1.3.1.4l.3.3c.3.1.8.1 1.1.1.6 0 1 0 1.4-.1.1 0 .1 0 .3.1.3.1.6 0 .8 0 .6-.1 1 .3 1.4.1h1.4c.1-.1.3-.1.6 0h1.5c.1.1.3.1.6.1h.4c.3 0 .6-.1.6-.1.3 0 .4-.1.7 0v.1h.1c.6 0 1-.1 1.4 0H14l.8.1c.3-.1.8-.1 1.1-.1h.7c.3 0 .6 0 .8.1h.1c.3-.1.6 0 1 0 .3.1.8.3 1 .1l.1.1s.1 0 .6-.1h6.2c.3 0 .6.1.8 0h5.5c.6.1 1 .1 1.4.1h.8l-.1-1.8v-4.8l.3-1 .1-1v-1.2l-.8.4zM.2 257.1c0 .3 0 .3-.1.3H0v-.1c-.1-.2-.1-.2.2-.2zm4.5-37.2v-.1h.1v.1h-.1zm-.2 6.1c-.1-.1-.1-.1.1-.1.1 0 0 0-.1.1zM.9 215.5c0-.2 0-.2 0 0l.1-.1.1.1c-.1 0-.1 0-.1.1l-.1-.1z"/><path d="M43.2 213.4c-.3.3-.1.6-.3.8v.1c0 .1 0 .1.1.1.3.3.1.4-.1.4-.1 0-.3 0-.4.1 0 .1-.1 0-.1.1-.1.1-.1.3-.1.4.1.1.1.3.1.6s-.1.7 0 1.2c0 0-.1.1-.1.4 0 .1.1.3.1.4 0 .6.1.7.1 1 .1.3-.3.7 0 1v.1c-.3.3 0 .4 0 .6.1.1.1.1.1.3v.5c-.1.1-.1.3-.1.6v.8c.1.1.1.3.1.6-.1.1-.1.3-.1.7.1 0 .1 0 .1.1v.6c0 .3.1.3.1.6.1.1.1.1.1.3s-.1.6 0 .8v.1c-.1.1-.1.3-.1.4.1.1 0 .3.1.6v.4c-.1.3-.1.6-.1.7s.1.3 0 .3v1.1c.1.1.1.4 0 .8 0 .3-.1.3 0 .6 0 .1.1.1.1.3v1.1c0 .1-.1.3-.1.8v.1c.1.3.1.8.1 1.4-.1.1-.1.3-.1.6-.1.1-.1.1 0 .3 0 .1.1.6.1.8 0 .3-.1.3-.1.7a2.12 2.12 0 0 0-.3.7c.3.3.1.7.3 1 0 .3.1.6 0 .8h-.1c-.1.3 0 .6.1 1v.8c0 .3-.1.3-.1.4l-.1.1v.1c0 .3.1.4.1.7-.1.1-.1.4.1.6v.3c0 .1.1.1.1.3 0 .1.1.3.1.4 0 .3-.1.3-.1.6v.4c0 .1.1.3.1.4v.7c.1.4 0 1 .1 1.4l-.1.1c0 .3-.1.8 0 1.1.1.1.1.4.1 1v.7c0 .6 0 .8-.1.8v.6c0 .1.1.3 0 .6v.1l.3.4c0 .1.1.3 0 .7-.3.1 0 .3 0 .4-.3.3 0 .3 0 .4v.4c0 .3 0 .6.1 1.1v.6s.1.1 0 .1c-.1.1-.1.3-.1 1-.3.3.1.7-.1 1v.1c.3.3.3.7.1 1.4v.3c.1.1.1.3.1.6-.1.1 0 .4.1.6l.4.3h1.8c.6 0 1-.3 1.4 0 .3-.1.6-.1.7-.1h.1c.4 0 .7-.1 1 0h.1c.1-.1.3-.1.3 0h.1c.3 0 .6 0 .6-.1.6 0 .8.1 1 0h.8c.4 0 .6-.1.8-.1h.8c.3 0 .4-.1.4-.3 0-.4-.1-.8-.1-1.1.1-.3 0-.4 0-.8-.1-.3 0-.4 0-.8v-.6c0-.1 0-.1.1-.1v-.1c0-.3.1-.6.1-.7v-1.3c0-.3-.1-.1-.1-.3v-.1l-.1-.1c0-.4.1-1.1 0-1.5 0-.1.1 0 .1-.3V253c0-.3.1-.6 0-.7v-.7c.1-.3.3-.6.3-.8 0-.1.1-.3 0-.4-.3-.6-.1-.7-.1-1 0-.4.3-.8 0-1v-.7c.3-.1 0-.6.3-.8 0-.1.1 0 0-.1 0-.1-.1-.3-.1-.4-.3-.3-.3-.6 0-.6.1-.3.3-.4.6-.8.1 0 .3-.1.3-.1 0-.1.3 0 .6-.3h1.8c.6 0 1-.1 1.5 0h.1c.3 0 .6-.1.8-.1.1-.1.1-.1.1 0 .3 0 .7.1 1-.1h.7c.1 0 .4.1.8.1.3.1.6.1 1 0 .1-.1.3-.1.4-.1.3 0 .6 0 .6-.1.1 0 .3.1.3.1h.6c.3-.1.6 0 .8 0h.3c.3-.1.4 0 1-.1h.1c.1.1.3.1.6 0 0 0 0-.1.1-.1h1.2c.3 0 .6.1.6.3.1.3.3.4.6.8v.7c-.3.3 0 .7 0 1v.3c-.1.3-.3.6-.1.8v.8c0 .1-.1.3-.1.3.1.1 0 .4-.1.6v.1c0 .3-.1.6 0 .8v.8c-.1.3-.1.7-.1 1s-.1.4 0 .7v.7c0 .1.1.3.1.6v.3c0 .3.1.6.1.8-.1.3-.1.8 0 1.1v.1c-.1.1-.1.1-.1.4 0 .1 0 .3-.1.4v1.4c.1.1.1.1.1.4v1c.3.3-.1.6.1 1 0 .3.1.3.3.3.6 0 1 0 1.4.3.3.1.8.3 1 .1.1 0 0 .1.3.1.1 0 .1.1.3.1h1c.6-.3.8-.1 1.1-.4.1-.1.4-.3.6-.3.1.1.4.1 1 .1.1.1.1.1.3.1s.3-.3.3 0c.6 0 .7.1 1.2.1.4 0 .6 0 .7-.1h.3c.3 0 .7.1 1.2-.1.1.3.3-.1.6-.3l.1-.1c0-.3.1-.6 0-.8h0c.1-.3-.1-.6.1-.8v-.1c-.1 0-.1-.1-.1-.1-.3-.3-.1-.7 0-1 0-.1.1-.3 0-.4 0-.3-.1-.1 0-.3l.1-.8c.1-.6.1-.8.1-1.4v-.8c-.1-.4-.1-.7-.1-1s.1-.8 0-1v-.8c.1-.3 0-.6.3-.7v-.3c-.3-.1-.3-.4-.3-.7-.1-.1-.1-.4-.1-.7.1-.1.1-.1 0-.1v-.4c0-.3.1-.3 0-.7v-.1c.1-.3.1-.6.1-.8 0-.1.1-.4.1-.8v-1.1c0-.3 0-.7-.1-1v-.1c0-.1.1-.3.1-.3v-.1c-.1-.3 0-.6.1-.6 0-.3.1-.6 0-1-.1-.1-.1-.1-.1-.3v-.8c.1-.3.1-.4 0-.8 0-.1-.1-.1-.1-.3 0-.3 0-.3-.1-.4v-.3c.1-.1.1-.3-.1-.6.1 0 .1-.1.1-.1 0-.1.1-.3.1-.6v-.2c-.1-.4 0-1 0-1.4 0-.3.1-.4.1-.8v-.6c.3-.3 0-.3 0-.6h-.1v-1.8c.1-.3.3-.3 0-.6v-1.2c-.1-.1-.1-.3-.1-.8v-.7c.1-.3 0-.7.1-1-.1-.6-.1-.8-.1-1.4.1-.1.1-.4 0-.8 0-.1 0-.3-.1-.8 0-.3.1-.6 0-.8v-.3c.1-.3.1-.6.1-.6 0-.6 0-1 .1-1.4v-.1c0-.4-.1-1-.1-1.4.1-.6.3-1.2.3-1.7v-.3c.1-.3 0-.4.3-.7v-.8c0-.3 0-.6-.1-.8v-.1c.1-.3-.1-.3-.1-.6l-.3-.1c-.3-.1-.7-.3-1.1-.3-.6 0-1 0-1.4.1-.1 0-.1 0-.1-.1-.3-.1-.6 0-.8 0-.6.1-1-.3-1.5-.1h-1.4c-.1.1-.1.1-.4 0H74c-.1-.1-.3-.1-.6-.1s-.4-.1-.6-.1c-.3.1-.6.1-.6.1-.1 0-.4.1-.6 0s-.1-.1-.1-.1c-.6-.1-1 .1-1.5-.1h-1.7l-.8-.1c-.3.3-.8.1-1 .1h-.8c-.3 0-.6.1-.8-.1h-.1c-.3.3-.7 0-1 0-.3-.1-.8-.3-1-.1l-.1-.1s-.3.1-.6.1c-.3.1-.6.1-.8 0h-2.6c-.3 0-.6-.1-.8 0h-1.1c-.6-.1-1-.1-1.4-.1h-1.2c-.1 0-.4-.1-.7 0h0c-.7-.1-1.4-.1-2.1-.1-.3 0-.7.1-.8 0-.3-.1-.4-.1-.6 0h-.3c-.3 0-.7-.1-1.2 0h-.6l-.8-.1h-.6l-.1-.1v-.1c0-.1-.1-.3-.1-.1H46c-.1-.3-.1-.3-.8-.6v.3c-.6-.3-.7-.3-.6-.8h-.1l-1.3.1zM57 224.5c.1.1.3 0 .3 0h2.1c.3 0 .8 0 1-.1.3 0 .4.1.6.1h.4c.3-.1.6-.1.8 0h.4c.3 0 .6-.3.7 0h.6c.6-.3.8 0 1.1 0h.8l.1.1c.1-.1.6 0 1.2.1.1.1.4 0 .7.1.3 0 .6.1.7.1.1.1.3.1.6.1.1 0 .3.1.4.1.3.1.4.3.4.7 0 .3 0 .4-.1.6v.7c.1.6.1.8.1 1.1v.1c-.3.6-.1.6.1 1 .1 0 .1.3.1.8-.1.3-.1.8 0 1.2.1.8.3 1.2.1 1.4 0 .3.1.1.1.3-.1.3 0 .7-.3 1.2 0 .1-.1 0-.1.1-.1.1-.1.3-.3.3 0 0-.1.1-.3.1-.1.1-.3.1-.6.1 0 0-.1 0-.1.1-.6 0-1-.1-1.4-.1-.6-.1-.8-.1-1-.1h-.8c-.3-.1-.4-.1-.6 0-.1 0-.3.1-.3.1H63v.2h-.6c-.3-.1-.6 0-.7.1H61c-.3 0-.6-.1-.8-.1l-.1-.1H60c-.6.1-1 .3-1.5.1h-.8c-.3.1-.6-.1-.8.1h-.8c-.6.1-.8.1-1.4.1h-1c-.1 0-.3 0-.4-.1s-.3-.3-.8-.6c-.3-.1-.6-.3-.6-.6v-.1c-.3-.3-.1-.6-.4-1-.1-.6-.1-.8.1-1 .1-.1.1-.1.1-.4-.1-.1 0-.4 0-.6-.1 0-.1-.1-.1-.3h-.1c-.1 0-.1 0-.1-.1.3-.6 0-.8 0-1.2-.1-.1-.1-.3-.1-.7v-.5c0-.3-.1-.8-.1-1 0-.1 0-.3-.1-.6v-.3c-.3-.3-.1-.4.1-.6.3-.3.6-.3.8-.6l.3-.3c0-.1.1-.1.1-.1.1.1.1.1.3.1h.8c.1 0 .3.1.6.1H57c0 .2 0-.2 0-.2zm17.2 31l.4.1.1.1-.1.3h-.3l-.1-.1v-.4zm-28.3-27.8h.3l.1.1-.1.1-.3-.1v-.1zm.2-5.6h.3l-.1.3H46v-.3h.1zm34.5-2c0-.3 0-.3.1-.3h.1v.1c0 .1 0 .2-.2.2zm-29.1 41.4l.1.1-.1.1-.1-.1c.1.1.1.1.1-.1zm24.6-4.1H76v-.1h.1v.1zm-17.3-12.9c-.1 0-.1-.1-.1-.3-.1.3-.1.3.1.3zm17.6 6.7c0 .1 0 .1-.1.1-.2-.1-.1-.1.1-.1zm-25.5 10.6v.1h-.1l.1-.1zm29.1-.1h0l-.1.1-.1-.1h.2zm-12.6-17.5h0zm-23.2-21.7c-.1-.2-.1-.2 0 0l-.1-.1.1-.1v.2zm.6 5.1l-.1.1.1-.1zm59.1 7c-.1-.1-.1-.3-.3-.3 0-.1-.1-.1-.1-.1-.1-.6-.1-.8-.1-1.2 0-.1.1-.1.1-.3-.1-.1 0-.7.1-1.4.1-.4.1-.8 0-1.2 0-.4 0-.8.1-.8.3-.3.3-.4.1-1v-.1c0-.3 0-.6.1-1.1v-.7c-.1-.1-.1-.3-.1-.6s.1-.6.3-.7h.3l-.1-.1-.6-1.2-.1-3-.1-5v-.3h-.9v.1c-.3.1-.4 0-.7 0 0-.1-.1-.1-.6-.1-.1 0-.1.1-.4.1s-.4 0-.6.1h-1.4c-.3.1-.4.1-.6 0H97c-.6-.1-1 .1-1.4.1-.3 0-.6-.1-.8 0-.1.1-.1.1-.3.1-.6-.1-1-.1-1.4-.1-.3 0-.8.1-1.1.3l-.3.1c0 .1-.3.3-.1.6v.1c-.3.3-.1.6-.1.8v.8c.3.3.1.4.3.7v.6c0 .6.1 1.1.1 1.7s-.1 1-.1 1.4v.1c.3.6.1 1 .1 1.4 0 .1.1.3.1.6v.3c-.3.3 0 .6 0 .8-.1.4-.1.7-.1.8-.1.3-.1.6 0 .8 0 .6.1.8-.1 1.4.1.3 0 .8.1 1v.7c0 .6 0 .8-.1.8v1.2c-.1.3-.1.3 0 .6v1.7c0 .1-.1.1-.1.1h0c0 .3-.1.3 0 .6v.8c0 .4.1.6.1.8 0 .6.1 1 0 1.4v.2c0 .1.1.3.1.6 0 .1.1.1.1.1-.3.1-.3.4-.1.6v.3c-.1.1-.1.1-.1.4 0 .1-.1.1-.1.3-.1.3-.1.6 0 .8v.8c0 .1-.1.3-.1.3-.1.3 0 .6 0 1 .1.1.1.3.1.6v.1c.1.1.1.3.1.3v.1c-.1.3-.1.6-.1 1v1.1c0 .3.1.6.1.8 0 .3.1.6.1.8v.1c-.3.3 0 .4 0 .7v.4c-.1.1-.1.1 0 .1.1.3.1.6-.1.7-.1.3-.1.6-.3.7v.3c.1.1.1.4.1.7v.6c-.1.3 0 .7 0 1s0 .6-.1 1v.8c0 .6.1.8.1 1.4 0 0 .1.3.1.8.1.1 0 .1 0 .3-.3.1 0 .3 0 .4.1.3.1.8 0 1s-.1.1-.1.1l-.1.1c.3.3-.1.6.1.8h0c-.3.3 0 .6 0 .8l.1.1c.1.1.3.6.6.3.6.3.8.1 1.2.1h.1c.1.1.3.1.8.1.6 0 .7-.1 1.2-.1.1-.3.1 0 .3 0s.3-.1.3-.1c.6 0 .8 0 .8-.1.3 0 .4.1.7.3.3.3.6.1 1 .4h1c.1-.1.3-.1.3-.1.1 0 .1-.1.1-.1.3.1.7-.1 1.1-.1.6-.3 1-.3 1.4-.3.3 0 .3 0 .3-.3.1-.6-.1-.7.1-1v-1c0-.3 0-.3.1-.4v-1.4c-.1-.1-.1-.3-.1-.4 0-.3-.1-.3-.1-.4v-.3c.1-.3.1-.8 0-1.1 0-.3.1-.4.1-.8v-.3c0-.1.1-.3.1-.6v-.7c.3-.3 0-.4 0-.7s0-.7-.1-1v-.8c.1-.3 0-.6 0-.8v-.1c-.1-.1-.1-.4-.1-.6s-.1-.3-.1-.3v-.8c.1-.1 0-.4-.1-.8v-.3c0-.3.3-.7 0-1-.1-.3 0-.4 0-.7.3-.3.3-.6.6-.8l.6-10.2zm-11.2-14.5c-.3 0-.3-.1-.1-.1v-.1h.1v.2zm4.7 37.2v.1h-.1l.1-.1zm-.4-6.1l.1.1c-.1 0-.1-.1-.1-.1zm-3.4 10.5h0c-.2.1-.2.1 0 0h0z"/><path d="M152.1 263.7c.3-.3.1-.6.3-.8 0-.1-.1-.1-.1-.1v-.1c-.3-.3-.1-.4.1-.3.3 0 .4-.1.6-.3 0-.1.1 0 .1-.1.1-.1.1-.3.1-.4-.1-.1-.1-.3-.1-.6s.1-.7 0-1.2c0 0 .1-.1.1-.3 0-.3-.1-.3-.1-.6 0-.6-.1-.7-.1-1-.1-.3.1-.8 0-1v-.1c.1-.3 0-.3 0-.6-.1-.1-.1-.1-.1-.3v-.5c.1-.1.1-.3.1-.6v-.8c-.1-.1-.1-.3-.1-.6.1-.1.1-.3.1-.7-.1 0-.1 0-.1-.1v-.6c0-.3-.1-.3-.1-.6-.1 0-.1-.1-.1-.3s.1-.6 0-.8v-.1c.1-.1.1-.1.1-.4-.1-.1 0-.3-.3-.6v-.3c.3-.3.1-.6.1-.7s-.1-.3 0-.3v-1.1c-.1-.1-.1-.4 0-.8 0-.3.1-.3 0-.6-.1-.1-.1-.1-.1-.3V244c0-.1.1-.3.1-.8v-.1c-.1-.3-.1-.8-.1-1.4v-.6c.1-.1.1-.1 0-.3v-.8c0-.1 0-.3.1-.7a2.12 2.12 0 0 0 .3-.7c-.3-.3-.1-.7-.4-1v-.7h.1v-.1c.1-.3 0-.6-.1-1v-.8c0-.3.1-.3.1-.4l.1-.1v-.1c0-.3-.1-.4-.1-.7.1-.1 0-.3-.1-.6v-.6c0-.1-.1-.3-.1-.4 0-.3.1-.3.1-.6V230c-.1-.4 0-1-.1-1.4l.1-.1c0-.3.1-.8 0-1.1-.1-.1-.1-.4-.1-1v-.7c0-.6 0-.8.1-.8v-.6c0-.3-.1-.4 0-.7v.4l-.3-.3c0-.3-.1-.4 0-.8.3-.1 0-.3 0-.4.3-.3 0-.3 0-.4v-.4c0-.3 0-.6-.1-1.1v-.6s-.3-.1 0-.1c.1-.1.1-.3.1-.8.3-.4-.1-.8.1-1.1v-.1c-.3-.3-.3-.7-.1-1.4v-.5c-.1-.1-.1-.3-.1-.6.1-.1 0-.4-.1-.4l-.3-.3h-.3c-.6 0-.8 0-.8-.1-.1 0-.3 0-.3.1h-.6c-.6 0-.8.1-1.4 0-.3 0-.7.1-.8.1h-.1c-.1 0-.4.1-.6.1l-.1-.1-1.4-.3-.8-.1-1.2.1-.4.1-1 .1-.8-.1h-3.4l-2.3-.1-2.1-.1H131l-1.8.1-4.8.3-.6-.3-1.5-.1-1 .1-1 .3-.8.3-.7.3h-.3c-.1-.1-.3-.1-.3-.1-.1 0-.1.3-.3 0h-2.1c-.3 0-.7 0-1.2.1-.3-.1-.3.1-.6.3l-.1.1c0 .3-.3.6 0 .8v.1c-.3.3.1.4-.1.8 0 .1 0 .1.1.1 0 .1.1.1.1.1.1.3.1.7 0 1 0 .1-.3.3 0 .6 0 .1.1.1 0 .3-.1.4-.1.7-.1.7-.1.6-.1.8-.1 1.4v.8c.1.4.1.7.1 1s-.1.8 0 1v.6c-.1.3 0 .6-.1.7v.3c.1.1.1.6.3.7.3.1.3.4.1.7-.1.1-.1.1 0 .1v.4c0 .3-.3.3 0 .7v.1c-.1.3-.1.6-.1.8 0 .1-.1.6-.1.8v1.2c0 .3 0 .6.1.8v.3s-.1.1-.1.3v.1c.1.3 0 .6-.1.6 0 .3-.1.6 0 1 .1.1.1.1.1.3v1c-.1.1-.1.3 0 .7 0 .1.1.1.1.4 0 .1 0 .3.1.3v.3c-.1.1-.1.3.1.4-.1 0-.1.1-.1.1 0 .1-.1.3-.1.6v.2c.1.6 0 1 0 1.4 0 .3-.1.6-.1.8v.8c-.1.3 0 .3 0 .6h0l.1.1v1.7c-.1.1-.1.3 0 .6v1.2c.1 0 .1.3.1.8v.7c-.1.3 0 .7-.1 1.1.3.6.1.8.1 1.2-.1.1-.1.6 0 .8a2.44 2.44 0 0 0 .1.7c0 .3-.3.6 0 .8v.3c-.1.3-.1.6-.1.6 0 .6.1 1-.1 1.4v.1c0 .4.1 1 .1 1.4-.1.6-.1 1.2-.1 1.7v.6c-.1.3 0 .4-.3.7v.8c0 .3-.1.6.1.8v.3c-.3.1.1.3.1.4l.3.3c.3.1.8.1 1.1.1.6 0 1 0 1.5-.1 0 0 .1 0 .1.1.3.1.6 0 .8 0 .6-.1 1 .3 1.4.1h1.4c.1-.1.3-.1.6 0h1.5c.1.1.3.1.6.1h.4c.4 0 .6-.1.6-.1.3 0 .4-.1.7 0v.1h.1c.6 0 1-.1 1.4 0h1.7c.6.1.8.1 1 .1.3-.1.7-.1 1-.1h.7c.3 0 .6 0 .8.1h.1c.3-.1.7 0 1 0 .3.1.8.3 1 .1l.1.1s.1 0 .6-.1c.1-.1.6-.1.8 0h2.6c.1 0 .6.1.8 0h1.1c.6.1 1 .1 1.5.1h1.2c.3 0 .6.1.7 0h.1c.7.1 1.4.1 1.9.1.4 0 .7-.1 1 0 .1.1.3.1.6 0h.3c.4 0 .7.3 1.2 0h.7l.8.1c.1 0 .1.1.4 0l.1.1v.1c0 .1 0 .1.1.1 0 .1.1.3.3.1h.3c0 .3 0 .3.7.6 0-.1 0-.1.1-.3.6.3.7.3.6.8l.1.1c-.6-.2-.4-.4-.4-.4zm-24.8-39.4l2.5-.3 2.6-.1.8.1 1.8-.1h.8l1.4.1 1.8-.1h2.1l.6.4c0 .3-.1.6 0 .8v.7c-.1.1-.1.4-.1.7 0 .1-.1.3 0 .4.1.6.1.7.1 1 0 .4-.1.8 0 1.1v.6l.8 5 .3 2.1c.8 7.6-.6 9.2-.6 9.8.1.1 0 .4 0 .6.1 0 .1.1.1.3h.1l.1.1c-.3.6 0 .8 0 1.2.1.1.1.3.1.7v.7c0 .3.1.8.1 1s.1.3.1.6v.3c.3.3.1.6-.1.6-.3.3-.6.3-.8.6l-.3.3c-.1.1-.1.1-.3.1-.1-.1-.1-.1-.3-.1h-.8c-.1 0-.3-.1-.6-.1h-1.1c-.1-.1-.3 0-.3 0H136c-.2 0-.7 0-1 .1-.1 0-.3-.1-.4-.1h-.4c-.3.1-.6.1-.8 0h-.3c-.3 0-.6.3-.8 0h-.6c-.6.3-.7 0-1.1 0h-.7l-.1-.1c-.3.1-.6 0-1.2-.1-.3-.1-.4 0-.8-.1-.1 0-.4-.1-.6-.1-.1-.1-.3-.1-.6-.1 0 0-.1-.1-.4-.1-.1-.1-.3-.3-.3-.7 0-.3 0-.4.1-.4v-.8c-.1-.6-.1-.8-.1-1.1v-.1c.1-.6.1-.6-.1-1-.1 0-.1-.3-.1-.8.1-.3.1-.8 0-1.2-.1-.8-.1-1.2-.1-1.4 0-.1-.1-.1-.1-.3.1-.3 0-.7.1-1.2 0-.1.1 0 .1-.1.1 0 .1 0 .1-.1l-.1-1.2-.6-1.4-.1-1.4-.1-1.1.1-1.8v-1.1l.1-1.4v-1l.3-.6c-.1-.1-.1-.3-.1-.3 0-.3-.1-.4 0-.7.3-.3 0-.7 0-1v-.3c.1-.3.3-.6.1-.8V228l.1-.3c-.1-.1 0-.4.1-.6h0c0-.3.1-.6 0-.8v-.8c.1-.3.1-.6.1-1l.3-.3h1.3zm-12.6 32.8c0 .3 0 .3-.1.3h-.1v-.1c0-.2 0-.2.2-.2zm4.7-37.2h0l-.1-.1h.1v.1zm-.4 6.1c-.1-.1-.1-.1.1-.1s0 0-.1.1zm-3.6-10.5c0-.2 0-.2 0 0h.1c.1 0 .1 0-.1 0h0zm35.9 39.4h0l-.1-.1.1.1zm-.7-5.2h0z"/><path d="M-113 315.4c-.3 0-.3.3-.6.7l1.8.4c.1-.3.4-.4.7-.3.1 0 .3-.1.6-.1.4.3.7.1.8-.8l.1.7c.3-.1.6 0 .6.4.3 0 .6 0 .8.1l1.4.3c.3 0 .6-.1 1-.1-.1 0 .1.1.6.1.3.1 1-.3 1-.8.1-.4.1-.8.1-1.2.1-.4 0-.8 0-1.2 0-.3.1-1.8.1-1.9 0-.7-.3-1.4.1-2.2v-.3c.1-.4.1-.8.1-1.2v-2.8c0-.4-.1-1 .1-1.4.1-.4 0-1 0-1.4.1-.6.1-.8.1-1.2v-2.5c0-.3-.1-.6 0-.8 0-.3 0-.6.3-1 .1-.3.4-.6.8-.7.8-.4 1 0 1.2.6.6.6.8 1.2 1.2 1.9.6.7 1 1 1.4 1.7.6.7 1 1.4 1.4 2.1.3.4.7.8 1 1.2.1.3.3.7.6 1 .1.4.4.8.8.8.1 0 .4.1.4.4.1.1.3.3.3.7-.1.3.1.7.4.7.4-.1.8.1 1.2.7 0 .1.1.4.1.6.1.3.3.4.4.4.3 0 .6.1.8.3v.2c0 .1.1.3.1.3h.1c.3.1.6.1.8.6.6.1.8.6 1.2 1s.8.6 1.2 1l1.2 1.2c0 .1.1.1.1.1l1.1 1.2c0 .1 0 .1.1.1.1.8.6 1.2 1.2 1.4.6.1 1.1.1 1.7.1a5.85 5.85 0 0 0 1.5-.6c.3-.1.6.1.6.3.1.4.4.3.6.3.4.1.7 0 1 0 0 0 .1 0 .1.1.6.1 1 0 1-.6.3-.8.3-1.7 0-2.3-.1-.3-.1-.3-.3-.4l-.4-.4v.1c-.1 0-.1-.1-.1-.1h-.3v-.4h-.1v.1c-.1.3-.1.6-.3.1h.1c-.1 0-.3-.1-.3-.1-.1 0-.1-.1-.1-.3.3 0 .4 0 .4-.1-.1-.1-.6-.3-.3-.8l.3.6c.1 0 .1-.1.3-.3 0-.1.1-.1.3-.1l.3-.8c.1 0 .1-.1.3-.1.1.1.1.1.1.3 0-.4.1-.7.1-.8-.1-.3-.3-.6-.4-.8 0-.1 0-.1.1-.1.1-.3-.1-.6.1-.8 0-.3 0-.6-.1-.8-.1-.4-.1-1 .1-1.4-.1-1-.1-1.7-.3-2.5.3-.1.7-.6.6-.8h-.3v-.1c.1-.1.3-.3.4-.3-.3-.1-.3-.3-.3-.3 0-.6-.1-1.1.3-1.7l-.3-.1c.3-1.1.3-2.2.3-3.4v-1.5c0-.4 0-1-.1-1.4l.1-.1c0-.1.1-.1.1-.1v-.1c-.3-.3 0-.7 0-.8v-1.2c0 .1 0 .1.1-.3 0-.1.1-.3.1-.3-.1-.6.1-.8.1-1.2.1-.4.1-1-.3-1.2 0-.1-.3-.8 0-1.1v-.6c.1-.1.1-1-.1-1.2.1-.3.1-.6 0-.8-.1-.1-.1-.3 0-.3.1-.4.3-1.8.1-2.2-.1-.1 0-.1 0-.3l.1-1.2v-.1c-.1-1 .1-1.7.1-2.3-.1 0-.1-.1-.1-.3v-.1c-.1-.4-.1-.8.1-1 .1-.4.3-.8.3-1.2v-.1c.1-.7 0-.8-.6-.8l-.8-.1h-.3c-.3 0-.6.1-.8.1-.4-.1-.7-.1-1.1-.1-.1 0-.1.1-.3.1h-.8c-.3 0-.4-.1-.6-.1l-.6-.1c-.3 0-.3-.1-.6-.1h-.2c-.1-.1-.1-.1-.6-.1-.4-.1-.7.1-.8.7v2.3l-.1 2.1v.4c.1.3.1.6 0 .8l-.1.1c.1.6.1 1.2.1 1.8-.1.6 0 2.3 0 2.9 0 .3-.1.7-.1 1l.1 1.9v.6c0 .4-.1.7-.1 1.1l-.1 4.3-.1 2.1v.6c-.1.7-.6 1-.8 1.4-.1.1-.1.1-.3.1l-.6.1c-.4-.6-1-1-1.4-1.7-.4-.4-.8-.7-1-1.4 0-.3-.1-.4-.3-.4-.6-.1-1-.6-1.2-1l-1-1.2c-.3-.4-.3-.8-.7-1-.4-.4-.6-1-1-1.4-.3-.3-.3-.7-.4-1s-.3-.6-.4-.8c-.3-.1-.6-.4-.8-.8v-.1c-.7-.6-1.1-1.4-1.7-2.3l-.7-1a6.08 6.08 0 0 1-1-1.4c-.4-.8-.7-1.4-1.2-1.8-.1 0-.1-.3-.1-.3l-.6-1c-.4-.6-1-1.1-1.4-1.8-.3-.4-.7-1-1.1-1.4s-.7-1-.8-1.4c-.3-.3-.4-.6-.6-.8-.1 0-.3-.1-.3-.3-.1-.1-.1-.1-.4-.1-.8-.1-1.7-.1-2.5-.1-.6 0-1.1-.1-1.7-.1-.4 0-.6-.1-1-.1-.1 0-.3 0-.3.3l-.8 2.9v.3l.1 2.1v.3l-.3 2.8c-.1.7 0 1.2 0 1.8 0 .4-.1.8-.1 1.2v2.6c-.1.4-.1.8-.3 1.2v4.3a5.23 5.23 0 0 1-.3 1.8c-.3.4-.3 1 0 1.2 0 .3.1.4.1.6-.1.6 0 1-.4 1.4-.1.3-.1.7 0 1.1.1.1 0 .1.1.4v.6c0 .3-.1.3-.1.3-.1.1-.1.4-.1.7.1.4.1.8 0 1.2s-.1.8-.1 1.2c0 .1 0 .3-.1.6l-.1.1c-.3.6-.1 1 .3 1.2.1 0 .1.1.1.1v3.5c0 .3.1.6 0 1-.3.1 0 1.8 0 2.1v1.4c0 .4 0 .6-.3.6zm33.2-19.9c0 .1.1.4.3.8-.1 0-.3.3-.3.7l.1-.1c.1 0 .3-.3.3.1 0 .1 0 .1.1.1 0 0 0 .1.1.1l-.1.4c-.1.1-.3.3-.3.6 0 .1-.1.1-.1.1l-.1.1c-.3-.3-.3 0-.4.3l-.1-.1s-.1 0-.1-.1v.3c.1.3 0 .6-.3.7 0 0-.1 0-.3-.1-.1-.1-.3-.3-.1-.4.1-.1 0-.3-.1-.3-.3-.1-.6-.1-.8.1 0-.1-.1-.1-.1-.4 0 .1-.1.1-.1.1h0c-.1 0-.1-.1-.3-.3l.3-.1c.1-.1 0-.1.1-.1.3-.3.6-.6 1-.4.3.1.4 0 .4-.3.1-.1.1-.1.1-.3h.1v.3c0 .1 0 .1.1.1h.3l.3-.1s-.1-.3-.3-.4c.1-.3.7-.4 0-.7l.3-.7zm0-6.5c-.3-.7-.7-1.4-1.1-2.1.1.1.1.1.3.1 0-.1-.1-.3-.1-.3 0-.1 0-.3.1-.3l.1-.1c0-.3.1-.6.6-.6v.3l.3.3c.3 0 .6 0 .6.6v.1c.1.3.1.8 0 1.1s-.3.6-.1 1l-.7-.1zm-2.5 5.4c.1 0 .3.1.6.1l-.1.3-.3.4c-.1.8-.6 1-1.2 1.1l-.1-.1c.3-.4.6-.7.8-1.1 0-.1.1-.3.1-.4-.1-.2.1-.3.2-.3zm.8 1.1c0-.3 0-.3.1-.3.3 0 .3-.3.4-.6.1.3.3.3.4.6l-.6.6c-.4.3-.3.4 0 .7-.4.1-.6.1-.3.1-.3 0-.3-.1-.6-.1 0-.1.1-.3-.1-.6v-.2l.7-.2zm-.8 3.3c0 .1-.1.4-.1.4-.1 0 0 0 .4-.1 0 .3-.1.4-.4.4v-.2c-.1.1-.3.1-.4.1 0 .1.1.4.1.6-.1.3-.3.6-.3.8-.1-.1-.1-.1-.3-.1 0-.1-.1-.3-.1-.7h.3v.1s0 .1.1.1v-.2c0-.1-.1-.6-.1-1-.1-.3-.1-.3.1-.3.3.1.6.1.7.1zm2.7 4.5c.1-.1.1-.1.3-.1v.1c-.1.1-.1.1-.3.1l-.7-.4c-.1 0-.1 0-.1-.1v-.1l.1-.1c.1-.1.1-.1.3-.1.3-.1.6-.3.7-.6 0 .4.1.7.1 1.1l-.6-.6.2.8zm-3-1.6c-.3-.1-.3-.3-.6.1-.1-.1-.3-.1-.4-.3 0-.1-.1-.3-.1-.3 0-.1 0-.1.1-.1l.1-.1c.1-.1.3-.1.6-.1.2 0 .5.2.3.8zm3-22h0c-.3-.3-.1-.6-.4-1 .3.1.4.1.4.4v.6zm-.4 31.7c-.1.1-.1.3-.1.3 0-.1-.1-.1-.4-.1v-.2l.1-.1c0 .1.3.1.4.1zm1.7-29.5c0 .1 0 .3-.1.6-.1 0-.1 0-.1-.1v-.7c-.1 0 0 0 .2.2 0-.2 0-.2 0 0zm-.8 13.6h0c-.1-.1-.1-.4-.4-.7.3 0 .3.1.4.1v.6zm-1 5.4c.1-.1.1-.6.3-.3 0 .1-.1.3-.3.6v-.3zm.5.5l-.1-.1.3-.3s.1 0 .1-.1c.1.1.1.1.1.3l-.4.2zm.3 12c.1.1.1.1.1.3v-.3c.1-.2.1 0-.1 0zm36.3 4.2c.1-.3.1-.4.1-.7 0 0-.1 0-.1-.1v-.1c-.1-.3-.1-.4.1-.3.1 0 .3-.1.3-.1 0-.1.1 0 .1-.1.1-.1.1-.1.1-.3-.1-.1-.1-.3-.1-.4 0-.3.1-.6 0-1 0-.1.1-.3.1-.4s-.1-.3-.1-.4c0-.4-.1-.6-.1-.8-.1-.1.1-.6 0-.8v-.1c.1-.1 0-.3 0-.6-.1 0-.1-.1-.1-.3v-.4c.1-.1.1-.1.1-.6v-.6c-.1-.1-.1-.3-.1-.6.1 0 .1-.3.1-.6-.1 0-.1 0-.1-.1v-.6c0-.1-.1-.3-.1-.6-.1 0-.1-.1-.1-.3 0-.3.1-.6 0-.7v-.1c.1-.1.1-.1.1-.3-.1-.1 0-.3-.1-.6h0c.1-.1.1-.4.1-.6s-.1-.3 0-.3v-1c-.1-.1-.1-.4 0-.7 0-.1.1-.3 0-.6-.1 0-.1-.1-.1-.3v-1c0-.1 0-.3.1-.7v-.3c-.1-.3-.1-.6-.1-1.2.1 0 .1-.1.1-.4.1 0 .1-.1 0-.3 0-.1-.1-.6-.1-.7s.1-.3.1-.6c.1-.1.1-.4.1-.6-.1-.3-.1-.6-.3-.8 0-.3-.1-.4 0-.6h.1v-.1c.1-.1 0-.4-.1-.8v-.8c0-.3 0-.3.1-.4.1 0 .1 0 .1-.1v-.1c0-.3-.1-.4-.1-.6.1-.1 0-.3-.1-.6v.2c0-.1-.1-.1-.1-.3 0-.1-.1-.3-.1-.4s.1-.3.1-.6v-.3c0-.1-.1-.3-.1-.4v-.6c-.1-.4 0-.8-.1-1.2l.1-.1c0-.3.1-.7 0-1-.1-.1-.1-.3-.1-1v-.6c0-.4 0-.7.1-.7v-.6c0-.1-.1-.3 0-.6h0l-.1-.3c0-.3-.1-.4 0-.7.1-.1 0-.1 0-.4.1-.1 0-.3 0-.3v-.3c0-.3 0-.6-.1-1v-.4c0-.1-.1-.1 0-.1.1-.1.1-.3.1-.8.1-.3-.1-.6.1-.8v-.1c-.1-.1-.1-.6-.1-1.2v-.3c-.1-.1-.1-.1-.1-.6.1-.1 0-.3-.1-.4l-.3-.3h-.1c-.4 0-.7 0-.7-.1-.1 0-.3 0-.3.1h-.4c-.4 0-.8.1-1.2 0-.3 0-.6.1-.6.1h.4c-.1 0-.3.1-.6.1l-.1-.1-1.1-.3-.8-.1-1 .1-.3.1-.8.1-.6-.1h-2.8l-1.8-.1-1.7-.1H-60l-1.5.1-4 .3-.6-.3h-1.4l-.8.1-.8.3-.7.1h-.7s-.1-.1-.3-.1c0 0-.1.1-.1 0-.4 0-.6-.1-1-.1-.3 0-.6 0-.6.1h-.1c-.3 0-.6-.1-1 .1-.3-.1-.3.1-.4.3l-.1.1c0 .3-.1.4 0 .7v.1c-.1.3.1.4-.1.8h.1c0 .1.1.1.1.1.1.3.1.6 0 .8 0 .1-.1.3 0 .4 0 .1.1.1 0 .3-.1.4-.1.6-.1.7 0 .4-.1.7-.1 1.1v.7c.1.4.1.6.1 1 0 .3-.1.6 0 .8v.6c-.1.1 0 .4-.1.6v.1c.1.1.1.4.1.6.3.1.3.3.1.6-.1.1-.1.1 0 .1v.3c0 .1-.1.3 0 .6v.1c-.1.3-.1.6-.1.8v2.6c0 .1 0 .1-.1.3v.1c.1.3 0 .4-.1.6 0 .3-.1.6 0 .8 0 0 .1.1.1.3v.8c-.1.1-.1.4 0 .6 0 .1.1.1.1.4v.6c-.1.1 0 .3.1.4-.1 0-.1 0-.1.1v1.9c0 .3-.1.4-.1.8v.8c-.1.1 0 .3 0 .4v.1l.1.1v1.4c-.1.1-.1.3 0 .4v3.3c.1.6 0 .8 0 1.2v.7c0 .1.1.3.1.7 0 .1-.1.4 0 .7v.1c-.1.3-.1.6-.1.6 0 .4.1.8-.1 1.2v.1c0 .4.1.8.1 1.2-.1.6-.1 1-.1 1.4v.6c-.1.1 0 .3-.1.6v.8c0 .1-.1.4.1.7v.1c-.1.1.1.1.1.4l.1.1c.3.1.7.1 1 .1.4 0 .8 0 1.2-.1.1 0 .1 0 .1.1.3.1.4 0 .7 0 .4-.1.8.3 1.2.1h1.2c.1-.1.1-.1.3 0h1.2c.1 0 .3.1.4.1s.3.1.3.1c.3-.1.4-.1.4-.1.1 0 .4-.1.6 0v.1c.4.1.8-.1 1.2.1h1.4a2.44 2.44 0 0 1 .7.1c.3-.1.7-.1.8-.1h.6c.3 0 .6-.1.7.1h.1c.1-.1.6 0 .8 0 .3.1.6.3.8.1l.1.1s.1 0 .6-.1c.1-.1.4-.1.6 0h2.2c.1 0 .3.1.6 0h1c.4.1.8.1 1.2.1h1c.1 0 .4.1.6 0h0c.6.1 1.2.1 1.7.1.3 0 .6-.1.7 0s.3.1.4 0h.3c.3 0 .6.1 1 0h.6c.4.1.6.1.6.1.1 0 .1.1.4 0 0 .1 0 .1.1.1h.1v.2c0 .1.1.3.3.1h.1c0 .3 0 .3.6.6 0-.1 0-.1.1-.3.4.3.6.3.4.7l.1.1c-.2.1-.2-.1-.1-.1zm-20.5-34.5l2.1-.3 2.1-.1.6.1 1.5-.1h.6l1.2.1 1.5-.1h1.7l.4.3v.1c0 .1-.1.4 0 .6v.6c-.1.1-.1.4-.1.6s-.1.3 0 .4c.1.4.1.6.1.8 0 .4-.1.7 0 1v.6l.6 4.4.3 1.8c.7 6.6-.6 8-.6 8.5.1.1 0 .3 0 .4.1.1.1.1.1.3h.1v.1c-.1.4 0 .7 0 1.1.1.1.1.3.1.6v.6c0 .3.1.7.1 1a2.18 2.18 0 0 0 .1.6v.1c.1.3.1.4-.1.6-.1.1-.4.1-.6.6-.1.1-.1 0-.3.1l-.1.1c-.1-.1-.1-.1-.3-.1h-.8s-.1-.1-.4-.1c0-.1-.1-.1-.6-.1h-.6c-.1.1-.1.1-.6.1-.1-.1-.4 0-.7 0-.1-.1-.4-.1-.6 0-.3 0-.6-.1-.8.1-.1 0-.3 0-.3-.1h-.3c-.3.1-.6.1-.7 0h-.3c-.3 0-.4.1-.7 0 0-.1-.3 0-.4 0-.4.1-.6-.1-1-.1h-.7c-.1 0-.4 0-1-.1-.1-.1-.3 0-.6-.1-.1 0-.3-.1-.6-.1-.1-.1-.1-.1-.4-.1-.1 0-.1-.1-.3-.1-.3-.1-.3-.3-.3-.6s0-.3.1-.4v-.7c-.1-.4-.1-.7-.1-1v-.1c.1-.4.1-.6-.1-.8-.1-.1-.1-.3-.1-.8.1-.3.1-.7 0-1-.1-.7-.1-1.1-.1-1.2v-.3c0-.3 0-.6.1-1 0-.1.1 0 .1-.1v-.1l-.1-1.1-.4-1.2-.1-1.2-.1-1 .1-1.5v-1l.1-1.1v-.6l.3-.6c-.1-.1-.1-.3-.1-.3v-.6c.1-.3 0-.6 0-.8v-.3c.1-.3.1-.6.1-.7v-1c0-.1 0-.3.1-.6v-.1c0-.3.1-.6 0-.8v-.7c.1-.3.1-.6.1-.8l.1-.3h1.1c.5-.4.5-.3.5-.3zm-10.1 28.8c0 .3 0 .3-.1.3h-.1v-.2c-.1 0-.1-.1.2-.1zm3.8-32.5h0l-.1-.1h.1v.1zm-.4 5.2c0-.1 0-.1.1-.1s0 .1-.1.1zm-2.9-9.2c0-.1 0-.1 0 0h0zm29.3 34.5h0zm-.4-4.5h0z"/><path d="M-33.9 316.5c.3 0 .4-.1.4-.3h-.3c-.1 0-.1 0-.1-.1s-.1-.1-.3-.1c-.3 0-.6-.1-.8-.1l-.4-.1c.1-.3.1-.1.1-.3.1 0 .3-.1.3 0 0-.1.1-.1.1-.3.3 0 .6-.1.8 0h1c.3 0 .6.1.8.1h.8c.1 0 .1.1.3.1.3.3.6.3 1 .3l-.1-.3c-.1.1-.3.1-.3 0h0c-.1-.1-.3-.1-.1-.3s.3-.3.1-.6v-.3c.1-.3 0-.6 0-.8-.1-.3 0-.1 0-.3.1-.1.1-.3.1-.6.1-.6-.1-1-.1-1.4 0-.3.1-.4 0-.6 0-.4.1-.8 0-1v-.6c0-.3.1-.3 0-.4v-.1c0-.4 0-.7.1-1.1.1-.1.1-.1 0-.3-.1-.3 0-.6 0-.8.1-.1.1-.1 0-.4l-.1-.8c.1-.1.1-.1.1-.3-.1-.4-.1-.8-.1-1.2s.1-.8.1-1.2v-.4c0-.4.1-.8.1-1.2 0-.1.1-.1.3-.3.1 0 .3-.1.3-.3s.1-.1.1-.1c.3-.1.6-.3 1.1-.3h1.8c.4.1.7.3 1 .4l.3.1.1.1v.1l1 1c.1.1.3.1.3.3.1.1.1.3.6.4l.3.4.1.3c.1.1.1.3.3.3 0 .1 0 .1.1.1l.7 1 .1.3c.1 0 .1.1.3.1.1.3.1.3.3.6 0 .1.1.3.3.6l.4.4c.1.1.1.3.1.3 0 .1 0 .1.1.1.1.1.1.3.3.3l.4.4c.1.1.1.4.4.6l.1.4c.1.3.3.4.3.7.1.1.3.3.4.6l.6.8.3.3c.1.1.1.1.1.3 0 .1.1.3.3.6l.3.6c.1.1.1.3.3.6.3.3.3.4.4.7v.1l.4.7.3.8c.1.3.3.4.6.3.1 0 .1 0 .1.1.1.1.3 0 .6.1h0c.3-.1.3-.1.6-.1s.3.1.4 0h.3c.2 0 .3 0 .3.1.4.3.8.3 1.2.3h.1c.4-.3.8-.1 1.2-.1h.6c.1-.3.4-.1.7-.1h.1c.1-.1.1-.1.3-.1.1 0 .1 0 .1.1.1-.1.4-.1.6-.1.1-.1.3 0 .6 0 .3.1.6.3 1 .1.1-.1.3-.1.6 0 .1.1.3.1.4-.1.1 0 .1 0 .1-.1l-.3-.6c-.1-.1-.1-.1-.1-.3-.1-.3-.1-.6-.6-.6-.1-.3-.1-.3-.3-.6l-.1-.1c-.1-.1-.1-.3-.3-.6-.1 0-.1 0-.1-.1-.1-.4-.4-.6-.6-1-.1-.4-.4-.8-.7-1l-.1-.3c-.1-.1-.1-.1-.3-.4 0 0-.1-.1-.1-.3l-.3-.3-.1-.3c-.3-.4-.4-.6-.8-.8l-.1-.1-.4-.7c-.1-.4-.4-.6-.6-.8h0l-.3-.3v-.1c-.3-.1-.4-.6-.6-.8l-.1-.1c-.3-.1-.3-.6-.6-.8l-.3-.6-.4-.6c0 .1 0 .1-.1-.3l-.1-.4c-.1 0-.1-.1-.1-.1 0-.1-.1-.3-.4-.6l-.1-.4-1.1-1.5c-.1-.1-.1-.3 0-.6s.1-.3.3-.3.3-.1.6-.1h3.1c.1-.1.4 0 .6-.1 0 .1 0 .1.1.1h.3c.4.1.8.1 1.2.1h.7c.1 0 .1.1.3.1H-8c.1 0 .1 0 .1-.1v-.6c.3-.3.3-.7.3-1.1 0-.1.1-.4.1-.8v-.3c-.1-.6-.1-1 0-1.2.1-.1 0-.3.1-.4v-.8c0-.4 0-.6-.1-.7v-.1c.3-.4.1-.8.1-1.2 0-.3.1-.6-.1-.8l.1-.1v-.4l.1-.1c-.1-.3 0-.6 0-.8v-1.1c.1-.1.1-.3.1-.6v-.4c0-.1.1-.3 0-.6-.1 0-.1-.1 0-.3.1-.1.1-.1.1-.3v-.8c0-.1 0-.3.1-.4 0-.3 0-.3-.1-.3 0-.1-.1-.3 0-.3l.1-.8v-.1c-.1-.3-.1-.8-.1-1.5v-.3c-.1-.3 0-.6 0-.8.3-.3.1-.6.1-1v-.3c0-.3 0-.4-.1-.6 0-.1.1-.1 0-.3 0-.3 0-.6.1-.8 0-.3 0-.4-.1-.4 0-.4-.1-.7 0-.8v-1c-.1-.3-.1-.6-.1-1 0-.1-.1-.3-.3-.3h-.6c-.1 0-.1.1-.4.1 0 .3 0 .3.1.4.1.3-.1.6-.4.6-.1-.1-.3 0-.7 0l-.1-.1c-.1.1-.3.1-.6.1l-.1-.1c-.1.1-.3.1-.6.1h-.2c-.1-.1-.4-.1-.7-.1-.4 0-.8-.1-1.4 0h-.1c-.1-.3-.6-.3-1-.1-.6.1-.8.1-.8-.1-.1-.1-.1-.1-.6-.1-.1.1-.3.1-.3 0-.3-.1-.6-.1-.7 0h-.1c-.1-.1-.4-.1-.6 0 0 .1-.1.1-.1.1-.4-.1-.7-.1-1-.1-.3.1-.6-.1-.8-.1-.1 0-.1.1-.3.1h-.1c-.3 0-.6.1-.8.1-.1 0-.3 0-.6.1l-.3-.3H-23c-.3 0-.6 0-.8-.1-.1 0-.1 0-.1.1h-.1c-.1 0-.4 0-.8.1-.1 0-.3 0-.4-.1h-.3c-.3-.1-.7 0-1 0s-.6-.1-.8-.1h-.3c-.3 0-.6 0-.8-.1-.1 0-.1-.1-.3-.1-.3 0-.3 0-.3.1-.3.1-.6.1-1 .1h-.7c-.1-.1-.3-.1-.6 0h-1.8c-.1 0-.3.1-.6.1-.3.1-.3.1-.4.1-.1-.1-.1-.1-.3-.1-.4 0-.6 0-.7.1h-1.3c-.4 0-.8-.1-1.2.1h-.1c-.4-.1-.8-.1-1.1.1-.1.1-.1.3-.1.7v1.6c0 .3.1.3.1.4.1.3-.1.6.1.7v.4c-.1.3-.1.6 0 .8.1.1.1.3 0 .6v.6c0 .4.1.6 0 1 0 .3 0 .3.1.4 0 .1.1.3.1.8v.1c-.1.1-.1.4 0 .6 0 .1-.1.4-.1.6-.1.4-.3.8-.3 1.2v.1c-.1.3 0 .6 0 .8-.1.4-.1 1-.1 1.4-.1.1 0 .1-.1.3 0 .6.1 1.2 0 1.7 0 .1.1.1.1.3 0 .3-.1.4-.1.7v.8c0 .3 0 .3.1.4 0 .1 0 .3-.1.3s-.1.1-.1.3c0 .4.1.8 0 1.2 0 .1.1.3.1.6s.1.6.1 1v.1c-.1.4-.1.6-.1.6.1.1.1.1 0 .3-.1.3 0 .6 0 .8 0 .1.1.4.1.6 0 .4-.1.7-.1 1.1-.1.8-.1 1.4.1 1.7v.1c0 .4.1.8.1 1.2-.1 0-.1.1-.1.1v.7c0 .4.1.8.1 1-.1.4-.1.8-.1 1.2 0 .1-.1.3-.1.3-.1.3-.1.3-.1.4v1.4c0 .1-.1.3-.1.3-.1.3-.1.8-.1 1.4v.3s0 .1.1.3c0 .3 0 .4-.1.6v.6c0 .1-.1.1-.1.4v.1c.1.1.1.3 0 .4v.1l-.1.1v.3l-.1.4c-.1.3.1.6-.1.8v.1c0 .4-.1.6-.1 1 0 .1-.1.1-.1.3v.6c.1.3.1.3.3.3h.6c.4-.1.6-.1.8-.1.4-.1.7.1 1.1.3.1.1.4.1.6.3.1.1.4.1.6.1 0 .1.1.1.1.1l.6.1h.1c.3 0 .7-.1 1-.1 0-.5.2-.1.3-.1zm17.1-33.9h.1c.1.1.3.1.1.3s-.1.4.1.6c.1 0 .1 0 .1.1.1.3.1.6.1.7-.1.3-.1.6 0 .7s.1.3.1.4c-.1 0-.1.1-.1.4v1c0 .6 0 .8.1.8v1.3c.1.1.1.3.1.4-.1.3-.1.3 0 .4.1.4-.1.6-.3.8 0 0-.1.1-.3.1-.3.1-.6.1-.8.1h-1c0-.1 0-.1-.1-.1h-2.6c-.3-.1-.6-.3-.8-.1-.1.1-.1.1-.1 0-.3-.1-.4 0-.7 0s-.6.1-1 .1h-.1c-.4.3-1 .3-1.4 0h-.3c-.3.1-.6 0-.8 0-.4 0-.7-.1-.8 0h-.8c-.3 0-.4 0-.6-.1l-.1.1c-.6 0-.8 0-1-.3l-.1-.3c-.3-.3-.4-.6-.4-1v-.1c0-.1-.1-.1-.1-.3 0-.3 0-.3-.1-.4s-.1-.1 0-.4v-.1c0-.1.1-.3.1-.6s0-.6.1-.6v-.6c0-.3 0-.6.1-.8l.1-.1c.1-.3.3-.6.4-.8 0-.1 0-.1.1-.1.1-.1.3-.1.3-.3.1-.1.1-.1.3-.1l.6-.1c.1-.1.3-.1.6 0h1.1c.1 0 .1 0 .1-.1h.6c.3-.3.6-.1.8-.3.3 0 .4.1.7.1h.6c0-.1.1-.1.3-.1.1-.1.4-.1.7-.1h.1c.4-.1.6-.1.7-.1.4 0 .6 0 1-.1.1-.1.1-.1.6-.1h.3c.3-.1.6 0 .8-.1.3 0 .6.1.8.1.4-.1 1 0 1.4-.1h.3v-.1zm3.7 27.3h0c0-.1.1-.1.1-.1l-.1.1zm4.8-10.8c0-.1 0-.1.1-.1 0 .1 0 .1.1.1h-.2zm-22.4 1.3h0zm19.1-3.9h0v.1-.1zm-12.4-21c0-.1 0-.1 0 0h0z"/><path d="M29.4 300.3c.1-.1.1-.1.1-.6v-.6c.1-.4.1-.8.1-1.2v-.6c.1-.3.3-.4.1-.7v-.1c-.1-.1-.1-.3-.1-.8 0-.3-.1-.6-.1-1 .1 0 .1-.1 0-.1v-1c0-.3.1-.6 0-.7s-.1-.3-.1-.4c0 .1 0 0-.1-.4 0-.1-.1-.1 0-.3 0 0 0-.3-.1-.7-.1-.3-.1-.4-.3-.7 0 0-.1-.1-.1-.3-.1-.1-.1-.1-.1-.3-.1-.3-.1-.6-.1-.8 0-.1 0-.3-.1-.3v-.6c0-.1 0-.1-.1-.1-.1-.1 0-.1-.1-.3-.1-.3-.1-.6-.1-.8 0-.1-.3-.3-.3-.6v-.1c0-.1-.1-.3-.1-.4s.1-.3.1-.3v-.1c0-.3-.1-.6-.1-.8-.1-.1-.3-.3-.3-.6-.3-.6-.6-.8-.8-1.2-.1-.3-.3-.4-.1-.8 0-.6-.3-1.1-.7-1.7-.3-.3-.4-.4-.6-.8l-.3-.3c-.3-.3-.6-.4-.8-.8l-.6-.6c-.3-.1-.7-.4-.8-.8-.1-.1-.3-.1-.4-.3-.4-.1-.8-.3-1-.6-.1-.1-.4-.3-.6-.3-.7-.1-1.2-.6-1.7-1-.1-.3-.3-.1-.4-.3-.3 0-.6-.1-1-.1-.1 0-.3-.1-.3-.1h-.1c-.7.1-1.2 0-1.8-.1-.1-.1-.3-.1-.6 0-.4 0-.7 0-1.1-.1H13c-.4.1-.7.1-1 .1-.6 0-1-.1-1.5.1-.6.1-1.2.1-1.7.1-.1 0-.3 0-.4.3l-.1.1c-.3 0-.6 0-1-.1-.1 0-.4-.1-.7-.1h-.3c-.1-.1-.3-.1-.4-.1l-.4.6h-.1c-.3 0-.6-.1-.8-.1-.6-.3-1-.3-1.7-.1-.3.3-.7.3-1 0l-.4-.1c-.4 0-.7-.1-.8-.1-.1-.1-.3-.1-.4.1-.4 0-.6.1-.4.1-.1.1-.1 0-.3.1H-1c-.1-.1-.3-.1-.6-.1h-.1c-.1-.1-.4-.1-.8 0-.1.1-.3.1-.6.1h-.1c-.1 0-.1.1-.1.1-.1.3-.1.6-.1.8.1.1.1.6.1 1.2-.1.3-.1.6 0 .7.1.3.1 1 0 1.8-.1.3 0 .4 0 .6v2.1c.1.7.1 1.4 0 2.1v.6c0 .4 0 .8.1 1.2 0 .1-.1.3-.1.3v.7c.1.6 0 1.1 0 1.7-.1.1-.1.3-.1.8.1.3.1.6.1 1.1-.1.4-.3.8-.1 1.2.1.3.1.6.3 1 .1.4.3.8.4 1.2v.1c0 .1 0 .1-.1.1l-.6.8-.1.1c-.1.1-.1.3.1.6.1.1.3.4.1.7v1l-.1.1v.1c0 .3-.1.7.1 1v.6c0 .1-.1.3-.1.6-.1.1-.1.3 0 .6v.1c.1 0 .1.3.1.6.1.1.1.3-.1.3v.1l-.1.1v.6c-.1.4-.1.7-.1.8s0 .4.1.6v.6c0 .3-.1.6-.1.4 0 .1-.1.4 0 .7 0 .4-.1.7-.1 1 0 .1-.1 0-.1.1-.1 0-.1 0-.1.1v.1c0 .1-.1.4-.1.6v.3c0 .1.1.4.1.8.1.1.1.1.1.4-.1.1-.1.3-.1.6v.2c.1.1 0 .4 0 .7v1.7c.1.3.1.6.1.8v.1c.1.1 0 .3 0 .4v.1c.1.3 0 .6.3.8v.1c.1.4 0 .8.3 1.2v.1c0 .3.1.6.1.8.1.1.3.3.6.3h.6l.3.1c.3.1.6.1.7-.1h.1c.1-.1.1-.1.3-.1h.6c.3.1.6 0 .7 0h.6l.1.1c.4-.1.7-.1.8-.1.1-.1.1 0 .4 0s.4.1.7 0l.1-.1h.8c.6 0 .8 0 .8-.1h.1c.3 0 .6.1.8 0h.1c.4.1.7 0 .8 0h2.5c.1-.1.1-.1.4 0h.9c.2 0 .3-.1.7-.1v-.1c.1-.1.3-.1.6-.1.1 0 .1.1.3.1.3 0 .6-.1.6-.1.1-.1.3-.1.4 0s.1.1.3.1c.1 0 .3 0 .3.1.1 0 .1-.1.3-.1.4 0 .6 0 .8-.1h.1c.4.1.8.1 1 0h.4c0 .1.1.1.3.1.1-.1.3-.1.6-.1h.3c.1-.1.3-.1.4-.1h.4s0-.1.1-.1c.3.1.3.3.3.1.1 0 0-.1.1-.3.1.1.3 0 .6-.1h.1c.3.1.6 0 .8-.1.1-.1.3-.1.6-.1h.1v-.1h.3c.2 0 .1-.1.1-.1.1-.1.1-.1.3-.1h.1c.3-.1.6-.3.8-.3l.2-.2c.1 0 0 .1 0 .1h.1c.1 0 .3 0 .4-.1h.1c.1 0 .1-.1.1-.1l.4-.4c.1-.1.4-.3 1-.6 0-.1.1-.3.1-.3h.3l.3-.3c-.1 0-.1-.1-.1-.1-.1-.1-.1-.1 0-.3.1-.1.3-.1.4-.1 0-.1.1 0 .1-.1s0-.1.1-.1.1-.1.3-.1c.1-.1.3-.1.3-.3s0-.3.1-.3v-.9c0-.2 0-.1-.1-.3h-.4c-.3-.1-.4-.3-.8-.4.1-.1.3-.1.3-.3l.1-.1c.1-.1.1-.1.3-.1.3.1.3.3.6.1h0c.1.1.3 0 .6 0 .1-.1.1-.3.1-.7 0-.1-.1-.3-.3-.3 0-.1 0-.1-.1-.1.1-.3.1-.3.3-.4.1 0 .1-.1 0-.3h-.1c-.1 0-.1 0-.1-.1-.1-.1.1-.3.3-.3l.3.3c.3-.1.4-.3.4-.7h-.2l-.4-.6c-.1-.1-.1-.1-.1-.3.1-.1.1-.1.3-.1.1-.1.3-.1.3-.1.1-.1.1-.1.1-.3 0-.3 0-.4.1-.4.1-.1.1-.3-.1-.6H28c-.1-.1-.1-.1-.1-.3.1 0 .1-.1.3 0h0c.1 0 .3-.1.3-.3 0-.1.1-.3.1-.3.1-.1.1-.3.1-.4s0-.3.1-.3c0-.1.1-.1.1-.3 0-.3.1-.6 0-.7v-.2c0-.1 0-.3.1-.3 0-.3 0-.4.1-.4 0 0 .1 0 .1-.1h0c-.1-.1-.1-.3.1-.3v-.4h.1zM12.3 289c0 .1.1 0 .3 0 .3 0 .4-.1.6 0 .1 0 .3-.1.4-.1.3-.1.4-.1.4-.1.3.1.4 0 .6-.3.3-.1.3-.1.4-.1.1-.1.3-.1.3 0 .1.1.1.3.3.3.1.1.3.3.1.6 0 0-.1 0-.1.1-.1.1 0 .4.3.7.3.1.3.3.1.6-.1.1-.1.1-.1.3-.1 0-.1.1-.1.3s-.1.3-.3.6c.1.1.3.3.4.3 0 .1-.1.1-.1.1h.1v.1c.1.1.3.6.3.8v1.4c.1.3 0 .6-.1.7s0 .4 0 .8c-.1 0-.1.1-.1.3-.1.4-.1.8 0 1.2.1 0 .1.1.1.6v1c-.1 0-.1.3-.1.7.1.1.1.3.1.8a2.44 2.44 0 0 0 .1.7v.1c.1.3 0 .6 0 .8-.1 0-.1.1 0 .3.1.1.1.4 0 1 0 .3 0 .6.1.6.1.1.1.1.1.4v.7c0 .3 0 .4.1.6 0 .3.1.4.1.6.1.4-.1.8-.6.8h-.1c-.1.1-.3.3-.6.3l-.6.3c-.3 0-.6.1-.6.3-.1.1-.4.1-.6.4l-.4.1c-.1 0-.1 0-.1.1-.3.1-.8.1-1.2.1 0 .1 0 .1-.1 0-.3 0-.7-.1-1.1-.1h-.1c-.1 0-.3.1-.4.1-.4-.1-.8-.1-1.2 0l-.1-.1h-.9c-.3-.1-.4-.1-.7-.1-.4 0-.7 0-.8-.1-.3-.6-.4-.7-.4-1s-.3-.4 0-.7c0-.3 0-.4-.1-.6 0-.3.1-.4.3-.6v-.3c-.2 0-.2-.1-.2-.6-.1 0-.1 0-.1-.1s-.1-.3-.1-.6c0-.1 0-.3.1-.3 0-.1 0-.3.1-.3v-1c-.3-.4-.1-.7-.3-1.1v-1.2c-.1-.4 0-.8 0-1.2v-2l.1-.6c.1-.1.1-.1.1-.3v-.3c0-.1-.1-.3-.1-.4h0c0-.3-.1-.6 0-1 0-.3 0-.6-.1-.6v-1.2c.1 0 .1-.1.1-.4.1-.4.1-.6.1-.4-.1-.3.1-.6.1-.8-.1-.1 0-.1 0-.1v-.8c-.1 0-.1-.1-.1-.3v-.4c-.1-.3.1-.6-.1-1 .1-.4.3-.8.6-1l.1-.1.3-.1c.1-.1.3-.1.4-.3s.1-.1.3-.1h.3c.3 0 .6-.1.7-.1.3 0 .3.1.4.3l.1.1c0 .1.1.1.3.1.1.1.4.3.8.3h.1c0 .3.3.3.6.4l.1.1c.3.3.3.6.3.8l1.1.2zm7 23.1c-.1 0-.3-.1-.3-.3-.1-.1 0-.3.3-.1.1 0 .3 0 .3-.1.1-.1.3-.1.6-.3 0-.1 0-.1-.1-.1-.1-.4-.1-.6-.1-.7v-.1c-.1-.3-.1-.6 0-1l.1-.1.1.1c.1.1.1.3.1.6.1.1.1.1.1.3v.1c.1.1.3.3.3.6.1.3.1.6.1.8.1.1.1.1 0 .3s-.1.3 0 .7c0 .3-.1.3-.1.4-.1 0-.1.1-.3.1.1 0 0 .1-.4.1h-.3c-.1-.1-.3-.3-.3-.6.1-.3.1-.4.1-.6l-.2-.1zm6.3-8.6c0 .3.1.3.1.3-.1.1-.1.1-.3.1s-.3 0-.3.1c0 0-.1 0-.3.1-.1 0-.1.1-.1.1 0 .1 0 .3-.1.6-.1.1-.3.1-.4 0 0-.1-.1-.1-.1-.1v-.3c0-.1 0-.1-.1-.3-.1 0-.1-.1-.1-.3.1-.1.1-.1.3-.1.1-.3.1-.3.1-.4l-.6-.1c0-.1 0-.1.4-.1l.1-.1c.1-.1.1-.3.3 0h.1c.1 0 .1-.1.1-.1 0-.1.1-.1.3-.1.3 0 .6.1.3.1.1.1.3.1.3-.1.1 0 .1-.1.3-.1h.3v.1c-.1.1-.1.3.1.3.1 0 .1.1.1.1h-.3l-.4-.1v.4c.1 0 .3.1.4.1 0 .1 0 .1-.1.1-.1-.2-.1-.2-.4-.2zm-.5 3.5c-.1 0-.3 0-.3-.1-.1 0-.3-.1-.3-.1-.3 0-.4.1-.4.3-.3 0-.4-.3-.4-.6-.1-.1-.3-.1-.1-.3v-.3c.1-.1.1-.3.3-.3 0 0 .3-.1.6-.1l.1-.1c0-.1.1-.1.1-.1.1.1.1.1.1.3s0 .1.1.3.3.3.1.6l.1.5zm.8-5.9c-.3 0-.3 0-.3.3 0 .1-.1.1-.1.1-.1-.1-.3-.1-.6 0v-.1l.3-.3s0-.1.1-.1h.2c.1-.1.3-.3.1-.4h0v-.1c.1 0 0-.1.1 0l.1.1c.1.1.1.1.3.1 0 .1.1.1 0 .3l.1.1c.1.1.1.1.1.3l-.2.2c-.1 0-.1-.1-.3-.1v-.4h.1zm1.9-.7c-.3 0-.3.1-.3.3s0 .3-.3.3h-.1v-.3h.1c.1-.1.1-.3 0-.3l-.3-.3c.4-.1.6-.1.3-.1 0-.1.1-.1.3 0v.1c.1.2.2.1.3.3zm-5.7 2c.4-.3.4-.3.8 0 .1 0 .1.1.1.4h-.1l-.4-.1v-.1c-.2 0-.2-.2-.4-.2zm1.8 7c0-.1-.1-.1-.1 0-.1 0-.1.1 0 .1v.1c0 .1 0 .3-.1.3s-.1-.1-.3-.1v-.4h.1c.1 0 .1 0 .3-.1l.1-.1c.2-.1.2 0 0 .2h0zm0 .8c0 .1.3.1.3.1.1 0 0 .1 0 .3h-.3v.3c-.1-.1-.1-.3-.1-.3l.1-.3v-.1zm1.7-2.6c.1 0 .3-.1.4-.1.1-.1.1-.1.1 0v.1l-.1.1h-.3l-.1-.1zm.7-8.4c.1-.1.1-.3.1-.3.1 0 .3.1.3.3s-.1.1-.3.1c.1-.1.1-.1-.1-.1zm0 5c.1-.1.1-.1.3-.1l-.1.1.1.1-.1.1h-.1c-.1-.1-.1-.1-.1-.2zm.2 4.8c.1 0 .1 0 .1.1l.1.1c-.1.1-.3.1-.3 0l-.1-.1.2-.1zm1.1-9.4c-.1.1-.1.1-.3.1-.1-.1-.1-.1-.1-.3.2.2.2.2.4.2zm-1 7.4l.3-.3h.1v.1c0 .2-.1.2-.4.2zm-2.5 4.3h-.3v-.1c.3 0 .3.1.3.1zm2.8-2.3c0-.1 0-.1.3-.1v.1h-.3zm-1.9-8.3c.1-.1.3-.1.4 0H25zm-1.8 8c0 .1-.1.1-.3.1v-.1c-.3 0-.3-.1.1-.1l.2.1zm1.5-7.6c.1-.1.1 0 .1.1l-.1.1v-.2zm1.5.7c0-.1.1-.1.3-.1v.1s0 .2-.3 0zm.7-3c.1 0 .3 0 .3.1h0c-.2 0-.3 0-.3-.1zm-2.1 9.3l-.1-.1v-.1h.1v.2zm-5.1-30.2l.1-.1c0 .1 0 .1.1.1h.1-.3zm-1.2 14.7c0 .1 0 .1-.1.1h0c0-.1 0-.1.1-.1zm6 19c.1 0 .1.1.1.1h-.1v-.1zm2.1-7.6c0-.1 0-.1.1-.1h.1v.1h-.2zm-9.1-26.8c0-.1 0-.1 0 0h.1c.1 0 .1 0-.1 0h0zm6.2 35.8c0 .1 0 .1 0 0-.1 0-.1 0 0 0h0zM9.1 277.3h0v.1-.1zm18.3 21.9h0l-.1.1v-.1h.1zm-.2-.1c-.2 0-.2 0 0 0l-.1.1v-.1h.1zm-15-19h0c0 .1 0 .1 0 0 0 .1 0 .1 0 0h0zm4.5-1.4l-.1.1c-.4-.1-.3-.1.1-.1h0zm-5.5 6.6h0zm.8-5.8h0zm7.2 14.5c0-.1-.1-.1-.1-.1h.1v.1zm-20 9.5h0zM8.9 316h0z"/><path d="M43.5 288.6c-.1 0 0-.1-.1-.4-.1 0-.1-.1-.1-.3.1-.3.1-.6.1-.8v-.1c0-.3-.1-.4 0-.7 0-.1-.1-.3-.1-.3.1 0 .1-.1.1 0 .3.1.3 0 .4.1h.3c0 .1.1.1.1.1h.3c.1 0 .3.1.4.1.3-.1.6-.1.8-.4.3-.1.6-.1.8-.3.1 0 .4.1.6.1h.3c.6-.1.8-.1 1.1 0 0-.1.1-.1.3 0 .3.1.6.1.8.3l.1-.1c.3.1.4 0 .7-.1l.1.1c0-.1 0-.1.3-.3 0 0 .1 0 .1-.1.1-.1.3 0 .4-.1h.1c.6 0 .8-.1 1.2-.1.1-.1.6.1.8-.1.3-.1.7-.1 1-.1.1 0 .3-.1.6-.1.1.1.4 0 .6 0 .3 0 .6 0 .8-.1.1 0 .4-.1.6 0h.4c.1 0 .3 0 .4-.1.1.1.4 0 .6-.1 0-.1.1-.1.3 0l.1-.1c.3 0 .3 0 .4.1h.1c.1-.1.3-.1.4-.1.1.1.6.1.8.3.3 0 .6-.1.6-.3h0c.1-.3.1-.6.3-.7 0-.4.1-.3.3-.4.1.1.3.1.3 0l.1-.1c.1-.1.1-.3.1-.3V281l-.1-.1-.1-.8-.1-.6v-1.7l-.1-.8.1-.4v-1l.1-.3c-.1 0-.1 0-.1-.1l-.5-.5c-.1 0-.4.1-.6.1h-.3c-.1 0-.3-.1-.4.1h-.4c-.1-.1-.3-.1-.4 0h-.1c0-.1 0-.1-.1-.1s-.1 0-.3-.1c-.1-.1-.1-.1-.3-.1-.1 0-.3 0-.3.1-.3.1-.4.3-.6.3h-.7c-.1 0-.3 0-.4-.1 0-.3-.1-.3-.1.1h-.3c-.1.1-.1 0-.4 0-.1.1-.3.1-.3 0s-.1-.1-.1-.1v-.1c-.3.1-.7-.1-1 0l-.1.3c-.3 0-.4.1-.4 0h-.3v.1c-.1.1-.3.1-.3.1-.3-.1-.4-.4-.6-.6-.1-.1-.1-.1-.3 0h-.1c-.1.3-.1.4-.3.4-.1.1-.6.3-.8 0-.3 0-.3 0-.6-.3-.1 0-.1 0-.3.1-.3.1-.4.3-.8.3-.1.1-.3 0-.3 0-.1-.1-.1-.3-.3-.3-.1 0-.8.1-1 .3-.1 0-.3.3-.3.3 0 .1-.1.1-.4.1-.1 0-.3 0-.3-.1h-.1c-.1 0-.3 0-.3-.1-.1 0-.3-.1-.4-.1l-.3.3c-.3.1-.6.1-.7.1-.1-.1-.3-.1-.3 0-.3.3-.3.3-.4 0-.1-.1-.4-.1-.6.1h-.1c-.1-.1-.1-.1-.3-.1h-.1c-.1-.1-.3-.3-.6-.1-.4.1-.6 0-1 0-.1 0-.3-.1-.6.1h-.1c-.1-.1-.3 0-.6 0h-.2c-.1 0-.3.1-.4 0h-.3c-.3 0-.3-.1-.6 0-.1-.1-.1 0-.3-.1-.1.1-.1.1-.1 0h-.2c-.3 0-.4-.1-.6.1-.1.1-.3.1-.4.3s-.3.1-.3.1h-.1c-.3 0-.3 0-.4.1s-.1.1-.3 0H36l-.7.1c-.1-.1-.3-.1-.3-.1-.3-.1-.6.1-.6.3-.1.1-.3.3-.1.7 0 .3-.1.6-.1.7s-.1.1-.1.1v.3c-.1.3-.1.6 0 .8-.3.3-.1.6-.1.8-.1.1-.1.3 0 .4 0 .1-.1.4 0 .6v.1l-.3 1c.1.3 0 .6.1.6-.1.6 0 .7.1 1.1 0 .1-.1.3-.1.3-.1.7-.3 1-.4 1.4l-.1.1-.1.6v.6c-.1 0-.1.1-.1.1 0 .1-.1.3-.1.4.1.1.1.3.1.4s-.1.1 0 .3c-.1.1-.1.3 0 .4v.3c0 .3-.1.6 0 .8.1.1 0 .3 0 .6 0 .1-.1.1-.1.1v.1c0 .3.1.6.3.7-.1.1-.1.3 0 .4s.1.3 0 .6c-.1.1-.1.3-.1.3.1.4.1.6.1.8-.1.3.1.4-.1.6v.2s0 .1-.1.3l.1.1c0 .1 0 .3-.1.6v1.2c-.1.1 0 .4-.1.6-.1 0-.1.1-.1.3.1.1 0 .1 0 .4.1.4-.1.7-.1 1v.1l-.1.1v.3c-.1.1-.1.1-.1.4l-.1.1c-.1.3-.1.7 0 1v.1c.1.1 0 .3 0 .6l-.1.4v.3c-.1.3 0 .6-.1.8v.1c0 .1.1.1.1.3-.1.4-.1.7-.1.7-.1.3 0 .6 0 .7-.1.3 0 .6-.1.8v.1c0 .4 0 .7-.1.7.1.1.1.4.1 1 0 .3-.1.6-.1 1h.6c.1.4 0 .6 0 .8v.1c-.1.4-.3.8-.3 1.2v1.6c0 .1 0 .4-.1.8 0 .3-.1.4-.1.8 0 .3-.1.6-.1 1.1v1a1.76 1.76 0 0 0 .1.6c0 .3 0 .4-.1.8-.1.1-.1.1 0 .1v.1c-.1.1 0 .3.1.4.1 0 .1.1.3.1l.1.1h.3c.1 0 .3-.1.6-.1.3.1.6.1.7 0v.1h.1c.1-.1.4-.3.7-.6.4-.1.6-.1.4-.1h0c.1 0 .1 0 .1-.1s.1 0 .3.1c.1.1.3.4.6.4l.3-.3c.1 0 .3-.1.3-.1h.1c.1 0 .4.1.6.4.1.3.1.3.6.1.1-.1.3-.4.4-.4h.1c.1-.1.3-.1.4 0 0 .3-.1.6 0 .6h.5c.1 0 .3 0 .4-.1l.1-.4c0-.1.1 0 .3.3v.1c.3.1.3 0 .6.1v.1h.1c.1 0 .3 0 .6-.1 0-.1.1-.1.3-.4.1.1.1.1.3 0v.3c.1-.1.1-.3.1-.3.1 0 .3 0 .6.3.1 0 .3 0 .4-.3.1.1.3.1.6.6.1.1.3.1.6-.1s.6-.3.7.1l.1.1c.3-.1.4-.1.6-.1.1-.6.3-.6.4 0 .1.3.4.1.7 0 .1-.1.1-.1.3-.1.1-.1.3-.1.7 0h.1c.1-.3.3-.1.4 0h.1c.3 0 .8.1 1 .1.1.1.3.1.3.4v.2c.3.1.6.1.8 0 .1-.1.3 0 .6.1h.5c.1 0 .3.1.6 0 .1-.1.4-.1.6-.3.3-.1.4-.1.6.1.1.1.1.1.3.1v-.1c0-.1.1-.1.3 0 .1.1.3 0 .3.1h.1l.1.1c.1 0 .1-.1.3-.1 0-.1 0-.1.1-.3l-.1-.1h.1v.1c.1.1.3.1.3.1.1-.1.1 0 .1.1s.1.1.1.1v-.1h.1c.1 0 .1.1.3.1.3-.3.1-.3.6-.1-.1.1-.1.1.1.1v-.3c.1.1.1.3.4.3.1-.1.3 0 .4 0s.1 0 .1-.3c-.1 0-.1.1.3.1.1.1.3.1.3.1 0-.1-.1-.3-.1-.3.3-.1.4 0 .6-.1 0 .1 0 .3-.1.4l-.1-.1h-.3c.1 0 .1.1.3.1 0-.1.1 0 .3 0 0 .1.1.1.3.1.1 0 .1 0 .1-.1.1.1.3 0 .3.1.1 0 .3 0 .3.1.3-.1.6-.1.8 0 0 .1.1.1.3.1.3-.1.7-.1 1-.3h.1c.1 0 .3-.1.3-.1l.3-.1c.1-.3.1-.4.1-.7v-.6l.1-.1c-.1-.1 0-.1 0-.3-.1-.1.1-.1-.1-.3v-.1c.1-.1.3-.4.3-.6.1-.1.1-.3 0-.6 0-.1 0-.1.1-.3s.1-.4-.1-.8c0-.1 0-.1.1-.1.1-.3.1-.6 0-.7 0-.3.1-.3.1-.4v-.6c0-.3.1-.6 0-.8 0-.3-.1-.4-.1-.6.1-.3.1-.4.1-.4 0-.1-.1-.3-.3-.1-.3-.1-.3-.3-.4-.3-.4-.1-.6 0-1-.3-.1.1-.3 0-.4 0l-.1.1c-.4 0-.7.1-1.2-.1h-.1c-.3 0-.6 0-.6-.1-.3 0-.3-.1-.4-.3-.1 0-.1 0-.3.1-.3.1-.6.1-.7-.1h-.6c-.1 0-.1 0-.1.1-.1-.1-.3-.1-.7-.1h-.9c-.1 0-.4-.1-.8-.1 0-.1-.1-.1-.1-.1-.3 0-.4 0-.6-.1-.1.3-.3 0-.3-.3-.1-.1-.4-.1-.8-.1-.3 0-.6 0-1 .3-.4 0-.6.1-.1.1 0 0-.1.1-.6.1-.1 0-.3 0-.4.1 0-.1 0-.1-.1 0-.4.1-.8 0-1-.1-.3 0-.4 0-.6-.1h-.1c-.1.1-.1.1-.3.1 0-.1-.1-.1-.3 0-.3.3-.6.1-.8.1h-.8c-.1-.1-.3-.1-.6 0-.1.1-.1 0-.3 0h-1c0 .1-.1 0-.1 0l-.1-.1c-.1-.1-.3-.1-.3-.1-.1 0-.1.1-.3 0h-.4c-.1.1-.1.1-.1 0-.1 0-.3 0-.6.1h.8c-.3-.1-.6 0-.8 0H43l-.8-.6-.1-.1c-.1-.1-.7-.4-.7-.6v.6c.1-.1 0-.1.1-.3 0-.3.1-.7 0-.8s-.1-.1 0-.1c.1-.1.1-.1.1-.3-.1-.1 0-.3 0-.8 0-.3.1-.4 0-.6v-.1c.1-.1.1-.3.1-.7 0-.3 0-.6-.1-.6 0-.1.1-.3.1-.3 0-.1 0-.1.1-.1-.1 0-.1-.1-.1-.1h0c.1 0 .1 0 .1-.1s0-.1.1-.3c0-.1-.1-.3-.1-.3v-.1c-.1-.3-.1-.6 0-.7l.1-.1v-.7c.4-.1.7 0 1 0l.1-.1c.1.1.1.1.3.1.1 0 .1 0 .3-.1.1.1.3.1.3 0 .3 0 .3.1.6 0 .1 0 .3.1.3.1h.1c.3 0 .4-.1.7 0h.1c.1-.1.3 0 .6 0s.4-.1.3-.1h.8l.1.1c.1.1.3.1.4-.1.1.1.3 0 .6 0 0 .1.1.1.1.1.3-.1.6 0 .8 0h1.5l.1.1c.1.1.3 0 .3-.1.3 0 .6.1.8-.1.4.1.8.1 1 .1.6 0 1.1-.1 1.4-.3v-.1c.3-.1.3 0 .3-.1.1 0 .6.1.8 0h.1c.3 0 .4.1.6 0l.1.1v.1h.3c.1-.1.3-.1.3 0h1.3c.3.3.6.3 1 .3h.1c.4 0 .8-.1 1-.3.4-.1.3-.3.6-.6 0-.1 0-.1.1-.3l.1-.1h.1c.3-.1.4-.1.4-.3v-.1c.1-.1.1-.1.1-.3-.1-.3.1-.6-.1-.8v-.1c.1-.4.1-.7.1-1v-.8c0-.3 0-.6.1-.6v-.1c-.1-.3-.1-.4 0-.6s0-.3 0-.4v-.5c-.1-.3-.1-.4 0-.6 0-.1.1-.6 0-.8 0-.1 0-.3.1-.3l-1.7.1v-.1h-1.8l-1.7-.1h-1.7l-1.4.1H52l-.3-.1-3.3-.1-1.2-.1-.6-.2h-1.4l-.7-.1-.6.1h-1.3l.1-.4.8-2.8z"/><path d="M68.7 307.5c-.1 0-.1-.1-.1-.1h.1c-.2-.2 0-.1 0 .1zm14 7c-.1-.4.1-.3.1-.4l.1.1h.1l-.3.3zm-1-3.3l.1.1c0 .1-.1.3-.4.3l.3-.4zm-3.3 3.7c-.1-.3 0-.3-.1-.4l.6.3v.1h-.5zm4.9 0l-.3.3h-.3c0-.1.1-.1.1-.3l.3-.3c.2.1.2.3.2.3zm1.3 0h-.1c-.1 0-.3 0-.3-.1l-.1.1.6.6c-.4 0-.6-.1-.8-.1l.4-.8c.1-.1.1-.1.1-.3l.1-.1c.1 0 .1 0 .3.1l-.2.6v.4-.4zm-.8-4.4c-.3.1-.1.3-.1.6-.4.1-.6-.4-.8-.6.1-.3.1-.4.1-.6 0-.1.1-.1.3-.1s.1.1.3.1l.2.6zm-2.1.7c-.1 0-.1.1-.3.1h-.1v-1c.1-.1.1-.3.3-.1l.6.3v-.1l-.1-.1.1-.1c.1.1.3.1.4.1v.1c-.1.3-.3.4-.4.4s-.3-.1-.4-.1c-.1.2-.1.5-.1.5zm-2.7.8c-.1-.1-.1-.1-.1-.3.1-.1.1-.1.3-.1a.37.37 0 0 0 .4.3c0 .3 0 .4.1.4 0 .3-.1.3-.1.4-.1-.3-.3-.3-.6 0-.1.3-.3.4-.4.4s-.1-.1-.3-.4c.1-.1.4-.1.4-.6 0 0 .2 0 .3-.1zm-.7-.3c-.1-.4-.1-.6-.1-.7-.1-.3 0-.6.1-.6s.1-.1.3-.3l.8-.8c0 .1 0 .1.1.1v.1c-.1.6-.3 1.2-.8 1.4l-.3.3c.2.2.2.4-.1.5zm1.1 2.6c-.3-.1-.3-.1-.6-.3.3-.3.3-.4.4-.7.1.7.3.3.6.1.1.1.3.3.3.4v-.7c0-.1 0-.1-.1-.1h0c0-.1 0-.1.1-.1h.1c.1-.1.3-.3.1-.4-.1-.6.1-.8.4-1.2 0 0 .1-.1.1-.3s.1-.1.1-.3c0 .1.1.3.1.3 0 .1 0 .1.1.1v.4h.3c-.3.3-.3.6-.3.8.1 0 .1.1.3.1.1-.1.1 0 .3.1 0 .1.1.4 0 .6s-.3.6-.6.1c0 0 0 .1-.1.1 0 .1 0 .3.1.3-.1.1-.4.3-.3.6.1.1 0 .3-.1.3s-.3.1-.4.1l-.3.3c-.1-.1-.1-.3-.1-.3-.4-.1-.3-.1 0-.4h0c.1 0 .1 0 .1-.1-.3-.2-.5.1-.6.2zm16.5-3.7l-.1-.3c0-.1-.1-.1-.1-.1-.1-.3 0-.7-.1-1 0 0 .1 0 .1-.1-.1-.4 0-.7 0-1.1.1-.3.1-.7 0-1 0 0 .1-.1.1-.6.1-.1.3-.3.1-.8V304c0-.3.1-.4.3-.6h.1l-.4-1-.1-2.3-.1-3.7c-.1-.1-.4-.3-.6-.3 0 .1-.1.1-.4-.1-.4-.1-1.4-.7-3.4-2.1l-6.5-1.7-5-2.5-3.6-1.4-1.4-.3-.3-.1c.1-.3.1-.6 0-.8v-.1c.1 0 .1 0 .1-.1s0-.3.1-.3v-.3l.1-.1c0-.1 0-.1-.1-.1v-.8l.3-.3v-.6c-.1-.1-.1-.1-.1-.3h.9c.1-.1.6-.1 1-.1h.1c.1 0 .4 0 .8.1h.1l.1.1v.1l6.6-.1.6-.4h.4c.1.3.4 0 .6 0h.3c.1.1.3.3.6.3h.8c.1 0 .3 0 .3.1h3.4c.1 0 .3-.1.4-.1.3.1.6.1.7 0h.1c.1.1.1.1.3.1h2c.1-.1.6 0 .7-.1.1 0 .1-.1.1-.3-.1-.4.1-.8.1-1 .1-.4.1-.7.1-1v-.2l.1-.1v-.8c-.1-.3-.1-.6-.3-.8v-.4c0-.1 0-.1-.1-.1.1 0 .1-.3.1-.6v-.6c0-.4.1-.6.1-.8 0-.4 0-.6-.1-.7v-.1c0-.1.1-.6 0-.8 0-.1-.1-.3-.1-.4h-.1c-.1 0-.3-.1-.6 0h0c-.3-.1-.3 0-.6-.1l-.1.1v.1c-.3.1-.6 0-.7 0s-.3-.1-.3 0H93c-.1-.1-.1-.1-.4-.1 0-.1-.3-.1-.8-.1h-2.2c-.1 0-.3-.1-.4-.1h-.1c-.1.1-.3.1-.3.3-.1.1-.3.1-.6.1-.1-.1-.1-.1-.1 0h-.3c-.1 0-.3-.1-.6 0-.1-.1-.3-.1-.6-.1-.1 0-.3-.1-.6-.1h-1.1c-.3 0-.6 0-.6.1h-.1c-.1 0-.1-.1-.1-.1H84c-.3 0-.4-.1-.4-.1-.1 0-.3-.1-.6 0 0 .1-.1.1-.3.1h-.6c-.1-.1-.3-.1-.6 0h-.3c-.1 0-.1 0-.3.1h-.1c-.1-.1-.1 0-.3.1 0-.1 0-.1-.1-.1s-.1-.1-.3-.1h0c-.4.1-.7 0-1 0H78c-.1-.1-.3 0-.4 0h-1.1c-.1 0-.1-.1-.3 0h-.8c0 .1-.3.1-.6.1h-.4c-.1-.1-.4 0-.7-.1-.3.3-.6.1-1 .1-.1-.1-.3-.1-.4 0-.1 0-.3.1-.6.1-.1 0-.3-.3-.6 0H71c-.1-.1-.3-.1-.4-.1-.3 0-.6 0-1-.1h-1c-.4 0-.8-.1-1.1-.1h-.4l-.3-.1h-.6c-.1 0-.4-.1-.6.1h-.1c-.1-.1-.1.1-.3.1l-.1.3c-.1.3-.1.6-.1.8v.7h.3l-.3.1-.1.1v.3l-.1.1c-.1.1 0 .3 0 .4v.7c.1.1 0 .1.1.1 0 .1 0 .1.1.3v.8c0 .1.1.1.1.1v.4c0 .2 0 .3.1.3v.1c0 .1-.1.6-.1.8v.4s.1.1.1.3-.1.1-.1.3c0 .1.1.3.1.3 0 .1 0 .1.1.1v.6h-.1v.1c0 .1.1.3.1.6h.1v.5c0 .1 0 .1-.1.1v.3c-.1 0-.1.3-.1.6l.1.1v.3c0 .1.1.1 0 .3v.1c0 .1-.1.1-.1.1.1.3 0 .6.1.7v1s0 .1-.1.1v1c-.1.1-.1.1-.1.3 0 0 0 .1.1.1v1.4l-.1.1v1.3c0 .1.1.3.1.4l4.3 2.3 1.4.8 7.3 2.1 4.7 2.3 3.3 1v.3c.1.4.1.7.1 1.1 0 0 .1.1.1.4v.1c-.3.3 0 .4 0 .6-.1.4-.1.6-.1.6-.1.3-.1.4 0 .6 0 .4.1.6-.1 1 .1.3 0 .6.1.8-.1-.1-.1-.1-.3-.1s-.3-.1-.6-.1h-1c-.3 0-.6 0-.6.1h-.1c-.1 0-.1-.1-.1-.1h-.1c-.3 0-.4-.1-.4-.1-.1 0-.3-.1-.6 0 0 .1-.1.1-.3.1h-.6c-.1-.1-.3-.1-.6 0h-.3c-.1 0-.1 0-.3.1h-.1c-.1-.1-.1 0-.3.1 0-.1 0-.1-.1-.1s-.1-.1-.3-.1h0c-.4.1-.7 0-1 0h-1.1c-.1-.1-.3 0-.4 0H76c-.1 0-.1-.1-.3 0h-.8c0 .1-.3.1-.6.1h-.4c-.1-.1-.4 0-.7-.1-.3.3-.6.1-1 .1-.1-.1-.3-.1-.4 0-.1 0-.3.1-.6.1-.1 0-.3-.3-.6 0h-.1c-.1-.1-.3-.1-.4-.1-.3 0-.6 0-1-.1h-1c-.4 0-.8-.1-1.1-.1h-.4l-.3-.1h-.6c-.1 0-.4-.1-.6.1H65c-.1-.1-.1.1-.3.1l-.1.3c-.1.3-.1.4-.1.8v1.3c-.1.3 0 .4 0 .6 0 .4-.1.8-.1 1.2v1.1c.1.1.1.3 0 .3v1.2c-.1.1-.1.1-.1.4 0 .1-.1.3-.1.4s.1.3.1.3c0 .1 0 .1.1.1 0 .1.1.3 0 .6h-.1v.1c0 .1.1.3.1.6h.1l3.2.1h1.9l.8.6v-.1c.3-.1.3-.3.4-.3.3 0 .3 0 .3.1h.6c.1-.1.6-.1.8-.1h.1c.1.3.3 0 .6 0h1.4c.1-.1.6-.1 1-.1h.1c.1 0 .4 0 .8.1h.1l.1.1v.1l6.6-.3.6-.4h.4c.1.3.4 0 .6 0h.3c.1.1.3.3.6.3h.8c.1 0 .3 0 .3.1h3.4c.1 0 .3-.1.4-.1.3.1.6.1.7 0h.1c.1.1.1.1.3.1h2.1c.1-.1.6 0 .7-.1.1 0 .1-.1.1-.3-.1-.4.1-.8.1-1 .1-.4.1-.7.1-1v-.2l.1-.1v-.4h.1l.8-2.9zm-27.2-34.8c-.1 0-.1-.1-.1-.1l.1-.1c-.2-.1 0 .1 0 .2zm26.7.6h0v.1-.1zm-24 2.7c.1 0 .3.1.3.1 0 .3-.1.3-.4.3l.1-.4zm-3.3 3.7c-.1-.1-.1-.3-.1-.4l.6.3v.1h-.5zm5.4-4.2c-.3 0-.1.3-.1.6-.4 0-.6-.4-.7-.6.1-.3.1-.4.1-.6s.1-.3.3-.1c.1 0 .1.1.3.1l.1.6zm-2.1.5l-.1.1h-.1v-1c.1-.1.1-.3.3-.1l.7.1-.1-.1c.1 0 .1 0 .1-.1.1.1.3.1.4.1v.1c-.1.3-.3.3-.4.3-.1.1-.3-.1-.4-.1-.2.6-.4.7-.4.7zm-2.6.8c-.1-.1-.1-.3-.1-.3.1-.1.1-.1.3-.1a.37.37 0 0 0 .4.3c0 .3 0 .4.1.6 0 .1-.1.3-.1.4-.1-.3-.3-.3-.6 0l-.4.4c-.1-.1-.1-.3-.3-.4.1-.1.4-.1.4-.6-.1 0 0 0 .3-.3zm-.7-.2c-.1-.4-.1-.6-.1-.7-.1-.3 0-.4.1-.4l1.1-1.1c0 .1 0 .1.1.1v.1c-.1.6-.3 1.2-.8 1.4-.1 0-.1.1-.3.3.1.1-.1.1-.1.3zm1.1 2.6c-.3-.1-.3-.1-.6-.3.3-.3.3-.4.4-.7.1.8.3.3.6.1.1.1.3.3.3.4v-.8c0-.1 0-.1-.3-.1v-.1l.1-.1h.1c.1-.1.3-.3.1-.6-.1-.6.1-.7.4-1.1 0-.1.1-.1.1-.3s.1-.1.1-.3c0 .1.1.3.1.3 0 .1 0 .1.1.1v.4c.1 0 0 .1.3.1-.3.3-.3.6-.3.8.1.1.1.1.3.1.1-.1.1 0 .3.1v.6c-.1.3-.3.6-.6.1 0 0 0 .1-.1.1 0 .1 0 .3.1.3-.1.3-.4.3-.3.6.1.1 0 .1-.1.3-.1 0-.3.1-.4.3l-.3.1c-.1-.1-.1-.3-.1-.3-.3-.1-.1-.3 0-.4 0-.1 0-.1.1-.1s.1 0 .1-.1c-.3.2-.5.3-.5.5z"/><path d="M134.5 273.6c0 .1-.1.1-.1.1h-.1c-.4.1-.6.1-1 .1-.1 0-.1 0-.1.1s-.1.3 0 .4.1.1 0 .3c-.1.3-.3.4-.6.3v.1h-.4c-.1 0-.1 0-.3.1 0 .1-.1.1-.3.1-.1-.1-.1-.1-.4-.1l-.6.3h-.4c-.1-.1-.3-.1-.3 0-.1 0-.3 0-.3-.1l-.1-.1h-1c-.3 0-.3.1-.4 0h-.1c-.1 0-.1 0-.3.1-.1 0-.1-.1-.1-.1h-.6c-.1.1-.3 0-.4-.1-.1.1-.3.1-.6.1 0 .1-.1.1-.3.1l-.1-.3c-.1.1-.3.1-.3.3-.1.1-.3.1-.6.1l-.1-.1-.3.1c-.1 0-.1-.1-.3-.1-.1.6-.6.6-.8.3l-.1-.1c-.1 0-.3 0-.3.1-.1.1-.3.1-.3-.1-.1 0-.3 0-.3.1-.1.1-.1.1-.3.1-.3-.1-.6 0-.7-.1s-.3.1-.4-.1h-.7c-.1-.1-.3-.1-.6-.1-.1.1-.1.1-.3-.1 0-.1-.1-.1-.1-.1-.1.1-.1.1-.1 0h-.8l-1.1.3h-.1c-.1-.1-.3-.1-.6 0h-.3c0-.1-.1-.1-.3-.1h-.3c-.1-.1-.4-.1-.6-.1s-.3-.1-.3-.1l-.1-.1h-.1l.3.3c-.4.1-.8.3-1 .3s-.1-.1-.3 0-.3.1-.4-.1c-.3.1-.6.1-.7.1s-.1.1-.3.1h-.7c-.1.1-.3.1-.6 0h-1.5l-1 .3c-.6 0-.8 0-.8.1h-.1c0 .1-.3.1-.7.1-.1 0-3.4-.1-3.6-.1s-.3 0-.3.1c-.1 0-.4.1-.6.1-.4-.1-.8-.1-1.2-.1-.4.1-1 .3-1.4.1h-.1l-.1.3-.3 1.2.1.8v7.2l.1.7h1c.1-.1.1-.3.6-.1.1.1.3.1.4 0h.4c.1 0 .3.1.6 0 0 0 .1 0 .4.1.1-.1.3-.1.3-.1h4l.8-.1h.6c.3 0 .6 0 .8.1.3-.1.3-.1.6-.1.4-.1.6 0 1 0h.1c.1 0 .3 0 .3-.1s.1-.1.3 0 .1.1.3.1l.3-.1c.1 0 .3 0 .8-.1.3-.1.3 0 .4-.1v.1l.1.1c.1.1.3.4.3.7v.4c0 .1-.1.1-.1.3s.1.4 0 .6c0 .3-.1.6-.1 1 0 .1.1.1-.1.4v.1c0 .3.1 1.1 0 1.4v.1c.1 0 0 .3-.1.6 0 .1-.1.1 0 .1v.3l-.1.1c.1.3.1.8-.1 1.4v.2c.1.1 0 .3 0 .6-.1.4-.3.8-.1 1.1 0 .1 0 .1-.1.1v.6c0 .4 0 .7-.1 1 .1.3.1.4.1.6 0 .1 0 .1.1.1v.4c0 .3-.1.6.1.6-.1.4-.1.8.1 1-.1.1-.1.3-.1.6v.7c.1 0 .1.1 0 .4v.1c.1 0 .1.1 0 .4v.3c0-.1-.1-.1-.1.3.1 0 .1 0 .1.1v1c0 .4-.1.7-.1 1.1v2.2c-.1.3-.3.4-.1.7v.4c0 .2 0 .1-.1.1-.1.7-.1 1 .1 1.2 0 .1 0 .1.1.1.1.1.1.3.1.4.1 0 .1 0 .1.1 0-.1.1-.1.1-.1 0-.1 0-.1.1-.1h0c.1.1.1.3.1.3s-.1.1-.3.1c0 .1 0 .1-.1.1h-.1c0 .1-.1.1-.1.1-.1 0-.1.1-.1.3.1.1.1.3-.1.4-.1.1-.1.1-.1.3-.1.1-.1.3-.1.6v.6c0 .3 0 .6-.1 1 0 .3-.1.6.1.8h0c-.1.3-.1.6-.1.8v2c0 .3 0 .3.1.1h.1c.3 0 .4-.1.6-.1s.1-.3.1-.3c.1-.1.1-.1.3-.1l.1.1c.1 0 .3 0 .3.1.1 0 .3-.1.6-.1.1.1.1-.1.3 0 .3-.1.3-.3.4-.3l.3.3c.1-.3.3-.3.3-.1.3.1.4.1.3.1.3-.1.3-.1.4 0h.4l.1.1c.1.1.3 0 .3-.1l.1-.1c.3.4.3.3.6.1.1.3.1.1.3.1.3.1.3-.1.6-.1.1.1.1.1.3.1.1 0 .1.1 0 .1.3.1.6.1.6.3.1.1.1.1.3.1 0 .1.1 0 .1-.1-.1-.1-.1-.3.1-.3h.3v-.1c.1.1.1-.1.4-.1-.1 0-.1-.1-.1-.3l-.1-.1c.1 0 .1-.1.3-.1-.1-.1-.3-.1-.1-.3.3 0 .3.1.6.3 0 .1.1.1.1.3h.3c0-.1-.1-.3-.1-.3l.1-.1-.1-.1c0-.3.1-.1.1-.3l-.3.1v-.1l.1-.1c-.1-.3-.3-.6-.1-.6l.1.1c0-.1.1-.1.1-.1h0l.1.1v-.3l.1-.3h-.1c-.1-.1-.1-.1-.1-.4v-.4c.1 0 0 .1.1.3h.1c0-.1.1-.3.1-.4l.2-.2c0 .1.3.3.1.6 0 .1.1.3.1.3 0 .1 0 .1.1.3.1-.3.1-.3.1-.6h-.1v-.1l.1-.1v.1-.4c.1-.1 0-.4.1-.6v-.1c-.1-.1 0-.1 0-.3v-.6l-.1-.1c0-.1-.1-.1-.1-.3.1-.1.3-.1.3-.3-.1-.1-.1-.1-.1-.3.1-.1.1-.1.1-.6v-.3c.1-.1.1-.1 0-.3 0-.3 0-.3.1-.4v-.1c-.1 0 0-.1 0-.4v-.4c.1-.3.1-.6 0-.8v-.3c0-.3.1-.6 0-1-.1-.1 0-.1-.1-.1v-.3c-.1-.1-.1-.1 0-.3.1 0 .1-.1.1-.1 0-.3.1-.4 0-.6v-.1c0-.1-.1-.3-.1-.4-.1-.1-.1-.3-.1-.6l.1-.1c.1 0 .1-.1.1-.3s0-.3-.1-.3c-.1-.3-.1-.3-.1-.4s-.1-.4-.1-.8v-.1c.1-.1 0-.3 0-.4s0-.3-.3-.3l-.1-.1c-.1 0-.1-.1-.1-.1 0-.1 0-.1-.1-.1v-.1h.4c-.3-.3-.1-.6-.1-.8s-.1-.6 0-.7c0-.1-.1-.3.1-.3.1-.1.1-.3 0-.3-.1-.1-.1-.3 0-.4s0-.3 0-.4c0-.3 0-.3-.1-.4 0-.3.3-.6.1-.8l.1-.1v-.4c.1-.1-.1-.4.1-.6v-.4c0-.4.1-.7.1-1 .1-.1 0-.3 0-.6v-.1l.1.1h.3v-1c0-.1-.1-.1-.3-.1v-.1c0-.3.1-.6 0-.8v-.1c0-.3.1-.6.3-1v-1.4c0-.3 0-.4.1-.4 0-.1.1-.3.1-.6v-.1c0-.1.1-.1.1-.3s0-.1.1-.1v-.6c0-.3.1-.4.1-.7s0-.4.1-.8c0-.1.1-.1 0-.3v-.7c.1-.1.4-.7.8-.6.1 0 .1 0 .1-.1.3-.1.6-.1.6 0 .3.1.7.3.8.4h.4l.1-.1c.1-.1.3-.1.3.1l.1-.1c.3 0 .7.1 1 0s.7-.1 1-.1c.1 0 .1.1.1.1h.6c.1.1.1.1.1 0 .1-.1.4-.1.7 0 .3 0 .3.1.4.1.3-.1.6-.1.6-.1h.4c.1.1.3.1.6.1.1-.1.3-.1.6 0h.6c.1.1.4.1.8 0h.1c.1 0 .3 0 .4.1 0 .1 0 .1.1.1h.4a2.18 2.18 0 0 1 .6.1l-.1-1.8V281l-.1-1 .3-1.8V275h-.3c-.1 0-.3-.1-.3-.3s-.1-.1-.1-.1c-.1-.1-.1-.1-.1 0h-.1c-.1 0-.3-.1-.3-.3-.6-.3-.6-.4-.6-.7zm-19.8 41.3l.3-.4.1.1c.1.1.1.1.3 0 .1 0 .1 0 .1-.1-.1 0-.1-.1-.1-.1l.2-.2c0-.1.1-.1.3-.1v-.3c.1 0 .3 0 .4.1.1 0 .3-.1.1-.3 0-.1.1-.1.1-.1v.3c.1 0 .1 0 .3.1l-.3.6c.1-.1.1-.1.4-.3v-.4c0-.1.1-.1.1-.3v.4h.1c0 .1 0 .1.1.3 0 0 0 .1-.1.1.1 0 .3-.1.3-.3v.3c.1-.1.3-.1.3 0h.3l.1-.1c.1-.1.3-.1.3.3l.3.1c0 .1.1.1.1.1.1 0 .1 0 .1.1.1.1.3.1.4.1s.1 0 .1.1.1.4.1.7c0 .1-.1.1-.3.3 0 0-.1.1-.3.1 0-.1 0-.1-.1-.1-.1.1-.3.3-.4.1l-.1.3h-.1c-.1 0-.1 0-.1.1 0-.1-.1-.1-.1-.1-.1-.1-.3-.3-.6-.3h-.1c-.3 0-.3 0-.4-.3l-.1-.1c-.1.1-.1.3-.1.3v.1c.1.1-.1.3-.3.3l-.1-.3c-.1.1-.1.3-.3.3-.3 0-.4-.1-.1-.6-.1 0-.1 0-.3-.1v-.1c-.1 0-.1-.1-.3-.1-.1-.1-.1-.3.1-.3l.1-.1c-.1-.1-.1-.1-.3-.1l-.2.2c-.1-.1-.1 0-.3 0 .2-.2.2-.3 0-.3v-.3c-.3 0-.3-.1-.3-.3 0-.1 0-.1.1-.1l.2.7zm7.7-2.6h0v-.4h-.1c-.1-.1 0-.3.1-.3 0 .3.1.3.3.3-.1.1-.1.3 0 .6l-.3.6-.1-.3v.1c0 .1-.1.1-.1.1l-.1-.1c.2-.2.2-.4.3-.6h0zm11.6-38.1c0-.2 0-.2 0 0l.1-.1c.3.3.3.6 0 .7-.1-.2-.1-.5-.1-.6zm-18.4 3.8c.3 0 .6 0 .6-.1.1 0 .1.1.1.1h-.1c0 .1 0 .1-.1.1s-.1.1-.3.1h-.3c.1.1.1.1.1-.2zm5.6 37.8l-.1.1c-.1 0-.1-.1-.1-.1v-.3l.3-.1c-.1.3-.1.4-.1.4zm-6.7 0c0-.1.1-.1.1-.3h-.1c-.1 0-.1 0-.1-.1v-.1c0-.1.1-.1.1-.1.1 0 .1.1.1.3s0 .1.1.3h-.2zm7-.9c-.3-.1-.4-.1-.4-.3v-.1h.3c-.2.1.1.1.1.4zm-5.9 1.4s-.1 0-.1-.1l-.3-.3c.1-.1.3-.1.3 0l.1.4zm-1.1-38c-.1-.1.1-.3.1-.4l.1.3c0 .1-.1.1-.2.1zm-1.4 32l.1-.1s.1-.1.3 0c0 .1 0 .1-.1.3-.1 0-.1 0-.1.1l-.2-.3zm9.2 2.9c.3 0 .3.2 0 0l.1.4-.3-.1c.2-.4.2-.4.2-.3zm-.4.6c-.1.1-.3.1-.3-.1.1 0 .1-.1.1-.1.1 0 .2.2.2.2zm.1-.3c.1.1.1.1.3.4-.1 0-.3-.1-.3-.4-.1.3-.1.1 0 0zm-5.9-35.8h.3v.1h-.1c-.2.1-.2.1-.2-.1h0zm5.1 36.1c0 .1-.1.1-.1.1 0-.1.1-.3.3-.3l-.2.2zm1.8-1.7v-.3l.1.1s0 .1-.1.2zm-1.8 1.7c.1 0 .1.1.3.1-.2.2-.3 0-.3-.1zm-4.3-1c0 .1-.1.3-.1.3-.1 0 0-.1.1-.3h0zm5.7.6l.1.1c0 .1-.1.1 0 .1l-.1-.1v-.1zm-5.2-.7c0 .1-.1.3-.1.3-.2-.2-.1-.3.1-.3zm-3.1 2.3c-.1 0-.1 0 0 0-.1-.1-.1-.1.1-.1 0 .1 0 .1.1.1h-.2zm6.4-.5v-.2c.1 0 .1.2 0 .2zm6-30.1l.1.1-.1-.1zm8.3-9.7h0c-.1 0-.1 0-.1-.1-.1 0-.1 0 .1.1h0zm-14.9 40l-.2.2c0-.1 0-.1.1-.1h.1v-.1zm1.2 1.1c0 .1 0 .1.1.1h-.1c-.1.1-.1.1 0-.1h0zm-4.8-3c0 .1-.1.1-.1.1 0-.1.1-.1.1-.1zm4.8.4c0-.1 0-.3-.1-.3.1.1.3.2.1.3 0-.1 0-.1 0 0zm-4.2 3.3h0c-.1-.1-.1-.1 0-.1 0 .1.1.1 0 .1h0zm.3-4.1h0c-.1-.1-.1-.1 0-.1v.1zm-.3 0c-.2.1-.2.1 0 0l-.1.1.1-.1zm-2.4 4h0zm8.3-14.2h0c0-.1 0-.1 0 0h0z"/><path d="M148.6 288.6c-.1 0 0-.1-.1-.4-.1 0-.1-.1-.1-.3.1-.3.1-.6.1-.8v-.1c0-.3-.1-.4 0-.7 0-.1-.1-.3-.1-.3.1 0 .1-.1.1 0 .1.1.3 0 .4.1h.1c.1.1.1.1.3.1h.1c.1 0 .3.1.6.1.3-.1.6-.1.8-.4.3-.1.6-.1.7-.3.3 0 .4.1.7.1h.3c.4-.1.8-.1 1.1 0 0-.1.1-.1.3 0 .3.1.6.1.8.3l.1-.1c.3.1.4 0 .7-.1l.1.1c0-.1 0-.1.1-.3.1 0 .1 0 .1-.1.1-.1.3 0 .4-.1h.1c.6 0 .7-.1 1.1-.1.3-.1.6.1.8-.1.3-.1.7-.1 1-.1.1 0 .3-.1.6-.1.1.1.3 0 .6 0s.7 0 .8-.1c.3 0 .4-.1.7 0h.3c.3 0 .4 0 .4-.1.3.1.4 0 .6-.1.1-.1.3-.1.3 0l.1-.1c.3 0 .4 0 .4.1h.1c.1-.1.3-.1.4-.1.1.1.6.1.8.3.3 0 .6-.1.6-.3h.1c.1-.3.1-.6.3-.7 0-.4.1-.3.3-.4.1.1.3.1.3 0l.1-.1c.1-.1.1-.3.1-.3V281l-.1-.1-.1-.8-.1-.6v-1.7l-.1-.8v-1.8l-.5-.5c-.1 0-.4.1-.6.1h-.3c-.1 0-.3-.1-.6.1h-.2c-.1-.1-.3-.1-.4 0h-.1l-.1-.1c-.1 0-.1 0-.3-.1-.1-.1-.1-.1-.3-.1-.3 0-.3 0-.4.1s-.3.3-.6.3h-.7c-.1 0-.3 0-.4-.1-.1-.3-.1-.3-.3.1h-.1c-.3.1-.3 0-.4 0-.1.1-.3.1-.4 0v-.2c-.3.1-.7-.1-1 0l-.1.3c-.3 0-.6.1-.6 0h-.1v.1c-.1.1-.3.1-.3.1-.3-.1-.4-.4-.6-.6-.1-.1-.1-.1-.3 0h-.1c-.1.3-.1.4-.3.4-.1.1-.6.3-.8 0-.3 0-.3 0-.6-.3-.1 0-.1 0-.3.1-.3.1-.4.3-.8.3-.1.1-.3 0-.3 0-.1-.1-.1-.3-.3-.3-.1 0-.8.1-1 .3-.1 0-.3.3-.3.3 0 .1-.1.1-.3.1-.1 0-.3 0-.3-.1h-.1c-.1 0-.3 0-.3-.1-.1 0-.3-.1-.4-.1l-.3.3c-.3.1-.6.1-.7.1-.1-.1-.3-.1-.3 0-.1.3-.3.3-.3 0-.1-.1-.4-.1-.6.1h-.4c-.1-.1-.3-.1-.3-.1h.1c-.3-.1-.4-.3-.6-.1-.4.1-.7 0-1 0-.1 0-.3-.1-.6.1h0c-.1-.1-.3 0-.6 0h-.2c-.3 0-.3.1-.4 0h-.4c-.1 0-.3-.1-.4 0-.3-.1-.1 0-.3-.1-.1.1-.1.1-.1 0h-.2c-.3 0-.4-.1-.6.1-.1.1-.3.1-.6.3 0 .1-.1.1-.3.1h-.1c-.3 0-.4 0-.4.1-.1.1-.1.1-.3 0h-.1l-.7.1c-.1-.1-.3-.1-.3-.1-.3-.1-.4.1-.6.3-.1.1-.3.3-.1.7 0 .3-.1.6-.1.7s-.1.1-.1.1l.1.3c-.1.3-.1.6-.1.8-.1.3 0 .6-.1.8-.1.1-.1.3 0 .4 0 .1-.1.4 0 .6v.1l-.3 1c.1.3-.1.6.1.6-.1.6 0 .7.3 1.1 0 .1-.1.3-.3.3 0 .7-.1 1-.3 1.4l-.1.1-.1.6c0 .1 0 .1.1.3 0 .1-.1.1-.1.3v.1c0 .1-.1.3-.1.4.1.1.1.3.1.4s-.1.1 0 .3c-.1.1-.1.3 0 .4v.3c0 .3-.1.6 0 .8v.6c0 .1-.1.1-.1.1v.1c0 .3.1.6.3.7-.1.1-.1.3 0 .4s.1.3 0 .6c-.1.1-.1.3-.1.3.1.4.1.6.1.8-.1.3.1.4-.1.6v.1c0 .1 0 .1.1.1-.1.1-.1.1-.1.3v.1c.1.1 0 .3 0 .6v1.2c-.1.1 0 .4-.1.6-.1 0-.1.1-.1.3.1.1 0 .1 0 .4.1.4-.1.7-.1 1v.1l-.1.1c0 .1-.1.1-.1.3v.4l-.1.1c-.1.3-.1.7 0 1v.1c.1.1 0 .3 0 .6l-.1.4v.3c-.1.3 0 .6-.1.8v.1c0 .1.1.1.1.3-.1.4-.1.7-.1.7v1.6c0 .4 0 .7-.1.7.1.1.1.4.1 1 0 .3-.1.6-.1 1h.6c.1.4 0 .6-.1.8l.1.1c-.1.4-.3.8-.3 1.2v1.6c0 .1 0 .4-.1.8 0 .3-.1.4-.1.8 0 .3 0 .6-.1 1.1-.1.3 0 .6 0 1 0 .1-.1.3.1.6v.8c-.1.1-.1.1 0 .1v.1c-.1.1 0 .3.1.4.1 0 .1.1.3.1 0 .1.1.1.1.1h.3s.3-.1.6-.1a.85.85 0 0 0 .7 0v.1h.1c.1-.1.4-.3.7-.6.3-.1.6-.1.3-.1h.1c.1 0 .1 0 .1-.1s.1 0 .3.1c.1.1.3.4.6.4.1-.1.1-.3.3-.3.1 0 .3-.1.3-.1h.1s.4.1.4.4c.3.3.3.3.6.1.1-.1.3-.4.4-.4h.1c.1-.1.3-.1.4 0-.1.3-.1.6-.1.6h.7c.1 0 .1 0 .4-.1l.1-.4c0-.1 0 0 .3.3v.1c.1.1.3 0 .6.1v.1h.1c.1 0 .3 0 .6-.1.1-.1.3-.1.4-.4 0 .1.1.1.3 0v.3c.1-.1.1-.3.1-.3a.37.37 0 0 1 .4.3c.1 0 .3 0 .6-.3.1.1.3.1.6.6 0 .1.3.1.6-.1.3-.3.4-.3.7.1l.1.1c.3-.1.4-.1.6-.1 0-.6.1-.6.4 0 .1.3.4.1.7 0 .1-.1.1-.1.3-.1.1-.1.3-.1.7 0h0c.3-.3.4-.1.4 0h.1c.3 0 .7.1 1 .1.1.1.3.1.3.4l-.1.1v.1c.4.1.7.1 1 0 .1-.1.3 0 .6.1h.6c.1 0 .3.1.6 0 .1-.1.4-.1.6-.3.3-.1.4-.1.6.1 0 .1.1.1.3.1v-.1c0-.1.1-.1.3 0 .1.1.3 0 .3.1h.1l.1.1s.1-.1.3-.1c0-.1 0-.1.1-.3l-.1-.1h.1l.1.1c.1.1.1.1.3.1.1-.1.1 0 .1.1s.1.1.1.1v-.1h.1c.1 0 .1.1.3.1.3-.3.1-.3.6-.1-.1.1-.1.1.1.1.1-.1.1-.1 0-.3.1.1.3.3.4.3.1-.1.3 0 .6 0 .1 0 .1 0 .1-.3-.1 0-.1.1.3.1.1.1.3.1.3.1 0-.1-.1-.3-.1-.3.3-.1.3 0 .6-.1v.4l-.1-.1h-.3s.1.1.3.1c0-.1.1 0 .1 0 .1.1.1.1.3.1.1 0 .1 0 .1-.1.1.1.3 0 .3.1.1 0 .3 0 .3.1.3-.1.6-.1.8 0 0 .1.1.1.1.1.3-.1.8-.1 1-.3h.1c.1 0 .3-.1.3-.1l.3-.1c.1-.3.1-.4.1-.7v-.6l.1-.1c-.1-.1 0-.1 0-.3-.1-.1.1-.1-.1-.3v-.1c.1-.1.3-.4.3-.6v-.9c.3-.1.1-.4 0-.8v-.1c.3-.3.3-.6.1-.7 0-.3.1-.3.1-.4v-.6c0-.3.1-.6 0-.8 0-.3-.1-.4-.1-.6.1-.3.1-.4.1-.4 0-.1-.1-.3-.3-.1-.3-.1-.4-.3-.4-.3-.4-.1-.6 0-1-.3-.1.1-.3 0-.6 0l-.1.1c-.4 0-.7.1-1.2-.1h-.1c-.3 0-.6 0-.6-.1-.3 0-.3-.1-.4-.3-.1 0-.1 0-.3.1-.3.1-.6.1-.7-.1h-.6l-.1.1c-.1-.1-.3-.1-.8-.1h-.7c-.3 0-.6-.1-.8-.1 0-.1-.1-.1-.1-.1-.1 0-.3 0-.4-.1-.1.3-.3 0-.3-.3-.3-.1-.4-.1-.8-.1-.3 0-.6 0-1 .3-.4 0-.6.1-.1.1 0 0-.1.1-.6.1-.3 0-.3 0-.4.1 0-.1 0-.1-.1 0-.4.1-.8 0-1-.1-.1 0-.4 0-.6-.1h-.1c-.1.1-.1.1-.3.1-.1-.1-.1-.1-.3 0-.3.3-.6.1-.8.1h-1c-.1-.1-.3-.1-.4 0s-.1 0-.3 0h-.1c-.1.1-.1 0-.1 0l-.1-.1c-.1-.1-.3-.1-.3-.1-.1 0-.1.1-.3 0h-.4c-.1.1-.1.1-.1 0-.1 0-.3 0-.6.1h-.1c-.3-.1-.6 0-.8 0h0l-.8-.6-.1-.1c-.1-.1-.7-.4-.7-.6v.6c.1-.1 0-.1.1-.3 0-.3.1-.7 0-.8s-.1-.1 0-.1c.1-.1.1-.1.1-.3-.1-.1 0-.3 0-.8 0-.3.1-.4 0-.6v-.1c.1-.1.1-.3.1-.7 0-.3 0-.6-.1-.6 0-.1.1-.3.1-.3 0-.1 0-.1.1-.1-.1 0-.1-.1-.1-.1h0c.1 0 .1 0 .1-.1v-.3c0-.2 0-.3-.1-.3v-.1c-.1-.3-.1-.6 0-.7l.1-.1c0-.4 0-.6.1-.7.4-.1.7 0 1 0 0-.1.1-.1.1-.1.1.1.1.1.3.1 0 0 .1 0 .3-.1.1.1.3.1.3 0 .1 0 .3.1.6 0 .1 0 .3.1.3.1h.1c.3 0 .4-.1.6 0h.1c.1-.1.3 0 .6 0s.4-.1.3-.1h.8v.1c.1.1.3.1.6-.1.1.1.3 0 .6 0 .1.1.1.1.3.1.3-.1.6 0 .8 0h1.7l.1.1c.1.1.1 0 .1-.1.3 0 .7.1 1-.1.4.1.8.1 1 .1.6 0 1.1-.1 1.4-.3 0-.1 0-.1.1-.1.1-.1.3 0 .3-.1.1 0 .4.1.8 0h.1c.3 0 .4.1.6 0v.2h.4c.1-.1.3-.1.3 0h1.4c.3.3.6.3 1 .3h.1c.4 0 .8-.1 1-.3.4-.1.3-.3.4-.6l.4-.4h.1c.3-.1.4-.1.6-.3v-.1c.1-.1.1-.1.1-.3-.1-.3.1-.6-.1-.8v-.1c.1-.4.1-.7.1-1v-.8c0-.3 0-.6.1-.6v-.1c-.1-.3-.1-.4 0-.6.1-.1 0-.3 0-.4v-.5c-.1-.3-.1-.4 0-.6 0-.1.1-.6 0-.8 0-.1 0-.3.1-.3l-1.7.1v-.1h-1.8l-1.5-.1h-1.6l-1.4.1h-1.7l-.3-.1-3.4-.1-1.2-.1-.6-.2h-1.4l-.7-.1-.6.1h-1.3l.1-.4-.7-2.8z"/></g></g><path d="M-171.3 404.5l40.2 31.1c1.9 1.5 3.9 3 5.4 5l33.3 43.6c.8 1.2 1.9 2.1 3.4 2.2l55.1 7.6c2.9.3 6.1.7 8.8 1.9l44.7 18.8a76.16 76.16 0 0 1 0 11.7l-50.1-20.8c-8.4-1.7-17.1-2.3-25.4-3.7l-38.6-5.2c-1-.1-2.1-.3-2.9-1.1-4.5-5-7.6-11.1-12.1-16-3-3.4-5.6-7.2-8.4-10.7l-15.5-20.4c-2.1-2.9-5.1-4.8-8-7l-39.7-30.9c3.1-2.4 6.4-4.1 9.8-6.1zm155.1 57.9l35.8 15.1c.1 3.7.1 7.6-.1 11.3-3.7-1.1-7.3-2.9-11-4.3l-27.6-11.7a24.63 24.63 0 0 0-6.2-1.7l-40.4-5.5c-4-.7-8.1-.8-12.1-1.8-1.9-1-2.9-3.2-4.3-4.7l-27.1-35.6c-1.1-1.4-2.3-2.8-3.9-3.9l-36-27.9c3.2-2.1 6.6-4 10-5.8l32.6 25.2c1.9 1.4 3.9 3 5.1 5l27.1 35.6c1 1.2 2.1 2.2 3.6 2.3l42.1 5.8c4.3.7 8.7.8 12.4 2.6z" class="L"/><path d="M-106.6 367.3c7 5.2 13.9 10.7 20.8 16.1 3.2 2.5 6.7 4.7 9.1 8l21 27.6c1 1.4 2.3 2.8 4 2.8l38.1 5.2c3.4.3 6.5 1.8 9.5 3.2l23.7 9.9c.1 3.9.1 7.7-.1 11.6-7.7-3-15.3-6.5-23-9.6-4.3-1.7-8.3-4-12.8-4.4l-40-5.5c-1.8-.1-3.6-.6-4.5-2.1l-20.8-27.2c-2.1-2.8-4-5.8-6.9-7.8l-18.4-14.3c-3.2-2.5-6.6-5-9.5-7.7 3.2-2.1 6.5-4 9.8-5.8zM85.5 476.6l42.6-5.4c2.2 3.2 4 6.6 5.8 9.9l-39.5 5.2c-4.4.7-8.8.7-12.9 2.5l-49.1 20.1c-2.3.8-4.8 2.6-7.3 1.2l-49-20.6c-3.7-1.7-7.7-1.7-11.6-2.2l-43.9-6.2c1.7-3.4 3.6-6.7 5.5-9.9 13.2 1.5 26.4 3.6 39.6 5.4 4.3.7 8.8.8 12.8 2.5L25 498.5c1.4.8 3 .6 4.4-.1l45.7-18.6c3.5-1.6 6.8-2.9 10.4-3.2z" class="N P Q"/><path d="M77.9 442.8l31.6-4c1.9 3.3 4 6.6 5.8 10l-38.2 5c-2.8.4-5.4 1.7-8 2.8l-36.9 15.1c-2.1.8-4.4 2.3-6.9 1.1L-14.8 456c-3.9-1.7-8.1-1.8-12.2-2.5l-33.6-4.7c1.7-3.4 3.6-6.7 5.5-10 11.4 1.2 22.6 3.2 33.8 4.5 3 .3 6.1.8 8.8 1.9L25.3 461c1.4.7 2.9.6 4.4-.1l39.5-16.2c2.8-1.3 5.8-1.7 8.7-1.9z" class="M"/><path d="M-161.9 288.8a216.6 216.6 0 0 1 11.4 0l13.9 33.8c1.8 4 2.1 8.5 2.6 12.8l4.3 33.6c.1 1.5.8 3 2.1 3.9L-99 395c3.9 3 8 5.5 10.7 9.6 6.6 8.8 13.6 17.5 19.9 26.4-1.8 3.4-3.9 6.7-5.8 10l-22.4-29.6c-1.2-1.7-2.5-3-4.1-4.3l-37.4-29c-1.2-.8-1.5-2.3-1.7-3.7l-5-38.6c-.3-2.8-.6-5.6-1.4-8.3l-15.7-38.7z" class="L"/><path d="M187.3 434l38.5-29.3c3.4 1.8 6.7 3.6 9.9 5.8-13.6 11-27.9 21.5-41.8 32.2-2.3 1.9-4 4.4-5.9 6.9L152.8 495c-.8 1.2-2.2 1.8-3.6 1.8l-57.3 7.4c-4 .4-7.7 2.5-11.4 3.9L35 526.5c0-3.9-.1-7.6.1-11.4 13.5-6.1 27.2-11.3 40.8-16.9 4.4-1.7 8.5-4 13.2-4.7l53.5-6.9c1.7-.1 3.4-.6 4.4-2.1l33.1-42.8c2.3-2.8 4.2-5.8 7.2-7.7z" fill="#ef9928"/><path d="M160.9 367.4c3.9 1.1 6.9 3.6 10.2 5.6-8.7 6.9-17.7 13.5-26.5 20.4-2.8 2.1-4.5 5.1-6.6 7.7l-18.3 23.5c-1.8 2.2-3.3 4.7-5.4 6.6-1 .6-2.1.6-3.2.8l-37.3 4.7c-3.6.3-7 1.8-10.3 3.3-9.5 3.9-18.8 8-28.5 11.6-.3-3.6-.6-7-.1-10.6.1-1.2 1.5-1.4 2.3-1.9l28.2-11.4c3-1.4 6.5-1.4 9.6-1.8l27.9-3.6c2.3-.3 5.2-.3 6.6-2.5l18.6-24.1c3-3.9 5.8-8.4 9.9-11.3 8.1-5.6 15.2-11.5 22.9-17z" class="L"/><path d="M-156.6 183.8c3.4 1.7 6.6 3.6 9.9 5.5-1.4 13.8-3.9 27.4-5.4 41-.4 5-2.9 9.2-4.7 13.6l-14.7 34.9c-.7 1.4-.6 2.9.1 4.3l16.2 39.5c1.4 3.6 3.4 7.2 3.7 11l4.8 38.9-10 5.8c-1.7-11.8-3-23.8-4.5-35.6-.6-3.9-.7-7.8-2.2-11.4l-19.7-48.3c-.6-1.4-.6-2.9.1-4.3l18.7-44.6c.6-1.4 1-2.8 1.2-4.3l6.5-46z" class="M"/><path d="M-189 165c3.4 1.8 6.9 3.6 10.2 5.9l-6.3 45.7c-.6 4-.7 8-2.3 11.7l-17.6 42.4c-1.2 3.4-3.2 6.6-4 10.2.3 2.2 1.4 4.1 2.2 6.2l20.6 50.5c1.5 3.4 1.7 7.3 2.1 11l5.1 39.5c.1 1.1.3 2.2.1 3.3-3 2.3-6.5 3.9-9.8 5.8-.1-5.5-.8-11-2.1-16.5-1.5-9.1-2.5-18.3-3.7-27.5-.7-4.3-.6-8.8-2.3-12.8l-21.7-53.1c-1-2.6-3-5.4-1.7-8.3l19.8-47.6c1.5-3.7 3.4-7.3 4-11.3l7.4-55.1z" class="N P Q"/><path d="M-74.1 121.1c2.1 3 4.1 6.2 5.6 9.5-.4 1.4-1.4 2.6-2.3 3.9l-20.4 26.1c-2.3 3.2-5.8 5.2-8.8 7.6l-27.9 21.5c-1.2.8-1.8 2.2-1.8 3.6l-5.9 43c-.4 3.9-2.3 7.3-3.7 10.7l-11.3 26.4c-3.9.1-7.7.3-11.6-.3l12.5-29.7c1.4-3.2 2.9-6.2 3.4-9.6l6.2-46.1c.1-1.5.6-3.2 1.8-4l35.6-27.2c1.1-.8 2.1-1.8 2.9-2.9 9-10.9 17.1-21.9 25.7-32.5z" fill="#eb9b20"/><path d="M205.1 288.8c3.9-.1 7.7-.1 11.7-.1l-14.4 34.7c-.8 2.1-1.4 4.1-1.7 6.2l-5.5 41c-.3 2.2-.4 4.5-1.2 6.6-1.4 1.7-3.2 2.8-4.7 4L158.1 405c-1.5 1.2-2.9 2.5-4 4l-25.2 32.3c-1.9-3.4-4-6.6-5.8-10.2l20.6-26.5c1.9-2.5 3.9-5.1 6.2-6.9l32.5-24.8c1.4-1 2.2-2.5 2.3-4.3l5.5-41c.3-2.9 1-5.8 2.2-8.4l12.7-30.4z" fill="#eb621c"/><path d="M242.6 288.5c3.9.1 7.6 0 11.4.1l-18.3 43.9c-1.2 3.3-1.5 6.7-1.9 10.2l-6.1 44.1c-.6 2.9-.6 6.1-1.5 8.9-1.5 1.8-3.6 3-5.5 4.5l-38.4 29.3c-3.2 2.3-5.2 5.8-7.6 8.8l-27.4 35.2c-1.8-3.3-4-6.3-5.5-9.8.3-1.1 1-2.1 1.7-3l24.8-31.6c1.8-2.5 3.7-5.1 6.2-7l40-30.5c2.3-1.5 2.2-4.5 2.6-7l6.5-47c.3-2.8.7-5.5 1.8-8.1l11.4-27.1c1.8-4.7 3.5-9.5 5.8-13.9z" class="M"/><path d="M-92.8 88.5c2.2 3.2 4 6.6 5.9 9.9-9.5 12.8-19.4 25.2-29 37.7-2.1 2.8-5 4.7-7.6 6.6l-32 24.5c-2.1 1.7-4.3 2.9-6.1 5-.8 2.3-.8 4.8-1.2 7.2l-5.8 42.1c-.6 4-.8 8.1-2.5 11.8l-15 35.8c-.6 1.4-1.4 2.9-2.1 4.4-3.7 0-7.6.1-11.3-.1l18.3-43.9c1.1-2.9 1.4-6.1 1.8-9.1l6.5-47c.4-2.3.4-4.8 1.2-7 1.4-1.8 3.4-2.9 5.1-4.3l38-29c1.9-1.4 3.6-3.2 5.1-5l30.7-39.6z" class="L"/><path d="M7.5 115.2c4-1.7 8-3.4 12.1-4.7.3 3.7.1 7.6.1 11.3-7.7 3.4-15.5 6.5-23.2 9.6-4.3 1.7-8.3 4-12.8 4.4l-34.1 4.3c-1.8.1-3.7.6-4.7 2.3l-23.2 30c-2.3 3.2-5.5 5.4-8.5 7.6-6.6 5-13.1 10.2-19.8 14.9-3.3-1.8-6.6-3.7-9.9-5.6 8.8-7.3 18.2-13.9 27.1-20.9 2.8-2.3 4.8-5.5 7-8.4l19.5-25.2c1.7-1.8 2.8-4.7 5.5-4.7l34.5-4.4c3.2-.4 6.6-.6 9.6-1.9l20.8-8.6z" class="M"/><path d="M106.2 129.2c2.8.4 5.5.4 8 1.4 1.7 1.2 2.8 3.2 4 4.7l21 27.6c2.6 3.4 6.5 5.8 9.8 8.5l22.3 17.3c-3.2 2.1-6.2 4.1-9.6 5.6-1.2-.3-2.1-1.2-3.2-1.8l-22.7-17.7c-3.2-2.3-5.1-5.5-7.6-8.7l-15.8-20.8c-1.2-1.7-2.3-3.4-4-4.8-2.8-1-5.8-1-8.7-1.4l-33.4-4.7c-6.9-2.1-13.1-5.4-19.7-8-3.9-1.5-7.7-3-11.4-5-.1-3.9-.3-7.6.1-11.3 10.3 4 20.4 8.5 30.7 12.8 2.6 1 5.4 1.2 8.1 1.7 10.7 1.8 21.4 3.1 32.1 4.6z" class="N P Q"/><path d="M197.7 274c1 2.5 2.3 5 2.8 7.7-.3 2.1-1.4 3.9-2.1 5.8l-13.6 31.9c-1.8 4-1.9 8.5-2.5 12.8l-4 27.9c-3.4-1.7-6.7-3.4-9.8-5.6-.3-1.2 0-2.5.1-3.6l4-28.6c.6-3.9 2.3-7.3 3.9-10.7l10.2-24.1c.8-1.9 1.8-3.9 2.2-5.8-.6-2.9-2.1-5.5-3-8.1l-12.5-31.4c-1.7-6.9-1.8-14-2.9-21-.6-4.3-1.2-8.4-1.4-12.5 3.2-1.9 6.5-4 9.9-5.4l4.3 33c.3 2.8 1.5 5.4 2.5 7.8 3.7 9.9 7.9 19.9 11.9 29.9z" class="M"/><path d="M201.4 189.3c3.4-1.9 6.6-4 10.2-5.5l4.8 37.5c.3 3.3.6 6.6 1.9 9.6l19.5 47.9a4.87 4.87 0 0 1 0 4.4l-18.4 44.1c-1.8 4-1.9 8.7-2.6 12.9l-5.4 38c-3.4-1.7-6.7-3.9-10-5.9l5.8-41.9c.6-4.4 2.8-8.4 4.4-12.4l12.1-29.2c1-2.5 2.3-5 2.9-7.6-.1-2.2-1.2-4.3-2.1-6.2l-14.9-36.4c-1.4-3.4-3-6.6-3.4-10.2l-4.8-39.1z" class="N P Q"/><path d="M-23.2 90.3L19.6 73a216.63 216.63 0 0 1 0 11.4C8.7 89.2-2.5 93.5-13.5 98c-3.9 1.5-7.7 3.6-11.8 4l-43.7 5.5c-1.7.3-3.4.3-4.3 1.8l-30.1 38.8c-1.2 1.7-2.8 3.2-4.3 4.3l-24.5 18.6c-2.2 1.8-4.4 3.4-6.9 5-3.3-1.8-6.6-3.6-9.6-5.8 8.8-7 17.9-13.8 27-20.6 3.7-3 8.1-5.5 11-9.5l31.5-40.6c.8-1.4 2.3-2.1 3.9-2.1l42.4-5.5c3-.2 6.4-.3 9.7-1.6zm151.8 30.8c8.4 10 15.8 20.8 24.1 31.1 2.3 2.5 5.1 4.3 7.7 6.5l30.8 23.8c1.4 1.1 3.2 2.3 3.2 4.3l5.5 43.3c.1 1.7.6 3.2 1 4.5l15.7 38.6c-3.9.1-7.7.1-11.4.1-5-11.4-9.5-23.1-14.3-34.5-1.7-3.6-1.7-7.7-2.2-11.4l-3.9-29.8c-.3-2.3-.3-4.7-1.1-6.9-1.7-1.9-4-3.3-5.9-5l-30-23.2c-2.8-1.9-4.7-4.7-6.6-7.3l-18.4-24.1c1.8-3.5 3.8-6.8 5.8-10zm-45.9-12.5l32.5 4.4c-1.8 3.4-3.9 6.7-5.8 10l-36-4.8c-2.2-.3-4.4-.8-6.5-1.7l-37.7-15.8c-1.4-.8-3-.6-4.4.1L-14.7 117c-2.3 1-4.7 1.5-7.3 1.8-11 1.2-22 2.9-33 4.1-2.1-3.3-4-6.6-5.8-9.9 12.7-2.1 25.4-3.3 38.2-5.1 3.3-.6 6.2-2.1 9.2-3.3L20 91c2.3-.8 4.4-2.2 7-2.5 2.5.4 4.7 1.8 7 2.6l35.1 14.7c4.5 2 9.2 2.1 13.6 2.8zM243.6 165c2.2 14.4 3.7 29 5.8 43.6.7 4.4.7 9.1 2.5 13.3l21.6 52.9c1 2.5 2.9 5.4 1.7 8.1l-19.4 46.3c-1.4 3.9-3.6 7.6-4.4 11.7l-7.7 56c-3.4-1.8-6.6-3.9-9.9-5.8l6.5-48.5c.3-2.8.7-5.6 1.7-8.3l20.5-48.8c.8-2.1 2.1-4.3 1-6.5l-22.1-54.3c-1.8-4.5-1.8-9.5-2.6-14.3l-5-39.7c3.2-2 6.5-3.9 9.8-5.7z" class="L"/><path d="M127.9 97.3c2.3.3 5.1.1 6.5 2.5l27.5 36c1.8 2.5 3.6 4.8 6.1 6.6l36 27.8a207.41 207.41 0 0 1-10.2 5.9l-26.7-20.9c-3.9-3.2-8.3-5.6-11.3-9.6L128.7 110c-1.7-2.5-5-2.1-7.4-2.6l-44.1-6.1c-4-.4-7.6-2.3-11.1-3.9L35.4 84.7c-.3-3.9-.3-7.8-.1-11.8l39.1 16.4c3 1.4 6.5 1.7 9.6 2.1l43.9 5.9z" class="M"/><path d="M147.3 88.7c8 9.6 15.3 19.9 23 29.8 3.3 4 5.9 8.7 10.2 11.8l40.2 31.1c1.9 1.5 4 2.9 5.6 4.7.8 2.3.8 5 1.2 7.3l5.5 42.8c.4 3.2.6 6.3 1.7 9.2l19.4 47.6a72.3 72.3 0 0 1-11.4 0c-5.2-11.8-9.9-24.1-14.9-36-1.7-4.5-4.3-8.8-4.7-13.6l-6.2-49c-.1-1.8-1.2-3.4-2.8-4.5l-38.4-29.7c-2.8-2.1-5.8-4.3-7.7-7l-26.3-34.5c1.8-3.6 3.6-6.9 5.6-10zM89 74.5l44.8 6.1c-1.8 3.4-3.9 6.7-5.8 10.2l-46.5-6.2c-2.5-.3-5-1.1-7.3-2.1L29.6 63.9c-1.4-.7-3-1-4.4-.3l-43.9 17.9c-3.9 1.7-7.7 3.6-12 4l-43 5.4c-2.2-3.2-4-6.5-5.8-9.9 4.3-1 8.7-1.2 12.9-1.8l33.6-4.3a32.94 32.94 0 0 0 5.4-1.4l53.1-21.7c1.7-1 3.6.1 5.1.8L78 72.4c3.6 1.4 7.5 1.7 11 2.1z" fill="#eb621c"/><path d="M146.6 64.9c2.2.3 5 .1 6.2 2.3l35.1 46.1c2.8 3.6 6.6 6.1 10 8.8l38 29.6c-3.2 2.1-6.5 3.9-9.8 5.8-11.4-8.1-22.1-17.2-33.4-25.7-4.3-3.6-9.2-6.5-12.8-11l-33-43.2c-.8-1.2-2.2-1.8-3.7-2.1l-58-7.8c-3.3-.6-6.3-2.1-9.5-3.3L35 47.3c-.1-3.9-.3-7.7.1-11.7 5 2.2 9.6 4.5 14.7 6.2l33.7 14c3.2 1.2 6.7 1.4 10.2 1.9l52.9 7.2z" fill="#eb9b20"/><path d="M-100.2 70.8c1.4-1.7 2.6-4.1 5.1-4.3l57.3-7.3c4.4-.6 8.5-2.6 12.7-4.3l44.6-18.2c.1 3.9.1 7.6.1 11.4C6.8 54-6.4 58.8-19.3 64.3c-5.4 1.8-10.3 4.8-16 5.5l-53.9 6.9c-1.5.1-2.8 1-3.6 2.2l-35.9 46.3c-2.1 2.6-5 4.5-7.6 6.6l-35.2 26.7c-3.4-1.8-6.7-3.7-9.9-5.9 4.3-3.2 8.8-6.1 12.8-9.6l28.9-22.1c2.8-2.2 4.7-5.1 6.7-7.8l32.8-42.3z" class="M"/><path d="M-142.3 274.4c-1 2.5-2.3 5-2.8 7.6.3 2.1 1.2 4 2.1 5.9l13.6 31.9c1.7 4 1.8 8.4 2.5 12.8l4 27.9c3.4-1.7 6.7-3.4 9.6-5.6.3-1.2.1-2.5-.1-3.6l-4-28.6c-.4-3.9-2.3-7.3-3.7-10.7l-10.2-24.1c-.8-1.9-1.8-3.9-2.2-5.8.6-2.9 2.1-5.5 3-8.1l12.5-31.4c1.7-6.9 1.8-14 2.9-21 .6-4.3 1.2-8.4 1.4-12.5-3.2-2.1-6.5-4-9.9-5.4-1.7 11-2.8 21.9-4.3 33-.3 2.8-1.5 5.4-2.5 7.8-3.7 9.9-7.9 19.9-11.9 29.9zm337.2 112.3c3.3 1.9 6.7 3.9 9.8 6.1l-30.4 22.6c-2.6 1.9-5.5 3.9-7.4 6.5l-32 40.6c-1 1.2-2.3 2.1-3.9 2.1l-47.6 5.5c-4.4.4-8.4 2.5-12.5 4.1l-35.8 14c-.1-3.9.1-7.7.3-11.7L74.9 461c4.1-1.7 8.7-1.7 12.9-2.2 10.5-1.4 20.9-2.5 31.4-3.7 2.8-.4 5.5-.4 8.1-1.2 1.8-1.2 3-3.2 4.4-4.8l24.5-30.8c2.3-2.8 4.3-5.9 7.3-8l31.4-23.6z" class="L"/><path d="M-114.8 430.7l26 34.2c-1.7 3.4-3.6 6.7-5.6 9.9-8.4-10.3-16.2-21-24.3-31.5-2.8-3.4-5-7.3-8.7-9.9l-41.9-32.3c-1.9-1.5-4.7-2.9-4.8-5.6l-6.9-52.8c-.4-4-2.5-7.4-3.9-11.1l-16.8-41c3.9-.3 7.7-.3 11.4-.1 5.4 12.1 10.2 24.6 15.3 36.9 1.7 4 3.9 8 4.3 12.2l6.6 49.9c.1 1.7 1 2.9 2.3 3.9l38.9 30c3.2 2 6.2 4.4 8.1 7.3z" fill="#ef9928"/><path d="M146.1 337c.7-1.2 1.8-1.5 1.4-3.6l-3.4-3.7c10.5-.4 9.6 9.1 5.2 13.1-4.8 4.3-11.1 2.9-15.8 7.4-4.7 4.7-4.3 13.6 2.6 15.4 9.1 2.3 10.2-11.7 1.2-8.3l-.8 5c-9.1-6.1 4.3-16.9 13.5-12.2l-4.3 2.6c-.1 5.2 4.3 6.5 7.2 3.4 2.1-2.5 1.5-5.1-.3-7.6-1.2-1.7-.4.1-1.8-2.3 1.9-2.8 4.5-5 4.7-9.6.1-4.4-2.3-7.6-5.1-9.1-10.6-5.6-15.4 10.9-4.3 9.5zm-238 7.6c-1.2 2.5-6.5 4.4-.8 11.3l5.4-.3c1.4-4.3.4-8.1-4.1-4.7.7-5.8 9.2-3 12.5-1.2 4.3 2.3 7.4 10.5 0 11.1 1-1.7 1.5-2.6.1-5-2.5-.6-3.2-.3-5.1.4-1.9 8.4 5.4 10.5 10.2 6.1 4.5-4 2.2-11.7-2.3-14.9-5.1-3.6-10.6-2.1-14.7-6.9-4.5-5.4-3-12.9 5.9-12.1-.1.1-.4.1-.6.4-.6 1.8-4.4.4-2.3 6.2 10.5 3.9 8.8-13.6-2.8-9.5-3.6 1.2-5.9 4.4-6.1 8.7-.1 5 2.5 7.9 4.7 10.4z" fill="#af8c56" stroke="#af8c56" class="N"/><path d="M-57.3 333.4c0 1-.1 1.9-.4 2.8s-.7 1.7-1.2 2.2c-.6.6-1.2 1.1-2.1 1.4s-1.8.6-2.8.6-1.9-.1-2.8-.6c-.8-.3-1.5-.8-2.1-1.4s-1-1.4-1.2-2.2c-.3-.8-.4-1.8-.4-2.8s.1-1.9.4-2.8c.3-.8.7-1.7 1.2-2.2s1.2-1.1 2.1-1.4c.8-.3 1.8-.6 2.8-.6s1.9.1 2.8.6c.8.3 1.5.8 2.1 1.4s1 1.4 1.2 2.2c.3.9.4 1.9.4 2.8zm-2.6 0c0-.8-.1-1.5-.3-2.2-.1-.6-.4-1.1-.8-1.5s-.8-.7-1.2-1c-.6-.1-1-.3-1.7-.3s-1.1.1-1.7.3c-.6.1-1 .6-1.2 1a3.15 3.15 0 0 0-.8 1.5c-.1.6-.3 1.4-.3 2.2s.1 1.5.3 2.2c.1.6.4 1.1.8 1.5s.8.7 1.2 1c.6.1 1 .3 1.7.3s1.1-.1 1.7-.3c.6-.1 1-.6 1.2-1a3.15 3.15 0 0 0 .8-1.5c.3-.6.3-1.3.3-2.2zm25.7-2.6c0 1-.3 1.8-.8 2.3-.6.7-1.4 1.1-2.3 1.5h0l4 5.5h-2.9L-40 335h-1.7v5.2h-2.5v-13.5h4.1c.7 0 1.2 0 1.9.1.6.1 1.1.1 1.5.4.8.3 1.4.7 1.8 1.4.4.6.7 1.3.7 2.2zm-6.3 2.1c.6 0 1.1 0 1.4-.1a1.69 1.69 0 0 0 1-.3c.6-.1.8-.4 1-.8.1-.3.3-.7.3-1.1a1.69 1.69 0 0 0-.3-1c-.1-.3-.4-.6-.8-.7-.3-.1-.6-.1-.8-.3-.4 0-.8-.1-1.4-.1H-42v4.1h1.5v.3zm30.1 5.6c.1 0 .4-.1.6-.1.3 0 .4-.1.7-.1h1.5v2.2c-.4 0-.8 0-1.2-.1h-6c-1.1 0-1.9-.1-2.8-.6-.8-.3-1.5-.8-2.1-1.4s-1-1.4-1.2-2.2c-.3-.8-.4-1.8-.4-2.8s.1-1.9.4-2.8.7-1.7 1.2-2.2 1.2-1.1 2.1-1.4c.8-.3 1.8-.6 2.8-.6 1.1 0 1.9.1 2.8.6.8.3 1.5.8 2.1 1.4s1 1.4 1.2 2.2c.3.8.4 1.8.4 2.8 0 .6 0 1-.1 1.5-.1.6-.3 1-.4 1.4s-.4.8-.7 1.2c-.3.3-.6.6-.9 1h0zm-.3-5.1c0-.8-.1-1.5-.3-2.2-.1-.6-.4-1.1-.8-1.5s-.8-.7-1.2-1c-.6-.1-1-.3-1.7-.3-.6 0-1.1.1-1.7.3-.6.1-1 .6-1.2 1a3.15 3.15 0 0 0-.8 1.5c-.1.6-.3 1.4-.3 2.2s.1 1.5.3 2.2c.1.6.4 1.1.8 1.5s.8.7 1.2 1c.6.1 1 .3 1.7.3.6 0 1.1-.1 1.7-.3.6-.1 1-.6 1.2-1a3.15 3.15 0 0 0 .8-1.5c.2-.6.3-1.3.3-2.2zm21.8 7.1c-.7 0-1.4-.1-1.9-.1-.6-.1-1.1-.3-1.5-.6s-.8-.6-1.1-1-.6-.8-.7-1.2-.3-.8-.3-1.2-.1-1-.1-1.5v-8H8v7.7c0 1 .1 1.7.3 2.2.3.6.7 1 1.1 1.2.6.3 1.1.4 1.8.4s1.2-.1 1.8-.4.8-.7 1.1-1.2c.3-.6.3-1.2.3-2.2v-7.7h2.5v8c0 .6 0 1.1-.1 1.5 0 .4-.1.8-.3 1.2-.1.4-.4.8-.7 1.2s-.7.7-1.1 1-1 .4-1.5.6c-.8-.1-1.4.1-2.1.1zm22-2.4h6.6v2.1h-9.1v-13.5h8.7v2.1h-6.2v3.4h5.4v2.1h-5.4v3.8zm26.4-1.8c0-.3-.1-.6-.3-.8-.1-.3-.4-.4-.7-.6-.3-.1-.6-.3-1-.3-.4-.1-.7-.1-1.1-.3-.6-.1-1-.3-1.5-.4-.4-.1-.8-.4-1.2-.7s-.7-.7-.8-1.1c-.3-.4-.3-1-.3-1.7s.1-1.4.4-1.8c.3-.6.6-1 1-1.2.4-.4 1-.6 1.5-.8.6-.1 1.2-.3 1.9-.3s1.4.1 2.2.3c.7.1 1.4.3 1.9.6v2.1c-.7-.3-1.4-.4-2.1-.6-.7-.1-1.2-.1-1.8-.1-.8 0-1.4.1-1.9.4a1.61 1.61 0 0 0-.7 1.4c0 .3.1.7.3.8.1.3.3.4.6.6s.6.3.8.4c.3.1.7.1 1 .3.6.1 1.1.3 1.7.4s1 .4 1.4.7.7.7 1 1.1.4 1 .4 1.8c0 .7-.1 1.4-.4 1.9-.3.6-.7 1-1.1 1.4-.6.4-1.1.6-1.8.8-.7.1-1.5.3-2.3.3a8.33 8.33 0 0 1-2.2-.3c-.7-.1-1.2-.4-1.8-.6v-2c.7.3 1.4.6 1.9.7.7.1 1.2.1 1.9.1.4 0 .8 0 1.1-.1a1.69 1.69 0 0 0 1-.3 1.21 1.21 0 0 0 .7-.7c.1-.7.3-1 .3-1.4zm21.3 3.9h-2.5v-11.4h-4.4v-2.1H85v2.1h-4.3v11.4zm26.7-9.4c0 1-.3 1.8-.8 2.3-.6.7-1.4 1.1-2.3 1.5h0l4 5.5h-2.9l-3.7-5.2H100v5.2h-2.5v-13.5h4.1c.7 0 1.2 0 1.9.1.6.1 1.1.1 1.5.4.8.3 1.4.7 1.8 1.4.5.7.7 1.4.7 2.3zm-6.2 2.1c.6 0 1.1 0 1.4-.1a1.69 1.69 0 0 0 1-.3c.6-.1.8-.4 1-.8.1-.3.3-.7.3-1.1a1.69 1.69 0 0 0-.3-1c-.1-.3-.4-.6-.8-.7-.3-.1-.6-.1-.8-.3-.4 0-.8-.1-1.4-.1h-1.8v4.1h1.5v.3zm27.5 3.8h-5.1l-1.4 3.4h-2.6l5.4-13.5h2.2l5.4 13.5H130l-1.2-3.4zm-2.5-6.7l-1.6 4.8h3.4l-.4-1.2c-.6-1-1-2.2-1.4-3.6h0z" class="L O"/><g transform="matrix(1.06552 0 0 1 -1126.7 1030.55)" class="L O"><path d="M1007.2-674.8a1.69 1.69 0 0 0 .3 1c.1.3.4.4.6.6.3.1.6.3.8.4.3.1.7.1 1.1.3.6.1 1 .3 1.4.4s1 .4 1.2.6a4.74 4.74 0 0 1 1 1c.3.4.3 1 .3 1.5 0 .7-.1 1.2-.4 1.7-.3.4-.6.8-1 1.1s-1 .6-1.5.7-1.2.3-1.9.3h-1c-.3 0-.7-.1-1-.1s-.6-.1-.8-.3c-.3-.1-.4-.1-.6-.3v-1.4c.3.1.4.3.8.3.3.1.6.1.8.3.3 0 .6.1 1 .1h.8c.4 0 .8 0 1.2-.1s.7-.1 1.1-.4a1.21 1.21 0 0 0 .7-.7c.1-.3.3-.7.3-1.1a1.69 1.69 0 0 0-.3-1c-.1-.3-.4-.4-.6-.6-.3-.1-.6-.3-.8-.4-.3-.1-.7-.1-1.1-.3-.6-.1-1-.3-1.4-.4s-.8-.3-1.2-.6-.7-.6-.8-1c-.3-.4-.3-1-.3-1.5 0-.7.1-1.2.4-1.7.3-.4.6-.8 1-1.1s.8-.6 1.4-.7 1.1-.3 1.7-.3c.7 0 1.2 0 1.9.1.6.1 1.1.3 1.7.6v1.4c-.6-.3-1.1-.4-1.7-.6-.6-.1-1.1-.3-1.8-.3-.4 0-.8 0-1.2.1s-.7.3-.8.4-.4.4-.6.7c-.7.6-.7.9-.7 1.3zm15.8 9.2l5.1-12.7h1.4l5.1 12.7h-1.7l-1.5-3.9h-5.2l-1.5 3.9h-1.7zm5.8-10.5l-1.7 4.3-.4 1.2h4.1l-.4-1.2-1.6-4.3z"/><use xlink:href="#B"/><path d="M1067-665.6h-1.5v-12.7h7.6v1.4h-6.1v4.1h5.4v1.4h-5.4v5.8zm27.3-6.3c0 1-.1 1.8-.4 2.6s-.7 1.5-1.2 2.1-1.1 1-1.8 1.4c-.7.3-1.5.6-2.5.6s-1.8-.1-2.5-.6c-.7-.3-1.4-.8-1.8-1.4-.6-.6-.8-1.2-1.1-2.1-.3-.8-.4-1.7-.4-2.6s.1-1.8.4-2.6.7-1.5 1.2-2.1c.6-.6 1.1-1 1.8-1.4.7-.3 1.5-.6 2.5-.6s1.8.1 2.5.6c.7.3 1.4.8 1.8 1.4.6.6.8 1.2 1.1 2.1.2.8.4 1.7.4 2.6zm-1.6 0c0-.8-.1-1.7-.3-2.2-.3-.7-.6-1.2-1-1.7-.4-.4-.8-.8-1.4-1-.6-.3-1.1-.3-1.7-.3s-1.2.1-1.7.3a5.02 5.02 0 0 0-1.4 1c-.4.4-.7 1-1 1.7s-.3 1.4-.3 2.2.1 1.7.3 2.2c.3.7.6 1.2 1 1.7.4.4.8.8 1.4 1 .6.3 1.1.3 1.8.3.6 0 1.2-.1 1.7-.3a5.02 5.02 0 0 0 1.4-1c.4-.4.7-1 1-1.7.1-.5.2-1.2.2-2.2zm-3.5-9.2l2.1 2.3h-1.5l-1.2-1.4-1.2 1.4h-1.5l2.1-2.3h1.2z"/><use xlink:href="#B" x="60.5"/><path d="M1126-665.6v-12.7h1.5v12.7h-1.5zm18.6-11.4c-.7 0-1.4.1-1.9.3s-1.1.6-1.7 1c-.4.4-.8 1-1.1 1.7s-.4 1.4-.4 2.3c0 .8.1 1.7.4 2.2l1 1.7c.4.4 1 .7 1.7 1 .7.1 1.4.3 2.1.3h.7c.3 0 .4 0 .7-.1.3 0 .4-.1.7-.1s.4-.1.6-.1v1.4c-.4.1-.8.3-1.2.3-.6.1-1 .1-1.5.1-1.1 0-1.9-.1-2.8-.4-.8-.3-1.5-.7-2.1-1.2-.6-.6-1-1.2-1.2-2.1s-.4-1.7-.4-2.6c0-1 .1-1.9.4-2.8.3-.8.7-1.5 1.2-2.1.6-.6 1.2-1.1 2.1-1.4.8-.3 1.7-.6 2.8-.6h.8c.3 0 .6 0 .7.1.3 0 .4.1.7.1.1 0 .4.1.6.1v1.4c-.4-.1-.8-.3-1.2-.3-.9-.2-1.3-.2-1.7-.2zm11.7 11.4l5.1-12.7h1.4l5.1 12.7h-1.7l-1.5-3.9h-5.2l-1.5 3.9h-1.7zm5.7-10.5l-1.7 4.3-.4 1.2h4.1l-.4-1.2-1.6-4.3z"/></g><g fill="#af8c56"><path d="M19.5 139.4h5.4v56.9h-5.4zm8.8 0h5.4v56.9h-5.4zm17.6 3.2h5.4v53.8h-5.4zm9.3 3.3h5.4v50.5h-5.4zm8.5 2.2h5.4v48.3h-5.4zm17.6 5.2h5.4v43.2h-5.4zm9 3.9h5.4v39.3h-5.4zm18.1 7.4h5.4v31.8h-5.4zm8.5 5.8h5.4v26.1h-5.4zm8.6 7.5h5.4v18.6h-5.4zM1.7 143h5.4v53.5H1.7zm-8.9 1.8h5.4v51.6h-5.4zm-8.5 2.3h5.4v49.4h-5.4zm-17.5 7.4h5.4v41.8h-5.4zm-9.2 2.7h5.4v39.2h-5.4zm-17.4 6.7h5.4v32.5h-5.4zm-9 5.4h5.4v27.2h-5.4zm-9.1 8.2h5.4v18.8h-5.4zM99.8 388.7c1.2-4-2.8-4.4-5.4-1.8.8 2.1-.8 2.6 2.1 3.6 1.7.6 3-.5 3.3-1.8zm-4.3 8.5c1.1-4-2.8-4.4-5.5-1.8.8 2.1-.8 2.6 2.1 3.6 1.9.6 3-.5 3.4-1.8z"/><path d="M90 405.6c1.1-4-2.8-4.4-5.5-1.8.8 2.1-.8 2.6 2.1 3.6 1.7.6 3-.5 3.4-1.8zm-121.7-24.3c.8.3-.8.6 2.3.6l1.7-.8c2.5-6.4-7-6.4-4 .2zm10-.6c.1.1 4.4 2.5 4.4-2.1l-.8-1.5c-3.6-1.6-5.2-.2-3.6 3.6z"/><ellipse cx="-70.2" cy="379.1" rx="3" ry="2.9"/><ellipse cx="-60.6" cy="379.1" rx="3" ry="2.9"/><ellipse cx="-50.4" cy="379.1" rx="3" ry="2.9"/><ellipse cx="-40.4" cy="379.1" rx="3" ry="2.9"/><ellipse cx="-30" cy="379.1" rx="3" ry="2.9"/><ellipse cx="-19.6" cy="379.1" rx="3" ry="2.9"/><ellipse cx="-9.1" cy="379.1" rx="3" ry="2.9"/><ellipse cx=".5" cy="379.1" rx="3" ry="2.9"/><ellipse cx="10.4" cy="379.1" rx="3" ry="2.9"/><ellipse cx="20.8" cy="379.1" rx="3" ry="2.9"/><ellipse cx="31.1" cy="379.1" rx="3" ry="2.9"/><ellipse cx="41.6" cy="379.1" rx="3" ry="2.9"/><ellipse cx="51.5" cy="379.1" rx="3" ry="2.9"/><ellipse cx="61.7" cy="379.1" rx="3" ry="2.9"/><ellipse cx="71.6" cy="379.1" rx="3" ry="2.9"/><ellipse cx="82" cy="379.1" rx="3" ry="2.9"/><ellipse cx="92.5" cy="379.1" rx="3" ry="2.9"/><ellipse cx="102.8" cy="379.1" rx="3" ry="2.9"/><ellipse cx="112.5" cy="379.1" rx="3" ry="2.9"/><ellipse cx="122.4" cy="379.1" rx="3" ry="2.9"/><path d="M-37.3 390.2c.8.4-1 .6 2.3.6l1.5-.8c2.6-6.4-6.9-6.4-3.8.2zm-4.4 8.4c.8.4-.8.6 2.3.6l1.5-.8c2.8-6.2-6.7-6.2-3.8.2zm-5.5 8.5c.8.3-.8.6 2.3.6l1.5-.8c2.6-6.4-6.7-6.4-3.8.2zm19.9-17.4c.1.3 4.4 2.5 4.4-2.1l-.8-1.5c-3.6-1.6-5.2-.3-3.6 3.6zm-4.3 8.5c.3.3 4.4 2.5 4.4-2.1l-.8-1.5c-3.6-1.6-5.3-.2-3.6 3.6zm-5.5 8.5c.1.1 4.4 2.5 4.4-2.1l-.8-1.5c-3.6-1.6-5.4-.4-3.6 3.6z"/><ellipse cx="-66.2" cy="388" rx="3" ry="2.9"/><ellipse cx="-56.2" cy="388" rx="3" ry="2.9"/><ellipse cx="-46" cy="388" rx="3" ry="2.9"/><ellipse cx="-50.4" cy="396.4" rx="3" ry="2.9"/><ellipse cx="-35.7" cy="388" rx="3" ry="2.9"/><ellipse cx="-40.1" cy="396.4" rx="3" ry="2.9"/><ellipse cx="-45.6" cy="404.9" rx="3" ry="2.9"/><ellipse cx="-25.4" cy="388" rx="3" ry="2.9"/><ellipse cx="-29.6" cy="396.4" rx="3" ry="2.9"/><ellipse cx="-35.1" cy="404.9" rx="3" ry="2.9"/><ellipse cx="-14.8" cy="388" rx="3" ry="2.9"/><ellipse cx="-19" cy="396.4" rx="3" ry="2.9"/><ellipse cx="-24.7" cy="404.9" rx="3" ry="2.9"/><ellipse cx="-5.2" cy="388" rx="3" ry="2.9"/><ellipse cx="-9.4" cy="396.4" rx="3" ry="2.9"/><ellipse cx="-15.1" cy="404.9" rx="3" ry="2.9"/><ellipse cx="4.6" cy="388" rx="3" ry="2.9"/><ellipse cx=".3" cy="396.4" rx="3" ry="2.9"/><ellipse cx="-5.2" cy="404.9" rx="3" ry="2.9"/><ellipse cx="-10.1" cy="413.1" rx="3" ry="2.9"/><ellipse cx="15.2" cy="388" rx="3" ry="2.9"/><ellipse cx="10.8" cy="396.4" rx="3" ry="2.9"/><ellipse cx="5.3" cy="404.9" rx="3" ry="2.9"/><ellipse cx=".5" cy="413.1" rx="3" ry="2.9"/><ellipse cx="25.4" cy="388" rx="3" ry="2.9"/><ellipse cx="21.1" cy="396.4" rx="3" ry="2.9"/><ellipse cx="15.6" cy="404.9" rx="3" ry="2.9"/><ellipse cx="10.8" cy="413.1" rx="3" ry="2.9"/><ellipse cx="35.8" cy="388" rx="3" ry="2.9"/><ellipse cx="31.6" cy="396.4" rx="3" ry="2.9"/><ellipse cx="26.1" cy="404.9" rx="3" ry="2.9"/><ellipse cx="21.1" cy="413.1" rx="3" ry="2.9"/><ellipse cx="45.9" cy="388" rx="3" ry="2.9"/><ellipse cx="41.6" cy="396.4" rx="3" ry="2.9"/><ellipse cx="36" cy="404.9" rx="3" ry="2.9"/><ellipse cx="31.1" cy="413.1" rx="3" ry="2.9"/><ellipse cx="56" cy="388" rx="3" ry="2.9"/><ellipse cx="51.8" cy="396.4" rx="3" ry="2.9"/><ellipse cx="46.1" cy="404.9" rx="3" ry="2.9"/><ellipse cx="41.3" cy="413.1" rx="3" ry="2.9"/><ellipse cx="65.9" cy="388" rx="3" ry="2.9"/><ellipse cx="61.7" cy="396.4" rx="3" ry="2.9"/><ellipse cx="56.2" cy="404.9" rx="3" ry="2.9"/><ellipse cx="51.4" cy="413.1" rx="3" ry="2.9"/><ellipse cx="76.4" cy="388" rx="3" ry="2.9"/><ellipse cx="72" cy="396.4" rx="3" ry="2.9"/><ellipse cx="66.6" cy="404.9" rx="3" ry="2.9"/><ellipse cx="61.8" cy="413.1" rx="3" ry="2.9"/><ellipse cx="86.8" cy="388" rx="3" ry="2.9"/><ellipse cx="82.4" cy="396.4" rx="3" ry="2.9"/><ellipse cx="76.9" cy="404.9" rx="3" ry="2.9"/><ellipse cx="97.1" cy="388" rx="3" ry="2.9"/><ellipse cx="92.9" cy="396.4" rx="3" ry="2.9"/><ellipse cx="87.4" cy="404.9" rx="3" ry="2.9"/><ellipse cx="106.9" cy="388" rx="3" ry="2.9"/><ellipse cx="102.5" cy="396.4" rx="3" ry="2.9"/><ellipse cx="97" cy="404.9" rx="3" ry="2.9"/><ellipse cx="116.8" cy="388" rx="3" ry="2.9"/></g><defs ><path id="B" d="M1050.8-671.1l2.3 3.4c-.1-1.2-.1-2.5-.1-3.7v-6.7h1.5v12.7h-1.5l-5-7-2.3-3.4c.1 1.1.1 2.5.1 4v6.5h-1.5V-678h1.5l5 6.9z"/></defs></svg>